<?xml version="1.0" encoding="utf-8"?>
<!-- Generator: Adobe Illustrator 24.0.1, SVG Export Plug-In . SVG Version: 6.00 Build 0)  -->
<svg version="1.1" id="Capa_1" xmlns="http://www.w3.org/2000/svg" xmlns:xlink="http://www.w3.org/1999/xlink" x="0px" y="0px"
	 viewBox="0 0 100 100" style="enable-background:new 0 0 100 100;" xml:space="preserve">
<style type="text/css">
	.st0{fill:#F9303A;}
	.st1{fill:#020001;}
	.st2{fill:#C8D746;}
	.st3{fill:#050404;}
</style>
<g>
	<g>
		<path class="st0" d="M23.58,41.78c-1.51,4.91-1.59,10.01-1.56,15.28c0.02,1.27,0.1,2.54,0.25,3.82
			c0.82,7.03,3.59,14.47,9.07,19.19c2.61,2.26,5.73,4.01,9.13,4.7c1.47,0.3,2.9,0.59,4.3-0.1c0.75-0.37,1.29-0.92,1.82-1.47
			c2.08,1.94,4.73,4.41,7.29,1.96c0.35-0.34,1.02-1.12,1.35-1.65c0.28,0.26,0.75,0.51,1.01,0.66c1.77,1.06,3.67,0.59,5.44-0.24
			c7.4-3.48,14.19-9.18,17.74-16.67c3.04-6.43,3.68-14.25,2.53-21.22c-1.28-7.76-6.2-13.83-14.07-15.62
			c-3.93-0.89-13.12-0.26-16.52,1.95c-0.05,0.03-0.11,0.07-0.16,0.11c-0.78-0.61-1.64-1.15-2.63-1.57c-1.89-0.8-2.59-1.18-3.34-1.38
			c-8.02-1.62-16.87,1.02-20.13,8.74C24.49,39.41,23.98,40.58,23.58,41.78z"/>
		<path class="st1" d="M23.58,41.78c-1.41,4.65-1.55,9.56-1.52,14.38c-0.03,1.21,0.13,2.41,0.19,3.62c0.05,1.21,0.25,2.4,0.46,3.59
			c0.45,2.37,1.1,4.71,2.03,6.94c1.81,4.46,4.77,8.51,8.78,11.18c1.98,1.34,4.19,2.37,6.51,2.9c1.17,0.24,2.37,0.53,3.48,0.35
			c1.14-0.15,2.04-0.88,2.84-1.78l0.22-0.24l0.25,0.23c0.66,0.6,1.31,1.19,2,1.7c0.69,0.51,1.44,0.93,2.23,1.09
			c0.78,0.14,1.57-0.05,2.19-0.57c0.62-0.48,1.2-1.22,1.64-1.89l0.28-0.41l0.37,0.33c0.27,0.24,0.74,0.49,1.13,0.7
			c0.39,0.2,0.8,0.33,1.23,0.39c0.86,0.12,1.77-0.05,2.63-0.37c1.71-0.7,3.44-1.65,5.06-2.63c3.26-2,6.25-4.45,8.76-7.32
			c2.5-2.87,4.51-6.17,5.76-9.77c1.26-3.59,1.85-7.42,1.9-11.24c0.03-1.91-0.08-3.83-0.34-5.72c-0.25-1.9-0.66-3.75-1.34-5.52
			c-1.33-3.54-3.76-6.69-6.97-8.72c-1.6-1.02-3.38-1.76-5.22-2.23c-1.83-0.47-3.78-0.52-5.69-0.5c-1.92,0.04-3.85,0.19-5.74,0.52
			c-1.88,0.34-3.8,0.77-5.41,1.79l-0.09,0.06l-0.08-0.07c-0.98-0.8-2.08-1.39-3.26-1.87c-1.18-0.48-2.27-1.17-3.55-1.26
			c-2.49-0.43-5.06-0.41-7.55,0.05c-2.49,0.44-4.89,1.42-6.95,2.89c-2.06,1.48-3.67,3.55-4.68,5.87l0,0
			C24.5,39.4,23.99,40.57,23.58,41.78z M23.58,41.78c0.4-1.21,0.9-2.39,1.52-3.51l0,0c1-2.33,2.61-4.42,4.66-5.92
			c2.06-1.49,4.47-2.5,6.97-2.95c2.5-0.48,5.08-0.51,7.6-0.1c1.3,0.07,2.45,0.76,3.61,1.22c1.18,0.46,2.35,1.06,3.35,1.85
			l-0.17-0.01c1.66-1.09,3.61-1.55,5.5-1.93c1.91-0.36,3.85-0.55,5.8-0.62c1.94-0.05,3.91-0.04,5.84,0.42
			c1.91,0.45,3.76,1.19,5.44,2.22c3.38,2.05,5.97,5.31,7.42,8.98c0.74,1.83,1.19,3.78,1.45,5.71c0.27,1.94,0.4,3.9,0.38,5.85
			c-0.03,3.91-0.61,7.84-1.89,11.56c-1.25,3.74-3.36,7.17-5.96,10.1c-2.6,2.94-5.69,5.43-9.03,7.46c-1.69,1-3.38,1.92-5.25,2.68
			c-0.95,0.34-2,0.55-3.06,0.39c-0.53-0.08-1.04-0.25-1.51-0.51c-0.45-0.26-0.85-0.45-1.31-0.85l0.64-0.08
			c-0.55,0.79-1.09,1.47-1.87,2.08c-0.75,0.62-1.85,0.88-2.82,0.67c-0.96-0.22-1.78-0.71-2.51-1.26c-0.73-0.56-1.38-1.17-2.03-1.78
			l0.47-0.01c-0.42,0.43-0.87,0.89-1.42,1.24c-0.54,0.35-1.17,0.59-1.81,0.68c-1.3,0.17-2.51-0.16-3.7-0.42
			c-2.39-0.58-4.63-1.68-6.63-3.08c-4.04-2.79-6.97-6.95-8.72-11.46c-0.89-2.26-1.53-4.61-1.97-6.99c-0.2-1.2-0.39-2.39-0.44-3.61
			c-0.05-1.21-0.2-2.42-0.17-3.63C21.98,51.34,22.14,46.43,23.58,41.78z"/>
	</g>
	<path class="st1" d="M50.96,33.46c-1.82-1.77-3.2-4.02-4.08-6.46c-0.89-2.44-1.24-5.07-1.05-7.69c0.06-0.67,0.19-1.37,0.49-2.05
		c0.31-0.68,0.79-1.28,1.37-1.71c1.17-0.87,2.57-1.23,3.94-1.18c0.67,0.03,1.53,0.17,2.07,0.89c0.24,0.34,0.38,0.76,0.32,1.2
		c-0.05,0.46-0.41,0.85-0.76,1c-0.71,0.29-1.33,0.29-1.98,0.31c-0.65,0-1.29-0.08-1.9-0.23c0.63,0.01,1.26-0.05,1.87-0.15
		c0.59-0.12,1.26-0.25,1.68-0.53c0.21-0.14,0.29-0.3,0.29-0.48c0-0.18-0.1-0.4-0.24-0.55c-0.27-0.29-0.8-0.4-1.36-0.37
		c-1.14,0.07-2.29,0.42-3.12,1.12c-0.85,0.68-1.22,1.65-1.29,2.85c-0.19,2.41,0.07,4.87,0.7,7.24
		C48.56,29.04,49.59,31.32,50.96,33.46z"/>
	<path class="st1" d="M53.33,18.65c-0.5,1.07-0.87,2.09-1.14,3.15c-0.28,1.06-0.44,2.14-0.6,3.23l-0.42,3.33
		c-0.13,1.11-0.29,2.16,0.04,3.29c-0.87-0.85-1.08-2.2-1.13-3.34c-0.05-1.16-0.03-2.31,0.13-3.48c0.16-1.16,0.45-2.32,0.96-3.41
		C51.65,20.35,52.38,19.34,53.33,18.65z"/>
	<g>
		<path class="st2" d="M52.26,29.38c1.37-2.67,2.58-5.3,3.95-7.97c0.98-1.92,2.88-3.3,4.6-4.6c2.43-1.84,5.72-1.96,8.77-1.99
			c1.94-0.02,3.88-0.03,5.82-0.02c-2.88,3.68-5.98,7.28-9.92,9.79c-1.4,0.89-2.88,1.63-4.36,2.36c-2.26,1.13-4.53,2.25-6.79,3.38
			c0.91-1.5,1.82-3.01,2.72-4.51c0.59-0.97,1.18-1.95,1.96-2.78c0.78-0.83,1.72-1.49,2.67-2.11c2-1.3,4.13-2.44,6.43-3.05"/>
		<path class="st3" d="M52.26,29.38l3.29-6.86c0.28-0.57,0.52-1.15,0.86-1.71c0.34-0.55,0.75-1.05,1.19-1.51
			c0.89-0.92,1.91-1.7,2.92-2.47c2.04-1.66,4.75-2.05,7.26-2.16c2.55-0.09,5.08-0.06,7.62-0.1l0.47-0.01l-0.29,0.37
			c-2.7,3.49-5.63,6.95-9.36,9.45c-1.86,1.26-3.88,2.2-5.86,3.18l-5.96,2.93l-0.54,0.27l0.32-0.52l2.51-4.1
			c0.83-1.36,1.66-2.79,2.92-3.85c1.25-1.04,2.64-1.85,4.05-2.63c1.41-0.76,2.9-1.39,4.46-1.78c-1.55,0.43-3.01,1.1-4.4,1.9
			c-1.37,0.81-2.75,1.66-3.94,2.71c-1.21,1.03-2.01,2.44-2.83,3.81l-2.47,4.13l-0.23-0.25l5.93-2.99c1.97-1,3.97-1.95,5.78-3.2
			c3.61-2.51,6.53-5.88,9.27-9.33l0.18,0.37c-2.53,0.01-5.07-0.04-7.6,0.03c-2.49,0.09-5.11,0.45-7.09,2.03
			c-1.01,0.76-2.03,1.52-2.91,2.41c-0.44,0.44-0.84,0.93-1.18,1.45c-0.34,0.52-0.6,1.11-0.9,1.66L52.26,29.38z"/>
	</g>
</g>
</svg>
