<?xml version="1.0" encoding="utf-8"?>
<!-- Generator: Adobe Illustrator 24.0.1, SVG Export Plug-In . SVG Version: 6.00 Build 0)  -->
<svg version="1.1" id="Capa_1" xmlns="http://www.w3.org/2000/svg" xmlns:xlink="http://www.w3.org/1999/xlink" x="0px" y="0px"
	 viewBox="0 0 100 100" style="enable-background:new 0 0 100 100;" xml:space="preserve">
<style type="text/css">
	.st0{fill:#F53737;}
	.st1{fill:#14040A;}
	.st2{fill:#D34472;}
	.st3{fill:#050002;}
</style>
<g>
	<g>
		<path class="st0" d="M83.58,73.35c-8.29,1.57-13.36-1.35-14.85-2.62c-1.49-1.27-4.63-5.82-4.94-14.25c-0.3-8.51-8.4-14.9-8.4-14.9
			s-7.84-7.19-16.04-5.93C31.02,36.92,26,34.3,24.51,33.03c-1.49-1.27-5.18-5.81-4.94-14.25c0.31-10.94-8.4-14.9-8.4-14.9L3.4,12.99
			c0,0,5.29,3.02,6.15,13.75C10.42,37.7,14.1,41,16.19,42.78c2.09,1.78,5.91,4.46,16.89,4.02c9.53-0.38,14.55,3.89,14.55,3.89
			s4.52,3.92,6.15,13.75c1.79,10.84,4.55,14.26,6.64,16.04c2.09,1.78,5.94,4.89,16.89,4.02c10.73-0.85,14.55,3.89,14.55,3.89
			l7.77-9.12C99.63,79.29,94.34,71.31,83.58,73.35z"/>
		<path class="st1" d="M83.58,73.35c-3.95,0.75-8.17,0.66-11.94-0.9c-0.93-0.39-1.84-0.87-2.65-1.47c-0.82-0.61-1.42-1.45-1.97-2.3
			c-1.07-1.72-1.82-3.63-2.34-5.58c-0.51-1.96-0.8-3.98-0.91-6c-0.08-2.02-0.45-4.02-1.23-5.88c-1.54-3.73-4.15-6.97-7.2-9.57l0,0
			l0,0c-2.1-1.8-4.46-3.31-6.99-4.42c-1.27-0.54-2.58-1.01-3.93-1.27c-0.67-0.18-1.36-0.2-2.04-0.3c-0.69,0-1.38-0.08-2.06,0.02
			c-0.68,0.05-1.37,0.14-2.06,0.23c-0.69,0.09-1.39,0.13-2.08,0.17c-1.39,0.07-2.79,0.01-4.18-0.16c-1.39-0.17-2.76-0.48-4.08-0.94
			c-1.31-0.47-2.61-1.07-3.69-2.02c-2.04-1.98-3.3-4.59-4.05-7.28c-0.37-1.35-0.59-2.74-0.71-4.13c-0.12-1.39-0.05-2.81-0.11-4.17
			c-0.04-1.37-0.29-2.73-0.65-4.05c-0.43-1.3-0.94-2.58-1.69-3.74c-1.45-2.31-3.52-4.28-5.93-5.52l0.27-0.06l-7.75,9.13l-0.07-0.38
			c1.23,0.81,2.14,1.9,2.93,3.07c0.78,1.17,1.41,2.44,1.88,3.76c1,2.63,1.35,5.45,1.6,8.19c0.29,2.73,0.76,5.46,1.71,8.03
			c0.94,2.57,2.45,4.92,4.58,6.65c1.03,0.91,2.16,1.66,3.4,2.23c1.24,0.57,2.56,0.96,3.9,1.25c2.69,0.55,5.46,0.7,8.21,0.65
			c2.75-0.09,5.59-0.08,8.31,0.58c2.72,0.6,5.38,1.63,7.65,3.32c2.04,2,3.37,4.5,4.4,7.08c1.05,2.58,1.6,5.34,2.06,8.06
			c0.49,2.72,1.11,5.42,2.06,8.01c0.95,2.57,2.27,5.09,4.42,6.84c2.06,1.85,4.64,3,7.35,3.53c2.7,0.55,5.49,0.61,8.25,0.45
			c2.75-0.18,5.57-0.28,8.3,0.28c1.37,0.25,2.7,0.67,3.97,1.25c1.26,0.58,2.47,1.32,3.42,2.36l-0.09,0l7.79-9.1l0,0.04
			c-0.88-1.21-1.97-2.27-3.18-3.17c-1.2-0.9-2.53-1.64-3.95-2.14c-1.41-0.5-2.89-0.86-4.4-0.92c-0.75-0.09-1.5-0.02-2.25,0
			C85.07,73.12,84.33,73.26,83.58,73.35z M83.58,73.35c0.75-0.09,1.49-0.24,2.24-0.28c0.75-0.01,1.51-0.09,2.26-0.01
			c1.51,0.05,2.99,0.41,4.41,0.9c1.42,0.5,2.76,1.23,3.97,2.13c1.21,0.89,2.31,1.95,3.2,3.17l0.02,0.02l-0.02,0.02l-7.75,9.13
			l-0.04,0.05l-0.05-0.05c-0.93-1-2.14-1.74-3.38-2.31c-1.26-0.56-2.58-0.98-3.94-1.22c-2.72-0.55-5.5-0.44-8.26-0.25
			c-2.77,0.17-5.56,0.12-8.3-0.42c-1.36-0.28-2.71-0.68-3.97-1.27c-1.27-0.58-2.44-1.38-3.49-2.28c-2.2-1.78-3.55-4.34-4.52-6.93
			c-0.96-2.61-1.6-5.32-2.1-8.05c-0.47-2.73-1.02-5.44-2.07-7.99c-1.01-2.54-2.38-5.03-4.31-6.91c-2.19-1.62-4.82-2.63-7.49-3.21
			c-2.69-0.63-5.44-0.63-8.21-0.53c-2.78,0.06-5.57-0.08-8.32-0.63c-1.37-0.29-2.72-0.69-4-1.27c-1.28-0.58-2.48-1.38-3.53-2.3
			c-1.07-0.9-2.06-1.93-2.84-3.1c-0.79-1.17-1.41-2.44-1.91-3.75c-0.98-2.63-1.49-5.4-1.77-8.17c-0.25-2.76-0.57-5.49-1.54-8.07
			c-0.45-1.29-1.06-2.52-1.81-3.66c-0.74-1.12-1.67-2.2-2.75-2.92l-0.25-0.17l0.18-0.21L11,3.73l0.12-0.14l0.15,0.08
			c2.53,1.31,4.61,3.33,6.1,5.71c0.76,1.19,1.28,2.51,1.72,3.84c0.36,1.36,0.61,2.75,0.65,4.15c0.06,1.41-0.03,2.78,0.09,4.16
			c0.11,1.37,0.33,2.74,0.68,4.07c0.72,2.64,1.97,5.22,3.92,7.13c1.01,0.9,2.28,1.5,3.57,1.97c1.3,0.46,2.65,0.77,4.02,0.94
			c1.37,0.17,2.75,0.24,4.13,0.17c0.69-0.04,1.38-0.08,2.07-0.16c0.68-0.09,1.37-0.17,2.08-0.23c0.7-0.1,1.4-0.01,2.1-0.02
			c0.69,0.1,1.4,0.14,2.07,0.32c1.38,0.26,2.69,0.75,3.97,1.3c2.55,1.13,4.92,2.65,7.03,4.48l-0.01,0c3.08,2.64,5.68,5.89,7.22,9.66
			c0.78,1.88,1.14,3.91,1.22,5.93c0.1,2.02,0.38,4.02,0.88,5.98c0.51,1.95,1.25,3.85,2.31,5.57c0.54,0.84,1.14,1.68,1.95,2.29
			c0.81,0.6,1.7,1.08,2.63,1.47C75.41,73.98,79.63,74.09,83.58,73.35z"/>
	</g>
	<g>
		<path class="st2" d="M89.73,77.91c-4.31-0.95-16.75,1.89-23.69-4.03c-6.94-5.91-6.1-18.65-7.73-22.75
			c-1.73-4.36-5.11-6.98-5.11-6.98s-3.12-2.93-7.7-3.95c-4.31-0.95-16.75,1.89-23.69-4.03c-6.94-5.91-6.1-18.65-7.73-22.75
			c-1.73-4.36-5.31-6.74-5.31-6.74L6.34,9.54c6.27,5.52,5.6,10.56,6.83,17.74c1.03,5.98,3.71,10.31,5.87,12.15
			c2.17,1.85,6.05,3.8,12.93,3.87c7.28,0.08,12.16-1.38,18.59,3.94c6.27,5.52,5.6,10.56,6.83,17.74c1.03,5.98,3.71,10.31,5.87,12.15
			c2.17,1.85,6.05,3.8,12.93,3.88c7.28,0.08,12.15-1.38,18.59,3.94l2.44-2.86C97.23,82.1,94.32,78.93,89.73,77.91z"/>
		<path class="st3" d="M89.73,77.91c-1.18-0.24-2.4-0.2-3.6-0.21l-3.61,0.08c-2.41,0.05-4.82,0.03-7.22-0.27
			c-2.39-0.3-4.77-0.88-6.91-2.01c-2.15-1.11-3.94-2.86-5.18-4.93c-1.26-2.06-2.07-4.37-2.65-6.71c-0.58-2.34-0.94-4.73-1.26-7.12
			c-0.37-2.37-0.52-4.83-1.7-6.94c-1.1-2.12-2.64-4.03-4.47-5.55l0,0l-0.01-0.01c-2.07-1.79-4.57-3.13-7.24-3.8
			c-1.33-0.34-2.72-0.31-4.1-0.3l-4.15,0.09c-2.77,0.03-5.57-0.04-8.31-0.55c-2.73-0.53-5.43-1.54-7.61-3.34
			c-2.14-1.85-3.58-4.36-4.55-6.97c-0.97-2.63-1.48-5.38-1.91-8.12l-0.59-4.11c-0.22-1.36-0.41-2.73-0.95-3.97
			c-1.08-2.49-2.9-4.68-5.08-6.27l0.34-0.05L6.54,9.72L6.52,9.34c1.04,0.94,2.03,1.95,2.88,3.08c0.83,1.14,1.52,2.4,2.01,3.72
			c1,2.66,1.24,5.48,1.6,8.22c0.34,2.75,0.81,5.48,1.82,8.04c1,2.54,2.35,5.04,4.37,6.86c2.09,1.76,4.73,2.79,7.42,3.31
			c2.7,0.55,5.48,0.58,8.25,0.5c2.76-0.06,5.58-0.25,8.35,0.31c1.38,0.28,2.71,0.75,3.96,1.39c1.25,0.65,2.39,1.47,3.48,2.35
			c1.03,0.94,2.02,1.95,2.85,3.08c0.82,1.14,1.5,2.38,1.98,3.7c0.98,2.64,1.23,5.45,1.59,8.19c0.34,2.75,0.81,5.5,1.83,8.08
			c1.01,2.56,2.36,5.07,4.41,6.92c2.11,1.78,4.78,2.81,7.48,3.34c2.72,0.55,5.51,0.58,8.28,0.5c2.77-0.06,5.58-0.25,8.32,0.31
			c1.36,0.28,2.69,0.75,3.93,1.38c1.23,0.65,2.37,1.46,3.45,2.33l-0.04,0l2.44-2.85l0,0.02c-1.01-1.03-2.19-1.9-3.45-2.61
			C92.51,78.77,91.14,78.24,89.73,77.91z M89.73,77.91c1.41,0.32,2.78,0.85,4.04,1.56c1.26,0.71,2.45,1.57,3.47,2.61l0.01,0.01
			l-0.01,0.01l-2.43,2.86l-0.02,0.02l-0.02-0.02c-1.09-0.86-2.22-1.67-3.45-2.31c-1.24-0.62-2.55-1.09-3.91-1.35
			c-2.73-0.55-5.53-0.35-8.3-0.27c-2.77,0.09-5.58,0.08-8.32-0.47c-2.73-0.52-5.42-1.54-7.58-3.35c-2.11-1.88-3.47-4.4-4.5-6.98
			c-1.04-2.6-1.52-5.37-1.88-8.12c-0.37-2.75-0.64-5.54-1.61-8.12c-0.48-1.29-1.15-2.5-1.96-3.61c-0.82-1.1-1.8-2.09-2.81-3.01
			c-1.08-0.86-2.21-1.65-3.43-2.29c-1.23-0.62-2.53-1.08-3.88-1.34c-2.7-0.54-5.49-0.35-8.26-0.27c-2.77,0.09-5.59,0.08-8.35-0.47
			c-2.74-0.52-5.46-1.55-7.64-3.38c-2.14-1.91-3.5-4.45-4.54-7.04c-1.05-2.61-1.53-5.4-1.89-8.15c-0.37-2.75-0.64-5.53-1.6-8.09
			c-0.47-1.28-1.12-2.49-1.92-3.59c-0.81-1.1-1.77-2.08-2.79-3.01L5.97,9.57l0.17-0.2l2.44-2.85l0.16-0.18l0.18,0.14
			c2.29,1.68,4.12,3.91,5.24,6.51c0.57,1.32,0.75,2.73,0.96,4.09l0.57,4.12c0.41,2.73,0.91,5.46,1.85,8.04
			c0.94,2.57,2.34,5.02,4.41,6.82c2.1,1.76,4.74,2.76,7.43,3.29c2.71,0.52,5.48,0.6,8.24,0.58l4.16-0.07c1.38,0,2.8-0.03,4.17,0.33
			c2.71,0.69,5.22,2.06,7.33,3.89l-0.01-0.01c1.86,1.57,3.4,3.49,4.51,5.65c1.2,2.15,1.34,4.65,1.7,7.01
			c0.32,2.39,0.66,4.77,1.23,7.11c0.57,2.33,1.36,4.63,2.61,6.68c1.23,2.06,2.99,3.8,5.12,4.91c2.12,1.13,4.49,1.72,6.87,2.03
			c2.39,0.31,4.8,0.34,7.21,0.3l3.61-0.06C87.33,77.7,88.55,77.67,89.73,77.91z"/>
	</g>
</g>
</svg>
