<?xml version="1.0" encoding="utf-8"?>
<!-- Generator: Adobe Illustrator 24.0.1, SVG Export Plug-In . SVG Version: 6.00 Build 0)  -->
<svg version="1.1" id="Capa_1" xmlns="http://www.w3.org/2000/svg" xmlns:xlink="http://www.w3.org/1999/xlink" x="0px" y="0px"
	 viewBox="0 0 100 100" style="enable-background:new 0 0 100 100;" xml:space="preserve">
<style type="text/css">
	.st0{fill:#D34472;}
	.st1{fill:#050002;}
	.st2{fill:#F53737;}
	.st3{fill:#14040A;}
</style>
<g>
	<g>
		<path class="st0" d="M38.21,62.75c0,3.59-5.92,10.36-5.5,18.19c0.42,7.83,12.69,18.19,28.13,6.35
			c15.44-11.85,20.17-40.99,11.61-61.7C62.11,0.56,26.01,6.04,25.94,27.85C25.88,46.25,38.21,45.62,38.21,62.75z"/>
		<path class="st1" d="M38.21,62.75c-0.04,1.17-0.5,2.27-0.94,3.33c-0.47,1.06-0.98,2.1-1.47,3.15c-0.98,2.1-1.92,4.23-2.47,6.49
			c-0.29,1.12-0.48,2.27-0.55,3.42c-0.06,0.58-0.01,1.16-0.02,1.73c0.08,0.57,0.14,1.15,0.27,1.7c0.59,2.24,1.9,4.24,3.56,5.83
			c3.32,3.26,8.22,4.6,12.76,3.93c0.58-0.03,1.13-0.19,1.69-0.33c0.56-0.15,1.13-0.25,1.67-0.44l1.61-0.63l0.81-0.31l0.76-0.41
			c1.01-0.56,2.06-1.05,2.98-1.75c0.94-0.67,1.93-1.27,2.76-2.08c3.54-2.97,6.35-6.73,8.51-10.81c2.12-4.11,3.63-8.51,4.66-13.01
			c1.06-4.5,1.53-9.13,1.56-13.74c0.03-4.61-0.35-9.25-1.37-13.75c-0.19-1.14-0.51-2.25-0.82-3.36c-0.3-1.11-0.58-2.23-1.01-3.31
			c-0.77-2.17-1.56-4.35-2.77-6.31c-2.27-4-5.67-7.32-9.67-9.58c-4.04-2.2-8.64-3.34-13.25-3.28c-4.6,0.08-9.22,1.29-13.1,3.78
			c-3.88,2.45-6.89,6.38-7.87,10.91l-0.29,1.7c-0.08,0.57-0.08,1.15-0.12,1.72c-0.05,1.15,0.06,2.31,0.08,3.47
			c0.12,1.15,0.25,2.3,0.46,3.43c0.27,1.12,0.49,2.26,0.92,3.34c0.75,2.19,1.86,4.24,3.17,6.15c1.29,1.92,2.71,3.77,3.92,5.75
			C37.19,53.41,38.22,58.13,38.21,62.75z M38.21,62.75c-0.02-4.62-1.07-9.33-3.64-13.22c-1.22-1.97-2.65-3.8-3.95-5.72
			c-1.32-1.91-2.45-3.97-3.22-6.16c-0.44-1.08-0.67-2.23-0.95-3.36c-0.22-1.14-0.36-2.3-0.49-3.45c-0.03-1.16-0.15-2.32-0.1-3.49
			c0.04-0.58,0.04-1.17,0.12-1.74l0.28-1.73c0.97-4.6,4.01-8.61,7.93-11.12c3.93-2.55,8.61-3.8,13.27-3.91
			c4.67-0.09,9.36,1.05,13.48,3.26c4.09,2.28,7.58,5.65,9.92,9.71c1.25,1.99,2.07,4.2,2.85,6.39c0.44,1.08,0.73,2.21,1.04,3.34
			c0.31,1.12,0.65,2.24,0.84,3.39c1,4.56,1.36,9.24,1.3,13.89c-0.05,4.65-0.56,9.31-1.65,13.84c-1.07,4.53-2.61,8.96-4.77,13.09
			c-2.2,4.1-5.06,7.89-8.65,10.87c-0.84,0.81-1.85,1.41-2.8,2.08c-0.93,0.71-2,1.2-3.02,1.75l-0.77,0.41l-0.82,0.31l-1.63,0.63
			c-0.55,0.19-1.13,0.29-1.69,0.44c-0.57,0.13-1.13,0.3-1.72,0.32c-4.6,0.65-9.56-0.73-12.9-4.05c-1.66-1.62-2.98-3.65-3.56-5.91
			c-0.13-0.57-0.19-1.15-0.26-1.73c0.01-0.58-0.04-1.17,0.03-1.74c0.08-1.16,0.27-2.31,0.57-3.43c0.57-2.26,1.52-4.39,2.51-6.48
			c0.5-1.05,1.01-2.09,1.49-3.15C37.7,65.01,38.16,63.92,38.21,62.75z"/>
	</g>
	<g>
		<g>
			<path class="st2" d="M81,48.12C81,48.12,81,48.12,81,48.12c0,17.98-6.72,34.3-17.53,42.6c-11.22,8.6-20.27,6.49-24.67,4.47
				c-5.92-2.72-10.1-8.36-10.41-14.01c-0.32-5.84,2.15-11.03,3.93-14.74c0.63-1.32,1.5-3.12,1.56-3.74c0-6.95-2.28-10.13-5.17-14.15
				c-3.33-4.63-7.1-9.89-7.1-20.57v-0.14C21.65,16.56,29.59,7.71,41.83,5.3c11.99-2.36,27.93,2.47,34.61,18.64
				C79.43,31.15,81,39.51,81,48.12z M37.01,80.14c0,0.19,0,0.38,0.02,0.57c0.11,2.06,2.04,5.08,5.39,6.62
				c4.54,2.09,10.15,0.86,15.79-3.47c8.72-6.69,14.14-20.38,14.14-35.73c0-7.49-1.35-14.71-3.9-20.89
				C63.61,15.51,52.43,12.03,43.5,13.78c-9.74,1.92-13.22,8.53-13.24,14.08v0.11c0,7.9,2.54,11.43,5.48,15.52
				c3.18,4.43,6.79,9.46,6.79,19.25c0,2.39-1.12,4.72-2.41,7.42C38.67,73.22,37.01,76.67,37.01,80.14z"/>
			<g>
				<path class="st3" d="M81,48.12c0.01,9.31-1.75,18.68-5.63,27.17c-1.93,4.25-4.5,8.21-7.65,11.66c-1.6,1.7-3.33,3.29-5.25,4.63
					c-1.88,1.38-3.91,2.57-6.06,3.5c-4.26,1.9-9.14,2.61-13.74,1.58c-4.59-0.99-8.8-3.72-11.55-7.55c-1.36-1.91-2.39-4.11-2.78-6.45
					c-0.39-2.35-0.19-4.73,0.28-7.03c0.48-2.31,1.3-4.52,2.24-6.66c0.47-1.07,0.98-2.12,1.47-3.18l0.72-1.58
					c0.22-0.52,0.47-1.09,0.56-1.56l0,0.03c-0.01-2.84-0.42-5.71-1.61-8.29c-1.16-2.59-2.98-4.83-4.61-7.21
					c-1.66-2.36-3.15-4.89-4.15-7.62c-1-2.73-1.57-5.61-1.76-8.5c-0.2-2.88-0.14-5.82,0.57-8.65c0.69-2.82,1.96-5.51,3.7-7.83
					c3.52-4.66,8.83-7.72,14.43-9.09c11.23-2.86,23.97,1.05,31.32,10.04c3.71,4.46,5.9,9.94,7.37,15.49
					C80.33,36.61,81,42.37,81,48.12z M81,48.12c-0.03-5.75-0.73-11.51-2.21-17.07c-1.5-5.53-3.71-10.99-7.42-15.4
					c-7.35-8.91-20.02-12.71-31.1-9.82c-5.53,1.38-10.74,4.43-14.17,9.01c-1.7,2.28-2.92,4.92-3.59,7.68
					c-0.68,2.77-0.73,5.65-0.52,8.5c0.2,2.85,0.78,5.67,1.77,8.34c0.99,2.67,2.46,5.14,4.12,7.47c1.64,2.34,3.48,4.62,4.67,7.31
					c1.22,2.68,1.62,5.64,1.62,8.53l0,0.02l0,0.01c-0.13,0.68-0.38,1.17-0.61,1.72l-0.74,1.59c-0.51,1.05-1.01,2.1-1.48,3.15
					c-0.94,2.12-1.76,4.29-2.24,6.55c-0.47,2.25-0.67,4.59-0.31,6.85c0.36,2.26,1.35,4.41,2.67,6.28c2.67,3.76,6.78,6.46,11.29,7.45
					c4.52,1.03,9.32,0.36,13.56-1.5c2.13-0.91,4.15-2.08,6.03-3.44c1.91-1.32,3.64-2.89,5.24-4.57c3.14-3.42,5.73-7.35,7.67-11.58
					C79.16,66.78,80.96,57.43,81,48.12z"/>
				<path class="st3" d="M37.01,80.14c-0.03,1.02,0.27,2.03,0.76,2.92c0.48,0.9,1.14,1.69,1.87,2.39c1.49,1.39,3.39,2.3,5.39,2.66
					c2.01,0.34,4.08,0.12,6.01-0.47c1.94-0.6,3.77-1.53,5.45-2.67c1.69-1.12,3.24-2.45,4.65-3.91c1.36-1.51,2.65-3.08,3.71-4.82
					c2.21-3.41,3.76-7.22,4.93-11.1c1.16-3.89,1.86-7.92,2.16-11.97c0.29-4.05,0.26-8.13-0.25-12.16c-0.5-4.03-1.39-8.01-2.79-11.81
					c-0.34-0.95-0.72-1.89-1.17-2.8c-0.22-0.45-0.41-0.92-0.66-1.36l-0.76-1.3c-1.1-1.68-2.33-3.3-3.86-4.6
					c-5.93-5.51-15.08-6.92-22.6-4.05c-3.75,1.4-7.07,4.23-8.5,8.02c-0.76,1.87-1,3.9-0.91,5.92c0.04,2.03,0.3,4.05,0.85,5.99
					c0.54,1.95,1.44,3.78,2.53,5.49c1.09,1.71,2.33,3.33,3.47,5.02c1.15,1.68,2.19,3.46,3.01,5.33c0.83,1.87,1.4,3.85,1.76,5.86
					c0.36,2.01,0.51,4.05,0.51,6.09c-0.03,2.07-0.86,4.01-1.71,5.84c-0.86,1.85-1.8,3.66-2.55,5.55
					C37.59,76.1,37.03,78.09,37.01,80.14z M37.01,80.14c0.01-2.04,0.55-4.05,1.29-5.94c0.73-1.9,1.66-3.72,2.51-5.57
					c0.84-1.84,1.64-3.77,1.66-5.81c-0.01-2.03-0.17-4.07-0.54-6.07c-0.38-2-0.95-3.96-1.79-5.81c-0.82-1.86-1.86-3.61-3.02-5.28
					c-1.15-1.68-2.4-3.29-3.51-5.01c-1.11-1.72-2.03-3.58-2.6-5.55c-0.57-1.97-0.84-4.02-0.9-6.07c-0.11-2.04,0.13-4.15,0.89-6.07
					c1.44-3.92,4.86-6.87,8.69-8.32c3.85-1.46,8.08-1.93,12.15-1.22c2.03,0.34,4.02,0.96,5.89,1.82c1.87,0.88,3.59,2.06,5.14,3.43
					c1.57,1.36,2.82,3.03,3.93,4.76l0.77,1.34c0.26,0.44,0.44,0.93,0.67,1.39c0.45,0.93,0.82,1.88,1.17,2.85
					c1.39,3.86,2.26,7.88,2.74,11.94c0.48,4.06,0.49,8.17,0.17,12.24c-0.33,4.07-1.05,8.12-2.25,12.03
					c-1.2,3.9-2.79,7.71-5.03,11.14c-1.07,1.74-2.39,3.32-3.76,4.83c-1.43,1.46-3,2.79-4.71,3.91c-1.7,1.13-3.55,2.05-5.51,2.65
					c-1.96,0.59-4.04,0.79-6.06,0.44c-2.01-0.37-3.92-1.3-5.4-2.71c-0.74-0.7-1.39-1.51-1.86-2.41
					C37.26,82.17,36.98,81.16,37.01,80.14z"/>
			</g>
		</g>
	</g>
	<g>
		<g>
			<path class="st2" d="M64.74,65.67c0.82-0.23,1.67,0.24,1.91,1.07l0,0c0.23,0.82-0.24,1.68-1.07,1.91l-20.84,5.9
				c-0.82,0.23-1.67-0.24-1.91-1.07l0,0c-0.23-0.82,0.24-1.68,1.07-1.91L64.74,65.67z"/>
			<path class="st3" d="M64.74,65.67c0.53-0.16,1.14,0,1.53,0.4c0.39,0.39,0.55,1.01,0.39,1.55c-0.16,0.54-0.63,0.97-1.18,1.09
				l-1.59,0.46l-6.35,1.91c-4.23,1.29-8.46,2.54-12.71,3.76c-0.64,0.18-1.37-0.02-1.83-0.49c-0.46-0.47-0.64-1.2-0.43-1.83
				c0.18-0.63,0.77-1.13,1.37-1.25l1.6-0.44l6.41-1.7C56.22,68.02,60.49,66.85,64.74,65.67z M64.74,65.67
				c-4.25,1.22-8.49,2.47-12.71,3.76l-6.35,1.91l-1.59,0.46c-0.49,0.11-0.83,0.45-0.97,0.88c-0.14,0.43,0,0.92,0.31,1.24
				c0.31,0.32,0.8,0.44,1.23,0.32c4.26-1.19,8.52-2.35,12.8-3.46l6.41-1.7l1.6-0.44c0.54-0.11,0.99-0.52,1.15-1.04
				c0.17-0.52,0.02-1.13-0.36-1.52C65.88,65.68,65.28,65.52,64.74,65.67z"/>
		</g>
		<g>
			<path class="st2" d="M66.9,56.3c0.82-0.23,1.68,0.24,1.91,1.07l0,0c0.23,0.82-0.24,1.68-1.07,1.91l-20.83,5.9
				c-0.82,0.23-1.68-0.25-1.91-1.07l0,0c-0.23-0.82,0.24-1.68,1.07-1.91L66.9,56.3z"/>
			<path class="st3" d="M66.9,56.3c0.53-0.16,1.14,0,1.53,0.4c0.39,0.39,0.56,1.01,0.39,1.55c-0.16,0.54-0.63,0.97-1.18,1.09
				l-1.59,0.46l-6.35,1.91c-4.23,1.29-8.46,2.54-12.71,3.76c-0.64,0.18-1.37-0.02-1.83-0.49c-0.46-0.47-0.64-1.2-0.44-1.83
				c0.18-0.63,0.77-1.13,1.37-1.25l1.6-0.44l6.41-1.7C58.38,58.65,62.65,57.48,66.9,56.3z M66.9,56.3
				c-4.25,1.22-8.49,2.47-12.71,3.76l-6.35,1.91l-1.59,0.46c-0.49,0.11-0.83,0.45-0.96,0.88c-0.14,0.43,0,0.92,0.31,1.24
				c0.32,0.32,0.8,0.44,1.23,0.32c4.26-1.19,8.52-2.35,12.8-3.46l6.41-1.7l1.6-0.44c0.54-0.11,0.99-0.52,1.15-1.04
				c0.17-0.52,0.02-1.13-0.36-1.52C68.04,56.31,67.44,56.15,66.9,56.3z"/>
		</g>
		<g>
			<path class="st2" d="M67.62,48.37c0.82-0.23,1.68,0.24,1.91,1.07l0,0c0.23,0.82-0.24,1.68-1.07,1.91l-20.83,5.9
				c-0.82,0.23-1.68-0.24-1.91-1.07l0,0c-0.23-0.82,0.24-1.68,1.07-1.91L67.62,48.37z"/>
			<path class="st3" d="M67.62,48.37c0.53-0.16,1.14,0,1.53,0.4c0.39,0.39,0.56,1.01,0.39,1.55c-0.16,0.54-0.63,0.97-1.18,1.09
				l-1.59,0.46l-6.35,1.91c-4.23,1.29-8.46,2.54-12.71,3.76c-0.64,0.18-1.37-0.02-1.83-0.49c-0.46-0.48-0.64-1.2-0.43-1.83
				c0.18-0.63,0.77-1.13,1.37-1.25l1.6-0.44l6.41-1.7C59.11,50.72,63.37,49.56,67.62,48.37z M67.62,48.37
				c-4.25,1.22-8.49,2.47-12.71,3.76l-6.35,1.91l-1.59,0.46c-0.49,0.11-0.83,0.45-0.97,0.88c-0.14,0.43,0,0.92,0.31,1.24
				c0.31,0.32,0.8,0.44,1.23,0.32c4.26-1.19,8.52-2.35,12.8-3.46l6.41-1.7l1.6-0.44c0.54-0.11,0.99-0.52,1.15-1.04
				c0.17-0.52,0.02-1.13-0.36-1.52C68.76,48.39,68.16,48.22,67.62,48.37z"/>
		</g>
		<g>
			<path class="st2" d="M67.62,39.72c0.82-0.23,1.68,0.24,1.91,1.07l0,0c0.23,0.82-0.24,1.68-1.07,1.91l-20.83,5.9
				c-0.82,0.23-1.68-0.24-1.91-1.07l0,0c-0.23-0.82,0.24-1.68,1.07-1.91L67.62,39.72z"/>
			<path class="st3" d="M67.62,39.72c0.53-0.16,1.14,0,1.53,0.4c0.39,0.39,0.56,1.01,0.39,1.55c-0.16,0.54-0.63,0.97-1.18,1.09
				l-1.59,0.46l-6.35,1.91c-4.23,1.29-8.46,2.54-12.71,3.76c-0.64,0.18-1.37-0.02-1.83-0.49c-0.46-0.48-0.64-1.2-0.43-1.83
				c0.18-0.63,0.77-1.13,1.37-1.25l1.6-0.44l6.41-1.7C59.11,42.07,63.37,40.91,67.62,39.72z M67.62,39.72
				c-4.25,1.22-8.49,2.47-12.71,3.76l-6.35,1.91l-1.59,0.46c-0.49,0.11-0.83,0.45-0.97,0.88c-0.14,0.43,0,0.92,0.31,1.24
				c0.31,0.32,0.8,0.44,1.23,0.32c4.26-1.19,8.52-2.35,12.8-3.46l6.41-1.7l1.6-0.44c0.54-0.11,0.99-0.52,1.15-1.04
				c0.17-0.52,0.02-1.13-0.36-1.52C68.76,39.74,68.16,39.57,67.62,39.72z"/>
		</g>
		<g>
			<path class="st2" d="M64.74,32.51c0.82-0.23,1.67,0.24,1.91,1.07l0,0c0.23,0.82-0.24,1.68-1.07,1.91l-20.84,5.9
				c-0.82,0.23-1.67-0.25-1.91-1.07l0,0c-0.23-0.82,0.24-1.68,1.07-1.91L64.74,32.51z"/>
			<path class="st3" d="M64.74,32.51c0.53-0.16,1.14,0,1.53,0.4c0.39,0.39,0.56,1.01,0.39,1.55c-0.16,0.54-0.63,0.97-1.18,1.09
				l-1.59,0.46l-6.35,1.91c-4.23,1.29-8.46,2.54-12.71,3.76c-0.64,0.18-1.37-0.02-1.83-0.5c-0.46-0.47-0.64-1.2-0.43-1.83
				c0.18-0.63,0.77-1.13,1.37-1.25l1.6-0.44l6.41-1.7C56.22,34.86,60.49,33.7,64.74,32.51z M64.74,32.51
				c-4.25,1.22-8.49,2.47-12.71,3.76l-6.35,1.91l-1.59,0.46c-0.49,0.11-0.83,0.45-0.97,0.88c-0.14,0.43,0,0.92,0.31,1.24
				c0.31,0.32,0.8,0.44,1.23,0.32c4.26-1.19,8.52-2.35,12.8-3.46l6.41-1.7l1.6-0.44c0.54-0.11,0.99-0.52,1.15-1.04
				c0.17-0.52,0.02-1.13-0.36-1.52C65.88,32.53,65.28,32.36,64.74,32.51z"/>
		</g>
		<g>
			<path class="st2" d="M59.7,25.31c0.82-0.23,1.68,0.24,1.91,1.07l0,0c0.23,0.82-0.24,1.68-1.07,1.91l-20.84,5.9
				c-0.82,0.23-1.67-0.24-1.91-1.07l0,0c-0.23-0.82,0.24-1.68,1.07-1.91L59.7,25.31z"/>
			<path class="st3" d="M59.7,25.31c0.53-0.16,1.14,0,1.53,0.4c0.39,0.39,0.55,1.01,0.39,1.55c-0.16,0.54-0.63,0.97-1.18,1.09
				l-1.59,0.46l-6.35,1.91c-4.23,1.29-8.46,2.54-12.71,3.76c-0.64,0.18-1.37-0.02-1.83-0.49c-0.46-0.47-0.64-1.2-0.43-1.83
				c0.18-0.63,0.77-1.13,1.37-1.25l1.6-0.44l6.41-1.7C51.18,27.65,55.44,26.49,59.7,25.31z M59.7,25.31
				c-4.25,1.22-8.49,2.47-12.71,3.76l-6.35,1.91l-1.59,0.46c-0.49,0.11-0.83,0.45-0.97,0.88c-0.14,0.43,0,0.92,0.31,1.24
				c0.32,0.32,0.8,0.44,1.23,0.32c4.26-1.19,8.52-2.35,12.8-3.46l6.41-1.7l1.6-0.44c0.54-0.11,0.99-0.52,1.15-1.04
				c0.17-0.52,0.02-1.13-0.36-1.52C60.83,25.32,60.23,25.16,59.7,25.31z"/>
		</g>
	</g>
</g>
</svg>
