<?xml version="1.0" encoding="utf-8"?>
<!-- Generator: Adobe Illustrator 24.0.1, SVG Export Plug-In . SVG Version: 6.00 Build 0)  -->
<svg version="1.1" id="Capa_1" xmlns="http://www.w3.org/2000/svg" xmlns:xlink="http://www.w3.org/1999/xlink" x="0px" y="0px"
	 viewBox="0 0 100 100" style="enable-background:new 0 0 100 100;" xml:space="preserve">
<style type="text/css">
	.st0{fill:#D34472;}
	.st1{fill:#050002;}
	.st2{fill:#C8D746;}
	.st3{fill:#050404;}
</style>
<g>
	<g>
		<g>
			<path class="st0" d="M72.22,84.04c2.16-6.99-0.5-14.03-3.72-20.24c-1.81-3.49-4.25-6.48-6.04-9.97
				c-1.68-3.28-3.49-6.64-4.54-10.18c-1.18-3.96-0.69-7.3-0.22-11.3c0.47-4.04-0.52-8.43-3.32-11.49c-1.56-1.7-3.49-2.63-5.43-2.78
				c-1.18-0.43-2.49-0.44-3.56,0.24c-6.88,4.36-12.13,11.2-15.91,18.37c-3.63,6.87-6,14.35-6.75,22.11
				c-1.3,13.53,3.59,26.87,15.13,34.61c5.84,3.91,13.2,6.34,20.22,4.63C65.01,96.34,70.13,90.82,72.22,84.04z"/>
			<g>
				<path class="st1" d="M72.22,84.04c0.89-2.96,0.95-6.12,0.39-9.14c-0.57-3.03-1.68-5.92-2.99-8.7c-0.67-1.38-1.35-2.76-2.15-4.08
					c-0.79-1.32-1.65-2.6-2.49-3.88c-0.84-1.29-1.68-2.59-2.41-3.95l-2.12-4.11c-1.35-2.76-2.66-5.6-3.2-8.68
					c-0.52-3.09-0.09-6.21,0.25-9.25c0.32-3.02-0.17-6.16-1.61-8.83c-0.73-1.32-1.67-2.54-2.87-3.45c-1.19-0.91-2.62-1.51-4.1-1.61
					l-0.04,0l-0.03-0.01c-1.25-0.46-2.65-0.38-3.71,0.48c-1.16,0.74-2.25,1.6-3.31,2.47c-2.1,1.79-4.04,3.77-5.76,5.92
					c-3.48,4.29-6.23,9.15-8.45,14.2c-2.2,5.07-3.73,10.43-4.43,15.92c-0.73,5.48-0.42,11.09,0.99,16.43
					c1.45,5.32,4.1,10.34,7.84,14.42c3.76,4.04,8.48,7.24,13.74,9c2.62,0.88,5.39,1.36,8.15,1.31c1.38-0.04,2.76-0.21,4.11-0.52
					c1.34-0.33,2.65-0.81,3.89-1.42C66.91,94.07,70.58,89.33,72.22,84.04z M72.22,84.04c-1.6,5.31-5.24,10.09-10.25,12.61
					c-1.25,0.62-2.56,1.11-3.91,1.45c-1.36,0.32-2.75,0.5-4.14,0.56c-2.79,0.08-5.59-0.39-8.24-1.26
					c-5.31-1.74-10.09-4.93-13.93-8.98c-3.81-4.1-6.53-9.16-8.04-14.54c-1.47-5.4-1.82-11.09-1.12-16.63
					c0.67-5.55,2.18-10.99,4.37-16.13c2.2-5.14,5.07-9.99,8.61-14.33c1.77-2.17,3.74-4.17,5.89-5.97c1.09-0.88,2.2-1.74,3.39-2.48
					c0.55-0.41,1.3-0.76,2.03-0.82c0.74-0.07,1.48,0.05,2.17,0.3l-0.07-0.01c1.6,0.13,3.12,0.78,4.37,1.75
					c1.25,0.98,2.22,2.25,2.97,3.63c1.48,2.78,1.95,6,1.6,9.09c-0.37,3.05-0.81,6.13-0.32,9.16c0.5,3.02,1.78,5.86,3.11,8.62
					l2.08,4.12c0.71,1.36,1.53,2.66,2.37,3.95c0.84,1.29,1.69,2.58,2.47,3.91c0.79,1.33,1.46,2.72,2.13,4.11
					c1.29,2.79,2.38,5.71,2.94,8.75C73.21,77.92,73.13,81.09,72.22,84.04z"/>
			</g>
		</g>
		<g>
			<path class="st2" d="M47.13,15.99c-2.67-0.78-5.61,0.08-7.89,1.68c-2.28,1.6-3.99,3.86-5.59,6.14c-1.6,2.28-3.14,4.63-5.17,6.53
				c3.68,0.9,7.71,0.32,10.98-1.6c-1.35,4.2-0.14,9.12,3,12.22c1.88-2.82,3.77-5.63,5.65-8.45c1.02,2.87,3.14,5.34,5.83,6.79
				c-0.8-2.8-1.05-5.75-0.71-8.64c2.11,1.81,4.4,3.41,6.81,4.8c0.84,0.48,1.78,0.96,2.74,0.81c-0.79-1.21-1.47-2.51-1.8-3.91
				c-0.22-0.95-0.27-1.92-0.4-2.88c-0.62-4.52-3.03-8.76-6.59-11.6c-1.15-0.92-2.46-1.71-3.92-1.93c1.55-2.08,3.12-4.21,3.9-6.68
				c0.78-2.47,0.64-5.39-1.02-7.38c-0.85-1.02-2.33-1.75-3.49-1.11c-0.82,0.45-1.2,1.41-1.38,2.32c-0.78,3.85,0.79,7.93-0.19,11.74"
				/>
			<path class="st3" d="M47.13,15.99c-2.02-0.57-4.2-0.19-6.07,0.7c-1.88,0.89-3.45,2.32-4.79,3.89c-2.69,3.16-4.55,7-7.65,9.92
				l-0.1-0.37c3.63,0.87,7.59,0.27,10.79-1.63l0.63-0.37l-0.22,0.7c-1.29,4.11-0.09,8.89,2.97,11.9l-0.5,0.05l5.63-8.46l0.38-0.57
				l0.23,0.65c1,2.79,3.07,5.19,5.67,6.59l-0.52,0.42c-0.82-2.84-1.08-5.85-0.73-8.78l0.08-0.68l0.52,0.45
				c1.41,1.21,2.9,2.33,4.45,3.36c0.78,0.51,1.57,1,2.37,1.46c0.79,0.45,1.63,0.85,2.43,0.73l-0.24,0.53
				c-0.58-0.9-1.11-1.85-1.49-2.87c-0.39-1.02-0.54-2.13-0.65-3.17c-0.19-2.08-0.73-4.1-1.61-5.98c-0.88-1.88-2.08-3.6-3.54-5.07
				c-1.47-1.43-3.16-2.82-5.17-3.15l-0.44-0.07l0.27-0.36c1.69-2.25,3.42-4.57,4.09-7.29c0.32-1.35,0.38-2.78,0.03-4.12
				c-0.35-1.32-1.07-2.62-2.26-3.3c-0.58-0.34-1.29-0.5-1.92-0.29c-0.64,0.2-1.08,0.78-1.34,1.41c-0.48,1.3-0.55,2.75-0.51,4.15
				c0.07,2.81,0.67,5.7-0.07,8.48c0.68-2.8,0.03-5.65-0.1-8.48c-0.06-1.42-0.03-2.87,0.45-4.25c0.25-0.67,0.73-1.35,1.47-1.6
				c0.73-0.26,1.54-0.08,2.18,0.28c1.32,0.72,2.1,2.11,2.48,3.5c0.38,1.41,0.33,2.91,0.01,4.32c-0.67,2.85-2.43,5.23-4.09,7.51
				l-0.18-0.43c2.23,0.35,3.98,1.8,5.52,3.25c1.54,1.5,2.78,3.29,3.7,5.23c0.92,1.94,1.49,4.05,1.69,6.18
				c0.11,1.05,0.25,2.06,0.62,3.01c0.36,0.96,0.86,1.86,1.43,2.73l0.3,0.46l-0.54,0.08c-1.1,0.15-2.06-0.35-2.88-0.8
				c-0.82-0.47-1.63-0.96-2.42-1.48c-1.58-1.04-3.1-2.17-4.54-3.4l0.6-0.24c-0.32,2.84-0.08,5.75,0.7,8.5l0.24,0.83l-0.76-0.41
				c-2.76-1.5-4.93-4.04-5.98-7l0.61,0.08l-5.66,8.44l-0.22,0.33l-0.28-0.28c-3.23-3.2-4.45-8.23-3.04-12.54l0.41,0.33
				c-3.35,1.94-7.44,2.51-11.18,1.57l-0.39-0.1l0.3-0.27c3.04-2.82,4.97-6.63,7.76-9.76c1.39-1.56,3-2.98,4.93-3.84
				C42.91,15.72,45.12,15.38,47.13,15.99z"/>
		</g>
	</g>
	<g>
		<path class="st1" d="M62.35,84.45c0.67-0.97,1.24-1.83,1.69-2.78c0.47-0.94,0.8-1.91,1.17-3.03c0.43,1.12,0.24,2.4-0.28,3.47
			C64.4,83.17,63.5,84.1,62.35,84.45z"/>
	</g>
	<g>
		<path class="st1" d="M61.85,90.5c1.9-1.86,3.45-3.93,4.58-6.24c1.14-2.3,1.83-4.79,2.15-7.43c0.47,2.64-0.07,5.44-1.26,7.87
			C66.12,87.13,64.23,89.26,61.85,90.5z"/>
	</g>
</g>
</svg>
