<?xml version="1.0" encoding="utf-8"?>
<!-- Generator: Adobe Illustrator 24.0.1, SVG Export Plug-In . SVG Version: 6.00 Build 0)  -->
<svg version="1.1" id="Capa_1" xmlns="http://www.w3.org/2000/svg" xmlns:xlink="http://www.w3.org/1999/xlink" x="0px" y="0px"
	 viewBox="0 0 100 100" style="enable-background:new 0 0 100 100;" xml:space="preserve">
<style type="text/css">
	.st0{fill:#DEAB71;}
	.st1{fill:#020000;}
	.st2{fill:#FFDFB8;}
</style>
<g>
	<g>
		<g>
			<path class="st0" d="M96.15,46.36c0.91-3,2.03-6.33,1.82-9.49c-0.2-2.96-1.27-5.86-2.59-8.49c-5.61-11.23-19.9-9.52-30.4-9.81
				c-5.21-0.14-13.08,0.06-18.28-0.14c4.5,1.51,11.29,3.45,14.39,7.34c4.7,5.88,4.71,14.04,1.3,20.59
				c-0.96,1.84-2.18,3.48-2.89,5.45c-0.95,2.63-0.87,5.32-0.94,8.07c-0.08,3.35-0.22,6.7-0.34,10.05
				c-0.15,4.37,0.47,11.91-3.14,15.47c4.11-0.03,8.64,0.45,12.75,0.39c5.49-0.07,11.44,0.51,16.84-0.63
				c3.49-0.74,6.36-1.75,8.11-5.07c1.51-2.88,1.19-6.38,1.18-9.54c-0.01-3.61-0.28-7.23-0.43-10.84c-0.1-2.39-0.27-4.88,0.34-7.22
				C94.4,50.37,95.52,48.45,96.15,46.36z"/>
			<path class="st1" d="M96.15,46.36c0.84-2.81,1.79-5.66,1.82-8.62c-0.01-2.96-0.97-5.82-2.22-8.48c-1.19-2.69-3.07-5.08-5.54-6.7
				c-2.44-1.64-5.3-2.56-8.19-3.08c-5.81-1.02-11.74-0.61-17.64-0.76c-5.89-0.1-11.79,0.1-17.7-0.08l0.08-0.42
				c3.11,1.02,6.27,1.99,9.24,3.46c1.47,0.74,2.92,1.59,4.16,2.73c1.25,1.14,2.18,2.55,2.96,4.02c1.55,2.96,2.17,6.37,1.92,9.68
				c-0.23,3.32-1.26,6.58-2.94,9.45c-0.83,1.43-1.71,2.8-2.26,4.3c-0.56,1.5-0.78,3.1-0.87,4.72l-0.34,9.83
				c-0.05,1.64-0.14,3.28-0.16,4.91c-0.02,1.64-0.02,3.28-0.12,4.93c-0.1,1.65-0.3,3.3-0.73,4.91c-0.44,1.6-1.16,3.19-2.37,4.39
				l-0.17-0.4c3.1-0.01,6.17,0.24,9.25,0.37c1.54,0.07,3.06,0.07,4.61,0.06l4.62,0.08c3.08,0.06,6.16,0.09,9.2-0.33
				c1.51-0.22,3.03-0.53,4.48-0.99c1.45-0.46,2.85-1.17,3.92-2.25c1.07-1.08,1.83-2.45,2.23-3.92c0.4-1.47,0.49-3.02,0.5-4.55
				c-0.02-3.08-0.03-6.16-0.21-9.24l-0.21-4.62c-0.06-1.54-0.14-3.08-0.05-4.62c0.08-1.54,0.43-3.07,1.02-4.49
				C95.01,49.22,95.7,47.83,96.15,46.36z M96.15,46.36c-0.45,1.48-1.12,2.87-1.68,4.3c-0.58,1.43-0.92,2.95-0.99,4.49
				c-0.08,1.54,0.01,3.08,0.08,4.62l0.24,4.62c0.2,3.08,0.22,6.16,0.27,9.24c0,1.54-0.08,3.1-0.48,4.61
				c-0.4,1.5-1.17,2.92-2.26,4.04c-1.1,1.12-2.53,1.86-4.01,2.33c-1.48,0.48-2.99,0.8-4.53,1.03c-3.07,0.44-6.17,0.43-9.25,0.4
				l-4.62-0.05c-1.53,0.02-3.09,0.03-4.63-0.04c-3.08-0.1-6.16-0.34-9.23-0.31l-0.58,0.01l0.41-0.41c1.13-1.13,1.8-2.64,2.22-4.19
				c0.41-1.56,0.59-3.19,0.68-4.81c0.09-1.63,0.08-3.26,0.09-4.91c0.01-1.65,0.09-3.28,0.13-4.93l0.28-9.85
				c0.08-1.65,0.3-3.34,0.88-4.93c0.58-1.59,1.51-2.99,2.33-4.39c1.65-2.78,2.67-5.94,2.92-9.16c0.26-3.22-0.32-6.52-1.8-9.39
				c-0.75-1.42-1.65-2.8-2.82-3.88c-1.17-1.1-2.58-1.94-4.03-2.68c-2.91-1.47-6.05-2.45-9.16-3.49l-1.42-0.48l1.5,0.05
				c5.88,0.21,11.79,0.04,17.69,0.18c5.88,0.2,11.83-0.19,17.67,0.88c2.9,0.54,5.78,1.48,8.24,3.16c2.48,1.65,4.36,4.09,5.54,6.79
				c1.23,2.67,2.17,5.55,2.17,8.52C97.98,40.71,97.01,43.55,96.15,46.36z"/>
		</g>
		<g>
			<path class="st2" d="M54.97,85.39c4.5-1.27,3.72-8.13,3.82-11.82c0.09-3.26,0.23-6.53,0.34-9.79c0.11-3.36-0.17-6.95,0.47-10.26
				c0.54-2.79,1.98-5.04,3.35-7.46c4.35-7.73,2.98-16.49-3.81-22.25c-3.07-2.61-7.05-3.64-10.88-4.56
				c-3.72-0.9-7.47-1.73-11.31-1.83c-7.51-0.19-16.88,1.87-22.77,6.78C8.22,29.17,4.09,36.82,7.44,44.5c1,2.28,2.53,4.17,2.92,6.63
				c0.39,2.49,0.64,5.02,0.89,7.53c0.68,6.88,0.4,13.81,1.03,20.69c0.26,2.83,0.82,5.21,3.8,6.09c1.82,0.54,3.57,0.51,5.43,0.5
				c3.4-0.02,6.79,0.1,10.19,0.03c4.07-0.09,8.16-0.07,12.23-0.08C47.46,85.87,51.53,86.36,54.97,85.39z M56.26,40.24
				c2.09,0,2.09,2.49,0,2.49C54.86,42.73,54.86,40.24,56.26,40.24z M52.77,63.57c-2.79,0-1.1-2.49,0-2.49
				C54.16,61.09,54.16,63.57,52.77,63.57z M50.66,30.43c0.04-0.07,0.07-0.14,0.11-0.21c0.31-0.6,1.15-0.77,1.7-0.45
				c0.6,0.35,0.75,1.1,0.45,1.7c-0.04,0.07-0.07,0.14-0.11,0.21c-0.31,0.6-1.15,0.77-1.7,0.45C50.51,31.78,50.36,31.03,50.66,30.43z
				 M49.98,73.61v0.11c0,0.7-0.72,1.21-1.4,1.24c-0.67,0.03-1.4-0.59-1.4-1.24v-0.11c0-0.7,0.72-1.21,1.4-1.24
				C49.25,72.34,49.98,72.96,49.98,73.61z M47.89,50.02c2.09,0,2.09,2.49,0,2.49C46.49,52.5,46.49,50.02,47.89,50.02z M14.34,41.79
				c0.04-0.04,0.07-0.07,0.11-0.11c0.48-0.48,1.28-0.48,1.76,0c0.47,0.47,0.47,1.28,0,1.76c-0.04,0.04-0.07,0.07-0.11,0.11
				c-0.48,0.48-1.28,0.48-1.76,0C13.86,43.07,13.86,42.26,14.34,41.79z M16.18,58.94h-0.11c-0.7,0-1.21-0.37-1.24-1.05
				c-0.03-0.67,0.59-1.05,1.24-1.05h0.11c0.7,0,1.21,0.37,1.24,1.05C17.46,58.57,16.83,58.94,16.18,58.94z M21.38,72.97
				c0,0.7-0.37,1.21-1.05,1.24c-0.67,0.03-1.05-0.59-1.05-1.24v-0.11c0-0.7,0.37-1.21,1.05-1.24c0.67-0.03,1.05,0.59,1.05,1.24
				V72.97z M20.8,28.95H20.7c-0.7,0-1.21-0.37-1.24-1.05c-0.03-0.67,0.59-1.05,1.24-1.05h0.11c0.7,0,1.21,0.37,1.24,1.05
				C22.08,28.57,21.45,28.95,20.8,28.95z M24.17,49.07c-2.09,0-2.09-2.49,0-2.49C25.56,46.58,25.56,49.07,24.17,49.07z M26.26,80.98
				c-1.4,0-1.4-2.49,0-2.49C27.66,78.49,27.66,80.98,26.26,80.98z M26.96,61.85c-1.4,0-1.4-2.49,0-2.49S28.35,61.85,26.96,61.85z
				 M30.45,38.21c-1.4,0-1.4-2.49,0-2.49S31.84,38.21,30.45,38.21z M34.63,71.09c-2.4,0.38-1.66-2.49,0-2.49
				C36.03,68.61,36.01,70.87,34.63,71.09z M35.33,52.29c-0.94,0.72-3.49-2.49,0-2.49C36.72,49.8,36.44,51.45,35.33,52.29z
				 M37.42,26.5c-1.4,0-1.4-2.49,0-2.49C38.82,24.02,38.82,26.5,37.42,26.5z M41.61,80.01c-1.4,0-1.4-2.49,0-2.49
				C43,77.53,43,80.01,41.61,80.01z M41.61,59.49c-1.4,0-1.4-2.49,0-2.49C43,57,43,59.49,41.61,59.49z M42.3,40.47
				c-1.4,0-1.4-2.49,0-2.49C43.7,37.98,43.7,40.47,42.3,40.47z"/>
			<g>
				<path class="st1" d="M54.97,85.39c1.11-0.3,2.04-1.09,2.59-2.09c0.56-0.99,0.83-2.12,0.99-3.25c0.32-2.26,0.14-4.56,0.21-6.84
					l0.22-6.85c0.09-2.28,0.13-4.56,0.1-6.85c0.01-2.28,0.06-4.59,0.61-6.83c0.57-2.24,1.76-4.24,2.88-6.22
					c1.13-1.97,2-4.09,2.42-6.32c0.42-2.23,0.38-4.53-0.11-6.73c-0.95-4.43-3.89-8.32-7.67-10.74c-1.93-1.16-4.09-1.92-6.28-2.51
					c-2.2-0.58-4.42-1.1-6.65-1.56c-2.23-0.45-4.48-0.79-6.74-0.88c-2.26-0.08-4.54,0.03-6.78,0.34c-4.48,0.61-8.93,1.85-12.87,4.05
					c-1.97,1.09-3.76,2.47-5.36,4.07c-1.6,1.59-2.98,3.4-4.04,5.38c-1.06,1.98-1.78,4.15-1.91,6.39c-0.15,2.23,0.24,4.5,1.16,6.55
					c0.89,2.05,2.35,3.93,2.81,6.28c0.31,2.28,0.53,4.55,0.8,6.82c0.53,4.55,0.55,9.13,0.68,13.69c0.06,2.28,0.14,4.56,0.31,6.83
					c0.09,1.14,0.16,2.28,0.41,3.37c0.24,1.09,0.71,2.16,1.57,2.88c0.85,0.72,1.97,1.04,3.08,1.24c1.11,0.19,2.25,0.22,3.39,0.22
					l6.85,0.04c4.57,0.05,9.13,0,13.7-0.01c1.14,0,2.28-0.02,3.43,0l3.42,0.1C50.45,86.01,52.76,85.99,54.97,85.39z M54.97,85.39
					c-2.21,0.62-4.52,0.65-6.8,0.61l-3.42-0.08c-1.14-0.01-2.28,0.02-3.42,0.02c-4.57,0.04-9.13,0.12-13.7,0.1l-6.85,0.01
					c-1.14,0.01-2.3-0.01-3.43-0.2c-1.12-0.19-2.29-0.51-3.21-1.28c-0.93-0.75-1.43-1.89-1.68-3.01c-0.27-1.13-0.34-2.28-0.44-3.42
					c-0.18-2.28-0.28-4.56-0.35-6.85c-0.15-4.56-0.21-9.13-0.76-13.66c-0.28-2.26-0.53-4.54-0.84-6.78
					c-0.43-2.2-1.87-4.04-2.82-6.16c-0.96-2.12-1.39-4.48-1.24-6.8c0.12-2.33,0.86-4.59,1.94-6.64c1.08-2.05,2.48-3.92,4.12-5.56
					c1.62-1.64,3.46-3.09,5.49-4.21c4.06-2.23,8.58-3.46,13.13-4.05c2.28-0.29,4.58-0.39,6.88-0.3c2.3,0.11,4.58,0.47,6.82,0.94
					c2.24,0.48,4.46,1.01,6.67,1.61c2.21,0.61,4.4,1.39,6.38,2.6c3.87,2.51,6.83,6.49,7.78,11.03c0.49,2.25,0.51,4.61,0.07,6.87
					c-0.44,2.26-1.34,4.41-2.49,6.4c-1.13,1.97-2.32,3.95-2.9,6.15c-0.56,2.2-0.63,4.5-0.65,6.78c0.01,2.28-0.04,4.57-0.14,6.85
					l-0.26,6.84c-0.08,2.28,0.08,4.57-0.25,6.84c-0.17,1.13-0.44,2.26-1.01,3.25C57.03,84.31,56.09,85.1,54.97,85.39z"/>
				<path class="st1" d="M56.26,40.24c0.34,0.01,0.68,0.05,1,0.2c0.32,0.14,0.61,0.42,0.72,0.8c0.12,0.37,0.05,0.83-0.2,1.17
					c-0.25,0.34-0.65,0.55-1.04,0.62c-0.2,0.02-0.37,0.05-0.59,0.02c-0.22-0.02-0.44-0.11-0.61-0.25c-0.35-0.29-0.47-0.71-0.48-1.08
					C55.03,40.98,55.54,40.21,56.26,40.24z M56.26,40.24c-0.34,0-0.66,0.21-0.8,0.5c-0.14,0.3-0.14,0.63-0.06,0.93
					c0.07,0.3,0.27,0.54,0.47,0.64c0.19,0.11,0.44,0.08,0.74,0.04c0.53-0.09,1.03-0.43,1.03-1.04c-0.01-0.29-0.16-0.59-0.43-0.79
					C56.93,40.33,56.59,40.26,56.26,40.24z"/>
				<path class="st1" d="M52.77,63.57c-0.33-0.01-0.67-0.01-1-0.12c-0.33-0.07-0.68-0.38-0.69-0.8c-0.01-0.8,0.47-1.49,1.22-1.82
					c0.41-0.16,0.92-0.09,1.25,0.21c0.33,0.3,0.43,0.72,0.43,1.08C53.98,62.86,53.47,63.6,52.77,63.57z M52.77,63.57
					c0.34,0,0.65-0.2,0.79-0.49c0.14-0.29,0.14-0.62,0.07-0.91c-0.15-0.63-0.68-0.86-1.08-0.68c-0.44,0.19-0.99,0.64-1.12,1.17
					c-0.06,0.26,0.09,0.56,0.38,0.7C52.1,63.53,52.44,63.55,52.77,63.57z"/>
				<path class="st1" d="M50.66,30.43c0.21-0.66,0.99-1.11,1.77-0.88c0.38,0.12,0.72,0.42,0.87,0.83c0.15,0.4,0.11,0.86-0.08,1.25
					l-0.13,0.23c-0.06,0.1-0.13,0.19-0.2,0.28c-0.16,0.16-0.36,0.27-0.56,0.34c-0.41,0.12-0.84,0.07-1.19-0.13
					C50.43,31.92,50.35,31.02,50.66,30.43z M50.66,30.43c-0.15,0.31-0.18,0.68-0.05,0.99c0.13,0.31,0.4,0.53,0.68,0.61
					c0.29,0.08,0.59,0.02,0.82-0.11c0.12-0.06,0.21-0.15,0.29-0.23c0.04-0.04,0.07-0.09,0.09-0.14l0.11-0.23
					c0.23-0.45,0.2-1.1-0.32-1.44c-0.25-0.16-0.6-0.21-0.92-0.12C51.04,29.83,50.8,30.11,50.66,30.43z"/>
				<path class="st1" d="M49.98,73.61c0.06,0.72-0.58,1.36-1.33,1.52c-0.8,0.13-1.74-0.4-1.81-1.41c-0.01-0.16,0.03-0.46,0.13-0.65
					c0.1-0.21,0.25-0.38,0.41-0.51c0.34-0.26,0.74-0.37,1.14-0.36c0.41,0.01,0.76,0.22,1.01,0.47
					C49.79,72.93,49.98,73.26,49.98,73.61z M49.98,73.61c-0.02-0.73-0.85-1.21-1.43-1.06c-0.3,0.07-0.58,0.25-0.76,0.46
					c-0.19,0.23-0.27,0.41-0.25,0.71c0,0.42,0.49,1.02,1.08,1.07c0.31,0.02,0.65-0.07,0.93-0.27C49.83,74.31,50,73.97,49.98,73.61z"
					/>
				<path class="st1" d="M47.89,50.02c0.34,0.01,0.68,0.05,1,0.2c0.32,0.14,0.61,0.42,0.72,0.8c0.12,0.37,0.05,0.83-0.2,1.17
					c-0.25,0.34-0.65,0.55-1.04,0.62c-0.2,0.02-0.37,0.05-0.59,0.02c-0.22-0.02-0.44-0.11-0.61-0.25c-0.35-0.29-0.47-0.71-0.48-1.08
					C46.66,50.76,47.17,49.99,47.89,50.02z M47.89,50.02c-0.34,0-0.66,0.21-0.8,0.5c-0.14,0.3-0.14,0.63-0.06,0.93
					c0.07,0.3,0.27,0.54,0.47,0.64c0.19,0.11,0.44,0.08,0.74,0.04c0.53-0.09,1.03-0.43,1.03-1.04c-0.01-0.29-0.16-0.59-0.43-0.79
					C48.56,50.11,48.22,50.04,47.89,50.02z"/>
				<path class="st1" d="M14.34,41.79c0.42-0.52,1.26-0.74,1.92-0.29c0.67,0.43,0.85,1.55,0.19,2.19c-0.23,0.26-0.68,0.53-1.09,0.51
					c-0.42,0-0.82-0.18-1.08-0.47C13.75,43.13,13.87,42.25,14.34,41.79z M14.34,41.79c-0.24,0.24-0.35,0.59-0.31,0.92
					c0.04,0.32,0.23,0.61,0.48,0.76c0.24,0.16,0.54,0.19,0.79,0.13c0.27-0.07,0.44-0.16,0.65-0.41c0.33-0.32,0.45-0.97,0.08-1.43
					c-0.19-0.22-0.49-0.38-0.82-0.38C14.88,41.37,14.56,41.54,14.34,41.79z"/>
				<path class="st1" d="M16.18,58.94c-0.31,0.02-0.63-0.02-0.92-0.17c-0.3-0.14-0.53-0.46-0.59-0.81
					c-0.09-0.35,0.04-0.81,0.35-1.07c0.3-0.27,0.69-0.38,1.06-0.39c0.32-0.01,0.75,0.06,1.06,0.31c0.33,0.25,0.48,0.67,0.46,1.02
					c0,0.37-0.22,0.71-0.5,0.87C16.81,58.88,16.49,58.95,16.18,58.94z M16.18,58.94c0.31-0.01,0.63-0.1,0.85-0.31
					c0.22-0.21,0.28-0.51,0.21-0.77c-0.15-0.56-0.62-0.68-1.17-0.66c-0.49,0.01-1.02,0.18-1.07,0.73c-0.02,0.27,0.07,0.56,0.3,0.76
					C15.55,58.89,15.87,58.95,16.18,58.94z"/>
				<path class="st1" d="M21.38,72.97c0,0.31-0.06,0.63-0.24,0.91c-0.18,0.28-0.51,0.47-0.87,0.51c-0.37,0.05-0.8-0.14-1.03-0.46
					c-0.24-0.31-0.32-0.73-0.31-1.06c0.01-0.36,0.11-0.77,0.39-1.07c0.29-0.3,0.71-0.4,1.06-0.35c0.38,0.04,0.68,0.3,0.81,0.6
					C21.35,72.33,21.39,72.66,21.38,72.97z M21.38,72.97c0.01-0.31-0.06-0.63-0.25-0.87c-0.19-0.24-0.48-0.35-0.74-0.3
					c-0.58,0.09-0.75,0.56-0.75,1.07c-0.02,0.53,0.11,1.06,0.64,1.18c0.26,0.05,0.57-0.01,0.79-0.22
					C21.28,73.6,21.37,73.28,21.38,72.97z"/>
				<path class="st1" d="M20.8,28.95c-0.31,0.02-0.63-0.02-0.92-0.17c-0.3-0.14-0.53-0.46-0.59-0.81c-0.09-0.35,0.04-0.81,0.35-1.07
					c0.3-0.27,0.69-0.38,1.06-0.39c0.32-0.01,0.75,0.06,1.06,0.31c0.33,0.25,0.48,0.67,0.46,1.02c0,0.37-0.22,0.71-0.5,0.87
					C21.43,28.88,21.11,28.95,20.8,28.95z M20.8,28.95c0.31-0.01,0.63-0.1,0.85-0.31c0.22-0.21,0.28-0.51,0.21-0.77
					c-0.15-0.56-0.62-0.68-1.17-0.66c-0.49,0.01-1.02,0.18-1.07,0.73c-0.02,0.27,0.07,0.56,0.3,0.76
					C20.17,28.89,20.49,28.95,20.8,28.95z"/>
				<path class="st1" d="M24.17,49.07c-0.34-0.01-0.68-0.05-1-0.2c-0.32-0.14-0.61-0.42-0.72-0.8c-0.12-0.37-0.05-0.83,0.2-1.17
					c0.25-0.34,0.65-0.55,1.04-0.62c0.2-0.02,0.37-0.05,0.59-0.02c0.22,0.02,0.44,0.11,0.61,0.25c0.35,0.29,0.47,0.71,0.48,1.08
					C25.39,48.33,24.88,49.09,24.17,49.07z M24.17,49.07c0.34,0,0.66-0.21,0.8-0.5c0.14-0.3,0.14-0.63,0.06-0.93
					c-0.07-0.3-0.27-0.54-0.47-0.64c-0.19-0.11-0.44-0.08-0.74-0.04c-0.53,0.09-1.03,0.43-1.03,1.04c0.01,0.29,0.16,0.59,0.43,0.79
					C23.49,48.98,23.83,49.05,24.17,49.07z"/>
				<path class="st1" d="M26.26,80.98c-0.63,0.03-1.15-0.58-1.22-1.24c-0.04-0.33,0-0.7,0.2-1.03c0.2-0.34,0.63-0.56,1.02-0.56
					c0.4,0,0.83,0.22,1.03,0.56c0.2,0.33,0.23,0.7,0.2,1.03C27.41,80.4,26.89,81.01,26.26,80.98z M26.26,80.98
					c0.3,0,0.6-0.16,0.75-0.42c0.14-0.26,0.17-0.56,0.13-0.83c-0.04-0.27-0.17-0.52-0.33-0.67c-0.16-0.16-0.33-0.22-0.54-0.22
					c-0.21,0-0.39,0.06-0.55,0.22c-0.16,0.15-0.29,0.4-0.33,0.67c-0.04,0.27-0.02,0.57,0.13,0.83
					C25.66,80.82,25.96,80.98,26.26,80.98z"/>
				<path class="st1" d="M26.96,61.85c-0.63,0.03-1.15-0.58-1.22-1.24c-0.04-0.33,0-0.7,0.2-1.03c0.2-0.34,0.63-0.56,1.02-0.56
					c0.4,0,0.83,0.22,1.03,0.56c0.2,0.33,0.23,0.7,0.2,1.03C28.11,61.28,27.59,61.88,26.96,61.85z M26.96,61.85
					c0.3,0,0.6-0.16,0.75-0.42c0.14-0.26,0.17-0.56,0.13-0.83c-0.04-0.27-0.17-0.52-0.33-0.67c-0.16-0.16-0.33-0.22-0.54-0.22
					c-0.21,0-0.39,0.06-0.55,0.22c-0.16,0.15-0.29,0.4-0.33,0.67c-0.04,0.27-0.02,0.57,0.13,0.83
					C26.36,61.69,26.65,61.85,26.96,61.85z"/>
				<path class="st1" d="M30.45,38.21c-0.63,0.03-1.15-0.58-1.22-1.24c-0.04-0.33,0-0.7,0.2-1.03c0.2-0.34,0.63-0.56,1.02-0.56
					c0.4,0,0.83,0.22,1.03,0.56c0.2,0.33,0.23,0.7,0.2,1.03C31.6,37.64,31.08,38.24,30.45,38.21z M30.45,38.21
					c0.3,0,0.6-0.16,0.75-0.42c0.14-0.26,0.17-0.56,0.13-0.83c-0.04-0.27-0.17-0.52-0.33-0.67c-0.16-0.16-0.33-0.22-0.54-0.22
					c-0.21,0-0.39,0.06-0.55,0.22c-0.16,0.15-0.29,0.4-0.33,0.67c-0.04,0.27-0.02,0.57,0.13,0.83
					C29.85,38.05,30.14,38.21,30.45,38.21z"/>
				<path class="st1" d="M34.63,71.09c-0.33,0.03-0.68,0.09-1.01-0.03c-0.34-0.09-0.65-0.43-0.69-0.82
					c-0.12-0.77,0.34-1.61,1.15-1.88c0.39-0.12,0.86-0.13,1.24,0.13c0.37,0.27,0.52,0.7,0.52,1.07C35.83,70.32,35.31,71,34.63,71.09
					z M34.63,71.09c0.34-0.05,0.63-0.27,0.77-0.57c0.14-0.29,0.16-0.63,0.08-0.92c-0.17-0.63-0.7-0.77-1.19-0.59
					c-0.46,0.15-0.95,0.62-1.02,1.21c-0.04,0.29,0.09,0.59,0.38,0.75C33.94,71.15,34.3,71.12,34.63,71.09z"/>
				<path class="st1" d="M35.33,52.29c-0.3,0.21-0.7,0.07-0.99-0.1c-0.31-0.18-0.6-0.42-0.8-0.75c-0.2-0.31-0.35-0.78-0.11-1.23
					c0.25-0.41,0.69-0.61,1.06-0.67c0.2-0.05,0.38-0.05,0.57-0.06c0.18-0.01,0.38,0,0.59,0.05c0.21,0.06,0.42,0.17,0.58,0.35
					c0.15,0.18,0.22,0.41,0.21,0.61c0,0.41-0.18,0.75-0.38,1.04C35.85,51.83,35.61,52.08,35.33,52.29z M35.33,52.29
					c0.55-0.4,0.9-1.16,0.76-1.75c-0.15-0.61-0.84-0.39-1.46-0.32c-0.61,0.1-1,0.39-0.78,1.07c0.1,0.3,0.29,0.6,0.54,0.82
					C34.64,52.32,35.02,52.49,35.33,52.29z"/>
				<path class="st1" d="M37.42,26.5c-0.63,0.03-1.15-0.58-1.22-1.24c-0.04-0.33,0-0.7,0.2-1.03c0.2-0.34,0.63-0.56,1.02-0.56
					c0.4,0,0.83,0.22,1.03,0.56c0.2,0.33,0.23,0.7,0.2,1.03C38.57,25.93,38.05,26.53,37.42,26.5z M37.42,26.5
					c0.3,0,0.6-0.16,0.75-0.42c0.14-0.26,0.17-0.56,0.13-0.83c-0.04-0.27-0.17-0.52-0.33-0.67c-0.16-0.16-0.33-0.22-0.54-0.22
					c-0.21,0-0.39,0.06-0.55,0.22c-0.16,0.15-0.29,0.4-0.33,0.67c-0.04,0.27-0.02,0.57,0.13,0.83C36.82,26.34,37.12,26.5,37.42,26.5
					z"/>
				<path class="st1" d="M41.61,80.01c-0.63,0.03-1.15-0.58-1.22-1.24c-0.04-0.33,0-0.7,0.2-1.03c0.2-0.34,0.63-0.56,1.02-0.56
					c0.4,0,0.83,0.22,1.03,0.56c0.2,0.33,0.23,0.7,0.2,1.03C42.76,79.44,42.24,80.04,41.61,80.01z M41.61,80.01
					c0.3,0,0.6-0.16,0.75-0.42c0.14-0.26,0.17-0.56,0.13-0.83c-0.04-0.27-0.17-0.52-0.33-0.67c-0.16-0.16-0.33-0.22-0.54-0.22
					c-0.21,0-0.39,0.06-0.55,0.22c-0.16,0.15-0.29,0.4-0.33,0.67c-0.04,0.27-0.02,0.57,0.13,0.83
					C41.01,79.85,41.3,80.01,41.61,80.01z"/>
				<path class="st1" d="M41.61,59.49c-0.63,0.03-1.15-0.58-1.22-1.24c-0.04-0.33,0-0.7,0.2-1.03c0.2-0.34,0.63-0.56,1.02-0.56
					c0.4,0,0.83,0.22,1.03,0.56c0.2,0.33,0.23,0.7,0.2,1.03C42.76,58.91,42.24,59.52,41.61,59.49z M41.61,59.49
					c0.3,0,0.6-0.16,0.75-0.42c0.14-0.26,0.17-0.56,0.13-0.83c-0.04-0.27-0.17-0.52-0.33-0.67c-0.16-0.16-0.33-0.22-0.54-0.22
					c-0.21,0-0.39,0.06-0.55,0.22c-0.16,0.15-0.29,0.4-0.33,0.67c-0.04,0.27-0.02,0.57,0.13,0.83
					C41.01,59.33,41.3,59.49,41.61,59.49z"/>
				<path class="st1" d="M42.3,40.47c-0.63,0.03-1.15-0.58-1.22-1.24c-0.04-0.33,0-0.7,0.2-1.03c0.2-0.34,0.63-0.56,1.02-0.56
					c0.4,0,0.83,0.22,1.03,0.56c0.2,0.33,0.23,0.7,0.2,1.03C43.46,39.89,42.94,40.5,42.3,40.47z M42.3,40.47
					c0.3,0,0.6-0.16,0.75-0.42c0.14-0.26,0.17-0.56,0.13-0.83c-0.04-0.27-0.17-0.52-0.33-0.67c-0.16-0.16-0.33-0.22-0.54-0.22
					c-0.21,0-0.39,0.06-0.55,0.22c-0.16,0.15-0.29,0.4-0.33,0.67c-0.04,0.27-0.02,0.57,0.13,0.83C41.7,40.31,42,40.47,42.3,40.47z"
					/>
			</g>
		</g>
		<g>
			<path class="st0" d="M20.8,26.85H20.7c-0.65,0-1.27,0.38-1.24,1.05c0.03,0.67,0.55,1.05,1.24,1.05h0.11
				c0.65,0,1.27-0.38,1.24-1.05C22.02,27.23,21.5,26.85,20.8,26.85z"/>
			<path class="st1" d="M20.8,26.85c-0.31-0.01-0.63,0.06-0.87,0.25c-0.24,0.19-0.35,0.48-0.3,0.74c0.09,0.58,0.56,0.76,1.07,0.75
				c0.53,0.02,1.06-0.12,1.17-0.64c0.05-0.26-0.01-0.57-0.22-0.79C21.44,26.95,21.11,26.86,20.8,26.85z M20.8,26.85
				c0.31,0,0.63,0.06,0.91,0.24c0.28,0.18,0.47,0.51,0.51,0.87c0.05,0.37-0.14,0.8-0.47,1.03c-0.31,0.24-0.73,0.32-1.06,0.31
				c-0.36-0.01-0.77-0.11-1.07-0.39c-0.3-0.29-0.4-0.71-0.35-1.06c0.04-0.38,0.3-0.68,0.6-0.81C20.17,26.88,20.49,26.84,20.8,26.85z
				"/>
		</g>
		<g>
			<path class="st0" d="M37.42,24.02c-1.4,0-1.4,2.49,0,2.49C38.82,26.5,38.82,24.02,37.42,24.02z"/>
			<path class="st1" d="M37.42,24.02c-0.3,0-0.6,0.16-0.75,0.42c-0.14,0.26-0.17,0.56-0.13,0.83c0.04,0.27,0.17,0.52,0.33,0.67
				c0.16,0.16,0.33,0.22,0.55,0.22c0.21,0,0.38-0.06,0.54-0.22c0.16-0.16,0.29-0.4,0.33-0.67c0.04-0.27,0.02-0.57-0.13-0.83
				C38.02,24.18,37.73,24.02,37.42,24.02z M37.42,24.02c0.63-0.03,1.15,0.58,1.22,1.24c0.04,0.33,0.01,0.7-0.2,1.03
				c-0.2,0.34-0.63,0.56-1.03,0.56c-0.4,0-0.83-0.22-1.02-0.56c-0.2-0.34-0.23-0.7-0.2-1.03C36.27,24.59,36.79,23.99,37.42,24.02z"
				/>
		</g>
		<g>
			<path class="st0" d="M51.11,32.13c0.55,0.32,1.39,0.15,1.7-0.45c0.04-0.07,0.07-0.14,0.11-0.21c0.3-0.6,0.16-1.35-0.45-1.7
				c-0.55-0.32-1.39-0.15-1.7,0.45c-0.04,0.07-0.07,0.14-0.11,0.21C50.36,31.03,50.51,31.78,51.11,32.13z"/>
			<path class="st1" d="M51.11,32.13c0.62,0.36,1.47,0,1.6-0.63c0.26-0.61,0.01-1.2-0.41-1.43c-0.4-0.22-1.1-0.21-1.42,0.33
				c-0.2,0.26-0.32,0.56-0.29,0.9C50.61,31.63,50.81,31.95,51.11,32.13z M51.11,32.13c-0.61-0.33-0.87-1.2-0.54-1.89
				c0.09-0.36,0.43-0.73,0.82-0.86c0.4-0.15,0.86-0.13,1.26,0.1c0.38,0.22,0.65,0.64,0.69,1.06c0.05,0.42-0.11,0.85-0.33,1.13
				C52.61,32.36,51.69,32.46,51.11,32.13z"/>
		</g>
		<g>
			<path class="st0" d="M16.09,43.54c0.04-0.04,0.07-0.07,0.11-0.11c0.47-0.47,0.47-1.28,0-1.76c-0.48-0.48-1.28-0.48-1.76,0
				c-0.04,0.04-0.07,0.07-0.11,0.11c-0.47,0.47-0.47,1.28,0,1.76C14.81,44.02,15.62,44.02,16.09,43.54z"/>
			<path class="st1" d="M16.09,43.54c0.25-0.23,0.42-0.55,0.41-0.88c-0.01-0.33-0.16-0.63-0.38-0.82c-0.46-0.38-1.11-0.25-1.43,0.08
				c-0.24,0.22-0.34,0.38-0.4,0.65c-0.06,0.25-0.03,0.55,0.13,0.79c0.16,0.24,0.44,0.43,0.76,0.48
				C15.5,43.89,15.85,43.78,16.09,43.54z M16.09,43.54c-0.47,0.47-1.34,0.59-1.94,0.06c-0.29-0.26-0.47-0.66-0.47-1.08
				c-0.02-0.41,0.25-0.87,0.51-1.09c0.64-0.66,1.76-0.48,2.18,0.19C16.83,42.28,16.61,43.13,16.09,43.54z"/>
		</g>
		<g>
			<path class="st0" d="M30.45,35.73c-1.4,0-1.4,2.49,0,2.49S31.84,35.73,30.45,35.73z"/>
			<path class="st1" d="M30.45,35.73c-0.3,0-0.6,0.16-0.75,0.42c-0.14,0.26-0.17,0.56-0.13,0.83c0.04,0.27,0.17,0.52,0.33,0.67
				c0.16,0.16,0.33,0.22,0.55,0.22c0.21,0,0.38-0.06,0.54-0.22c0.16-0.16,0.29-0.4,0.33-0.67c0.04-0.27,0.02-0.57-0.13-0.83
				C31.05,35.89,30.75,35.73,30.45,35.73z M30.45,35.73c0.63-0.03,1.15,0.58,1.22,1.24c0.04,0.33,0.01,0.7-0.2,1.03
				c-0.2,0.34-0.63,0.56-1.03,0.56c-0.4,0-0.83-0.22-1.02-0.56c-0.2-0.34-0.23-0.7-0.2-1.03C29.29,36.3,29.81,35.7,30.45,35.73z"/>
		</g>
		<g>
			<path class="st0" d="M42.3,37.98c-1.4,0-1.4,2.49,0,2.49C43.7,40.47,43.7,37.98,42.3,37.98z"/>
			<path class="st1" d="M42.3,37.98c-0.3,0-0.6,0.16-0.75,0.42c-0.14,0.26-0.17,0.56-0.13,0.83c0.04,0.27,0.17,0.52,0.33,0.67
				c0.16,0.16,0.33,0.22,0.55,0.22c0.21,0,0.38-0.06,0.54-0.22c0.16-0.16,0.29-0.4,0.33-0.67c0.04-0.27,0.02-0.57-0.13-0.83
				C42.91,38.15,42.61,37.99,42.3,37.98z M42.3,37.98c0.63-0.03,1.15,0.58,1.22,1.24c0.04,0.33,0.01,0.7-0.2,1.03
				c-0.2,0.34-0.63,0.56-1.03,0.56c-0.4,0-0.83-0.22-1.02-0.56c-0.2-0.34-0.23-0.7-0.2-1.03C41.15,38.56,41.67,37.95,42.3,37.98z"/>
		</g>
		<g>
			<path class="st0" d="M56.26,42.73c2.09,0,2.09-2.49,0-2.49C54.86,40.24,54.86,42.73,56.26,42.73z"/>
			<path class="st1" d="M56.26,42.73c0.34-0.02,0.68-0.09,0.95-0.28c0.27-0.19,0.42-0.5,0.43-0.79c0-0.61-0.5-0.94-1.03-1.04
				c-0.3-0.04-0.54-0.07-0.74,0.04c-0.21,0.1-0.4,0.34-0.47,0.64c-0.08,0.29-0.08,0.63,0.06,0.93
				C55.59,42.52,55.91,42.73,56.26,42.73z M56.26,42.73c-0.72,0.03-1.23-0.74-1.21-1.47c0-0.37,0.13-0.79,0.48-1.08
				c0.17-0.14,0.4-0.23,0.61-0.25c0.22-0.02,0.39,0,0.59,0.02c0.39,0.07,0.78,0.28,1.04,0.62c0.25,0.34,0.32,0.79,0.2,1.17
				c-0.11,0.38-0.4,0.66-0.72,0.8C56.93,42.68,56.59,42.72,56.26,42.73z"/>
		</g>
		<g>
			<path class="st0" d="M24.17,46.58c-2.09,0-2.09,2.49,0,2.49C25.56,49.07,25.56,46.58,24.17,46.58z"/>
			<path class="st1" d="M24.17,46.58c-0.34,0.02-0.68,0.09-0.95,0.28c-0.27,0.19-0.42,0.5-0.43,0.79c0,0.61,0.5,0.94,1.03,1.04
				c0.3,0.04,0.54,0.07,0.74-0.04c0.21-0.1,0.4-0.34,0.47-0.64c0.08-0.29,0.08-0.63-0.06-0.93C24.83,46.79,24.51,46.58,24.17,46.58z
				 M24.17,46.58c0.72-0.03,1.23,0.74,1.21,1.47c0,0.37-0.13,0.79-0.48,1.08c-0.17,0.14-0.4,0.23-0.61,0.25
				c-0.22,0.02-0.39,0-0.59-0.02c-0.39-0.07-0.78-0.28-1.04-0.62c-0.25-0.34-0.32-0.79-0.2-1.17c0.11-0.38,0.4-0.66,0.72-0.8
				C23.49,46.63,23.83,46.59,24.17,46.58z"/>
		</g>
		<g>
			<path class="st0" d="M16.18,56.85h-0.11c-0.65,0-1.27,0.38-1.24,1.05c0.03,0.67,0.55,1.05,1.24,1.05h0.11
				c0.65,0,1.27-0.38,1.24-1.05C17.4,57.22,16.88,56.85,16.18,56.85z"/>
			<path class="st1" d="M16.18,56.85c-0.31-0.01-0.63,0.06-0.87,0.25c-0.24,0.19-0.35,0.48-0.3,0.74c0.09,0.58,0.56,0.76,1.07,0.75
				c0.53,0.02,1.06-0.12,1.17-0.64c0.05-0.26-0.01-0.57-0.22-0.79C16.82,56.95,16.49,56.86,16.18,56.85z M16.18,56.85
				c0.31,0,0.63,0.06,0.91,0.24c0.28,0.18,0.47,0.51,0.51,0.87c0.05,0.37-0.14,0.8-0.47,1.03c-0.31,0.24-0.73,0.32-1.06,0.31
				c-0.36-0.01-0.77-0.11-1.07-0.39c-0.3-0.29-0.4-0.71-0.35-1.06c0.04-0.38,0.3-0.68,0.6-0.81C15.55,56.88,15.87,56.83,16.18,56.85
				z"/>
		</g>
		<g>
			<path class="st0" d="M35.33,49.8c-3.49,0-0.94,3.2,0,2.49C36.44,51.45,36.72,49.8,35.33,49.8z"/>
			<path class="st1" d="M35.33,49.8l-0.52,0.04c-0.17,0.02-0.33,0.09-0.5,0.13c-0.31,0.15-0.56,0.39-0.57,0.67
				c-0.01,0.55,0.54,1.08,1,1.31c0.11,0.07,0.23,0.08,0.3,0.08c0.04,0,0.05-0.02,0.1-0.02l0.19-0.13c0.25-0.18,0.48-0.41,0.64-0.69
				c0.16-0.27,0.28-0.6,0.18-0.92C36.05,49.96,35.67,49.8,35.33,49.8z M35.33,49.8c0.34-0.01,0.73,0.1,0.91,0.44
				c0.19,0.33,0.16,0.74,0.05,1.1c-0.11,0.36-0.29,0.71-0.55,1l-0.21,0.2c-0.11,0.07-0.25,0.16-0.38,0.17
				c-0.27,0.04-0.51-0.02-0.7-0.12c-0.38-0.2-0.67-0.49-0.87-0.83c-0.18-0.35-0.3-0.78-0.17-1.19c0.14-0.43,0.55-0.6,0.88-0.68
				C34.64,49.83,34.98,49.81,35.33,49.8z"/>
		</g>
		<g>
			<path class="st0" d="M47.89,52.5c2.09,0,2.09-2.49,0-2.49C46.49,50.02,46.49,52.5,47.89,52.5z"/>
			<path class="st1" d="M47.89,52.5c0.34-0.02,0.68-0.09,0.95-0.28c0.27-0.19,0.42-0.5,0.43-0.79c0-0.61-0.5-0.94-1.03-1.04
				c-0.3-0.04-0.54-0.07-0.74,0.04c-0.21,0.1-0.4,0.34-0.47,0.64c-0.08,0.29-0.08,0.63,0.06,0.93C47.22,52.3,47.54,52.51,47.89,52.5
				z M47.89,52.5c-0.72,0.03-1.23-0.74-1.21-1.47c0-0.37,0.13-0.79,0.48-1.08c0.17-0.14,0.4-0.23,0.61-0.25
				c0.22-0.02,0.39,0,0.59,0.02c0.39,0.07,0.78,0.28,1.04,0.62c0.25,0.34,0.32,0.79,0.2,1.17c-0.11,0.38-0.4,0.66-0.72,0.8
				C48.56,52.45,48.22,52.5,47.89,52.5z"/>
		</g>
		<g>
			<path class="st0" d="M26.96,59.37c-1.4,0-1.4,2.49,0,2.49S28.35,59.37,26.96,59.37z"/>
			<path class="st1" d="M26.96,59.37c-0.3,0-0.6,0.16-0.75,0.42c-0.14,0.26-0.17,0.56-0.13,0.83c0.04,0.27,0.17,0.52,0.33,0.67
				c0.16,0.16,0.33,0.22,0.55,0.22c0.21,0,0.38-0.06,0.54-0.22c0.16-0.16,0.29-0.4,0.33-0.67c0.04-0.27,0.02-0.57-0.13-0.83
				C27.56,59.53,27.26,59.37,26.96,59.37z M26.96,59.37c0.63-0.03,1.15,0.58,1.22,1.24c0.04,0.33,0.01,0.7-0.2,1.03
				c-0.2,0.34-0.63,0.56-1.03,0.56c-0.4,0-0.83-0.22-1.02-0.56c-0.2-0.34-0.23-0.7-0.2-1.03C25.81,59.94,26.33,59.34,26.96,59.37z"
				/>
		</g>
		<g>
			<path class="st0" d="M41.61,57c-1.4,0-1.4,2.49,0,2.49C43,59.49,43,57,41.61,57z"/>
			<path class="st1" d="M41.61,57c-0.3,0-0.6,0.16-0.75,0.42c-0.14,0.26-0.17,0.56-0.13,0.83c0.04,0.27,0.17,0.52,0.33,0.67
				c0.16,0.16,0.33,0.22,0.55,0.22c0.21,0,0.38-0.06,0.54-0.22c0.16-0.16,0.29-0.4,0.33-0.67c0.04-0.27,0.02-0.57-0.13-0.83
				C42.21,57.16,41.91,57.01,41.61,57z M41.61,57c0.63-0.03,1.15,0.58,1.22,1.24c0.04,0.33,0.01,0.7-0.2,1.03
				c-0.2,0.34-0.63,0.56-1.03,0.56c-0.4,0-0.83-0.22-1.02-0.56c-0.2-0.34-0.23-0.7-0.2-1.03C40.46,57.58,40.98,56.97,41.61,57z"/>
		</g>
		<g>
			<path class="st0" d="M52.77,63.57c1.4,0,1.4-2.49,0-2.49C51.67,61.09,49.98,63.57,52.77,63.57z"/>
			<path class="st1" d="M52.77,63.57c0.34,0,0.65-0.2,0.79-0.49c0.14-0.29,0.14-0.62,0.07-0.91c-0.14-0.63-0.69-0.86-1.08-0.68
				c-0.44,0.19-0.99,0.64-1.12,1.17c-0.06,0.26,0.09,0.56,0.38,0.7C52.1,63.53,52.44,63.55,52.77,63.57z M52.77,63.57
				c-0.33-0.01-0.67-0.01-1-0.12c-0.33-0.07-0.68-0.38-0.69-0.8c-0.01-0.8,0.47-1.49,1.22-1.82c0.41-0.16,0.92-0.08,1.25,0.21
				c0.33,0.3,0.43,0.72,0.43,1.08C53.98,62.86,53.47,63.6,52.77,63.57z"/>
		</g>
		<g>
			<path class="st0" d="M34.63,68.61c-1.66,0-2.4,2.87,0,2.49C36.01,70.87,36.03,68.61,34.63,68.61z"/>
			<path class="st1" d="M34.63,68.61c-0.7,0-1.24,0.63-1.31,1.23c-0.05,0.3,0.03,0.59,0.2,0.73c0.15,0.14,0.38,0.21,0.66,0.21
				c0.3-0.01,0.57-0.01,0.77-0.14c0.22-0.12,0.42-0.34,0.51-0.63c0.1-0.28,0.11-0.62-0.03-0.91C35.3,68.8,34.97,68.6,34.63,68.61z
				 M34.63,68.61c0.71-0.05,1.26,0.71,1.18,1.46c-0.03,0.37-0.17,0.77-0.5,1.06c-0.16,0.14-0.36,0.24-0.57,0.29
				c-0.2,0.04-0.38,0.06-0.58,0.06c-0.38-0.01-0.86-0.15-1.13-0.55c-0.26-0.4-0.2-0.86-0.05-1.19
				C33.3,69.05,33.96,68.62,34.63,68.61z"/>
		</g>
		<g>
			<path class="st0" d="M47.19,73.61v0.11c0,0.65,0.72,1.27,1.4,1.24c0.67-0.03,1.4-0.55,1.4-1.24v-0.11c0-0.65-0.72-1.27-1.4-1.24
				C47.91,72.4,47.19,72.92,47.19,73.61z"/>
			<path class="st1" d="M47.19,73.61c-0.05,0.74,0.75,1.27,1.34,1.18c0.61-0.09,1.12-0.63,1.1-1.07c0.05-0.49-0.4-1.05-0.99-1.17
				C48.05,72.45,47.2,72.86,47.19,73.61z M47.19,73.61c0.02-0.71,0.68-1.31,1.45-1.42c0.41-0.04,0.82,0.11,1.15,0.37
				c0.16,0.14,0.31,0.3,0.4,0.5c0.1,0.18,0.14,0.49,0.13,0.65c0,0.49-0.29,0.91-0.64,1.13c-0.35,0.23-0.76,0.32-1.16,0.28
				c-0.41-0.05-0.74-0.28-0.97-0.55C47.31,74.31,47.15,73.97,47.19,73.61z"/>
		</g>
		<g>
			<path class="st0" d="M20.33,71.62c-0.67,0.03-1.05,0.55-1.05,1.24v0.11c0,0.65,0.38,1.27,1.05,1.24
				c0.67-0.03,1.05-0.55,1.05-1.24v-0.11C21.38,72.21,21,71.59,20.33,71.62z"/>
			<path class="st1" d="M20.33,71.62c-0.31,0.01-0.62,0.17-0.77,0.44c-0.15,0.27-0.15,0.57-0.11,0.86c0.08,0.6,0.48,0.99,0.86,0.94
				c0.45,0,0.81-0.34,0.89-0.95c0.05-0.29,0.03-0.59-0.11-0.86C20.95,71.78,20.65,71.6,20.33,71.62z M20.33,71.62
				c0.66-0.06,1.17,0.63,1.22,1.29c0.05,0.32,0.04,0.72-0.17,1.07c-0.21,0.36-0.64,0.57-1.03,0.58c-0.42,0.03-0.87-0.23-1.06-0.58
				c-0.2-0.35-0.22-0.73-0.17-1.06C19.15,72.24,19.68,71.59,20.33,71.62z"/>
		</g>
		<g>
			<path class="st0" d="M26.26,78.49c-1.4,0-1.4,2.49,0,2.49C27.66,80.98,27.66,78.49,26.26,78.49z"/>
			<path class="st1" d="M26.26,78.49c-0.3,0-0.6,0.16-0.75,0.42c-0.14,0.26-0.17,0.56-0.13,0.83c0.04,0.27,0.17,0.52,0.33,0.67
				c0.16,0.16,0.33,0.22,0.55,0.22c0.21,0,0.38-0.06,0.54-0.22c0.16-0.16,0.29-0.4,0.33-0.67c0.04-0.27,0.02-0.57-0.13-0.83
				C26.86,78.65,26.57,78.5,26.26,78.49z M26.26,78.49c0.63-0.03,1.15,0.58,1.22,1.24c0.04,0.33,0.01,0.7-0.2,1.03
				c-0.2,0.34-0.63,0.56-1.03,0.56c-0.4,0-0.83-0.22-1.02-0.56c-0.2-0.34-0.23-0.7-0.2-1.03C25.11,79.07,25.63,78.46,26.26,78.49z"
				/>
		</g>
		<g>
			<path class="st0" d="M41.61,77.53c-1.4,0-1.4,2.49,0,2.49C43,80.01,43,77.53,41.61,77.53z"/>
			<path class="st1" d="M41.61,77.53c-0.3,0-0.6,0.16-0.75,0.42c-0.14,0.26-0.17,0.56-0.13,0.83c0.04,0.27,0.17,0.52,0.33,0.67
				c0.16,0.16,0.33,0.22,0.55,0.22c0.21,0,0.38-0.06,0.54-0.22c0.16-0.16,0.29-0.4,0.33-0.67c0.04-0.27,0.02-0.57-0.13-0.83
				C42.21,77.69,41.91,77.53,41.61,77.53z M41.61,77.53c0.63-0.03,1.15,0.58,1.22,1.24c0.04,0.33,0.01,0.7-0.2,1.03
				c-0.2,0.34-0.63,0.56-1.03,0.56c-0.4,0-0.83-0.22-1.02-0.56c-0.2-0.34-0.23-0.7-0.2-1.03C40.46,78.1,40.98,77.5,41.61,77.53z"/>
		</g>
	</g>
	<path class="st1" d="M59.95,20.51c2.19-0.24,4.5,0.59,6.15,2.11c1.67,1.52,2.78,3.57,3.47,5.68c0.21,0.52,0.28,1.08,0.42,1.61
		c0.11,0.54,0.29,1.08,0.34,1.63l0.21,1.65l0.1,0.82c0.02,0.28,0.01,0.55,0.02,0.83c0,1.1,0.09,2.21,0.01,3.31
		c-0.09,1.1-0.15,2.2-0.27,3.29c-0.05-1.1-0.05-2.2-0.08-3.29c0.01-1.09-0.14-2.18-0.21-3.27c-0.06-1.09-0.29-2.15-0.43-3.23
		c-0.06-0.54-0.24-1.05-0.36-1.58c-0.15-0.52-0.23-1.06-0.44-1.56c-0.62-2.06-1.68-3.99-3.18-5.5c-0.36-0.4-0.81-0.69-1.22-1.03
		c-0.47-0.26-0.91-0.58-1.41-0.76C62.13,20.78,61.05,20.53,59.95,20.51z"/>
	<path class="st1" d="M65.2,20.17c2.19-0.24,4.5,0.59,6.15,2.11c1.67,1.52,2.78,3.57,3.47,5.68c0.21,0.52,0.28,1.08,0.42,1.61
		c0.11,0.54,0.29,1.08,0.34,1.63l0.21,1.65l0.1,0.82c0.02,0.28,0.01,0.55,0.02,0.83c0,1.1,0.09,2.21,0.01,3.31
		c-0.09,1.1-0.15,2.2-0.27,3.29c-0.05-1.1-0.05-2.2-0.08-3.29c0.01-1.09-0.14-2.18-0.21-3.27c-0.06-1.09-0.29-2.15-0.43-3.23
		c-0.06-0.54-0.24-1.05-0.36-1.58c-0.15-0.52-0.23-1.06-0.44-1.56c-0.62-2.06-1.68-3.99-3.18-5.5c-0.36-0.4-0.81-0.69-1.22-1.03
		c-0.47-0.26-0.91-0.58-1.41-0.76C67.37,20.43,66.3,20.18,65.2,20.17z"/>
	<path class="st1" d="M70.78,20.17c2.19-0.24,4.5,0.59,6.15,2.11c1.67,1.52,2.78,3.57,3.47,5.68c0.21,0.52,0.28,1.08,0.42,1.61
		c0.11,0.54,0.29,1.08,0.34,1.63l0.21,1.65l0.1,0.82c0.02,0.28,0.01,0.55,0.02,0.83c0,1.1,0.09,2.21,0.01,3.31
		c-0.09,1.1-0.15,2.2-0.27,3.29c-0.05-1.1-0.05-2.2-0.08-3.29c0.01-1.09-0.14-2.18-0.21-3.27c-0.06-1.09-0.29-2.15-0.43-3.23
		c-0.06-0.54-0.24-1.05-0.36-1.58c-0.15-0.52-0.23-1.06-0.44-1.56c-0.62-2.06-1.68-3.99-3.18-5.5c-0.36-0.4-0.81-0.69-1.22-1.03
		c-0.47-0.26-0.91-0.58-1.41-0.76C72.96,20.43,71.88,20.18,70.78,20.17z"/>
</g>
</svg>
