<?xml version="1.0" encoding="utf-8"?>
<!-- Generator: Adobe Illustrator 24.0.1, SVG Export Plug-In . SVG Version: 6.00 Build 0)  -->
<svg version="1.1" id="Capa_1" xmlns="http://www.w3.org/2000/svg" xmlns:xlink="http://www.w3.org/1999/xlink" x="0px" y="0px"
	 viewBox="0 0 100 100" style="enable-background:new 0 0 100 100;" xml:space="preserve">
<style type="text/css">
	.st0{fill:#7DC265;}
	.st1{fill:#070103;}
	.st2{fill:#C8D746;}
	.st3{fill:#050404;}
</style>
<g>
	<g>
		<g>
			<path class="st0" d="M87.65,25.92c-2.6-5.96-9.64-10.27-16.09-8.54c-0.21-1.34-0.26-2.71-0.99-3.99
				c-0.93-1.63-2.58-2.81-4.38-3.3c-2.14-0.59-4.12-0.14-5.66,1c-0.54-1.72-1.39-3.31-2.87-4.53c-2.04-1.67-4.88-2-7.42-1.72
				c-2.53,0.28-5.2,1.21-7.04,3.05c-1.1,1.1-1.71,2.48-2.01,3.94c-1.62-1.38-3.61-2.13-5.79-1.27c-2.64,1.04-4.01,4.05-4.07,6.9
				c-3.22-0.86-6.33-1.78-9.62-0.17c-3.57,1.74-6.05,5.33-6.85,9.16c-0.77,3.63-0.21,7.3,2.18,10.22c2.01,2.45,4.54,3.16,7.26,3.71
				c-1.56,1.66-2.34,3.81-1.87,6.5c0.58,3.28,3.28,4.85,6.21,4.87c-0.52,2.81-0.79,5.51,1.62,7.81c2.4,2.29,6.06,2.82,9.23,2.91
				c3.58,0.11,7.33-0.49,10.19-2.8c0.94-0.76,1.66-1.6,2.19-2.51c0.43,0.69,0.93,1.34,1.49,1.92c2.43,2.52,6.1,2.99,9.44,2.69
				c4.89-0.45,8.12-3.46,8.96-7.61c2.48,0.99,5.67,0.37,7.89-1.57c3.7-3.24,4.21-8.03,1.72-11.6c2.53-0.87,4.93-1.9,6.49-4.31
				C89.98,33.41,89.11,29.28,87.65,25.92z"/>
			<path class="st1" d="M87.65,25.92c-1.34-3.01-3.72-5.51-6.59-7.1c-2.85-1.6-6.31-2.25-9.49-1.37l-0.07,0.02l-0.01-0.07
				c-0.2-1.29-0.28-2.63-0.89-3.78c-0.6-1.15-1.57-2.08-2.7-2.71c-1.13-0.63-2.42-0.99-3.71-0.96c-1.29,0.03-2.56,0.48-3.59,1.25
				l-0.13,0.1l-0.05-0.16c-0.62-2.01-1.8-3.9-3.61-5c-1.8-1.09-4-1.34-6.09-1.17c-2.09,0.19-4.19,0.76-5.95,1.9
				C43.9,7.43,43.11,8.14,42.53,9c-0.58,0.86-0.95,1.86-1.15,2.88l-0.07,0.32l-0.26-0.21c-0.92-0.77-2-1.38-3.17-1.53
				c-1.17-0.18-2.37,0.16-3.35,0.8c-0.99,0.65-1.72,1.64-2.21,2.72c-0.49,1.09-0.73,2.29-0.75,3.48l-0.01,0.31l-0.3-0.08
				c-1.65-0.43-3.28-0.89-4.95-1c-1.66-0.12-3.33,0.2-4.79,1c-2.95,1.56-5.09,4.45-6.06,7.62c-0.97,3.17-0.86,6.77,0.81,9.64
				c0.82,1.43,1.96,2.68,3.38,3.5c1.42,0.83,3.06,1.23,4.71,1.57l0.65,0.13l-0.45,0.48c-0.85,0.91-1.5,2.01-1.76,3.23
				c-0.27,1.2-0.2,2.51,0.14,3.69c0.34,1.19,1.11,2.22,2.15,2.88c1.04,0.67,2.29,0.98,3.54,1l0.38,0.01l-0.07,0.37
				c-0.25,1.32-0.45,2.64-0.3,3.93c0.13,1.29,0.71,2.49,1.63,3.42c1.83,1.9,4.55,2.64,7.18,2.92c2.66,0.26,5.38,0.24,7.95-0.49
				c2.54-0.71,4.93-2.25,6.29-4.53l0.18-0.3l0.19,0.3c0.54,0.88,1.19,1.7,1.96,2.37c0.78,0.67,1.68,1.19,2.65,1.54
				c1.95,0.71,4.08,0.81,6.15,0.63c2.06-0.19,4.1-0.89,5.7-2.22c1.61-1.31,2.7-3.2,3.11-5.24l0.03-0.15l0.15,0.06
				c1.62,0.64,3.48,0.59,5.13,0c1.66-0.57,3.09-1.73,4.13-3.14c1.07-1.4,1.69-3.13,1.75-4.89c0.07-1.77-0.51-3.52-1.5-4.98
				l-0.05-0.07l0.08-0.03c1.51-0.51,3.01-1.1,4.31-2.03c1.3-0.92,2.33-2.22,2.9-3.7c0.58-1.49,0.64-3.14,0.43-4.71
				C88.78,28.92,88.27,27.38,87.65,25.92z M87.65,25.92c0.64,1.46,1.15,3,1.38,4.58c0.22,1.58,0.17,3.23-0.4,4.74
				c-0.56,1.5-1.6,2.82-2.9,3.76c-1.31,0.95-2.82,1.54-4.33,2.07l0.03-0.09c1.02,1.47,1.61,3.25,1.56,5.05
				c-0.05,1.79-0.67,3.57-1.75,5c-1.05,1.45-2.5,2.64-4.21,3.24c-1.69,0.61-3.61,0.69-5.31,0.03l0.18-0.1
				c-0.4,2.09-1.51,4.06-3.17,5.42c-1.65,1.38-3.75,2.12-5.87,2.32c-2.1,0.2-4.28,0.11-6.31-0.61c-1.01-0.36-1.96-0.9-2.78-1.6
				c-0.82-0.71-1.49-1.55-2.06-2.46l0.37,0c-1.41,2.41-3.9,4.02-6.52,4.78c-2.65,0.77-5.43,0.81-8.14,0.56
				c-1.36-0.13-2.72-0.39-4.02-0.85c-1.3-0.47-2.54-1.17-3.52-2.19c-1-0.99-1.67-2.35-1.82-3.75c-0.17-1.41,0.05-2.79,0.28-4.12
				l0.31,0.38c-1.35-0.01-2.73-0.34-3.9-1.08c-1.17-0.73-2.07-1.91-2.45-3.24c-0.39-1.32-0.46-2.7-0.18-4.05
				c0.28-1.35,0.99-2.58,1.91-3.58l0.2,0.62c-1.67-0.33-3.39-0.77-4.93-1.67c-1.53-0.9-2.76-2.25-3.62-3.78
				c-1.76-3.09-1.83-6.87-0.8-10.16c1.04-3.31,3.28-6.3,6.39-7.93c1.54-0.84,3.35-1.17,5.08-1.03c1.74,0.12,3.4,0.61,5.04,1.05
				l-0.31,0.23c0.04-1.26,0.3-2.51,0.82-3.66c0.52-1.14,1.31-2.2,2.39-2.9c1.07-0.69,2.38-1.05,3.66-0.85
				c1.28,0.18,2.42,0.84,3.37,1.64L41,11.8c0.22-1.06,0.61-2.1,1.23-3.01c0.61-0.91,1.45-1.64,2.36-2.23
				c1.84-1.17,3.98-1.73,6.12-1.91c2.13-0.16,4.38,0.11,6.25,1.25c1.87,1.15,3.07,3.12,3.68,5.16L60.46,11
				c1.07-0.79,2.39-1.25,3.72-1.27c1.33-0.02,2.65,0.35,3.8,1.01c1.15,0.65,2.14,1.62,2.75,2.8c0.62,1.19,0.7,2.55,0.88,3.83
				l-0.08-0.05c3.22-0.87,6.7-0.18,9.55,1.44C83.96,20.37,86.33,22.89,87.65,25.92z"/>
		</g>
		<path class="st1" d="M64.76,58.76c0.98-0.67,1.81-1.27,2.58-2c0.78-0.71,1.44-1.5,2.18-2.43c0,1.2-0.64,2.34-1.51,3.15
			C67.13,58.3,65.96,58.85,64.76,58.76z"/>
		<path class="st1" d="M81.05,38.8c0.98-0.67,1.81-1.27,2.58-2c0.78-0.71,1.44-1.5,2.18-2.43c0,1.2-0.64,2.34-1.51,3.15
			C83.42,38.33,82.25,38.88,81.05,38.8z"/>
		<path class="st1" d="M28.93,22.7c-1.03,0.17-2.06,0.25-2.96,0.56c-0.91,0.3-1.62,0.86-2.28,1.59c-0.67,0.71-1.25,1.5-1.71,2.36
			c-0.46,0.86-0.78,1.8-0.93,2.83c-0.28-1.01-0.15-2.14,0.22-3.14c0.36-1.02,0.97-1.93,1.69-2.72c0.37-0.38,0.78-0.76,1.26-1.06
			c0.48-0.29,1.02-0.51,1.56-0.6C26.87,22.31,27.92,22.46,28.93,22.7z"/>
		<path class="st1" d="M23.23,20.48c-0.91,0.76-1.68,1.44-2.38,2.24c-0.71,0.78-1.29,1.63-1.94,2.62c-0.12-1.2,0.41-2.39,1.2-3.28
			C20.91,21.17,22.03,20.5,23.23,20.48z"/>
	</g>
	<g>
		<path class="st2" d="M61.5,88.37c0-20.92,2.99-23.91,3.74-26.9c0.75-2.99,1.49-3.74,1.49-3.74l-5.23-2.24
			c-1.49,8.22-1.49,11.96-3.74,12.7c-2.24,0.75-1.49-15.69-1.49-15.69h-6.72c0,0,3.74,20.17-0.75,17.93
			c-4.48-2.24-8.22-14.2-8.22-14.2l-4.48,1.49c0,0,8.22,11.96,7.47,18.68c-0.75,6.72,0.75,13.45,0,15.69
			c-0.75,2.24,17.93,2.99,17.93,1.49S61.5,88.37,61.5,88.37z"/>
		<path class="st3" d="M61.5,88.37c0-2.62,0.02-5.23,0.14-7.85c0.1-2.61,0.3-5.23,0.61-7.83c0.33-2.59,0.78-5.19,1.62-7.68
			c0.39-1.25,0.96-2.44,1.29-3.7c0.16-0.64,0.34-1.27,0.57-1.89c0.24-0.62,0.47-1.23,0.91-1.79l0.04,0.22l-5.24-2.22l0.22-0.12
			c-0.44,2.45-0.79,4.91-1.2,7.37c-0.22,1.23-0.43,2.47-0.9,3.66c-0.25,0.59-0.59,1.19-1.17,1.57c-0.13,0.11-0.3,0.16-0.45,0.23
			c-0.14,0.08-0.44,0.1-0.63-0.02c-0.37-0.25-0.46-0.58-0.59-0.88c-0.41-1.24-0.5-2.49-0.62-3.74c-0.1-1.25-0.14-2.5-0.17-3.74
			c-0.05-2.5-0.02-4.99,0.07-7.48l0.29,0.3l-6.72,0.03l0.31-0.37c0.54,2.98,0.98,5.97,1.28,8.98c0.14,1.51,0.25,3.02,0.24,4.55
			c0,0.76-0.05,1.53-0.16,2.3c-0.14,0.76-0.24,1.57-0.87,2.29c-0.1,0.08-0.2,0.16-0.3,0.23c-0.11,0.06-0.25,0.09-0.37,0.13
			c-0.24,0.03-0.53,0.02-0.72-0.07c-0.11-0.04-0.22-0.08-0.32-0.12l-0.25-0.16l-0.51-0.33c-0.32-0.23-0.59-0.52-0.89-0.78
			c-0.27-0.28-0.52-0.58-0.77-0.87c-0.96-1.21-1.74-2.53-2.45-3.87c-1.4-2.7-2.5-5.53-3.44-8.41l0.35,0.18l-4.49,1.48l0.13-0.39
			c1.39,2.1,2.66,4.27,3.82,6.51c1.15,2.23,2.19,4.54,2.91,6.96c0.17,0.61,0.35,1.21,0.46,1.84c0.15,0.62,0.21,1.25,0.26,1.88
			c0.05,0.63,0,1.28-0.04,1.91c-0.06,0.62-0.12,1.24-0.15,1.86c-0.14,2.49-0.02,5,0.14,7.49c0.08,1.25,0.17,2.5,0.19,3.76
			c0.01,0.63-0.01,1.26-0.12,1.89l-0.11,0.46c-0.03,0.11,0.01,0.23,0.11,0.34c0.19,0.21,0.48,0.34,0.76,0.46
			c1.16,0.44,2.4,0.64,3.64,0.83c1.24,0.17,2.48,0.3,3.73,0.39c2.5,0.16,5.01,0.25,7.5,0.05c0.62-0.07,1.26-0.12,1.83-0.36
			c0.36-0.1,0.23-0.5,0.26-0.79l0-0.94L61.5,88.37z M61.5,88.37l0.02,3.76l0,0.94l0,0.47c0.03,0.18-0.14,0.31-0.28,0.37
			c-0.59,0.25-1.22,0.31-1.84,0.38c-2.5,0.22-5.01,0.16-7.52,0.01c-1.25-0.08-2.5-0.19-3.75-0.36c-1.24-0.18-2.49-0.36-3.69-0.81
			c-0.29-0.12-0.59-0.25-0.84-0.5c-0.12-0.12-0.21-0.33-0.15-0.52l0.11-0.45c0.1-0.61,0.11-1.23,0.1-1.85
			c-0.03-1.25-0.13-2.5-0.22-3.75c-0.18-2.5-0.32-5.01-0.2-7.53c0.02-0.63,0.07-1.26,0.13-1.88c0.03-0.63,0.08-1.23,0.02-1.85
			c-0.06-0.61-0.12-1.23-0.27-1.83c-0.11-0.61-0.29-1.21-0.47-1.8c-0.73-2.38-1.77-4.66-2.94-6.87c-1.17-2.21-2.45-4.36-3.84-6.42
			l-0.19-0.28l0.32-0.11l4.48-1.51l0.26-0.09l0.09,0.27c0.95,2.84,2.07,5.64,3.47,8.28c0.71,1.31,1.48,2.6,2.41,3.74
			c0.25,0.27,0.48,0.55,0.73,0.81c0.27,0.23,0.53,0.5,0.82,0.7l0.45,0.28l0.22,0.14l0.21,0.08c0.28,0.09,0.5,0.07,0.69-0.12
			c0.38-0.42,0.55-1.19,0.65-1.89c0.1-0.72,0.13-1.46,0.14-2.21c0.02-1.49-0.08-2.99-0.2-4.48c-0.27-2.99-0.68-5.98-1.19-8.93
			l-0.06-0.37l0.37,0l6.72,0.03l0.3,0l-0.01,0.3c-0.11,2.48-0.16,4.97-0.14,7.45c0.02,1.24,0.05,2.48,0.14,3.72
			c0.1,1.23,0.2,2.48,0.56,3.62c0.1,0.26,0.23,0.56,0.4,0.66c0.08,0.03,0.12,0.05,0.26-0.01c0.12-0.06,0.27-0.09,0.37-0.19
			c0.47-0.3,0.79-0.82,1.03-1.37c0.45-1.12,0.68-2.35,0.91-3.57c0.43-2.45,0.81-4.91,1.27-7.36l0.04-0.2l0.18,0.08l5.22,2.26
			l0.15,0.07l-0.11,0.15c-0.73,0.99-1.1,2.31-1.44,3.55c-0.34,1.28-0.92,2.46-1.32,3.7c-0.85,2.47-1.32,5.05-1.68,7.64
			c-0.34,2.59-0.56,5.2-0.68,7.81C61.57,83.13,61.52,85.75,61.5,88.37z"/>
	</g>
</g>
</svg>
