<?xml version="1.0" encoding="utf-8"?>
<!-- Generator: Adobe Illustrator 24.0.1, SVG Export Plug-In . SVG Version: 6.00 Build 0)  -->
<svg version="1.1" id="Capa_1" xmlns="http://www.w3.org/2000/svg" xmlns:xlink="http://www.w3.org/1999/xlink" x="0px" y="0px"
	 viewBox="0 0 100 100" style="enable-background:new 0 0 100 100;" xml:space="preserve">
<style type="text/css">
	.st0{fill:#FF931E;}
	.st1{fill:#110402;}
	.st2{fill:#C8D746;}
	.st3{fill:#050404;}
</style>
<g>
	<g>
		<path class="st0" d="M61.99,48.31c-0.48-4.79-2.24-8.95-5.41-11.07c-5.17-3.47-12.59-1.84-14.98,6.24
			c-1.52,5.14-0.99,11.62-0.51,17c0.56,6.34,1.6,12.6,2.44,18.87c0.77,5.71,1.92,10.99,3.91,16.11c0.59,1.51,1.29,3.27,2.41,4.11
			c1.77,1.33,3.34-0.34,3.91-2.69c0.02-0.08,0.03-0.16,0.05-0.24c0.7-1.5,1.25-3.1,1.79-4.79c0.81-2.53,1.73-4.98,2.48-7.56
			c1.63-5.64,3.06-11.77,3.67-17.82C62.31,60.64,62.57,54.13,61.99,48.31z"/>
		<path class="st1" d="M61.99,48.31c-0.21-1.98-0.63-3.94-1.38-5.78c-0.75-1.83-1.86-3.55-3.42-4.8c-1.57-1.21-3.47-2-5.46-2.12
			c-1.98-0.18-3.98,0.41-5.63,1.48c-1.64,1.11-2.87,2.74-3.67,4.53c-0.8,1.8-1.22,3.76-1.44,5.72c-0.42,3.94-0.14,7.92,0.22,11.87
			c0.35,3.96,0.87,7.9,1.43,11.83l0.86,5.91c0.29,1.97,0.53,3.94,0.88,5.89c0.67,3.91,1.59,7.77,2.95,11.49
			c0.35,0.92,0.69,1.86,1.1,2.75c0.41,0.87,0.9,1.75,1.63,2.28c0.36,0.27,0.79,0.42,1.19,0.37c0.41-0.04,0.79-0.29,1.1-0.62
			c0.62-0.67,1-1.61,1.19-2.53l0.01-0.04l0.01-0.03c0.88-1.84,1.49-3.81,2.15-5.76l1.96-5.86c1.23-3.93,2.24-7.93,3.03-11.97
			c0.81-4.04,1.2-8.15,1.44-12.26C62.36,56.54,62.38,52.41,61.99,48.31z M61.99,48.31c0.41,4.1,0.42,8.24,0.22,12.35
			c-0.22,4.12-0.59,8.23-1.33,12.29c-0.73,4.06-1.69,8.08-2.87,12.03l-1.89,5.89c-0.63,1.96-1.22,3.95-2.09,5.85l0.02-0.06
			c-0.2,1.01-0.57,2-1.29,2.82c-0.35,0.4-0.85,0.74-1.44,0.81c-0.59,0.08-1.16-0.15-1.59-0.47c-0.89-0.65-1.39-1.6-1.83-2.5
			c-0.43-0.92-0.77-1.85-1.13-2.79c-1.39-3.75-2.35-7.65-3.02-11.59c-0.34-1.97-0.58-3.95-0.85-5.92l-0.83-5.91
			c-0.55-3.94-1.04-7.9-1.33-11.87c-0.31-3.96-0.54-7.98-0.06-11.95c0.25-1.98,0.69-3.96,1.54-5.78c0.84-1.82,2.12-3.46,3.8-4.57
			c1.69-1.07,3.73-1.62,5.72-1.44c2,0.13,3.92,0.94,5.49,2.17c1.56,1.26,2.66,3,3.41,4.84C61.38,44.36,61.78,46.33,61.99,48.31z"/>
	</g>
	<g>
		<path class="st2" d="M49.95,39.43c-1.58-2.47-3.67-4.56-5.74-6.63c-2.61-2.61-5.24-5.24-8.24-7.41c-2.99-2.17-6.4-3.87-10.05-4.43
			c3.7-0.54,7.49,0.31,10.91,1.82c3.42,1.51,6.51,3.66,9.56,5.82c-0.19-1.36-0.82-2.63-1.43-3.86c-3.19-6.39-6.38-12.78-9.56-19.18
			c1.27,1.35,3.09,2.05,4.57,3.17c1.46,1.11,2.58,2.61,3.6,4.14c4.14,6.22,7,13.3,8.34,20.65c0.56-10.97,0.57-21.97,0.04-32.95
			c2.44,10.62,3.49,21.55,3.09,32.44c2.52-3.17,5.07-6.37,8.29-8.82c3.22-2.45,7.22-4.12,11.25-3.76c-4.1,2.71-8.22,5.43-11.92,8.67
			c-3.7,3.24-6.98,7.05-9.07,11.5"/>
		<path class="st3" d="M49.95,39.43c-1.41-2.17-3.2-4.05-5.03-5.86c-1.84-1.81-3.66-3.64-5.59-5.35c-1.93-1.7-3.98-3.28-6.23-4.53
			c-2.24-1.25-4.67-2.18-7.2-2.56l-1.11-0.17l1.11-0.16c3.76-0.56,7.59,0.31,11.01,1.82c3.45,1.52,6.55,3.67,9.6,5.82l-0.33,0.2
			c-0.33-2.05-1.53-3.89-2.43-5.81l-2.86-5.71L35.15,5.68l-0.79-1.58l1.21,1.28C36.5,6.37,37.74,7,38.94,7.73
			c1.22,0.71,2.33,1.68,3.23,2.78c1.78,2.21,3.19,4.63,4.53,7.1c2.62,4.97,4.49,10.33,5.51,15.85l-0.64,0.04
			c0.26-5.48,0.43-10.97,0.44-16.46c0.02-5.49-0.1-10.98-0.35-16.46l0.54-0.07c2.43,10.64,3.45,21.6,3.04,32.51l-0.38-0.14
			c2.52-3.15,5.08-6.36,8.34-8.84c1.62-1.23,3.42-2.25,5.34-2.94c1.92-0.69,3.99-1.02,6.04-0.83l0.47,0.04l-0.39,0.26
			c-4.12,2.68-8.24,5.37-11.95,8.6c-3.7,3.21-7,6.99-9.13,11.44c2.08-4.48,5.35-8.3,9.02-11.56c3.69-3.27,7.8-6.02,11.88-8.75
			l0.08,0.3c-1.99-0.18-4.01,0.16-5.89,0.84c-1.88,0.68-3.64,1.69-5.23,2.91c-3.2,2.45-5.73,5.64-8.24,8.8l-0.4,0.5l0.02-0.64
			c0.37-10.87-0.69-21.78-3.15-32.37l0.54-0.07c0.28,5.49,0.41,10.99,0.42,16.49c0,5.5-0.11,11-0.41,16.49l-0.15,2.76l-0.49-2.72
			c-0.99-5.46-2.82-10.78-5.39-15.7c-1.31-2.44-2.72-4.87-4.44-7.02c-0.87-1.07-1.89-1.97-3.08-2.67c-1.17-0.72-2.46-1.38-3.47-2.45
			l0.42-0.29L41.3,16.9l2.84,5.72l1.42,2.87c0.46,0.97,0.88,1.99,1.03,3.08l0.07,0.48l-0.4-0.28c-3.04-2.16-6.11-4.3-9.51-5.82
			c-3.37-1.5-7.13-2.36-10.81-1.83l0-0.33c2.58,0.4,5.03,1.38,7.28,2.67c2.25,1.29,4.3,2.9,6.22,4.63c1.92,1.73,3.72,3.58,5.54,5.41
			C46.79,35.34,48.57,37.24,49.95,39.43z"/>
	</g>
	<path class="st1" d="M47.89,51.62c2.39,0.41,4.76,0.76,7.12,0.54c2.34-0.21,4.64-0.98,6.56-2.46c-0.78,0.94-1.8,1.68-2.93,2.19
		c-1.12,0.52-2.34,0.82-3.58,0.93C52.6,53.03,50.13,52.54,47.89,51.62z"/>
	<path class="st1" d="M41.27,62.35c-0.19,0.61,0.28,1.12,0.64,1.56c0.39,0.45,0.84,0.82,1.34,1.13c0.99,0.62,2.13,0.98,3.29,1.14
		c1.17,0.18,2.37,0.19,3.58,0.2c1.2-0.01,2.4-0.05,3.59-0.35c-1.1,0.55-2.35,0.78-3.57,0.87c-1.22,0.1-2.46,0.12-3.7-0.06
		c-1.23-0.19-2.47-0.61-3.49-1.37c-0.51-0.37-0.96-0.84-1.3-1.36c-0.17-0.27-0.32-0.54-0.42-0.84
		C41.12,62.97,41.08,62.61,41.27,62.35z"/>
	<path class="st1" d="M59.89,75.29c-0.83,1.59-2.05,2.97-3.45,4.11c-0.71,0.56-1.46,1.08-2.31,1.44c-0.84,0.37-1.78,0.55-2.67,0.4
		c1.79-0.25,3.21-1.27,4.57-2.35C57.4,77.8,58.64,76.57,59.89,75.29z"/>
	<path class="st1" d="M54.69,85.35c-0.89,0.68-1.98,1.04-3.08,1.19c-1.1,0.13-2.25,0.05-3.28-0.39c1.11-0.08,2.15-0.13,3.2-0.27
		C52.58,85.76,53.6,85.55,54.69,85.35z"/>
</g>
</svg>
