<?xml version="1.0" encoding="utf-8"?>
<!-- Generator: Adobe Illustrator 24.0.1, SVG Export Plug-In . SVG Version: 6.00 Build 0)  -->
<svg version="1.1" id="Capa_1" xmlns="http://www.w3.org/2000/svg" xmlns:xlink="http://www.w3.org/1999/xlink" x="0px" y="0px"
	 viewBox="0 0 100 100" style="enable-background:new 0 0 100 100;" xml:space="preserve">
<style type="text/css">
	.st0{fill:#FBBE3B;}
	.st1{fill:#0C0B0B;}
	.st2{fill:#FFFFFF;}
</style>
<g>
	<g>
		<path class="st0" d="M95,42.43c0,0-9.53,3.57-5.95,7.74s1.79,4.17,5.95,4.76c0,0,0.6,26.8-19.65,26.2s-27.99,1.79-27.99,1.79
			s-5.36-10.12-9.53,0c0,0-23.22,0.6-30.37-1.79c0,0-2.38,5.36-2.98-27.99c0,0-1.19-3.57,2.98-7.15c0,0,28.58-20.25,36.92-22.03
			c0,0,2.98,4.76,8.93,1.19s3.57-5.95,4.17-6.55c0.6-0.6,15.48-7.15,35.13,15.48C92.62,34.09,94.4,35.28,95,42.43"/>
		<path class="st1" d="M95,42.43c-1.51,0.61-2.96,1.36-4.28,2.32c-0.65,0.49-1.27,1.02-1.74,1.68c-0.48,0.64-0.78,1.45-0.63,2.24
			c0.07,0.39,0.26,0.75,0.47,1.09c0.24,0.32,0.5,0.63,0.77,0.94c0.52,0.63,1.01,1.28,1.47,1.96c0.47,0.66,0.84,1.45,1.6,1.69
			c0.74,0.27,1.57,0.34,2.37,0.46l0.1,0.02l0,0.1c0.01,2.73-0.26,5.44-0.76,8.12c-0.5,2.67-1.28,5.31-2.42,7.8
			c-0.59,1.23-1.27,2.42-2.06,3.55c-0.81,1.11-1.72,2.14-2.75,3.06c-2.08,1.8-4.63,3.07-7.34,3.57c-2.72,0.57-5.47,0.31-8.16,0.3
			c-2.71-0.01-5.42-0.01-8.12,0.09c-2.7,0.09-5.41,0.25-8.1,0.52c-2.68,0.29-5.39,0.62-7.96,1.29L47.2,83.3l-0.13-0.23
			c-0.54-0.96-1.2-1.9-1.97-2.69c-0.76-0.78-1.68-1.49-2.7-1.6c-1.02-0.13-1.95,0.53-2.62,1.37c-0.69,0.85-1.18,1.87-1.62,2.9
			l-0.09,0.22l-0.23,0.01c-5.09,0.12-10.18,0.11-15.27-0.05c-2.55-0.08-5.09-0.22-7.63-0.43c-2.54-0.24-5.09-0.51-7.6-1.26
			l0.52-0.23c-0.12,0.21-0.2,0.43-0.61,0.55c-0.21,0.05-0.43-0.04-0.54-0.12c-0.14-0.09-0.19-0.17-0.26-0.26
			C6.2,81.14,6.11,80.84,6,80.53c-0.19-0.61-0.33-1.22-0.43-1.83c-0.22-1.22-0.37-2.43-0.5-3.65c-0.26-2.43-0.41-4.86-0.54-7.3
			c-0.25-4.87-0.36-9.73-0.45-14.6l0.02,0.12c-0.21-0.77-0.2-1.48-0.11-2.2c0.1-0.72,0.31-1.41,0.61-2.06
			c0.31-0.65,0.7-1.25,1.14-1.8c0.22-0.28,0.47-0.53,0.7-0.79l0.77-0.72l0.01-0.01l0.02-0.01c5.9-4.12,11.87-8.12,17.95-11.96
			c3.05-1.91,6.11-3.8,9.26-5.55c1.58-0.87,3.15-1.74,4.79-2.51c1.62-0.8,3.3-1.5,5.08-1.98l0.19-0.05l0.12,0.18
			c0.65,0.94,1.65,1.71,2.74,2.1c1.11,0.38,2.33,0.37,3.47,0.03c1.15-0.33,2.22-0.91,3.23-1.59c0.99-0.69,1.96-1.46,2.59-2.45
			c0.32-0.49,0.52-1.04,0.55-1.61c0.02-0.29-0.01-0.57-0.04-0.88c-0.02-0.15-0.04-0.32-0.04-0.5c0.03-0.11,0-0.21,0.09-0.33
			c0.07-0.14,0.15-0.19,0.23-0.24c1.21-0.66,2.4-0.89,3.65-1.08c2.48-0.36,5.01-0.19,7.44,0.3c4.89,1.04,9.39,3.38,13.36,6.32
			c3.99,2.95,7.48,6.49,10.76,10.18l-0.01-0.01c0.57,0.53,0.85,1.22,1.13,1.9c0.26,0.69,0.45,1.4,0.61,2.12
			C94.7,39.5,94.88,40.96,95,42.43c-0.14-1.46-0.33-2.92-0.66-4.35c-0.17-0.71-0.37-1.42-0.64-2.1c-0.27-0.67-0.59-1.37-1.11-1.84
			l-0.01-0.01c-3.32-3.65-6.85-7.12-10.85-10.01c-3.98-2.89-8.48-5.11-13.28-6.12c-2.4-0.47-4.87-0.63-7.28-0.26
			c-1.18,0.17-2.45,0.47-3.41,1c-0.14,0.07-0.08,0.07-0.12,0.18c0,0.12,0.02,0.27,0.04,0.42c0.04,0.31,0.07,0.64,0.05,0.97
			c-0.03,0.67-0.27,1.32-0.62,1.86c-0.69,1.11-1.71,1.91-2.73,2.63c-1.03,0.7-2.15,1.32-3.38,1.68c-1.22,0.36-2.58,0.39-3.81-0.03
			c-1.23-0.44-2.29-1.23-3.05-2.33l0.31,0.13c-1.69,0.47-3.34,1.15-4.94,1.95c-1.61,0.77-3.18,1.65-4.74,2.51
			c-3.12,1.76-6.17,3.66-9.2,5.57c-6.05,3.86-12.01,7.88-17.87,12.02l0.03-0.02L7,46.97c-0.21,0.25-0.45,0.48-0.65,0.73
			c-0.41,0.51-0.76,1.06-1.03,1.64c-0.26,0.59-0.45,1.2-0.54,1.83c-0.08,0.62-0.06,1.3,0.09,1.84l0.02,0.07l0,0.05
			C5,58,5.13,62.86,5.4,67.71c0.14,2.42,0.3,4.85,0.54,7.25c0.12,1.2,0.26,2.4,0.48,3.58c0.1,0.59,0.23,1.17,0.4,1.72
			c0.08,0.27,0.19,0.54,0.31,0.71c0.06,0.09,0.1,0.05-0.06,0.05c-0.11,0.05,0-0.01,0.01-0.07l0.09-0.36l0.44,0.13
			c2.36,0.72,4.9,1.01,7.41,1.25c2.52,0.22,5.05,0.37,7.59,0.46c5.07,0.18,10.15,0.21,15.23,0.11l-0.32,0.22
			c0.46-1.07,0.97-2.14,1.74-3.07c0.38-0.47,0.83-0.89,1.38-1.21c0.55-0.32,1.22-0.47,1.86-0.4c1.3,0.16,2.3,0.98,3.11,1.81
			c0.82,0.86,1.49,1.82,2.06,2.85l-0.39-0.16c2.69-0.69,5.38-1,8.09-1.28c2.71-0.26,5.42-0.4,8.14-0.49
			c2.72-0.09,5.43-0.08,8.15-0.06c2.72,0.02,5.43,0.28,8.05-0.26c2.63-0.47,5.1-1.69,7.13-3.43c1-0.89,1.89-1.89,2.69-2.97
			c0.77-1.1,1.45-2.26,2.03-3.47c1.15-2.43,1.95-5.03,2.48-7.67c0.53-2.64,0.84-5.35,0.86-8.04l0.1,0.12
			c-0.8-0.14-1.62-0.21-2.41-0.51c-0.4-0.15-0.75-0.43-0.99-0.77c-0.25-0.33-0.46-0.68-0.68-1.02c-0.44-0.68-0.93-1.33-1.43-1.96
			c-0.26-0.31-0.52-0.62-0.76-0.96c-0.22-0.35-0.41-0.73-0.48-1.14c-0.14-0.83,0.18-1.67,0.68-2.32c0.49-0.66,1.12-1.19,1.78-1.67
			C92.02,43.75,93.48,43.02,95,42.43z"/>
	</g>
	<g>
		<path class="st0" d="M8.06,54.93c0,0,51.21-2.98,80.39-12.5"/>
		<path class="st1" d="M8.06,54.93c3.38-0.31,6.77-0.62,10.14-0.98c3.38-0.33,6.76-0.68,10.13-1.07c6.75-0.77,13.49-1.54,20.21-2.54
			c6.72-0.94,13.43-1.98,20.09-3.27c1.67-0.28,3.33-0.66,4.99-1c1.66-0.34,3.32-0.68,4.97-1.1c1.65-0.4,3.31-0.74,4.95-1.2
			l4.91-1.35c-6.42,2.25-13.04,3.89-19.68,5.32l-5,1.01l-5.02,0.88c-3.35,0.58-6.71,1.1-10.08,1.59
			c-6.74,0.93-13.49,1.71-20.26,2.34C21.63,54.18,14.85,54.69,8.06,54.93z"/>
	</g>
	<g>
		<ellipse class="st2" cx="39.92" cy="38.56" rx="4.47" ry="3.87"/>
		<path class="st1" d="M44.38,38.56c0.01,1.1-0.55,2.16-1.39,2.88c-0.83,0.73-1.94,1.16-3.08,1.22c-1.14,0.05-2.32-0.25-3.28-0.97
			c-0.95-0.7-1.63-1.88-1.63-3.13c0-1.25,0.67-2.43,1.63-3.13c0.96-0.72,2.15-1.02,3.28-0.97c1.14,0.06,2.25,0.48,3.08,1.22
			C43.84,36.4,44.4,37.45,44.38,38.56z M44.38,38.56c0-1.1-0.6-2.15-1.46-2.78c-0.87-0.64-1.96-0.92-3-0.87
			c-2.09,0.08-4.04,1.7-4.02,3.65c-0.02,1.95,1.93,3.57,4.02,3.65c1.04,0.05,2.13-0.22,3-0.87C43.79,40.7,44.38,39.66,44.38,38.56z"
			/>
	</g>
	<g>
		<ellipse class="st2" cx="67.31" cy="32.3" rx="5.06" ry="3.57"/>
		<path class="st1" d="M72.37,32.3c0,1.17-0.8,2.17-1.76,2.78c-0.97,0.63-2.13,0.95-3.3,1.02c-1.17,0.04-2.38-0.15-3.46-0.74
			c-0.53-0.3-1.03-0.69-1.41-1.22c-0.38-0.52-0.62-1.17-0.63-1.84c0.01-1.38,0.99-2.49,2.04-3.06c1.08-0.59,2.3-0.78,3.46-0.74
			c1.17,0.06,2.33,0.39,3.3,1.02C71.57,30.13,72.37,31.14,72.37,32.3z M72.37,32.3c-0.01-1.17-0.85-2.15-1.83-2.67
			c-0.99-0.54-2.14-0.72-3.23-0.68c-1.1,0.06-2.18,0.37-3.07,0.95c-0.88,0.56-1.55,1.45-1.55,2.4c-0.01,0.95,0.66,1.84,1.54,2.4
			c0.88,0.58,1.97,0.89,3.07,0.95c1.1,0.04,2.24-0.14,3.24-0.68C71.52,34.46,72.36,33.47,72.37,32.3z"/>
	</g>
	<g>
		<circle class="st2" cx="81.6" cy="60.59" r="3.28"/>
		<path class="st1" d="M84.88,60.59c0.04,1.72-1.4,3.41-3.28,3.5c-0.91,0.06-1.88-0.26-2.59-0.91c-0.71-0.65-1.13-1.61-1.13-2.59
			c0-0.97,0.42-1.94,1.13-2.59c0.71-0.65,1.67-0.97,2.59-0.91C83.48,57.18,84.91,58.87,84.88,60.59z M84.88,60.59
			c0-0.86-0.37-1.71-1-2.27c-0.63-0.57-1.47-0.84-2.27-0.78c-1.64,0.1-2.86,1.57-2.83,3.05c-0.03,1.48,1.19,2.96,2.83,3.05
			c0.8,0.06,1.64-0.21,2.27-0.78C84.5,62.29,84.87,61.45,84.88,60.59z"/>
	</g>
	<g>
		<circle class="st2" cx="63.44" cy="63.86" r="4.76"/>
		<path class="st1" d="M68.2,63.86c0.01,1.25-0.48,2.49-1.35,3.41c-0.86,0.93-2.1,1.52-3.41,1.57c-1.3,0.06-2.66-0.42-3.64-1.35
			c-0.99-0.92-1.57-2.27-1.57-3.64c0-1.37,0.58-2.72,1.57-3.64c0.98-0.93,2.34-1.41,3.64-1.35c1.31,0.05,2.56,0.65,3.41,1.58
			C67.72,61.37,68.21,62.61,68.2,63.86z M68.2,63.86c0-1.25-0.53-2.48-1.44-3.32c-0.9-0.84-2.14-1.27-3.32-1.22
			c-1.19,0.05-2.32,0.6-3.1,1.44c-0.78,0.84-1.23,1.96-1.22,3.1c-0.01,1.13,0.44,2.26,1.22,3.1c0.78,0.85,1.9,1.39,3.1,1.44
			c1.19,0.06,2.42-0.37,3.32-1.22C67.67,66.35,68.2,65.11,68.2,63.86z"/>
	</g>
	<g>
		<circle class="st2" cx="12.23" cy="62.67" r="2.38"/>
		<path class="st1" d="M14.61,62.67c0.03,1.25-0.99,2.49-2.38,2.6c-0.68,0.07-1.41-0.16-1.96-0.65c-0.54-0.48-0.87-1.21-0.87-1.96
			c0-0.74,0.33-1.48,0.87-1.96c0.54-0.49,1.28-0.72,1.96-0.65C13.63,60.18,14.64,61.42,14.61,62.67z M14.61,62.67
			c0-0.62-0.28-1.24-0.74-1.64c-0.46-0.4-1.07-0.58-1.64-0.52c-1.16,0.12-1.96,1.15-1.94,2.16c-0.02,1.01,0.78,2.04,1.94,2.16
			c0.57,0.06,1.18-0.11,1.64-0.52C14.33,63.91,14.61,63.3,14.61,62.67z"/>
	</g>
	<g>
		<ellipse class="st2" cx="36.05" cy="67.14" rx="5.36" ry="4.47"/>
		<path class="st1" d="M41.41,67.14c0.02,1.3-0.7,2.53-1.71,3.34c-1.01,0.83-2.32,1.29-3.65,1.35c-1.33,0.05-2.71-0.29-3.84-1.09
			c-1.13-0.79-1.96-2.13-1.96-3.6c0-1.46,0.83-2.81,1.96-3.6c1.13-0.81,2.52-1.14,3.85-1.09c1.33,0.06,2.64,0.52,3.65,1.35
			C40.71,64.6,41.42,65.83,41.41,67.14z M41.41,67.14c0-1.3-0.74-2.52-1.79-3.24c-1.04-0.74-2.33-1.05-3.57-1
			c-1.24,0.06-2.46,0.5-3.38,1.26c-0.93,0.75-1.55,1.84-1.53,2.99c-0.01,1.14,0.61,2.24,1.53,2.99c0.92,0.76,2.14,1.2,3.38,1.26
			c1.24,0.05,2.53-0.26,3.57-1C40.66,69.66,41.41,68.44,41.41,67.14z"/>
	</g>
	<g>
		<ellipse class="st2" cx="17.89" cy="75.18" rx="3.28" ry="3.57"/>
		<path class="st1" d="M21.16,75.18c0.01,0.9-0.29,1.8-0.86,2.51c-0.56,0.72-1.44,1.24-2.41,1.28c-0.97,0.06-1.97-0.35-2.65-1.07
			c-0.69-0.72-1.06-1.72-1.07-2.72c0.01-1,0.38-2,1.07-2.72c0.68-0.73,1.69-1.14,2.65-1.07c0.97,0.05,1.85,0.57,2.41,1.29
			C20.87,73.38,21.17,74.28,21.16,75.18z M21.16,75.18c-0.01-0.9-0.34-1.79-0.96-2.43c-0.61-0.64-1.48-0.98-2.32-0.92
			c-1.72,0.11-2.86,1.78-2.83,3.35c-0.01,0.79,0.26,1.59,0.75,2.22c0.49,0.63,1.24,1.09,2.08,1.13c0.83,0.06,1.71-0.28,2.32-0.92
			C20.82,76.97,21.15,76.07,21.16,75.18z"/>
	</g>
	<g>
		<circle class="st2" cx="22.35" cy="47.19" r="2.98"/>
		<path class="st1" d="M25.33,47.19c0.03,1.56-1.26,3.1-2.98,3.2c-0.84,0.06-1.72-0.23-2.38-0.82c-0.66-0.59-1.04-1.48-1.05-2.38
			c0-0.9,0.39-1.79,1.05-2.38c0.65-0.6,1.54-0.88,2.38-0.82C24.07,44.08,25.36,45.63,25.33,47.19z M25.33,47.19
			c0-0.78-0.34-1.55-0.92-2.06c-0.57-0.51-1.34-0.75-2.06-0.69c-1.48,0.1-2.56,1.43-2.53,2.75c-0.03,1.32,1.05,2.65,2.53,2.76
			c0.72,0.06,1.49-0.18,2.06-0.69C24.99,48.74,25.33,47.97,25.33,47.19z"/>
	</g>
</g>
</svg>
