<?xml version="1.0" encoding="utf-8"?>
<!-- Generator: Adobe Illustrator 24.0.1, SVG Export Plug-In . SVG Version: 6.00 Build 0)  -->
<svg version="1.1" id="Capa_1" xmlns="http://www.w3.org/2000/svg" xmlns:xlink="http://www.w3.org/1999/xlink" x="0px" y="0px"
	 viewBox="0 0 100 100" style="enable-background:new 0 0 100 100;" xml:space="preserve">
<style type="text/css">
	.st0{fill:#C8D746;}
	.st1{fill:#050404;}
	.st2{fill:#F9303A;}
</style>
<g>
	<path d="M32.71,61.41c3.14-3.14,6.06-6.49,8.59-10.12c2.57-3.59,4.83-7.4,6.71-11.37c1.86-3.99,3.47-8.09,4.64-12.32
		c1.18-4.23,1.97-8.56,2.34-12.93l0.23-2.72l1.46,2.32c2.42,3.86,4.57,7.88,6.47,12.01c1.88,4.14,3.55,8.39,4.81,12.75
		c1.28,4.35,2.33,8.81,2.68,13.37c0.27,4.54-0.16,9.22-2,13.37c1.44-4.29,1.67-8.86,1.1-13.28c-0.52-4.44-1.71-8.78-3.13-13.03
		c-1.45-4.24-3.04-8.43-4.97-12.48c-1.91-4.05-4.09-7.97-6.49-11.74l1.68-0.41c-0.43,4.48-1.3,8.91-2.56,13.22
		c-1.27,4.31-2.89,8.52-4.99,12.49c-2.07,3.98-4.49,7.77-7.25,11.28C39.21,55.31,36.13,58.57,32.71,61.41z"/>
	<g>
		<path class="st0" d="M55.94,15.44c-4.49,1.32-9.24,1.76-13.9,1.29c-0.11-1.08,0.02-2.18,0.39-3.19c0.07-0.2,0.17-0.42,0.34-0.54
			c0.32-0.22,0.75-0.07,1.12,0.06c4.56,1.69,9.58,0.18,14.43-0.24c1.8-0.16,3.63-0.16,5.4-0.55c1.77-0.39,3.52-1.23,4.57-2.71"/>
		<path class="st1" d="M55.94,15.44c-4.45,1.47-9.23,2.02-13.93,1.59l-0.24-0.02l-0.03-0.24c-0.07-0.66-0.06-1.33,0.05-1.98
			c0.05-0.33,0.12-0.65,0.22-0.97c0.12-0.31,0.15-0.64,0.49-1c0.39-0.36,0.91-0.26,1.22-0.16l0.91,0.3c0.59,0.18,1.2,0.3,1.81,0.4
			c2.46,0.36,4.99,0.06,7.5-0.27c1.26-0.17,2.52-0.36,3.8-0.46c1.28-0.12,2.55-0.13,3.81-0.22c1.26-0.1,2.51-0.26,3.69-0.69
			c1.18-0.42,2.29-1.11,3.06-2.13c-1.47,2.16-4.22,3.01-6.72,3.23c-1.27,0.14-2.54,0.19-3.79,0.35l-3.77,0.53
			c-2.51,0.36-5.09,0.72-7.68,0.34c-0.64-0.1-1.28-0.24-1.91-0.44c-0.61-0.18-1.3-0.53-1.49-0.3c-0.12,0.1-0.23,0.43-0.32,0.71
			c-0.09,0.29-0.16,0.59-0.21,0.89c-0.1,0.6-0.12,1.21-0.06,1.82l-0.27-0.27C46.69,16.94,51.41,16.6,55.94,15.44z"/>
	</g>
	<g>
		<path class="st2" d="M51.46,63.71c-2.16-5.1-8.35-7.55-13.73-7.05c-5.85-10.22-22.08-15.05-28.12-2.54
			C2.59,68.67,11.66,81.85,25.82,86.8c6.9,2.41,14.07,1.27,19.4-3.89C49.78,78.49,54.16,70.09,51.46,63.71z"/>
		<path d="M51.46,63.71c-1.08-2.54-3.27-4.47-5.74-5.61c-2.48-1.14-5.27-1.61-7.98-1.34l-0.06,0.01l-0.03-0.05
			c-1.26-2.12-2.96-3.94-4.88-5.46c-1.92-1.52-4.11-2.7-6.44-3.4c-2.32-0.72-4.78-0.99-7.14-0.61c-2.35,0.38-4.61,1.43-6.25,3.15
			c-1.65,1.71-2.81,3.81-3.65,6.09c-0.26,0.55-0.38,1.14-0.56,1.72c-0.15,0.58-0.36,1.15-0.45,1.74c-0.18,1.19-0.42,2.37-0.39,3.57
			c-0.11,1.2,0.1,2.39,0.19,3.57c0.27,1.16,0.46,2.34,0.91,3.46c0.33,1.15,0.91,2.21,1.42,3.29c0.63,1.02,1.22,2.07,2,2.99
			c0.69,0.99,1.58,1.81,2.4,2.7c0.92,0.78,1.78,1.64,2.79,2.31c1.93,1.47,4.07,2.64,6.28,3.66c4.38,2.09,9.47,2.85,14.16,1.42
			c4.71-1.37,8.56-4.91,11.09-9.12c1.25-2.11,2.3-4.39,2.79-6.81C52.45,68.58,52.39,66.02,51.46,63.71z M51.46,63.71
			C52.42,66,52.51,68.58,52,71c-0.47,2.44-1.49,4.74-2.73,6.88c-1.29,2.11-2.8,4.12-4.65,5.79c-1.84,1.68-4.04,2.99-6.42,3.78
			c-4.79,1.63-10.16,0.99-14.73-1.02c-2.3-0.98-4.57-2.11-6.59-3.63c-1.06-0.69-1.97-1.57-2.94-2.38c-0.87-0.92-1.81-1.77-2.55-2.81
			c-0.83-0.96-1.47-2.06-2.15-3.14c-0.56-1.14-1.19-2.26-1.56-3.48c-0.48-1.19-0.67-2.46-0.94-3.71c-0.09-1.27-0.29-2.54-0.16-3.82
			c-0.01-1.28,0.25-2.53,0.46-3.78c0.11-0.63,0.34-1.22,0.5-1.83c0.19-0.61,0.33-1.23,0.61-1.8c0.88-2.35,2.18-4.64,4.05-6.42
			c1.85-1.81,4.35-2.89,6.86-3.21c2.53-0.33,5.09,0.05,7.46,0.86c2.38,0.8,4.58,2.07,6.49,3.68c1.92,1.59,3.54,3.52,4.8,5.66
			l-0.09-0.05c2.75-0.23,5.56,0.27,8.04,1.45C48.24,59.19,50.41,61.15,51.46,63.71z"/>
	</g>
	<g>
		<path class="st2" d="M86.46,55.94c-4.62-3.05-11.14-1.67-15.34,1.73C60.59,52.39,44.4,57.34,46.29,71.1
			c2.2,16.01,17.04,21.96,31.58,18.26c7.08-1.8,12.43-6.72,14.01-13.97C93.23,69.18,92.24,59.76,86.46,55.94z"/>
		<path d="M86.46,55.94c-2.31-1.52-5.2-1.92-7.89-1.5c-2.7,0.42-5.28,1.58-7.39,3.3l-0.05,0.04l-0.06-0.03
			c-2.22-1.07-4.65-1.65-7.08-1.85c-2.44-0.21-4.92,0.02-7.24,0.73c-2.33,0.69-4.53,1.82-6.29,3.44c-1.75,1.62-3.05,3.74-3.47,6.08
			c-0.43,2.33-0.24,4.73,0.33,7.09c0.09,0.6,0.31,1.16,0.49,1.74c0.2,0.57,0.33,1.16,0.59,1.7c0.5,1.09,0.96,2.2,1.65,3.19
			c0.57,1.06,1.4,1.93,2.14,2.87c0.87,0.82,1.68,1.7,2.67,2.38c0.91,0.78,1.98,1.33,3,1.95c1.09,0.5,2.16,1.05,3.32,1.38
			c1.12,0.44,2.32,0.63,3.49,0.92c1.2,0.14,2.39,0.38,3.6,0.39c2.42,0.16,4.85-0.06,7.26-0.43c4.8-0.69,9.46-2.87,12.58-6.65
			c3.17-3.74,4.42-8.83,4.19-13.73c-0.13-2.45-0.51-4.92-1.44-7.21C89.97,59.45,88.5,57.34,86.46,55.94z M86.46,55.94
			c2.07,1.38,3.57,3.48,4.48,5.78c0.96,2.29,1.38,4.77,1.53,7.24c0.1,2.47-0.05,4.98-0.67,7.4c-0.6,2.42-1.71,4.73-3.26,6.7
			c-3.09,4.01-7.92,6.44-12.84,7.29c-2.46,0.46-4.98,0.77-7.5,0.62c-1.26,0.01-2.51-0.22-3.76-0.36c-1.23-0.29-2.49-0.48-3.68-0.93
			c-1.22-0.34-2.37-0.9-3.53-1.42c-1.1-0.64-2.24-1.22-3.23-2.04c-1.06-0.72-1.92-1.68-2.83-2.57c-0.78-1.01-1.65-1.96-2.25-3.09
			c-0.72-1.06-1.19-2.25-1.71-3.41c-0.26-0.58-0.4-1.2-0.6-1.8c-0.18-0.61-0.4-1.2-0.49-1.83c-0.57-2.44-0.75-5.08-0.18-7.59
			c0.54-2.53,2.03-4.81,3.94-6.47c1.93-1.67,4.27-2.78,6.69-3.41c2.43-0.65,4.97-0.81,7.44-0.52c2.48,0.27,4.9,0.97,7.13,2.06
			l-0.1,0.01c2.16-1.72,4.78-2.85,7.5-3.24C81.26,53.95,84.17,54.39,86.46,55.94z"/>
	</g>
	<path d="M48.98,74.05c-0.28-2.17-0.55-4.05-1.1-5.92c-0.51-1.88-1.25-3.63-2.13-5.63c1.98,1.02,3.29,3.02,3.9,5.14
		C50.22,69.76,50.14,72.15,48.98,74.05z"/>
	<path d="M75.04,86.77c3.24-1.76,6.1-3.76,8.56-6.24c2.49-2.46,4.49-5.31,6.27-8.54c-0.38,3.7-2.33,7.18-4.97,9.84
		C82.23,84.46,78.74,86.4,75.04,86.77z"/>
</g>
</svg>
