<?xml version="1.0" encoding="utf-8"?>
<!-- Generator: Adobe Illustrator 24.0.1, SVG Export Plug-In . SVG Version: 6.00 Build 0)  -->
<svg version="1.1" id="Capa_1" xmlns="http://www.w3.org/2000/svg" xmlns:xlink="http://www.w3.org/1999/xlink" x="0px" y="0px"
	 viewBox="0 0 100 100" style="enable-background:new 0 0 100 100;" xml:space="preserve">
<style type="text/css">
	.st0{fill:#DEAB71;}
	.st1{fill:#050301;}
</style>
<g>
	<g>
		<path d="M87.28,27.21c-0.73-0.34-1.19-1.03-1.81-1.52C84.85,25.2,84,25,83.25,25.27c-0.75,0.24-1.37,0.78-1.95,1.3
			c-0.57,0.54-1.16,1.08-1.75,1.6c-2.36,2.11-4.53,4.4-6.7,6.7l-0.1,0.1l-0.08-0.12c-0.84-1.36-1.8-2.65-2.95-3.75
			c-1.15-1.1-2.48-1.99-3.92-2.67l-0.25-0.12l0.18-0.21c0.98-1.12,1.91-2.27,2.87-3.42c0.93-1.13,1.98-2.32,2.93-3.32
			c0.15-0.22,0.17-0.54,0.05-0.76c-0.08-0.18-0.47-0.47-0.71-0.72c-0.54-0.51-1.09-1.05-1.56-1.66c-0.48-0.6-0.88-1.3-1.09-2.08
			c-0.21-0.77-0.19-1.59-0.03-2.36c0.32-1.56,1.4-2.92,2.77-3.68c1.36-0.77,2.96-1.08,4.51-0.91c0.78,0.08,1.53,0.3,2.24,0.62
			c0.69,0.35,1.36,0.77,1.91,1.32c1.11,1.09,1.88,2.5,2.2,4.01c0.18,0.75,0.22,1.52,0.19,2.29c-0.02,0.38-0.1,0.8-0.04,1.02
			c0.07,0.24,0.34,0.4,0.65,0.4c0.3,0.01,0.62-0.12,0.79-0.35c0.09-0.1,0.14-0.26,0.23-0.44l0.25-0.52
			c0.14-0.36,0.38-0.66,0.61-0.97c0.2-0.33,0.5-0.58,0.79-0.84c0.57-0.52,1.3-0.84,2.04-1.05c0.38-0.05,0.76-0.13,1.14-0.13
			c0.38,0.03,0.77-0.01,1.14,0.1c1.5,0.27,2.88,1.02,3.97,2.05c1.1,1.02,1.93,2.35,2.27,3.82c0.36,1.45,0.18,3.06-0.65,4.32
			c-0.81,1.27-2.14,2.15-3.57,2.55C90.22,27.81,88.63,27.87,87.28,27.21z M87.28,27.21c1.36,0.66,2.94,0.58,4.36,0.16
			c1.42-0.41,2.73-1.3,3.52-2.55c0.81-1.25,0.97-2.84,0.61-4.26c-0.36-1.43-1.2-2.72-2.3-3.7c-1.09-0.98-2.45-1.68-3.89-1.91
			c-0.35-0.1-0.72-0.05-1.08-0.07c-0.36,0.01-0.72,0.09-1.07,0.14c-0.68,0.22-1.35,0.52-1.87,1.01c-0.26,0.25-0.53,0.48-0.71,0.8
			c-0.21,0.29-0.43,0.58-0.55,0.92l-0.22,0.49l-0.11,0.25c-0.05,0.1-0.09,0.21-0.17,0.3c-0.27,0.37-0.72,0.55-1.16,0.55
			c-0.43,0.02-0.95-0.23-1.11-0.72c-0.08-0.22-0.06-0.5-0.04-0.66l0.03-0.54c0.01-0.72-0.04-1.44-0.22-2.14
			c-0.32-1.4-1.04-2.71-2.07-3.69c-0.51-0.5-1.12-0.88-1.75-1.19c-0.65-0.28-1.34-0.48-2.05-0.54c-1.41-0.15-2.88,0.15-4.1,0.85
			c-1.22,0.69-2.18,1.85-2.47,3.23c-0.15,0.68-0.17,1.39,0,2.06c0.18,0.67,0.52,1.29,0.96,1.86c0.44,0.57,0.95,1.09,1.49,1.6
			l0.4,0.38c0.11,0.11,0.31,0.27,0.42,0.51c0.22,0.44,0.17,0.96-0.1,1.36c-0.57,0.63-1.05,1.08-1.56,1.66
			c-0.5,0.55-0.99,1.1-1.48,1.66c-0.97,1.12-1.94,2.26-2.94,3.36l-0.06-0.33c1.45,0.72,2.81,1.67,3.96,2.81
			c1.16,1.14,2.1,2.47,2.92,3.86l-0.17-0.02c2.22-2.25,4.44-4.5,6.81-6.6c0.6-0.52,1.18-1.05,1.76-1.58
			c0.59-0.52,1.21-1.05,1.98-1.29c0.76-0.27,1.62-0.05,2.24,0.44C86.1,26.17,86.55,26.86,87.28,27.21z"/>
		<g>
			<path class="st0" d="M75.44,36.86c0.01-1.93-1.13-3.58-2.08-5.19c-2.19-3.7-6.64-6.47-11.04-6.37c-3.77,0.09-6.83,2.68-9.82,4.66
				c-2.67,1.77-5.38,3.33-8.49,4.16c-10.85,2.49-24.09,6.62-30.23,16.69c-3.78,6.21-6.99,14.45-6.66,21.83
				c0.36,7.99,5.5,13.65,12.89,15.92c6.25,1.92,12.35,1.93,18.69,0.35c5.95-1.48,11.36-6.06,15.74-10.21
				c5.36-5.08,8.03-11.91,10.47-18.7c1.09-3.05,2.3-6.05,3.89-8.87c1.8-3.2,4.26-5.87,5.52-9.36
				C74.88,40.23,75.43,38.52,75.44,36.86z"/>
			<path d="M75.44,36.86c0-1.08-0.37-2.11-0.86-3.06c-0.5-0.94-1.06-1.86-1.64-2.75c-1.21-1.76-2.87-3.2-4.74-4.2
				c-1.87-1-4-1.58-6.13-1.47c-2.14,0.11-4.12,1.07-5.9,2.21c-3.53,2.35-6.99,5.03-11.12,6.36c-4.15,1.09-8.3,2.07-12.31,3.55
				c-4.01,1.44-7.9,3.28-11.38,5.72c-1.72,1.25-3.32,2.65-4.76,4.21c-1.39,1.6-2.58,3.35-3.6,5.23c-2.05,3.72-3.71,7.69-4.69,11.82
				c-0.49,2.06-0.81,4.17-0.87,6.28c-0.06,2.11,0.12,4.23,0.76,6.23c0.61,2,1.61,3.88,2.93,5.51c1.34,1.62,2.99,2.96,4.82,4.01
				c1.82,1.06,3.83,1.77,5.89,2.28c2.05,0.53,4.16,0.85,6.28,0.97c2.12,0.11,4.25,0.03,6.35-0.26c2.1-0.29,4.21-0.7,6.19-1.41
				c3.98-1.48,7.49-4.03,10.71-6.8c1.6-1.4,3.21-2.82,4.63-4.4c1.42-1.58,2.64-3.34,3.71-5.18c2.15-3.69,3.67-7.7,5.13-11.71
				c1.46-4.01,3.13-8.01,5.6-11.51c1.2-1.77,2.45-3.51,3.36-5.45c0.45-0.97,0.8-1.98,1.11-3C75.2,38.99,75.43,37.93,75.44,36.86z
				 M75.44,36.86c-0.01,1.07-0.23,2.13-0.52,3.15c-0.31,1.02-0.65,2.04-1.09,3.01c-0.89,1.95-2.14,3.71-3.32,5.48
				c-2.45,3.52-4.08,7.51-5.51,11.52c-1.44,4.02-2.93,8.06-5.07,11.79c-1.07,1.86-2.28,3.65-3.71,5.26
				c-1.43,1.61-3.03,3.04-4.63,4.46c-3.22,2.81-6.73,5.41-10.78,6.95c-2.04,0.74-4.15,1.16-6.28,1.48c-2.13,0.31-4.29,0.4-6.44,0.31
				c-2.15-0.11-4.3-0.42-6.39-0.95c-2.09-0.51-4.16-1.22-6.05-2.3c-1.89-1.07-3.62-2.45-5.02-4.12c-1.39-1.68-2.45-3.64-3.09-5.72
				c-0.65-2.09-0.83-4.29-0.75-6.45c0.08-2.16,0.42-4.31,0.93-6.4c1.03-4.19,2.73-8.18,4.83-11.93c1.03-1.88,2.27-3.67,3.7-5.29
				c1.47-1.58,3.11-2.99,4.86-4.24c3.54-2.45,7.47-4.27,11.51-5.69c4.03-1.46,8.23-2.42,12.35-3.48c2.03-0.65,3.94-1.62,5.75-2.73
				c1.83-1.09,3.54-2.38,5.35-3.53c1.8-1.13,3.82-2.1,5.99-2.19c2.16-0.1,4.3,0.5,6.18,1.52c1.88,1.03,3.53,2.48,4.74,4.26
				c0.58,0.9,1.13,1.82,1.63,2.76C75.09,34.74,75.45,35.79,75.44,36.86z"/>
		</g>
	</g>
	<path class="st1" d="M21.26,57.52c-0.92,0.57-1.53,1.46-2.11,2.32c-0.56,0.89-1.05,1.82-1.49,2.78c-0.89,1.92-1.58,3.93-2.38,5.94
		c0.15-1.07,0.34-2.13,0.64-3.17c0.29-1.04,0.66-2.06,1.11-3.05c0.46-0.98,1-1.94,1.68-2.81C19.39,58.69,20.21,57.85,21.26,57.52z"
		/>
	<path class="st1" d="M22.06,59.19c-0.54,0.64-0.79,1.42-1.03,2.18c-0.22,0.77-0.39,1.56-0.49,2.36c-0.25,1.6-0.31,3.23-0.5,4.89
		c-0.17-0.82-0.29-1.65-0.31-2.48c-0.03-0.83,0.01-1.67,0.13-2.51c0.12-0.83,0.33-1.66,0.67-2.44
		C20.87,60.42,21.34,59.64,22.06,59.19z"/>
</g>
</svg>
