<?xml version="1.0" encoding="utf-8"?>
<!-- Generator: Adobe Illustrator 24.0.1, SVG Export Plug-In . SVG Version: 6.00 Build 0)  -->
<svg version="1.1" id="Capa_1" xmlns="http://www.w3.org/2000/svg" xmlns:xlink="http://www.w3.org/1999/xlink" x="0px" y="0px"
	 viewBox="0 0 100 100" style="enable-background:new 0 0 100 100;" xml:space="preserve">
<style type="text/css">
	.st0{fill:#FBBE3B;}
	.st1{fill:#020000;}
	.st2{fill:#F53737;}
	.st3{fill:#14040A;}
	.st4{fill:#C96649;}
	.st5{fill:#FF931E;}
	.st6{fill:#140108;}
</style>
<g>
	<g>
		<g>
			<path class="st0" d="M66.99,23.75c-0.64,4.69-1.49,9.35-2.5,13.98c1.93-0.07,3.85-0.15,5.77-0.26c0.97-7.19,1.72-14.46,3.01-21.6
				c0.22-1.2,0.45-2.69,0.85-4.1c-0.11-1.43-0.67-3.56-2.13-4.04c-1.31-0.43-3.66,0.03-4.94,0.3c-1.81,0.38-2.64,1.18-2.7,3.09
				c-0.04,1.38,0.26,2.81,0.6,4.14c0,0.02,0,0.03,0.01,0.05c0.1,0.05,0.2,0.09,0.29,0.13C68.67,17.05,67.42,20.57,66.99,23.75z"/>
			<path class="st1" d="M66.99,23.75c-0.6,4.7-1.46,9.36-2.38,14l-0.12-0.15l5.77-0.35l-0.19,0.18c0.51-4.3,0.95-8.61,1.52-12.91
				c0.28-2.15,0.57-4.3,0.95-6.44c0.4-2.14,0.7-4.27,1.29-6.4L73.8,11.8c-0.06-0.74-0.2-1.48-0.47-2.17
				c-0.26-0.68-0.68-1.32-1.3-1.59c-0.63-0.26-1.43-0.26-2.17-0.22c-0.76,0.05-1.52,0.16-2.28,0.3c-0.76,0.14-1.52,0.28-2.11,0.71
				c-0.6,0.42-0.9,1.15-0.97,1.9c-0.15,1.52,0.16,3.06,0.51,4.57l-0.03-0.04c0.72,0.34,1.44,0.78,1.91,1.45
				c0.47,0.66,0.67,1.48,0.7,2.28C67.64,20.6,67.21,22.17,66.99,23.75z M66.99,23.75c0.2-1.59,0.61-3.16,0.54-4.76
				c-0.04-0.79-0.25-1.59-0.72-2.23c-0.46-0.65-1.16-1.07-1.88-1.4l-0.02-0.01l-0.01-0.03c-0.38-1.49-0.75-3.03-0.64-4.61
				c0.05-0.78,0.35-1.63,1.03-2.13c0.66-0.51,1.48-0.67,2.23-0.84c0.76-0.16,1.53-0.3,2.32-0.38c0.78-0.06,1.59-0.12,2.42,0.19
				c0.83,0.35,1.32,1.12,1.64,1.85c0.32,0.75,0.49,1.54,0.56,2.35l0,0.05l-0.02,0.06c-0.54,2.05-0.82,4.22-1.2,6.35l-0.97,6.42
				c-0.59,4.29-1.15,8.58-1.8,12.87l-0.03,0.17l-0.17,0.01l-5.78,0.18l-0.16,0l0.04-0.15C65.47,33.1,66.32,28.44,66.99,23.75z"/>
		</g>
		<g>
			<path class="st0" d="M33.12,10.75c0.13,1.44,0.24,2.78,0.19,4.22c1.87,0.06,3.36,0.68,4,3.12c1.67,6.42,2.39,13.26,3.57,19.79
				c0.02,0.14,0.02,0.26-0.01,0.38c0.78,0,1.57,0,2.35,0c0.09-7.04,0.17-14.07,0.26-21.11c0.02-1.7-0.29-3.4,1.02-4.67
				c0.53-0.51,1.25-0.82,2.03-1c-0.15-2.37-0.1-4.79-3.06-5.12c-1.89-0.21-4.12,0.26-5.97,0.55C34.97,7.3,32.85,7.69,33.12,10.75z"
				/>
			<path class="st1" d="M33.12,10.75c0.13,1.4,0.26,2.81,0.21,4.22l-0.02-0.02c1.07,0.02,2.23,0.28,3,1.1
				c0.78,0.81,1.04,1.93,1.29,2.97c0.55,2.1,0.99,4.23,1.4,6.36c0.4,2.13,0.76,4.28,1.12,6.42L40.68,35l0.29,1.6l0.15,0.8l0.07,0.4
				c0.03,0.15,0.04,0.36-0.01,0.54l-0.31-0.4l2.35-0.02l-0.33,0.33c0.02-4.72,0.06-9.45,0.17-14.17L43.21,17
				c0.03-1.15-0.13-2.4,0.38-3.59c0.26-0.58,0.68-1.08,1.21-1.43c0.52-0.35,1.11-0.55,1.7-0.68l-0.14,0.18
				c-0.04-0.81-0.05-1.62-0.19-2.4c-0.12-0.78-0.43-1.54-1.05-2.03c-0.63-0.47-1.44-0.63-2.24-0.66c-0.8-0.05-1.61,0.01-2.41,0.11
				c-0.8,0.1-1.6,0.23-2.4,0.35c-0.8,0.13-1.6,0.23-2.39,0.42c-0.77,0.2-1.58,0.5-2.06,1.16C33.13,9.09,33.06,9.96,33.12,10.75z
				 M33.12,10.75c-0.06-0.79-0.01-1.67,0.49-2.33c0.49-0.67,1.3-0.99,2.07-1.2c0.79-0.2,1.59-0.31,2.39-0.45
				c0.8-0.14,1.6-0.28,2.4-0.38c0.8-0.1,1.62-0.18,2.43-0.16c0.81,0.01,1.67,0.15,2.36,0.64c0.69,0.51,1.05,1.35,1.2,2.15
				c0.16,0.81,0.2,1.63,0.26,2.43l0.01,0.15l-0.15,0.03c-1.12,0.25-2.17,0.89-2.57,1.94c-0.42,1.03-0.26,2.22-0.25,3.41l-0.02,7.09
				c-0.01,4.72-0.09,9.45-0.18,14.17l-0.01,0.33l-0.32,0l-2.36-0.01l-0.4,0l0.09-0.39c0.02-0.09,0.02-0.16,0-0.27l-0.07-0.4
				l-0.13-0.81l-0.25-1.61l-0.46-3.22c-0.3-2.15-0.6-4.3-0.95-6.44c-0.35-2.14-0.73-4.27-1.22-6.39c-0.24-1.05-0.49-2.14-1.24-2.94
				c-0.74-0.81-1.87-1.07-2.94-1.11l-0.02,0l0-0.02C33.34,13.56,33.23,12.15,33.12,10.75z"/>
		</g>
		<g>
			<path class="st0" d="M53.19,19.13c0.22,2.42,0.34,4.84,0.38,7.26c1.03,0.03,2.31,0.05,3.57,0.23c0.51-2.61,1-5.23,1.57-7.82
				c0.18-0.8,0.26-2.07,1-2.61c0.08-1.61,0.36-3.37,0.23-4.98c-0.1-1.29-0.15-1.67-1.39-2.14c-0.78-0.3-1.86-0.26-2.68-0.27
				c-1.25-0.01-4.14-0.12-5.21,0.66c-1.2,0.88-0.68,3.36-0.51,4.88c0.54,0.19,1.04,0.42,1.44,0.71
				C53.05,16.07,53.04,17.44,53.19,19.13z"/>
			<path class="st1" d="M53.19,19.13l0.46,7.26l-0.07-0.07c1.19,0,2.39,0,3.59,0.15l-0.18,0.12l0.95-5.34l0.49-2.66
				c0.08-0.43,0.14-0.89,0.28-1.36c0.13-0.46,0.33-0.97,0.8-1.33l-0.14,0.26c0.06-1.77,0.34-3.48,0.2-5.17
				c-0.03-0.43-0.07-0.84-0.24-1.08c-0.17-0.24-0.56-0.42-0.94-0.56c-0.74-0.26-1.61-0.24-2.48-0.27c-0.88-0.03-1.74-0.07-2.6-0.03
				c-0.84,0.05-1.75,0.1-2.45,0.48c-0.7,0.4-0.83,1.37-0.85,2.2c-0.01,0.86,0.11,1.73,0.21,2.6l-0.04-0.05
				c0.96,0.34,1.94,0.89,2.44,1.82C53.11,17.04,53.1,18.11,53.19,19.13z M53.19,19.13c-0.11-1.01-0.12-2.09-0.63-2.99
				c-0.51-0.9-1.47-1.42-2.43-1.75l-0.03-0.01l0-0.04c-0.11-0.86-0.29-1.72-0.32-2.61c-0.01-0.44,0-0.89,0.12-1.33
				c0.1-0.44,0.36-0.89,0.77-1.15c0.82-0.49,1.73-0.56,2.6-0.66c0.88-0.08,1.76-0.08,2.63-0.09c0.86-0.01,1.77-0.07,2.7,0.23
				c0.42,0.16,0.89,0.31,1.27,0.77c0.35,0.49,0.34,1,0.4,1.42c0.2,1.8-0.1,3.56-0.21,5.27l-0.01,0.17l-0.13,0.1
				c-0.55,0.42-0.68,1.37-0.85,2.25l-0.58,2.65l-1.19,5.29l-0.03,0.15l-0.14-0.02c-1.16-0.2-2.35-0.25-3.54-0.31l-0.07,0l0-0.07
				L53.19,19.13z"/>
		</g>
		<g>
			<path class="st0" d="M32.59,38.13c-0.64-3.13-1.29-6.25-1.93-9.37c-0.65-3.17-1.81-6.66-2.03-9.89
				c-0.19-2.72,1.53-3.33,3.69-3.56c-0.38-2.03-0.38-4.77-2.83-5.5c-1.06-0.32-3.67,0.33-4.53,0.49c-1.83,0.34-3.57,1.64-4.17,3.55
				c-0.37,1.18,0.31,3.33,0.43,4.57c0.66,6.51,1.39,13.02,2.17,19.52c0.01,0.11,0,0.21-0.02,0.3
				C26.44,38.13,29.52,38.11,32.59,38.13z"/>
			<path class="st1" d="M32.59,38.13l-1.41-6.27c-0.48-2.06-0.91-4.11-1.47-6.18c-0.53-2.06-1.09-4.14-1.33-6.29
				c-0.06-0.53-0.1-1.1-0.01-1.67c0.09-0.57,0.33-1.16,0.76-1.59c0.9-0.85,2.09-1.02,3.15-1.15l-0.29,0.39
				c-0.16-0.87-0.25-1.72-0.45-2.53c-0.2-0.8-0.51-1.58-1.08-2.09c-0.29-0.25-0.61-0.45-0.99-0.57c-0.32-0.13-0.74-0.11-1.15-0.09
				c-0.83,0.06-1.67,0.23-2.51,0.4c-0.87,0.18-1.65,0.32-2.36,0.73c-0.71,0.38-1.33,0.94-1.78,1.6c-0.22,0.33-0.41,0.69-0.53,1.07
				c-0.13,0.34-0.13,0.74-0.11,1.15c0.05,0.82,0.24,1.66,0.39,2.52c0.44,3.48,0.78,6.88,1.13,10.33l0.52,5.16l0.26,2.58l0.13,1.29
				l0.06,0.65l0.03,0.32c0,0.12-0.01,0.26-0.03,0.39l-0.18-0.22L32.59,38.13z M32.59,38.13l-9.21,0.29l-0.18,0.01l0.01-0.23
				l0.01-0.26l-0.04-0.32l-0.08-0.64l-0.16-1.29l-0.32-2.57l-0.63-5.15c-0.44-3.42-0.77-6.9-1.23-10.27
				c-0.16-0.84-0.36-1.69-0.42-2.6c-0.02-0.45-0.03-0.94,0.13-1.42c0.14-0.44,0.35-0.86,0.61-1.25c0.51-0.77,1.22-1.41,2.03-1.85
				c0.8-0.47,1.76-0.63,2.57-0.79c0.85-0.17,1.71-0.34,2.61-0.4c0.45-0.02,0.92-0.05,1.42,0.13c0.45,0.14,0.88,0.4,1.24,0.72
				c0.73,0.66,1.06,1.59,1.27,2.44c0.21,0.87,0.29,1.74,0.44,2.57l0.06,0.35l-0.35,0.04c-1.02,0.1-2.09,0.3-2.77,0.94
				c-0.67,0.66-0.74,1.72-0.63,2.75c0.19,2.09,0.69,4.17,1.18,6.24c0.52,2.06,0.9,4.19,1.28,6.31L32.59,38.13z"/>
		</g>
		<g>
			<path class="st0" d="M45.43,11.08c-1.05,0.25-1.98,0.84-2.48,2.09c-0.39,0.98-0.03,2.95-0.04,4c-0.03,2.4-0.05,4.8-0.08,7.2
				c-0.05,4.87-0.11,9.74-0.16,14.62c3.63-0.03,7.25-0.08,10.88-0.15c0.47-5.19,0.7-10.4,0.6-15.62c-0.05-2.41,0.2-5.59-0.39-7.93
				c-0.88-3.47-2.82-3.97-5.78-4.29c-0.76-0.08-1.59-0.1-2.38,0.05C45.55,11.06,45.49,11.07,45.43,11.08z"/>
			<path class="st1" d="M45.43,11.08c-0.59,0.14-1.16,0.41-1.61,0.82c-0.44,0.41-0.77,0.95-0.93,1.53c-0.24,1.2,0.03,2.42,0.06,3.64
				l0.01,7.31l0.03,7.31c0,2.44,0.03,4.87,0.01,7.31l-0.33-0.33c3.62-0.06,7.25-0.17,10.87-0.18l-0.35,0.32
				c0.28-2.8,0.46-5.61,0.6-8.42c0.16-2.81,0.17-5.62,0.18-8.45c0.03-1.41,0.09-2.82,0.02-4.22c-0.07-1.4-0.27-2.82-0.9-4.07
				c-0.32-0.62-0.78-1.17-1.36-1.56c-0.58-0.4-1.26-0.62-1.94-0.78c-1.37-0.26-2.8-0.5-4.19-0.24l0,0L45.43,11.08z M45.43,11.08
				l0.17-0.04l0,0c1.39-0.27,2.82-0.05,4.21,0.2c0.69,0.15,1.38,0.36,1.97,0.76c0.6,0.39,1.07,0.95,1.4,1.58
				c0.65,1.27,0.91,2.7,1.02,4.11c0.11,1.41,0.09,2.83,0.1,4.24c0.07,2.81,0.14,5.65,0.07,8.47c-0.06,2.83-0.24,5.65-0.47,8.47
				l-0.03,0.32l-0.32,0.01c-3.63,0.09-7.25,0.08-10.88,0.12l-0.33,0l0-0.34c0.03-2.44,0.11-4.87,0.17-7.31l0.19-7.31
				c0.06-2.43,0.14-4.87,0.16-7.31c-0.01-1.21-0.27-2.44-0.01-3.65c0.17-0.59,0.51-1.13,0.96-1.54
				C44.27,11.47,44.84,11.21,45.43,11.08z"/>
		</g>
		<g>
			<path class="st0" d="M59.88,38.53c0.34-3.19,0.74-6.37,1.03-9.57c0.22-2.46-0.15-4.71-2.23-5.47c-1.39-0.5-2.9-0.54-4.33-0.6
				c0.01,5.31-0.2,10.63-0.61,15.92c2.05-0.05,4.1-0.11,6.15-0.16C59.88,38.61,59.87,38.57,59.88,38.53z"/>
			<path class="st1" d="M59.88,38.53l0.49-5.08c0.15-1.69,0.3-3.39,0.4-5.08c0.02-0.84-0.04-1.68-0.27-2.46
				c-0.22-0.78-0.69-1.46-1.35-1.85c-0.65-0.37-1.5-0.55-2.31-0.66c-0.82-0.11-1.66-0.12-2.51-0.15l0.38-0.36
				c0.03,1.33-0.02,2.66-0.05,3.99c-0.04,1.33-0.08,2.66-0.17,3.99c-0.17,2.66-0.4,5.31-0.67,7.95l-0.07-0.08l6.15-0.09l0,0
				L59.88,38.53z M59.88,38.53l0.01,0.13l0,0l-6.15,0.24l-0.08,0l0-0.08c0.13-2.65,0.22-5.31,0.25-7.96l0.05-3.98l0.01-3.98l0-0.39
				l0.38,0.02c1.69,0.1,3.48,0.09,5.12,1.01c0.79,0.52,1.3,1.38,1.49,2.24c0.21,0.87,0.22,1.75,0.16,2.6
				c-0.18,1.71-0.45,3.38-0.64,5.07L59.88,38.53z"/>
		</g>
		<g>
			<path class="st0" d="M71.63,24.23c-0.63,4.62-1.27,9.25-1.9,13.87c2.72-0.23,5.9-0.64,8.91-0.59c1.2-5.37,2.15-10.77,2.78-16.24
				c0.24-2.1,0.97-4.91,0.64-7c-0.37-2.33-2.93-4.63-5.68-3.97C72,11.37,72.1,20.8,71.63,24.23z"/>
			<path class="st1" d="M71.63,24.23c-0.6,4.63-1.23,9.25-1.77,13.89l-0.14-0.15c2.96-0.3,5.92-0.73,8.93-0.73l-0.27,0.21
				c0.77-3.81,1.51-7.62,2.05-11.47c0.31-1.92,0.53-3.83,0.81-5.78c0.3-1.92,0.74-3.84,0.57-5.71c-0.2-1.81-1.65-3.47-3.44-3.97
				c-0.9-0.25-1.89-0.18-2.72,0.24c-0.84,0.44-1.42,1.25-1.87,2.09c-0.9,1.72-1.24,3.67-1.53,5.58
				C71.97,20.35,71.87,22.3,71.63,24.23z M71.63,24.23c0.42-3.84,0.37-7.85,1.98-11.47c0.43-0.87,1.01-1.74,1.9-2.25
				c0.9-0.49,1.96-0.6,2.95-0.36c1.97,0.5,3.6,2.2,3.9,4.27c0.26,2.03-0.19,3.97-0.46,5.88c-0.25,1.9-0.45,3.87-0.74,5.79
				c-0.61,3.85-1.33,7.69-2.25,11.48l-0.05,0.22l-0.22-0.01c-2.96-0.09-5.92,0.24-8.9,0.44l-0.17,0.01l0.03-0.16
				C70.32,33.47,70.96,28.85,71.63,24.23z"/>
		</g>
		<g>
			<path class="st0" d="M59.58,14.76c-1.14,2.1-1.16,6.01-1.56,8.57c1.33,0.47,2.46,1.3,2.96,2.81c0.51,1.55,0.16,3.28-0.04,4.86
				c-0.29,2.3-0.58,4.61-0.88,6.91c1.65-0.04,3.31-0.08,4.96-0.14c0-0.04,0-0.08,0.01-0.12c0.62-3.11,1.19-6.23,1.68-9.37
				c0.48-3.11,1.52-6.87,1.29-10C67.78,15.29,61.77,10.73,59.58,14.76z"/>
			<path class="st1" d="M59.58,14.76c-0.66,1.31-0.86,2.78-1.04,4.22c-0.17,1.45-0.26,2.9-0.45,4.36l-0.04-0.07
				c1.28,0.4,2.5,1.31,3,2.63c0.52,1.3,0.41,2.73,0.25,4.06c-0.31,2.66-0.57,5.34-0.9,8l-0.34-0.37L65,37.4l-0.35,0.33
				c0.45-2.63,0.94-5.13,1.41-7.7c0.24-1.27,0.48-2.56,0.74-3.84c0.27-1.28,0.55-2.54,0.76-3.82c0.21-1.28,0.37-2.56,0.32-3.85
				c-0.03-0.63-0.19-1.25-0.54-1.8c-0.31-0.56-0.71-1.07-1.18-1.52c-0.93-0.88-2.04-1.66-3.31-1.91c-0.63-0.16-1.31-0.1-1.89,0.16
				C60.34,13.67,59.94,14.23,59.58,14.76z M59.58,14.76c0.35-0.54,0.75-1.1,1.37-1.34c0.59-0.27,1.28-0.33,1.92-0.19
				c1.3,0.24,2.43,1,3.38,1.89c0.48,0.45,0.91,0.95,1.25,1.51c0.37,0.54,0.58,1.21,0.63,1.88c0.1,1.31-0.02,2.63-0.18,3.92
				c-0.17,1.3-0.4,2.58-0.62,3.86l-0.63,3.84l-1.32,7.67l-0.06,0.33l-0.3,0.01l-4.96,0.1l-0.39,0.01l0.05-0.38
				c0.35-2.66,0.74-5.32,1.14-7.97c0.2-1.31,0.35-2.66-0.09-3.9c-0.42-1.25-1.53-2.16-2.78-2.6l-0.05-0.02l0.01-0.06
				c0.24-1.44,0.33-2.9,0.53-4.34C58.68,17.54,58.9,16.06,59.58,14.76z"/>
		</g>
		<g>
			<path class="st0" d="M27.69,18.23c-0.07,1.96,0.81,4.46,1.16,6.39c0.82,4.5,1.64,9.01,2.46,13.51c1.47,0.02,2.94,0.04,4.41,0.07
				c1.67,0.03,3.34,0.04,5.02,0.04c-0.76-4.76-1.52-9.53-2.28-14.29c-0.34-2.13-0.67-4.26-1.02-6.39c-0.46-2.81-1.2-3.45-3.83-3.61
				C30.59,13.78,27.84,14.15,27.69,18.23z"/>
			<path class="st1" d="M27.69,18.23c-0.02,1.7,0.49,3.33,0.88,4.97c0.42,1.64,0.65,3.31,1,4.96l1.98,9.93l-0.25-0.21l9.42,0.01
				l-0.35,0.41c-0.5-2.91-0.93-5.83-1.38-8.75c-0.46-2.92-0.86-5.84-1.28-8.76c-0.23-1.45-0.36-2.94-0.68-4.36
				c-0.17-0.7-0.46-1.39-1.05-1.8c-0.59-0.4-1.34-0.52-2.06-0.59c-1.45-0.1-2.99-0.18-4.33,0.47c-0.66,0.33-1.17,0.9-1.47,1.57
				C27.85,16.75,27.74,17.49,27.69,18.23z M27.69,18.23c0.03-0.73,0.14-1.48,0.43-2.16c0.29-0.68,0.81-1.27,1.47-1.61
				c1.35-0.68,2.9-0.61,4.36-0.54c0.73,0.05,1.5,0.13,2.16,0.55c0.66,0.43,1.01,1.18,1.2,1.89c0.37,1.46,0.55,2.91,0.83,4.36
				c0.51,2.91,1.05,5.81,1.52,8.72c0.48,2.91,0.99,5.82,1.42,8.74l0.06,0.42l-0.41-0.01l-4.72-0.07c-1.57-0.03-3.14-0.1-4.71-0.14
				l-0.21-0.01l-0.03-0.2l-1.64-9.99c-0.29-1.66-0.53-3.34-0.91-4.98C28.14,21.57,27.65,19.92,27.69,18.23z"/>
		</g>
		<g>
			<path class="st2" d="M84.55,41.42c0-0.46,0.13-2.16-0.13-2.72c-0.87-1.88-2.9-1.5-4.38-1.58c-1.93-0.11-3.87-0.01-5.8,0.11
				c-13.38,0.85-26.82,1.24-40.22,0.96c-3.74-0.08-7.47-0.12-11.21,0.03c-1.89,0.07-3.93-0.54-4.2,2.51
				c-0.17,1.84,0.31,3.96,0.46,5.8c0.73,8.66,1.52,17.33,2.84,25.9c0.6,3.88,1.3,7.73,2.11,11.55c0.84,3.97,1.44,10.54,4.53,12.84
				c2.85,2.13,8.22,0.77,11.5,0.64c3.04-0.13,6.07-0.25,9.11-0.38c6.54-0.23,13.17-0.44,19.7-0.27c1.63,0.04,3.42,0.29,5-0.33
				c2.01-0.79,3.59-3.04,4.68-5.16c1.64-3.21,1.62-7.23,2.03-10.87c0.93-8.22,2.35-16.35,3.16-24.59
				C84.2,51.09,84.59,46.23,84.55,41.42z"/>
			<path class="st3" d="M84.55,41.42c0.01-0.6,0.05-1.2,0.02-1.81c-0.02-0.3-0.03-0.61-0.14-0.89c-0.13-0.27-0.28-0.53-0.5-0.74
				c-0.41-0.44-1-0.67-1.59-0.76c-0.59-0.09-1.2-0.07-1.8-0.08c-2.41-0.14-4.82,0.01-7.22,0.17c-4.81,0.31-9.62,0.56-14.44,0.75
				c-4.82,0.18-9.64,0.3-14.46,0.33c-2.41,0.01-4.82,0.02-7.23-0.01c-2.41-0.05-4.82-0.04-7.23-0.02l-7.22,0.05
				c-0.62,0.02-1.22-0.02-1.8,0.01c-0.58,0.03-1.14,0.17-1.49,0.57c-0.35,0.39-0.51,0.96-0.58,1.53c-0.08,0.57-0.07,1.17-0.03,1.76
				c0.07,1.19,0.28,2.37,0.42,3.58l0.33,3.61l0.68,7.19c0.49,4.79,1.05,9.57,1.77,14.33c0.8,4.75,1.72,9.46,2.61,14.21
				c0.43,2.37,0.8,4.75,1.52,7.01c0.37,1.12,0.82,2.22,1.49,3.16c0.65,0.96,1.6,1.61,2.7,1.93c2.24,0.62,4.68,0.31,7.06,0.06
				c2.41-0.31,4.84-0.28,7.24-0.41c4.82-0.19,9.63-0.35,14.46-0.43c2.41-0.03,4.82-0.04,7.24,0c1.21,0.03,2.41,0.04,3.62,0.11
				c1.19,0.06,2.4,0.1,3.52-0.24c1.11-0.35,2.05-1.13,2.83-2.01c0.78-0.89,1.42-1.91,1.98-2.96c1.13-2.11,1.51-4.52,1.76-6.9
				c0.38-4.81,1.1-9.58,1.77-14.35C83.2,60.65,84.52,51.07,84.55,41.42z M84.55,41.42c0.04,9.65-1.22,19.24-2.54,28.78
				c-0.64,4.78-1.33,9.54-1.68,14.35c-0.23,2.39-0.59,4.85-1.75,7.03c-0.56,1.07-1.21,2.11-2.01,3.04
				c-0.79,0.92-1.78,1.75-2.98,2.14c-1.2,0.38-2.45,0.34-3.65,0.28c-1.2-0.06-2.4-0.07-3.61-0.08c-2.41-0.02-4.81,0-7.22,0.05
				c-4.82,0.11-9.63,0.3-14.44,0.52c-2.41,0.14-4.81,0.13-7.19,0.45c-2.38,0.25-4.85,0.61-7.31-0.04c-0.61-0.18-1.2-0.43-1.73-0.81
				c-0.52-0.38-0.98-0.84-1.34-1.36c-0.74-1.03-1.22-2.18-1.61-3.34c-0.76-2.33-1.15-4.73-1.59-7.09
				c-0.86-4.73-1.75-9.49-2.52-14.25c-0.69-4.78-1.22-9.57-1.68-14.37l-0.64-7.2l-0.31-3.6c-0.13-1.19-0.33-2.38-0.4-3.6
				c-0.03-0.61-0.04-1.23,0.04-1.85c0.08-0.61,0.25-1.27,0.71-1.78c0.47-0.52,1.18-0.67,1.79-0.7c0.62-0.04,1.22,0.01,1.81,0l7.24,0
				c2.41-0.01,4.82,0,7.23,0.06c2.41,0.04,4.82,0.05,7.23,0.06c4.82,0,9.64-0.09,14.45-0.24c4.82-0.15,9.63-0.37,14.44-0.66
				c2.4-0.15,4.82-0.28,7.23-0.13c0.6,0.01,1.21-0.01,1.81,0.09c0.59,0.09,1.19,0.32,1.6,0.77c0.21,0.21,0.37,0.48,0.5,0.75
				c0.11,0.29,0.12,0.59,0.14,0.89C84.6,40.22,84.56,40.82,84.55,41.42z"/>
		</g>
	</g>
	<g>
		<path class="st4" d="M27.18,50.2c0,0,1.5-4.49,3.74-5.24"/>
		<path class="st1" d="M27.18,50.2c0.09-1.14,0.5-2.21,1.09-3.18c0.3-0.48,0.65-0.94,1.1-1.32c0.43-0.38,0.98-0.69,1.55-0.73
			c-0.47,0.32-0.8,0.73-1.13,1.14c-0.32,0.42-0.61,0.85-0.89,1.31C28.33,48.31,27.82,49.26,27.18,50.2z"/>
	</g>
	<g>
		<path class="st4" d="M24.25,50.28c0,0,2.48-7.2,4.87-8.14"/>
		<path class="st1" d="M24.25,50.28c0.26-1.62,0.84-3.15,1.56-4.61c0.38-0.72,0.81-1.43,1.33-2.07c0.52-0.63,1.17-1.26,1.98-1.46
			c-0.67,0.47-1.08,1.14-1.51,1.8c-0.4,0.68-0.78,1.37-1.14,2.07C25.75,47.43,25.07,48.87,24.25,50.28z"/>
	</g>
	<g>
		<ellipse class="st5" cx="51.86" cy="67.4" rx="20.94" ry="16.46"/>
		<path class="st6" d="M72.81,67.4c0,2.46-0.72,4.9-1.98,7.01c-1.26,2.12-3.02,3.91-5.03,5.32c-4.03,2.85-8.99,4.24-13.93,4.31
			c-4.93,0.01-9.95-1.26-14.08-4.09c-2.05-1.42-3.85-3.23-5.15-5.38c-1.3-2.14-2.07-4.64-2.08-7.17c0.01-2.53,0.78-5.03,2.08-7.17
			c1.3-2.15,3.11-3.96,5.15-5.38c4.13-2.83,9.15-4.11,14.08-4.09c4.93,0.07,9.9,1.46,13.93,4.31c2.01,1.41,3.77,3.21,5.03,5.32
			C72.09,62.5,72.81,64.94,72.81,67.4z M72.81,67.4c-0.01-2.46-0.76-4.89-2.03-6.98c-1.27-2.1-3.04-3.87-5.05-5.26
			c-4.05-2.78-9-4.04-13.87-4.03c-4.87,0.07-9.76,1.44-13.71,4.24c-1.97,1.39-3.7,3.15-4.92,5.21c-1.23,2.06-1.93,4.42-1.93,6.82
			c0,2.39,0.7,4.76,1.93,6.82c1.23,2.06,2.95,3.82,4.93,5.21c3.96,2.8,8.85,4.17,13.72,4.24c4.86,0.01,9.82-1.24,13.87-4.03
			c2.01-1.39,3.78-3.16,5.05-5.26C72.05,72.29,72.79,69.86,72.81,67.4z"/>
	</g>
</g>
</svg>
