<?xml version="1.0" encoding="utf-8"?>
<!-- Generator: Adobe Illustrator 24.0.1, SVG Export Plug-In . SVG Version: 6.00 Build 0)  -->
<svg version="1.1" id="Capa_1" xmlns="http://www.w3.org/2000/svg" xmlns:xlink="http://www.w3.org/1999/xlink" x="0px" y="0px"
	 viewBox="0 0 100 100" style="enable-background:new 0 0 100 100;" xml:space="preserve">
<style type="text/css">
	.st0{fill:#7DC265;}
	.st1{fill:#0A0200;}
</style>
<g>
	<g>
		<path class="st0" d="M58.22,90.85c2.74-3.5,3.11-8,2.67-12.24c-0.08-0.75-0.22-1.5-0.3-2.25c-0.03-0.23-0.08-1.61-0.11-1.44
			c0.04-1.42,0.16-2.84,0.27-4.26c0.28-3.75,0.28-7.48,0.06-11.23c-0.1-1.71-0.22-3.42-0.29-5.13c0-0.24-0.01-0.55,0-0.66
			c0.07-1.24,0.15-2.47,0.29-3.71c0.24-2,0.58-3.99,0.91-5.98c0.13-0.76,0.26-1.53,0.4-2.29c0.12-0.61,0.24-1.22,0.37-1.83
			c0.03-0.14,0.06-0.26,0.08-0.37c1.05-3.62,2.84-6.91,4.47-10.29c1.82-3.78,2.91-7.74,2.2-11.99c-0.13-0.77-0.32-1.53-0.57-2.26
			c-0.13-0.41-0.27-0.82-0.45-1.23c-1.89-4.43-6.01-7.88-10.82-8.47C48.84,4.17,42.52,13.4,38.8,19.85
			c-3.96,6.86-5.6,14.63-6.41,22.46c-0.34,3.3-0.44,6.61-0.57,9.93c-0.07,1.76-0.18,3.52-0.19,5.28c0.01-1.7-0.12,4.64-0.01,3.03
			c-0.04,0.64-0.08,1.27-0.15,1.91c-0.81,7.29,0.52,14.96,3.98,21.48c1.77,3.34,3.89,6.21,6.78,8.65
			C47.14,96.72,54.34,95.81,58.22,90.85z"/>
		<path class="st1" d="M49.34,95.39c-2.63,0-5.16-0.92-7.21-2.66c-2.73-2.3-4.9-5.07-6.83-8.7c-3.41-6.43-4.83-14.1-4-21.59
			c0.06-0.53,0.1-1.04,0.13-1.64c-0.06-0.33-0.07-1.19,0.02-3.5c0-0.02,0-0.05,0.01-0.09c0.02-1.14,0.07-2.29,0.12-3.4
			c0.02-0.53,0.05-1.05,0.07-1.58l0.04-1.03c0.11-2.92,0.22-5.94,0.53-8.9c0.97-9.45,3.02-16.61,6.43-22.53
			c2.27-3.93,9.17-15.89,18.8-14.73c4.68,0.57,8.99,3.94,10.97,8.58c0.16,0.36,0.3,0.76,0.45,1.24c0.25,0.74,0.45,1.51,0.58,2.29
			c0.64,3.79-0.07,7.64-2.22,12.1c-0.31,0.63-0.62,1.27-0.93,1.9c-1.32,2.68-2.68,5.44-3.53,8.37l-0.08,0.36
			c-0.13,0.6-0.26,1.21-0.37,1.83c-0.15,0.76-0.27,1.52-0.4,2.28l-0.1,0.62c-0.29,1.75-0.59,3.56-0.81,5.35
			c-0.15,1.22-0.22,2.44-0.29,3.7c-0.01,0.11,0,0.41,0,0.65c0.05,1.16,0.12,2.34,0.19,3.48c0.03,0.55,0.07,1.1,0.1,1.64
			c0.23,3.94,0.2,7.62-0.06,11.26l-0.06,0.73c-0.09,1.13-0.17,2.31-0.21,3.46c0.03,0.13,0.04,0.39,0.07,0.88
			c0.01,0.26,0.03,0.5,0.04,0.58c0.04,0.35,0.09,0.7,0.14,1.04c0.06,0.4,0.12,0.81,0.16,1.21c0.55,5.3-0.34,9.35-2.71,12.38l0,0
			c-1.95,2.49-4.74,4.04-7.85,4.36C50.12,95.37,49.73,95.39,49.34,95.39z M31.77,60.56l0.04,0c-0.04,0.71-0.08,1.3-0.15,1.92
			c-0.82,7.42,0.59,15.01,3.96,21.38c1.9,3.59,4.05,6.32,6.74,8.59c2.28,1.92,5.15,2.82,8.11,2.51c3.01-0.31,5.71-1.81,7.6-4.22l0,0
			c2.31-2.95,3.17-6.91,2.63-12.11c-0.04-0.4-0.1-0.8-0.16-1.2c-0.05-0.35-0.1-0.7-0.14-1.05c-0.01-0.09-0.02-0.34-0.04-0.61
			c-0.02-0.3-0.04-0.74-0.06-0.81l0.14-0.03l-0.16-0.02c0.04-1.18,0.13-2.38,0.21-3.53l0.05-0.73c0.27-3.62,0.29-7.29,0.06-11.21
			c-0.03-0.55-0.06-1.1-0.1-1.64c-0.07-1.14-0.14-2.32-0.19-3.49c0-0.25-0.01-0.57,0-0.68c0.07-1.26,0.15-2.49,0.29-3.72
			c0.21-1.8,0.52-3.62,0.81-5.37l0.1-0.62c0.13-0.76,0.26-1.53,0.4-2.29c0.12-0.61,0.24-1.23,0.37-1.84l0.09-0.37
			c0.86-2.97,2.23-5.75,3.56-8.44c0.31-0.63,0.62-1.26,0.93-1.89c2.11-4.39,2.81-8.16,2.19-11.88c-0.13-0.75-0.32-1.51-0.57-2.23
			c-0.15-0.48-0.29-0.86-0.44-1.21c-1.93-4.52-6.12-7.8-10.67-8.35C48.02,4.27,41.2,16.06,38.97,19.94
			c-3.39,5.87-5.42,12.99-6.39,22.39c-0.3,2.95-0.42,5.96-0.53,8.88l-0.04,1.03c-0.02,0.53-0.04,1.05-0.07,1.58
			c-0.06,1.21-0.11,2.47-0.12,3.7h-0.01C31.79,58.2,31.76,59.94,31.77,60.56z"/>
	</g>
	<path class="st1" d="M52.01,93.22c-0.08,0-0.16-0.03-0.23-0.08c-0.14-0.1-0.18-0.29-0.12-0.44c0.1-0.24,0.18-0.49,0.22-0.75
		l-1.8,0.97c-0.18,0.1-0.41,0.03-0.5-0.15c-0.1-0.18-0.03-0.41,0.15-0.51l1.87-1.04c0.04-0.02,0.08-0.04,0.12-0.06l-0.09-0.08
		c-0.08-0.01-0.16-0.02-0.25-0.04c-0.19-0.05-0.31-0.23-0.28-0.42c0,0,0-0.01,0-0.02c-0.32-0.28-0.61-0.59-0.89-0.88
		c-0.14-0.15-0.14-0.38,0.01-0.52c0.14-0.14,0.38-0.15,0.52,0l1.08,1.04c0.03,0.03,0.06,0.05,0.1,0.08c0.29-0.08,0.6-0.33,0.97-0.77
		c0.04-0.05,0.08-0.1,0.12-0.15c0.13-0.16,0.36-0.17,0.52-0.04c0.16,0.13,0.18,0.36,0.05,0.52c-0.04,0.05-0.08,0.1-0.12,0.15
		c-0.13,0.17-0.25,0.36-0.36,0.56c0.17,0.04,0.34,0.1,0.52,0.15c0.14,0.05,0.23,0.17,0.25,0.3l0.43,0h0c0.19,0,0.35,0.14,0.37,0.33
		c0.02,0.19-0.11,0.37-0.29,0.41c-0.34,0.07-0.71,0.08-1.09,0.01l-0.57,0c0,0.02,0,0.04-0.01,0.06l-0.01,0.12
		c-0.04,0.39-0.09,0.87-0.47,1.18C52.18,93.2,52.1,93.22,52.01,93.22z"/>
	<path class="st1" d="M55,85.52c0.79-0.23,1.5-0.85,1.65-1.63c0.14-0.76-0.43-1.63-1.16-1.66c-0.1,0-0.18-0.09-0.17-0.19
		c0-0.05,0.03-0.1,0.07-0.13l0.01-0.01c0.58-0.46,0.79-1.34,0.49-1.98c-0.14-0.33-0.44-0.66-0.55-1.17
		c-0.05-0.29,0.02-0.55,0.18-0.78c0.13-0.22,0.48-0.46,0.83-0.35l-0.32,0.43c-0.73-1.07-1.13-2.32-1.38-3.55
		c-0.25-1.24-0.36-2.48-0.49-3.71c-0.25-2.47-0.32-4.96-0.31-7.45c0.01-2.49,0.16-4.97,0.44-7.44c0.27-2.47,0.69-4.92,1.23-7.33
		c-0.33,2.46-0.58,4.91-0.76,7.38c-0.16,2.46-0.23,4.93-0.23,7.39c0.02,2.47,0.16,4.93,0.34,7.38c0.22,2.44,0.38,4.97,1.63,7.01
		l0.08,0.12c0.07,0.12,0.04,0.27-0.08,0.35c-0.1,0.06-0.23,0.04-0.31-0.04c-0.09-0.09-0.38,0.24-0.33,0.5
		c0.04,0.32,0.29,0.65,0.47,1.07c0.34,0.88,0.04,1.92-0.71,2.46l-0.09-0.33c0.49,0.05,0.89,0.38,1.11,0.77
		c0.23,0.39,0.31,0.86,0.21,1.29C56.62,84.8,55.81,85.37,55,85.52z"/>
	<path class="st1" d="M59.68,12.49l2.22,1.3c0.74,0.45,1.47,0.86,2.21,1.33c0.36,0.24,0.71,0.62,0.79,1.11
		c0.09,0.47-0.04,0.95-0.26,1.35c-0.49,0.82-1.35,1.23-2.11,1.6l0.09-0.33l2.09,2.89c0.09,0.12,0.06,0.29-0.06,0.38
		c-0.02,0.01-0.04,0.02-0.06,0.03l-0.01,0l-2.83,1.08l-1.42,0.53c-0.11,0.04-0.19,0.08-0.2,0.1c0,0.01,0-0.02,0.01,0.04
		c0.03,0.11,0.23,0.37,0.35,0.59c0.26,0.47,0.46,0.97,0.59,1.48c0.05,0.25,0.16,0.52,0.06,0.93c-0.05,0.2-0.23,0.39-0.38,0.48
		c-0.16,0.09-0.3,0.13-0.42,0.17l-2.87,0.95l0.23-0.45c0.43,1.34,0.8,2.69,1.08,4.07l0.2,1.04c0.05,0.36,0.1,0.79-0.07,1.22
		c-0.17,0.43-0.52,0.72-0.82,0.93c-0.32,0.21-0.61,0.37-0.87,0.56c-1.08,0.76-1.92,1.85-2.53,3.05c-0.62,1.21-1.05,2.52-1.39,3.85
		c-1.39,5.36-2.01,10.92-1.94,16.48c-0.41-5.56,0.07-11.18,1.33-16.63c0.34-1.36,0.77-2.72,1.4-4c0.64-1.27,1.53-2.47,2.72-3.33
		c0.59-0.44,1.27-0.71,1.43-1.18c0.18-0.45-0.06-1.18-0.18-1.85c-0.28-1.35-0.62-2.69-1.03-4c-0.06-0.19,0.04-0.38,0.23-0.45
		l2.88-0.93c0.26-0.08,0.36-0.14,0.37-0.2c0.04-0.09-0.01-0.33-0.06-0.57c-0.11-0.46-0.29-0.91-0.51-1.33
		c-0.11-0.22-0.25-0.35-0.39-0.72c-0.07-0.18-0.04-0.5,0.14-0.67c0.17-0.17,0.33-0.22,0.45-0.27l1.42-0.52l2.86-1.01l-0.13,0.41
		l-2.01-2.95l0-0.01c-0.07-0.1-0.04-0.24,0.06-0.31l0.03-0.02c0.77-0.34,1.56-0.71,1.98-1.39c0.2-0.33,0.32-0.73,0.27-1.11
		c-0.05-0.38-0.3-0.7-0.63-0.95c-0.68-0.48-1.42-0.94-2.13-1.42L59.68,12.49z"/>
	<path class="st1" d="M44.84,82.92c-1.7-1.89-2.86-4.24-3.55-6.7c-0.67-2.47-0.93-5.04-0.87-7.59c0.04-2.54,0.37-5.12,0.62-7.56
		c0.03-0.59-0.21-0.9-0.71-1.35c-0.5-0.46-0.92-1.07-1.1-1.76c-0.19-0.68-0.11-1.51,0.35-2.11c0.43-0.59,1.18-1.02,1.98-0.88
		l-0.33,0.53c-0.43-0.62-0.83-1.29-1.02-2.09c-0.09-0.39-0.11-0.84,0.03-1.26c0.13-0.43,0.45-0.78,0.77-1.01
		c0.61-0.46,1.38-0.75,1.52-1.27c0.08-0.25-0.05-0.53-0.22-0.88c-0.17-0.36-0.26-0.77-0.26-1.16c-0.02-0.79,0.19-1.52,0.34-2.23
		l0.5-2.15l1.03-4.3l-0.76,4.35l-0.39,2.17c-0.13,0.72-0.3,1.44-0.26,2.13c0.02,0.35,0.1,0.67,0.25,0.97
		c0.15,0.3,0.4,0.73,0.29,1.21c-0.1,0.49-0.47,0.79-0.77,1.01c-0.31,0.23-0.63,0.41-0.89,0.63c-0.55,0.4-0.71,0.99-0.54,1.64
		c0.16,0.64,0.53,1.26,0.94,1.84c0.11,0.15,0.07,0.36-0.08,0.47c-0.08,0.05-0.17,0.07-0.25,0.06c-0.47-0.08-0.99,0.2-1.3,0.63
		c-0.32,0.42-0.37,0.98-0.22,1.51c0.15,0.54,0.47,1.01,0.91,1.4c0.22,0.21,0.5,0.44,0.7,0.79c0.2,0.36,0.25,0.76,0.24,1.11
		c-0.29,2.59-0.64,5.03-0.71,7.57c-0.07,2.51,0.04,5.03,0.64,7.47C42.28,78.55,43.28,80.91,44.84,82.92z"/>
	<path class="st1" d="M47.87,13.17c-1.56,1.9-2.97,3.91-4.17,6.02c-1.2,2.12-2.25,4.32-3.04,6.63c-0.84,2.28-1.43,4.65-1.84,7.05
		c-0.41,2.4-0.58,4.85-0.58,7.3c-0.31-2.44-0.28-4.93,0.01-7.39c0.29-2.46,0.9-4.88,1.7-7.22c0.86-2.32,1.92-4.58,3.25-6.67
		C44.54,16.81,46.09,14.86,47.87,13.17z"/>
</g>
</svg>
