<?xml version="1.0" encoding="utf-8"?>
<!-- Generator: Adobe Illustrator 24.0.1, SVG Export Plug-In . SVG Version: 6.00 Build 0)  -->
<svg version="1.1" id="Capa_1" xmlns="http://www.w3.org/2000/svg" xmlns:xlink="http://www.w3.org/1999/xlink" x="0px" y="0px"
	 viewBox="0 0 100 100" style="enable-background:new 0 0 100 100;" xml:space="preserve">
<style type="text/css">
	.st0{fill:#FFFFFF;}
	.st1{fill:#110601;}
	.st2{fill:#FBBE3B;}
	.st3{fill:#020000;}
</style>
<g>
	<g>
		<g>
			<path class="st0" d="M85.05,71.73c-7.43,5.93-17.26,7.44-25.82,11.07c-3.95,1.68-7.41,4.1-11.13,6.19
				c-5.16,2.9-10.99,4.92-16.92,5.32c-10.35,0.7-22.85-4.75-24.06-16.28C6.58,72.9,7.69,67.69,7.16,62.48
				c-0.53-5.21-1.61-10.33-2.97-15.39C-0.59,28.38,12.88,6.27,32.97,4.86C43.1,4.15,52.44,6.78,61.9,10.01
				c9.24,3.15,19.51,4.72,26.59,12.05C101.25,35.25,99.3,60.34,85.05,71.73z"/>
			<g>
				<path class="st1" d="M85.05,71.73c-4.83,3.86-10.75,5.91-16.54,7.82c-2.91,0.96-5.83,1.91-8.66,3.08
					c-2.85,1.14-5.48,2.73-8.09,4.32c-2.61,1.6-5.27,3.17-8.1,4.37c-2.82,1.22-5.78,2.14-8.81,2.69
					c-6.04,1.12-12.51,0.42-18.02-2.43c-2.74-1.41-5.24-3.38-7.07-5.9c-0.4-0.67-0.86-1.3-1.2-2c-0.3-0.72-0.71-1.39-0.9-2.15
					c-0.24-0.74-0.48-1.48-0.58-2.26l-0.2-1.15c-0.04-0.38-0.08-0.77-0.1-1.16c-0.2-3.09,0.09-6.17,0.2-9.22
					c0.05-1.53,0.06-3.05-0.06-4.56c-0.13-1.51-0.33-3.03-0.56-4.54c-0.47-3.02-1.1-6.01-1.84-8.98c-0.37-1.48-0.8-2.96-1.09-4.49
					c-0.27-1.53-0.48-3.07-0.52-4.62c-0.26-6.2,1.23-12.42,4.05-17.93c1.42-2.75,3.21-5.31,5.27-7.63c2.08-2.29,4.45-4.33,7.08-5.98
					c2.64-1.62,5.5-2.91,8.52-3.65c3.01-0.76,6.13-0.98,9.21-0.92c6.18,0.1,12.27,1.38,18.15,3.14c2.95,0.86,5.85,1.9,8.75,2.85
					c2.92,0.93,5.87,1.76,8.79,2.7c2.92,0.95,5.82,2.02,8.55,3.44c2.72,1.44,5.28,3.23,7.41,5.47c4.18,4.54,6.93,10.33,7.85,16.42
					c0.11,0.76,0.26,1.52,0.34,2.28l0.14,2.3c0.02,0.38,0.06,0.77,0.06,1.15l-0.03,1.15l-0.07,2.3l-0.28,2.29l-0.14,1.14l-0.24,1.13
					l-0.48,2.25l-0.68,2.2l-0.34,1.1c-0.13,0.36-0.29,0.71-0.44,1.06l-0.89,2.12c-0.35,0.68-0.73,1.35-1.09,2.03l-0.55,1.01
					c-0.2,0.33-0.43,0.63-0.65,0.95l-1.31,1.89c-0.49,0.59-1.01,1.16-1.51,1.74l-0.76,0.87l-0.85,0.77L85.05,71.73z M85.05,71.73
					l1.7-1.55l0.85-0.78l0.75-0.87c0.5-0.58,1.01-1.15,1.5-1.74l1.3-1.9c0.21-0.32,0.44-0.63,0.64-0.95l0.54-1.01
					c0.36-0.68,0.74-1.34,1.08-2.03l0.88-2.12c0.14-0.35,0.3-0.7,0.43-1.06l0.34-1.1l0.67-2.2l0.47-2.25l0.23-1.12l0.13-1.14
					l0.26-2.28l0.06-2.29l0.03-1.15c0-0.38-0.05-0.76-0.07-1.14l-0.15-2.29c-0.09-0.76-0.24-1.51-0.35-2.27
					c-0.95-6.04-3.72-11.78-7.87-16.24c-2.11-2.2-4.65-3.96-7.35-5.37c-2.72-1.4-5.6-2.44-8.51-3.37c-2.92-0.92-5.88-1.73-8.81-2.65
					c-2.93-0.94-5.81-1.95-8.76-2.79c-5.87-1.71-11.91-2.95-18.01-3.01c-3.05-0.04-6.1,0.19-9.04,0.95
					c-2.94,0.74-5.73,2.02-8.3,3.61c-2.56,1.63-4.87,3.64-6.89,5.89c-2,2.28-3.73,4.8-5.12,7.5c-2.79,5.38-4.29,11.47-4.06,17.54
					c0.03,1.52,0.23,3.02,0.48,4.52c0.28,1.48,0.69,2.96,1.06,4.45c0.73,2.99,1.35,6,1.81,9.05c0.22,1.52,0.42,3.04,0.54,4.59
					c0.12,1.55,0.1,3.09,0.04,4.63c-0.13,3.07-0.43,6.13-0.25,9.16c0.03,0.38,0.06,0.76,0.09,1.13l0.19,1.12
					c0.09,0.75,0.32,1.47,0.55,2.19c0.18,0.74,0.57,1.39,0.86,2.09c0.32,0.68,0.77,1.3,1.15,1.95c1.77,2.46,4.2,4.4,6.89,5.81
					c5.41,2.83,11.79,3.56,17.78,2.49c3.01-0.52,5.95-1.43,8.76-2.62c2.83-1.18,5.47-2.73,8.1-4.31c2.63-1.58,5.28-3.16,8.14-4.29
					c2.84-1.16,5.77-2.09,8.68-3.04C74.28,77.58,80.2,75.56,85.05,71.73z"/>
			</g>
		</g>
		<g>
			<path class="st2" d="M45.81,25.81c3.17,2.64,6.09,5.61,6.66,9.89c0.54,3.98-0.88,8.4-2.73,11.9c-2.43,4.59-6.24,10-11.83,10.55
				c-4.35,0.43-9.77-0.76-13.59-2.86c-4.89-2.69-8.41-6.81-8.3-12.65c0.1-5.03,1.71-10.17,5.02-14.02
				C27.36,21.3,38.18,20.09,45.81,25.81z"/>
			<g>
				<path class="st3" d="M45.81,25.81c1.81,1.51,3.59,3.13,4.89,5.13c0.65,1,1.17,2.08,1.5,3.22c0.33,1.15,0.45,2.34,0.44,3.53
					c-0.08,4.8-2.13,9.32-4.67,13.31c-1.3,1.99-2.83,3.89-4.78,5.33c-0.97,0.72-2.05,1.31-3.21,1.71c-1.17,0.39-2.4,0.52-3.6,0.54
					c-2.41,0.04-4.81-0.31-7.13-0.93c-2.31-0.63-4.58-1.56-6.59-2.89c-2.01-1.32-3.85-3-5.12-5.09c-1.28-2.08-1.91-4.55-1.86-6.97
					c0.12-4.79,1.6-9.61,4.56-13.4c2.98-3.76,7.4-6.31,12.13-6.93C37.08,21.67,42.04,22.92,45.81,25.81z M45.81,25.81
					c-3.8-2.86-8.75-4.06-13.42-3.34c-4.69,0.69-8.99,3.33-11.82,7.06c-2.83,3.77-4.14,8.51-4.2,13.16
					c-0.03,2.31,0.58,4.62,1.8,6.57c1.21,1.97,2.98,3.55,4.92,4.81c1.94,1.3,4.1,2.21,6.35,2.85c2.25,0.63,4.59,0.98,6.92,0.96
					c1.17-0.02,2.32-0.1,3.42-0.45c1.1-0.34,2.13-0.89,3.08-1.56c1.9-1.34,3.44-3.17,4.77-5.1c2.6-3.89,4.74-8.32,4.89-13.09
					c0.02-1.18-0.09-2.37-0.41-3.5c-0.32-1.14-0.83-2.22-1.46-3.21C49.38,28.97,47.62,27.34,45.81,25.81z"/>
			</g>
		</g>
	</g>
	<g>
		<path class="st0" d="M31.84,28.15c-1.25,0.62-2.4,1.37-3.47,2.22c-1.06,0.86-2.06,1.78-2.95,2.82c-0.88,1.04-1.71,2.12-2.41,3.29
			c-0.74,1.16-1.32,2.4-1.95,3.65c0.17-0.68,0.35-1.35,0.57-2.02c0.27-0.64,0.5-1.32,0.84-1.93c0.59-1.29,1.45-2.43,2.35-3.52
			c0.94-1.07,2.01-2.01,3.19-2.79C29.19,29.1,30.47,28.46,31.84,28.15z"/>
	</g>
</g>
</svg>
