<?xml version="1.0" encoding="utf-8"?>
<!-- Generator: Adobe Illustrator 26.2.1, SVG Export Plug-In . SVG Version: 6.00 Build 0)  -->
<svg version="1.1" id="Layer_1" xmlns="http://www.w3.org/2000/svg" xmlns:xlink="http://www.w3.org/1999/xlink" x="0px" y="0px"
	 viewBox="0 0 161 74" style="enable-background:new 0 0 161 74;" xml:space="preserve">
<style type="text/css">
	.st0{fill:#BAE2D7;}
	.st1{fill:#FFFFFF;}
	.st2{fill:#8CC63F;}
	.st3{fill:#39B54A;}
	.st4{fill:#009245;}
	.st5{fill:#74964C;}
	.st6{fill:#908FB2;}
	.st7{fill:none;}
	.st8{clip-path:url(#SVGID_00000088831244934635054810000010519907728622235789_);fill:#BAE2D7;}
	.st9{clip-path:url(#SVGID_00000032636102501736694860000015517386166301813420_);fill:#FDE9E0;}
	.st10{clip-path:url(#SVGID_00000152948185969310282510000003190509679289972115_);fill:#F76241;}
	.st11{clip-path:url(#SVGID_00000028313353891211487560000010545044092772327582_);fill:#E8B051;}
	.st12{fill:#4EB49C;}
	.st13{fill:#537528;}
	.st14{clip-path:url(#SVGID_00000088821155739270270900000008487586089963019192_);fill:#87BBD8;}
	.st15{clip-path:url(#SVGID_00000114074094171684947510000015056769187541611419_);fill:#C49077;}
	.st16{clip-path:url(#SVGID_00000085939396344660995280000017314170089553461132_);fill:#F99D9D;}
	.st17{clip-path:url(#SVGID_00000097493068903223160550000001101180711391804303_);fill:#B28038;}
	.st18{fill:#F9303A;}
	.st19{fill:#C8D746;}
	.st20{fill:#050404;}
	.st21{fill:#F76241;stroke:#FFFFF3;stroke-width:0.033;stroke-miterlimit:10;}
	.st22{fill:#E58961;}
	.st23{opacity:0.28;fill:#FFA188;}
	.st24{fill:#F76241;stroke:#FFFFF3;stroke-width:0.0179;stroke-miterlimit:10;}
	.st25{fill-rule:evenodd;clip-rule:evenodd;fill:#FFFFFF;}
	.st26{fill:none;stroke:#FFFFFF;stroke-width:3;stroke-miterlimit:10;}
	.st27{fill:#F76241;stroke:#FFFFF3;stroke-width:0.1611;stroke-miterlimit:10;}
	.st28{opacity:0.28;fill:#FFA188;enable-background:new    ;}
	.st29{fill:#F9F9F9;}
	.st30{fill:#87BBD8;}
</style>
<path class="st21" d="M138,55H24c-6.6,0-12-5.4-12-12V31c0-6.6,5.4-12,12-12h114c6.6,0,12,5.4,12,12v12C150,49.6,144.6,55,138,55z"
	/>
<path class="st1" d="M134.5,42h-106c-2.47,0-4.5-2.02-4.5-4.5v0c0-2.47,2.02-4.5,4.5-4.5h106c2.48,0,4.5,2.02,4.5,4.5v0
	C139,39.98,136.98,42,134.5,42z"/>
<path class="st0" d="M53.5,42h-25c-2.47,0-4.5-2.02-4.5-4.5v0c0-2.47,2.02-4.5,4.5-4.5h25c2.47,0,4.5,2.02,4.5,4.5v0
	C58,39.98,55.98,42,53.5,42z"/>
</svg>
