<?xml version="1.0" encoding="utf-8"?>
<!-- Generator: Adobe Illustrator 24.0.1, SVG Export Plug-In . SVG Version: 6.00 Build 0)  -->
<svg version="1.1" id="Capa_1" xmlns="http://www.w3.org/2000/svg" xmlns:xlink="http://www.w3.org/1999/xlink" x="0px" y="0px"
	 viewBox="0 0 100 100" style="enable-background:new 0 0 100 100;" xml:space="preserve">
<style type="text/css">
	.st0{fill:#FF931E;}
	.st1{fill:#140108;}
	.st2{fill:#F7D18F;}
	.st3{fill:#050000;}
	.st4{fill:#FE6700;}
	.st5{fill:#FFC60C;}
</style>
<g>
	<g>
		<g>
			<path class="st0" d="M92.95,40.23c-1.62-9.77-6.49-10.14-17.31-8.46c-9.94,1.54-23.6,1.85-25.78,1.89
				c-2.18-0.04-15.84-0.35-25.78-1.89c-10.82-1.68-15.69-1.31-17.31,8.46c-1.82,10.98,5.86,15.59,8.2,16.52
				c3.49,1.4,15.78,3.56,34.59,3.61v0c0.1,0,0.2,0,0.3,0c0.1,0,0.2,0,0.3,0v0c18.82-0.05,31.1-2.21,34.6-3.61
				C87.1,55.82,94.78,51.21,92.95,40.23z"/>
			<path class="st1" d="M92.95,40.23c-0.29-1.55-0.65-3.11-1.29-4.56c-0.65-1.43-1.65-2.76-3.05-3.52c-1.39-0.77-2.99-1.03-4.56-1.1
				c-1.58-0.05-3.16,0.09-4.73,0.26c-3.14,0.39-6.26,0.95-9.42,1.25c-3.15,0.33-6.31,0.57-9.47,0.77c-3.16,0.19-6.33,0.33-9.49,0.42
				c-3.18,0.04-6.34-0.13-9.5-0.25c-6.32-0.31-12.66-0.79-18.92-1.77c-1.57-0.21-3.13-0.41-4.71-0.48
				c-1.57-0.07-3.16-0.06-4.67,0.31c-1.51,0.35-2.89,1.19-3.82,2.42c-0.93,1.22-1.53,2.7-1.89,4.22c-0.77,3.03-0.97,6.25-0.18,9.27
				c0.78,3.02,2.67,5.7,5.17,7.57c2.47,1.99,5.71,2.43,8.78,3.05c3.11,0.55,6.25,0.94,9.4,1.25c6.3,0.61,12.63,0.86,18.96,0.9
				l0.13,0v0.13l0,0l-0.13-0.13l0.6,0l-0.13,0.13v0v-0.13l0.13,0c4.57,0,9.14-0.13,13.7-0.41c4.56-0.29,9.11-0.71,13.62-1.43
				c2.25-0.37,4.51-0.78,6.68-1.48c2.16-0.73,4.03-2.17,5.55-3.85c1.49-1.72,2.61-3.79,3.09-6.02
				C93.32,44.81,93.3,42.49,92.95,40.23z M92.95,40.23c0.36,2.25,0.39,4.58-0.11,6.82c-0.48,2.24-1.59,4.32-3.08,6.06
				c-1.52,1.7-3.39,3.15-5.57,3.9c-2.18,0.71-4.44,1.13-6.69,1.51c-4.51,0.74-9.07,1.19-13.63,1.5c-4.56,0.31-9.14,0.45-13.71,0.48
				l0.13-0.13l0,0v0.13l-0.13,0l-0.6,0l-0.13,0v-0.13v0l0.13,0.13c-6.34-0.01-12.68-0.23-18.99-0.81c-3.16-0.29-6.31-0.67-9.44-1.21
				c-1.56-0.28-3.12-0.58-4.66-1c-1.55-0.39-3.04-1.12-4.32-2.09c-2.59-1.9-4.55-4.68-5.38-7.8C5.97,44.46,6.2,41.15,7,38.07
				c0.37-1.55,0.99-3.08,1.99-4.37c0.99-1.3,2.48-2.19,4.06-2.55c1.58-0.38,3.2-0.38,4.78-0.3c1.59,0.08,3.17,0.28,4.74,0.51
				c6.25,1.02,12.56,1.52,18.88,1.86c3.16,0.14,6.33,0.33,9.48,0.3c3.16-0.07,6.33-0.19,9.49-0.37c3.16-0.18,6.32-0.4,9.47-0.72
				c3.15-0.29,6.27-0.83,9.42-1.21c1.58-0.16,3.16-0.29,4.75-0.23c1.58,0.08,3.19,0.34,4.58,1.13c1.41,0.77,2.4,2.11,3.05,3.55
				C92.32,37.12,92.67,38.68,92.95,40.23z"/>
		</g>
		<g>
			<path class="st2" d="M90.99,51.43c1.68-2.61,2.78-6.26,1.96-11.2c-0.06-0.39-0.14-0.76-0.21-1.12
				c-6.61-4.67-28.53-0.52-37.67-0.13c-9.8,0.42-31.33-1.21-38.97-2.56c-4.7-0.84-7.54,0.82-9.02,2.21c-0.12,0.5-0.22,1.03-0.32,1.6
				c-1.82,10.98,5.86,15.59,8.2,16.52c0.37,0.15,0.84,0.3,1.39,0.46c3.32,0.66,7.01,1.31,9.94,1.82c2.19,0.27,4.65,0.52,7.37,0.73
				l53.42-4.84C87.09,54.93,89.03,53.53,90.99,51.43z"/>
			<path class="st3" d="M90.99,51.43c1.15-1.8,1.86-3.86,2.1-5.98c0.26-2.12,0.06-4.26-0.38-6.34l0.01,0.02
				c-1.51-1.01-3.3-1.45-5.08-1.75c-1.79-0.28-3.59-0.38-5.4-0.41c-3.62-0.05-7.23,0.2-10.83,0.53c-3.6,0.33-7.2,0.75-10.8,1.14
				c-1.8,0.19-3.6,0.37-5.42,0.46c-1.81,0.07-3.62,0.1-5.43,0.07c-7.24-0.09-14.48-0.54-21.69-1.14c-3.61-0.32-7.21-0.66-10.8-1.2
				c-0.9-0.13-1.78-0.31-2.67-0.37c-0.89-0.06-1.78-0.04-2.65,0.1c-1.75,0.27-3.41,1.04-4.69,2.25l0.07-0.12
				c-0.42,1.86-0.63,3.76-0.56,5.65c0.06,1.89,0.53,3.77,1.33,5.48c0.79,1.72,1.99,3.23,3.41,4.49c1.42,1.25,3.07,2.26,4.92,2.73
				l-0.02,0l8.6,1.6c1.43,0.32,2.89,0.38,4.33,0.55l4.35,0.44l-0.02,0l53.43-4.71l-0.01,0C88.48,53.87,89.79,52.7,90.99,51.43z
				 M90.99,51.43c-1.2,1.27-2.49,2.45-3.89,3.51l0,0l0,0l-53.4,4.97l-0.01,0l-0.01,0L29.3,59.5c-1.45-0.16-2.92-0.22-4.35-0.53
				l-8.63-1.56l0,0l-0.01,0c-1.89-0.48-3.62-1.52-5.08-2.79C9.77,53.33,8.52,51.77,7.69,50c-0.84-1.76-1.32-3.7-1.4-5.64
				c-0.08-1.94,0.12-3.9,0.55-5.79l0.02-0.07l0.06-0.05c1.36-1.28,3.13-2.08,4.96-2.35c0.91-0.14,1.84-0.16,2.76-0.09
				c0.92,0.06,1.82,0.25,2.7,0.39c3.57,0.55,7.17,0.91,10.77,1.25c7.2,0.64,14.43,1.12,21.66,1.25c1.81,0.03,3.62,0.02,5.42-0.05
				c1.8-0.08,3.6-0.26,5.4-0.44c3.6-0.36,7.2-0.77,10.8-1.08c3.61-0.31,7.23-0.54,10.85-0.47c1.81,0.04,3.62,0.15,5.41,0.44
				c1.78,0.31,3.58,0.76,5.1,1.79l0.01,0.01l0,0.01c0.43,2.09,0.62,4.24,0.35,6.36C92.87,47.58,92.15,49.64,90.99,51.43z"/>
		</g>
	</g>
	<g>
		<g>
			<path class="st4" d="M96.37,46.29c-1.27-6.75-4.19-7.27-16.54-6.14c-11.34,1.04-26.94,1.25-29.42,1.28
				c-2.48-0.03-18.08-0.24-29.42-1.28c-12.35-1.13-17.3-1.37-18.2,5.6c-1.05,8.12,5.13,10.66,7.8,11.29
				c3.99,0.95,18,2.41,39.48,2.44v0c0.11,0,0.23,0,0.34,0c0.11,0,0.23,0,0.34,0v0c21.47-0.03,35.49-1.49,39.48-2.44
				C92.9,56.41,97.82,53.99,96.37,46.29z"/>
			<path class="st3" d="M96.37,46.29c-0.3-1.58-0.74-3.2-1.78-4.46c-1.05-1.27-2.72-1.77-4.3-1.97c-3.23-0.34-6.47,0.01-9.7,0.27
				c-6.45,0.61-12.93,0.92-19.41,1.15c-3.24,0.11-6.48,0.19-9.72,0.25c-3.25,0.03-6.48-0.07-9.73-0.14
				c-6.48-0.17-12.96-0.42-19.43-0.94c-3.23-0.26-6.46-0.61-9.68-0.68c-1.61-0.04-3.23,0-4.79,0.32c-1.56,0.29-3.01,1.11-3.81,2.46
				c-0.8,1.34-1.02,2.99-1.1,4.56c-0.04,1.59,0.22,3.19,0.89,4.61c1.39,2.87,4.4,4.68,7.52,5.25c3.16,0.6,6.4,0.91,9.62,1.21
				c3.23,0.28,6.46,0.49,9.69,0.66c6.47,0.34,12.95,0.48,19.43,0.51l0.13,0v0.13l0,0l-0.13-0.13l0.68,0l-0.13,0.13v0v-0.13l0.13,0
				c8.91,0,17.83-0.21,26.72-0.85c2.22-0.16,4.44-0.35,6.66-0.59c2.21-0.26,4.44-0.49,6.59-1.04c1.06-0.32,2.08-0.81,2.96-1.49
				c0.88-0.68,1.6-1.56,2.09-2.56C96.77,50.81,96.75,48.46,96.37,46.29z M96.37,46.29c0.39,2.17,0.42,4.52-0.56,6.56
				c-0.49,1.01-1.21,1.9-2.09,2.58c-0.89,0.68-1.91,1.18-2.97,1.51c-2.17,0.56-4.39,0.8-6.6,1.07c-2.22,0.25-4.44,0.45-6.66,0.62
				c-8.89,0.67-17.82,0.93-26.73,0.97l0.13-0.13v0v0.13l-0.13,0l-0.68,0l-0.13,0v-0.13l0,0l0.13,0.13c-6.48,0-12.97-0.11-19.45-0.42
				c-3.24-0.15-6.48-0.35-9.71-0.62c-3.23-0.29-6.46-0.58-9.67-1.17c-1.62-0.29-3.19-0.9-4.57-1.8c-1.38-0.91-2.55-2.17-3.29-3.67
				c-0.73-1.51-0.98-3.2-0.93-4.84c0.09-1.63,0.31-3.32,1.19-4.78c0.88-1.47,2.5-2.36,4.11-2.65c1.62-0.33,3.27-0.36,4.89-0.31
				c3.25,0.09,6.48,0.45,9.71,0.73c6.45,0.55,12.93,0.83,19.41,1.03c3.24,0.09,6.48,0.2,9.71,0.19c3.24-0.04,6.48-0.11,9.72-0.2
				c6.48-0.2,12.95-0.48,19.41-1.06c3.23-0.25,6.48-0.58,9.71-0.22c1.58,0.21,3.26,0.72,4.31,2C95.65,43.08,96.08,44.71,96.37,46.29
				z"/>
		</g>
		<g>
			<g>
				<path class="st5" d="M4.98,41.91c1.18,5.2,5.73,6.52,8.92,4.04c2.03-1.58,3.6-3.38,6.12-2.79c1.88,0.44,2.79,2.97,4.37,4.17
					c2.01,1.53,4.55,0.73,6.37-0.91c1.57-1.41,3.4-3.26,5.26-1.55c0.57,0.53,1.02,1.37,1.53,2c0.76,0.94,1.64,1.59,2.63,1.98
					c2.35,0.92,4.42,0.02,6.2-2.12c0.68-0.82,1.31-1.69,2.2-2.07c1.14-0.49,2.53,0.06,3.54,0.82c1.76,1.32,2.96,3.45,5.1,3.68
					c2.01,0.21,3.4-0.97,4.78-2.83c1.67-2.28,3.89-2.5,6.12-1.74c1.93,0.65,3.45,2.58,5.41,3.16c2.06,0.61,4.22,0.18,5.42-2.39
					c0.35-0.74,0.54-1.56,1.12-2.02c0.93-0.73,2.44-0.21,3.31,0.44c1.53,1.16,2.32,3.58,4.15,4.1c0.23,0.07,0.47,0.09,0.7,0.1
					c1.47,0.08,1.46-3.06,0-3.14c-0.69-0.04-1.16-0.75-1.63-1.39c-0.7-0.96-1.41-1.88-2.28-2.54c-1.85-1.39-4.64-1.51-6.23,0.57
					c-0.53,0.69-0.82,1.65-1.2,2.48c-0.52,1.11-1.71,0.91-2.53,0.81c-1.91-0.25-3.56-2.32-5.37-3.11c-2.26-0.98-5.11-0.93-7.16,0.81
					c-1.32,1.11-2.16,3.4-3.82,3.58c-2.01,0.22-3.34-2.23-4.96-3.44c-2.03-1.52-4.66-1.74-6.63,0.04c-0.78,0.7-1.39,1.66-2.13,2.43
					c-0.89,0.93-1.87,1.12-2.96,0.91c-1.82-0.35-2.64-2.27-4.02-3.67c-1.67-1.69-3.85-1.47-5.66-0.38c-1.93,1.15-3.2,3.63-5.56,2.96
					c-1.58-0.45-2.58-3.01-3.98-4.03c-2.08-1.52-4.74-1.08-6.8,0.22c-1.81,1.13-3,3.11-5.12,3.03c-0.99-0.04-1.83-0.73-2.47-1.72
					c-0.18-0.29-0.32-0.65-0.44-0.98c-0.17-0.46-0.02,0.03-0.1-0.32C6.74,39.15,4.54,39.97,4.98,41.91L4.98,41.91z"/>
				<path class="st3" d="M4.98,41.91c0.25,1.06,0.67,2.1,1.32,2.98c0.64,0.88,1.52,1.61,2.56,1.96c1.03,0.36,2.18,0.38,3.21,0.04
					c1.05-0.33,1.92-1.03,2.75-1.73c0.84-0.69,1.69-1.42,2.72-1.84c1.02-0.41,2.23-0.44,3.22,0.1c0.97,0.58,1.59,1.53,2.26,2.38
					c0.66,0.86,1.41,1.71,2.45,2.07c1.02,0.37,2.16,0.25,3.16-0.16c1.02-0.4,1.86-1.1,2.66-1.86c0.81-0.71,1.67-1.51,2.81-1.71
					c0.56-0.09,1.16,0.06,1.62,0.39c0.47,0.32,0.82,0.77,1.14,1.22c0.6,0.92,1.27,1.78,2.18,2.39c0.89,0.6,1.95,0.98,3.02,0.97
					c1.07-0.01,2.1-0.48,2.94-1.15c0.87-0.66,1.48-1.56,2.22-2.39c0.38-0.41,0.8-0.8,1.34-1.02c0.54-0.23,1.14-0.23,1.69-0.11
					c1.11,0.25,2.06,0.94,2.85,1.7c0.81,0.75,1.52,1.59,2.4,2.2c0.86,0.63,1.97,0.85,3,0.61c1.03-0.23,1.89-0.95,2.6-1.75
					c0.37-0.41,0.66-0.84,1.02-1.28c0.36-0.43,0.77-0.82,1.25-1.13c0.95-0.63,2.14-0.85,3.26-0.71c1.11,0.13,2.21,0.52,3.13,1.15
					c0.93,0.61,1.77,1.32,2.7,1.84c0.92,0.53,1.99,0.79,3.04,0.71c1.05-0.08,2.01-0.63,2.64-1.48c0.32-0.42,0.57-0.88,0.77-1.38
					c0.21-0.49,0.38-1.05,0.79-1.51c0.41-0.48,1.07-0.68,1.66-0.63C81.94,42.8,82.5,43,83,43.27c1.04,0.56,1.69,1.54,2.34,2.4
					c0.64,0.85,1.34,1.76,2.33,1.98c0.24,0.02,0.54,0.11,0.72,0.07c0.19-0.03,0.36-0.16,0.48-0.35c0.23-0.39,0.27-0.94,0.16-1.41
					c-0.12-0.48-0.4-0.88-0.86-0.89c-0.71-0.09-1.11-0.63-1.44-1.06c-0.65-0.89-1.27-1.78-2.05-2.51c-0.77-0.73-1.74-1.22-2.78-1.36
					c-1.03-0.15-2.12,0.11-2.93,0.76c-0.4,0.33-0.76,0.72-1.01,1.17c-0.26,0.46-0.45,0.97-0.66,1.48c-0.11,0.25-0.2,0.51-0.38,0.77
					c-0.17,0.26-0.44,0.46-0.72,0.58c-0.59,0.23-1.19,0.15-1.73,0.08c-1.17-0.13-2.14-0.82-3.01-1.46
					c-0.88-0.65-1.72-1.36-2.71-1.76c-1.96-0.82-4.34-0.79-6.16,0.36c-0.94,0.54-1.54,1.44-2.21,2.32
					c-0.34,0.44-0.69,0.87-1.14,1.23c-0.44,0.36-1.04,0.59-1.63,0.54c-1.21-0.1-2.08-0.97-2.83-1.74c-0.77-0.79-1.48-1.62-2.41-2.16
					c-0.92-0.55-1.99-0.87-3.05-0.79c-1.07,0.06-2.08,0.54-2.87,1.26c-0.79,0.73-1.38,1.67-2.17,2.46c-0.4,0.39-0.9,0.71-1.46,0.84
					c-0.56,0.13-1.14,0.1-1.68-0.04c-1.14-0.28-1.9-1.22-2.56-2.06c-0.68-0.85-1.31-1.78-2.24-2.32c-0.93-0.55-2.08-0.61-3.11-0.32
					c-1.05,0.28-1.98,0.88-2.78,1.61c-0.82,0.71-1.59,1.55-2.65,1.95c-0.53,0.19-1.12,0.21-1.66,0.05c-0.55-0.15-1-0.53-1.38-0.92
					c-0.76-0.81-1.31-1.77-2.04-2.57c-0.72-0.82-1.76-1.31-2.83-1.47c-2.18-0.3-4.36,0.71-5.94,2.18c-0.83,0.7-1.64,1.51-2.72,1.82
					c-0.53,0.14-1.1,0.19-1.63,0.02c-0.53-0.17-0.98-0.52-1.35-0.93c-0.36-0.41-0.68-0.88-0.86-1.39l-0.15-0.38l-0.04-0.09
					c-0.02-0.02,0.02-0.03,0.02-0.01c-0.03,0.01-0.01-0.02-0.02-0.04c-0.01-0.07-0.03-0.13-0.05-0.2c-0.06-0.27-0.2-0.51-0.38-0.71
					c-0.39-0.42-1.1-0.32-1.45,0.1C4.92,40.77,4.87,41.38,4.98,41.91z M4.98,41.91c-0.11-0.52-0.06-1.14,0.32-1.55
					c0.35-0.43,1.06-0.53,1.46-0.11c0.19,0.2,0.33,0.45,0.39,0.72c0.02,0.07,0.04,0.13,0.05,0.2c-0.01,0.01,0.03,0.04-0.02,0.05
					c-0.03-0.03,0.02-0.05,0.02-0.01l0.04,0.1l0.15,0.38c0.19,0.52,0.5,0.98,0.86,1.38c0.37,0.4,0.81,0.74,1.33,0.91
					c0.52,0.17,1.09,0.12,1.61-0.02c1.06-0.31,1.87-1.11,2.69-1.82c1.59-1.48,3.77-2.52,6-2.22c1.09,0.16,2.15,0.66,2.89,1.49
					c0.75,0.81,1.31,1.77,2.05,2.56c0.37,0.39,0.8,0.75,1.32,0.88c0.52,0.15,1.07,0.13,1.58-0.06c1.02-0.38,1.78-1.21,2.6-1.93
					c0.8-0.75,1.76-1.37,2.84-1.66c1.06-0.31,2.27-0.25,3.25,0.32c0.99,0.56,1.63,1.51,2.31,2.36c0.67,0.84,1.41,1.73,2.46,1.97
					c0.51,0.13,1.06,0.16,1.57,0.04c0.51-0.12,0.97-0.41,1.35-0.78c0.76-0.76,1.35-1.71,2.16-2.48c0.82-0.76,1.89-1.28,3.02-1.34
					c1.13-0.08,2.25,0.25,3.21,0.82c0.99,0.55,1.73,1.42,2.48,2.19c0.75,0.76,1.59,1.56,2.64,1.63c1.07,0.09,1.86-0.81,2.49-1.66
					c0.64-0.86,1.3-1.84,2.29-2.41c1.92-1.23,4.42-1.26,6.48-0.42c1.06,0.42,1.92,1.15,2.8,1.79c0.87,0.64,1.78,1.27,2.83,1.37
					c0.53,0.07,1.07,0.12,1.52-0.06c0.46-0.17,0.67-0.61,0.87-1.13c0.21-0.5,0.4-1.02,0.68-1.52c0.27-0.51,0.67-0.95,1.11-1.31
					c0.9-0.73,2.12-1.02,3.26-0.86c1.14,0.14,2.21,0.69,3.04,1.47c0.83,0.77,1.47,1.69,2.12,2.56c0.32,0.42,0.68,0.83,1.11,0.86
					c0.3,0.02,0.67,0.17,0.88,0.42c0.22,0.25,0.33,0.55,0.41,0.84c0.12,0.59,0.1,1.22-0.23,1.78c-0.17,0.27-0.47,0.52-0.82,0.57
					c-0.37,0.05-0.6-0.06-0.91-0.08c-1.2-0.3-1.94-1.32-2.58-2.17c-0.65-0.88-1.27-1.79-2.18-2.29c-0.87-0.49-2.11-0.73-2.77,0.02
					c-0.32,0.36-0.5,0.88-0.72,1.39c-0.21,0.52-0.49,1.02-0.83,1.47c-0.68,0.92-1.78,1.54-2.93,1.62c-1.14,0.09-2.29-0.21-3.26-0.77
					c-0.98-0.56-1.81-1.28-2.72-1.87c-0.89-0.61-1.9-0.98-2.97-1.11c-1.05-0.13-2.15,0.06-3.03,0.65c-0.44,0.29-0.84,0.65-1.18,1.06
					c-0.33,0.41-0.66,0.88-1.03,1.29c-0.73,0.82-1.64,1.59-2.77,1.84c-1.11,0.26-2.33,0.01-3.24-0.67c-0.92-0.65-1.64-1.5-2.43-2.24
					c-0.78-0.75-1.67-1.4-2.72-1.64c-0.51-0.12-1.06-0.11-1.53,0.09c-0.48,0.2-0.89,0.56-1.25,0.96c-0.72,0.8-1.37,1.73-2.26,2.4
					c-0.87,0.69-1.95,1.17-3.08,1.18c-1.13,0.01-2.22-0.39-3.14-1.02c-0.93-0.62-1.62-1.53-2.22-2.44
					c-0.31-0.45-0.65-0.87-1.08-1.18c-0.43-0.31-0.97-0.45-1.49-0.37c-1.06,0.17-1.92,0.95-2.73,1.65
					c-0.79,0.75-1.67,1.47-2.71,1.87c-1.02,0.42-2.2,0.54-3.25,0.15c-1.07-0.37-1.84-1.25-2.49-2.12c-0.67-0.86-1.29-1.8-2.22-2.37
					c-0.94-0.52-2.15-0.51-3.14-0.11c-1.01,0.41-1.86,1.13-2.71,1.82c-0.83,0.7-1.71,1.41-2.78,1.73c-1.05,0.35-2.2,0.31-3.24-0.05
					c-1.04-0.36-1.93-1.09-2.57-1.98C5.64,44.01,5.23,42.97,4.98,41.91z"/>
			</g>
		</g>
	</g>
	<g>
		<g>
			<path class="st0" d="M92.95,56.86c-1.62-9.77-6.49-10.14-17.31-8.47c-9.94,1.54-23.6,1.85-25.78,1.89
				c-2.18-0.04-15.84-0.35-25.78-1.89c-10.82-1.68-15.69-1.31-17.31,8.47c-1.82,10.98,5.86,15.59,8.2,16.53
				c3.49,1.4,15.78,3.56,34.59,3.61v0c0.1,0,0.2,0,0.3,0c0.1,0,0.2,0,0.3,0v0c18.82-0.05,31.1-2.21,34.6-3.61
				C87.1,72.45,94.78,67.84,92.95,56.86z"/>
			<path class="st1" d="M92.95,56.86c-0.29-1.55-0.65-3.11-1.29-4.56c-0.65-1.43-1.65-2.76-3.05-3.52c-1.39-0.77-2.99-1.03-4.56-1.1
				c-1.58-0.05-3.16,0.09-4.73,0.25c-3.14,0.39-6.26,0.95-9.42,1.25c-3.15,0.33-6.31,0.57-9.47,0.77c-3.16,0.19-6.33,0.33-9.49,0.42
				c-3.18,0.04-6.34-0.12-9.5-0.25c-6.32-0.31-12.66-0.79-18.92-1.77c-1.57-0.21-3.13-0.41-4.71-0.48
				c-1.57-0.07-3.16-0.06-4.67,0.31c-1.51,0.35-2.89,1.19-3.82,2.42c-0.93,1.22-1.53,2.7-1.89,4.22c-0.77,3.03-0.97,6.25-0.18,9.27
				c0.78,3.02,2.67,5.7,5.17,7.57c2.47,1.99,5.71,2.43,8.78,3.05c3.11,0.55,6.25,0.94,9.4,1.25c6.3,0.61,12.63,0.86,18.96,0.9
				l0.13,0v0.13v0l-0.13-0.13l0.6,0l-0.13,0.13v0v-0.13h0.13c4.57,0,9.14-0.13,13.7-0.41c4.56-0.29,9.11-0.71,13.62-1.43
				c2.25-0.37,4.51-0.78,6.68-1.47c2.16-0.73,4.03-2.17,5.55-3.85c1.49-1.72,2.61-3.79,3.09-6.02
				C93.32,61.44,93.3,59.12,92.95,56.86z M92.95,56.86c0.36,2.25,0.39,4.58-0.11,6.82c-0.48,2.24-1.59,4.32-3.08,6.06
				c-1.52,1.7-3.39,3.15-5.57,3.9c-2.18,0.71-4.44,1.13-6.69,1.51c-4.51,0.74-9.07,1.19-13.63,1.5c-4.56,0.31-9.14,0.45-13.71,0.48
				l0.13-0.13v0v0.13l-0.13,0l-0.6,0l-0.13,0v-0.13v0l0.13,0.13c-6.34-0.01-12.68-0.24-18.99-0.81c-3.16-0.29-6.31-0.67-9.44-1.21
				c-1.56-0.28-3.12-0.58-4.66-1c-1.55-0.39-3.05-1.12-4.32-2.09c-2.59-1.9-4.55-4.68-5.38-7.8C5.97,61.09,6.2,57.78,7,54.7
				c0.37-1.55,0.99-3.08,1.99-4.37c0.99-1.3,2.48-2.19,4.06-2.55c1.58-0.38,3.2-0.38,4.78-0.3c1.59,0.08,3.17,0.28,4.74,0.5
				c6.25,1.02,12.56,1.52,18.88,1.86c3.16,0.14,6.33,0.33,9.48,0.3c3.16-0.07,6.33-0.19,9.49-0.37c3.16-0.18,6.32-0.4,9.47-0.72
				c3.15-0.29,6.27-0.83,9.42-1.21c1.58-0.16,3.16-0.29,4.75-0.23c1.58,0.08,3.19,0.34,4.58,1.13c1.41,0.77,2.4,2.11,3.05,3.55
				C92.32,53.75,92.67,55.3,92.95,56.86z"/>
		</g>
		<g>
			<path class="st2" d="M75.64,48.39c-9.94,1.54-23.6,1.85-25.78,1.89c-2.18-0.04-15.84-0.35-25.78-1.89
				c-10.82-1.68-15.69-1.31-17.31,8.47c-0.07,0.43-0.13,0.86-0.17,1.27c0.51-1.55,2.92-7.68,9.39-7.52
				c7.41,0.18,20.61,3.53,33.66,3.53s34.47-5.58,38.24-2.26c2.67,2.35,4.36,5.1,5.32,9.02c0.06-1.24-0.02-2.58-0.26-4.03
				C91.33,47.09,86.47,46.72,75.64,48.39z"/>
			<path class="st3" d="M75.64,48.39c-6.24,0.95-12.55,1.39-18.85,1.71l-4.73,0.19c-0.79,0.02-1.58,0.05-2.37,0.06l-2.37-0.05
				c-3.15-0.09-6.31-0.23-9.46-0.41c-3.15-0.19-6.3-0.44-9.44-0.79c-3.14-0.31-6.25-0.93-9.38-1.19c-1.56-0.12-3.14-0.19-4.69,0.01
				c-1.53,0.2-3.08,0.7-4.22,1.74c-1.15,1.03-1.9,2.44-2.39,3.92c-0.46,1.49-0.79,3.03-0.96,4.58l-0.37-0.08
				c0.65-1.92,1.68-3.73,3.14-5.17c1.46-1.43,3.44-2.36,5.49-2.48c2.05-0.09,4.03,0.17,6.03,0.39c1.99,0.24,3.97,0.54,5.95,0.83
				c7.9,1.22,15.85,2.4,23.85,2.29c7.99-0.25,15.9-1.68,23.85-2.61c1.99-0.24,3.98-0.44,5.99-0.55c1-0.05,2.01-0.08,3.01-0.04
				c1,0.04,2.02,0.13,2.99,0.43c0.49,0.13,0.96,0.39,1.34,0.73c0.37,0.34,0.74,0.68,1.08,1.05c0.69,0.73,1.32,1.52,1.86,2.37
				c1.08,1.7,1.81,3.6,2.28,5.55l-0.13,0.01c0.12-2.22-0.24-4.45-0.82-6.59c-0.27-1.08-0.72-2.1-1.26-3.07
				c-0.6-0.93-1.36-1.77-2.31-2.35c-1.94-1.12-4.26-1.29-6.47-1.2C80.06,47.76,77.85,48.07,75.64,48.39z M75.64,48.39
				c2.2-0.34,4.41-0.66,6.64-0.75c2.21-0.1,4.54,0.06,6.51,1.18c0.96,0.59,1.73,1.43,2.34,2.37c0.55,0.98,1.01,2.01,1.29,3.09
				c0.59,2.15,0.97,4.38,0.86,6.62l-0.02,0.46l-0.11-0.45c-0.48-1.94-1.21-3.82-2.29-5.5c-0.54-0.84-1.16-1.62-1.85-2.34
				c-0.7-0.7-1.38-1.49-2.35-1.72c-1.91-0.53-3.95-0.44-5.93-0.35c-1.99,0.12-3.98,0.33-5.97,0.58c-7.94,0.97-15.84,2.44-23.87,2.73
				c-8.04,0.15-16.02-1-23.93-2.18c-1.98-0.3-3.96-0.61-5.94-0.86c-1.97-0.23-3.98-0.49-5.94-0.42c-1.96,0.11-3.82,0.98-5.24,2.34
				c-1.4,1.37-2.43,3.13-3.06,4.99l-0.56,1.65l0.2-1.73c0.18-1.58,0.52-3.14,1-4.66c0.51-1.5,1.29-2.98,2.51-4.05
				c1.21-1.1,2.83-1.6,4.4-1.8c1.59-0.2,3.18-0.11,4.76,0.02c3.16,0.28,6.25,0.91,9.39,1.24c3.13,0.36,6.28,0.62,9.42,0.83
				c3.15,0.2,6.3,0.36,9.45,0.46l2.36,0.07c0.79,0,1.58-0.03,2.36-0.04l4.73-0.16C63.09,49.73,69.4,49.31,75.64,48.39z"/>
		</g>
	</g>
</g>
</svg>
