<?xml version="1.0" encoding="utf-8"?>
<!-- Generator: Adobe Illustrator 26.1.0, SVG Export Plug-In . SVG Version: 6.00 Build 0)  -->
<svg version="1.1" xmlns="http://www.w3.org/2000/svg" xmlns:xlink="http://www.w3.org/1999/xlink" x="0px" y="0px"
	 viewBox="0 0 139 206" style="enable-background:new 0 0 139 206;" xml:space="preserve">
<style type="text/css">
	.st0{fill:#BAE2D7;}
	.st1{fill:#C49077;}
	.st2{opacity:0.65;}
	.st3{fill:#FFFFFF;}
	.st4{fill:#FCF9F5;}
	.st5{fill:#CAE5F7;}
	.st6{fill:#FFD1BD;}
	.st7{opacity:0.94;}
	.st8{fill:#F76241;}
	.st9{fill:#87BBD8;}
	.st10{fill:#CAEFEC;}
	.st11{fill:#537528;}
	.st12{fill:#B97474;}
	.st13{fill:#74964C;}
	.st14{fill:#9B6753;}
	.st15{opacity:0.42;fill:#AAE0E6;}
	.st16{opacity:0.39;fill:#AAE0E6;}
	.st17{opacity:0.55;}
	.st18{opacity:0.45;}
	.st19{fill:#AAE0E6;}
	.st20{opacity:0.53;}
	.st21{fill:#A86060;}
	.st22{fill:#E2A3A3;}
	.st23{fill:#D18888;}
	.st24{fill:#8C6517;}
	.st25{opacity:0.37;}
	.st26{fill:#F2C58F;}
	.st27{fill:#CD8888;}
	.st28{fill:#E2A6A6;}
	.st29{fill:#BFAE5A;}
	.st30{fill:#A39040;}
	.st31{fill:#FCDBAC;}
	.st32{fill:#EDCFB2;}
	.st33{fill:#FDE9E0;}
	.st34{fill:#A05F5F;}
	.st35{fill:#C97F52;}
	.st36{opacity:0.94;fill:#C97F52;}
	.st37{fill:#E8B051;}
	
		.st38{opacity:0.94;fill:none;stroke:#AD523F;stroke-width:0.6073;stroke-linecap:round;stroke-linejoin:round;stroke-miterlimit:10;}
	.st39{opacity:0.94;fill:none;stroke:#F76241;stroke-width:0.9414;stroke-miterlimit:10;}
	.st40{opacity:0.94;fill:#F7F3F2;}
	.st41{fill:#AD523F;}
	.st42{opacity:0.26;fill:#FFDECB;}
	.st43{opacity:0.94;fill:#E2BFAF;}
	.st44{opacity:0.93;fill:#E2BFAF;}
	.st45{fill:#3C3C3C;}
	.st46{fill:#3C3C3C;stroke:#3C3C3C;stroke-width:0.1255;stroke-miterlimit:10;}
	.st47{fill:#9A4F3F;}
	.st48{fill:#9A562F;}
	.st49{fill:#7E4728;}
	.st50{opacity:0.94;fill:#F7F8F0;}
	.st51{fill:#E2BFAF;}
	.st52{fill:#F4B9B8;}
	.st53{fill:#F9BFBB;}
	.st54{fill:#97C6B7;}
	.st55{fill:#83B2A3;}
	.st56{fill:#B28038;}
	.st57{fill:#304482;}
	.st58{fill:#964D4D;}
	.st59{opacity:0.4;}
	.st60{fill:#D2D2F7;}
	.st61{fill:#EBEBFC;}
	.st62{fill:#F76969;}
	.st63{fill:#F99D9D;}
	.st64{fill:#FC8181;}
	.st65{fill:none;stroke:#DD4026;stroke-width:16.7302;stroke-miterlimit:10;}
	
		.st66{opacity:0.94;fill:none;stroke:#AD523F;stroke-width:0.8782;stroke-linecap:round;stroke-linejoin:round;stroke-miterlimit:10;}
	.st67{fill:none;stroke:#F76241;stroke-width:1.4261;stroke-miterlimit:10;}
	.st68{fill:#3C3C3C;stroke:#3C3C3C;stroke-width:0.1815;stroke-miterlimit:10;}
	.st69{fill:none;}
	.st70{opacity:0.89;fill:#9A562F;}
</style>
<g id="Capa_1">
</g>
<g id="window">
</g>
<g id="window2">
</g>
<g id="decoration">
</g>
<g id="Capa_6">
</g>
<g id="table_and_chair">
	<g>
		<path class="st36" d="M78.5,176.25c0,0,56.69-8.68,16.93-5.64c0,0,6.4,5.49-11.46-19.44l0.2-30.41L49.2,133.02
			c0,0,4.27,28.43-14.93,34.83c-19.21,6.4,23.77-10.32,16.02,6.52"/>
		<g class="st7">
			<g>
				<g>
					<path class="st35" d="M90.88,105.4c-3.02,4.41-4.25,12.2,0,14.75c4.25,2.54,10.82-2.66,13.84-7.07
						c3.02-4.41,2.47-8.83-1.78-11.37C98.69,99.16,93.91,100.99,90.88,105.4z"/>
				</g>
			</g>
		</g>
		<path class="st66" d="M102.03,107.51c0,0-5.31-2.5-8.77,4.7"/>
		<path class="st67" d="M80.65,129.38c1.05,3.69,4.12,6.65,8.15,7.39c5.66,1.03,11.07-2.72,12.1-8.38
			c1.03-5.66-2.72-11.07-8.38-12.1"/>
		<g class="st7">
			<g>
				<g>
					<path class="st35" d="M38.8,93.76c1.28,5.2-0.32,12.92-5.19,13.8c-4.87,0.89-9.19-6.29-10.47-11.49
						c-1.28-5.2,0.8-9.13,5.67-10.02C33.68,85.16,37.52,88.56,38.8,93.76z"/>
				</g>
			</g>
		</g>
		<path class="st66" d="M24.48,94.27c0,0,5.85-0.47,6.56,7.49"/>
		<path class="st67" d="M39.75,120.85c-2.29,3.08-6.2,4.78-10.23,4.05c-5.66-1.03-9.41-6.45-8.38-12.1s6.45-9.41,12.1-8.38"/>
		<path class="st40" d="M95.76,54.78c-0.82-3.24-1.47-5.96-0.77-9.54c0.21-1.07,0.24-2.02,0.88-2.78c0.79-0.96,2.45-0.95,2.87-1.95
			c0.16-0.38-0.79-2.06-0.7-2.84c0.15-1.22,0.59-1.75,1.37-2.67c1.25-1.47,4.22-3.63,6.08-4.12c2.26-0.59,5.06,0.11,7.09,1.1
			c2.14,1.04,2.31,2.98,3.85,4.09c1.71,1.23,4.8,0.3,6.74,1.37c2.24,1.23,3.82,3.99,3.94,6.5c0.22,4.38-2.57,8.51-4.87,11.9
			c-0.74,1.09-2.36,2.64-2.49,3.88c-0.15,1.42,1.56,2.66,0.71,4.19c-0.81,1.45-2.74,1.46-3.96,2.19c-1.48,0.89-2.39,2.43-4.33,2.98
			c-4.41,1.25-9.91-2.56-13.29-4.97L95.76,54.78z"/>
		<path class="st40" d="M44.31,49.93c1.19-2.77,3.3-4.6,3.19-7.91c-0.07-1.95-0.66-2.78-0.26-5c0.92-5.01-0.62-9.54-4.46-13.02
			c-2.19-1.99-3.45-2.63-6.28-1.77c-2.93,0.89-2.8,1.43-5.29,0.2c-6.55-3.23-8.4,0.63-9.13,7.15c-0.46,4.09-3.1,7.22-3.58,11.37
			c-0.51,4.39,2.05,7.89,5.44,10.48c4.96,3.79,12.48,5.79,18.01,2.93L44.31,49.93z"/>
		<path class="st40" d="M88.75,113.35c2.28,0.15,5.35-2.71,7.21-3.85c2.94-1.81,4.22-2.99,5.36-6.21c0.7-1.97,1.73-3.98,2.15-6.02
			c0.53-2.59-0.53-4.73-0.46-7.32c0.23-7.89,5.44-15.37,2.38-23.32c-1.23-3.2-3.59-4.69-5.59-7.26c-1.42-1.81-0.79-3.49-1.45-5.5
			c-1.87-5.74-9.87-10.32-15.05-12.43c-3.28-1.34-7.27-2.91-10.83-3.15c-3.52-0.23-4.5,1.66-7.35,2.8
			c-3.69-2.8-12.52-1.76-16.66-0.4c-6.85,2.24-12.18,4.21-15.42,11.23c-3.34,7.22-4.21,14.13-4.73,21.98
			c-0.47,7.15-2.94,15.21-1.59,22.28c1.17,6.15,4.91,9.95,9.21,13.97c3.79,3.54,7.28,4.62,12.38,5.55L88.75,113.35z"/>
		<g class="st7">
			<polygon class="st41" points="84.91,126.07 50.11,156.46 50.13,121.18 			"/>
		</g>
		<g>
			<g>
				<defs>
					<path id="XMLID_00000054961394856427550590000015549737224198623625_" d="M71.28,49.05L71.28,49.05
						c17.77,3.23,30.96,19.83,27.88,36.78l-4.72,20.16c0,0-5.61,28.78-34.58,32.58c-3.21,0.42-6.52-0.18-9.38-1.7
						C24.69,123.11,29.56,94.2,29.56,94.2l2.67-20.53C35.32,56.72,53.51,45.82,71.28,49.05z"/>
				</defs>
				<use xlink:href="#XMLID_00000054961394856427550590000015549737224198623625_"  style="overflow:visible;fill:#C97F52;"/>
				<clipPath id="XMLID_00000080885311246627735260000016680034873122076584_">
					<use xlink:href="#XMLID_00000054961394856427550590000015549737224198623625_"  style="overflow:visible;"/>
				</clipPath>
			</g>
		</g>
		<path class="st42" d="M54.22,107.31c-0.78-0.3-2.03-0.78-3.28-1.25c-0.74-0.28-0.78-0.79-0.52-1.42c0.93-2.22,1.85-4.44,2.8-6.64
			c1.05-2.46,2.1-4.92,2.89-7.48c0.04-0.13,0.05-0.28,0.11-0.4c0.24-0.41,0.61-0.99,0.97-0.94c0.53,0.08,0.24,0.73,0.28,1.13
			c0.17,1.98-0.69,3.85-0.67,5.82c0.02,2.85-0.52,5.68-0.42,8.54c0.02,0.48,0.02,0.96,0.03,1.44
			C56.43,107.78,56.35,107.85,54.22,107.31z"/>
		<path class="st40" d="M55.27,45.02c0,0-1.47,16.28,14.77,21.86c16.56,5.69,10.91,15.77,32.06,16.95c0,0,9.6-10.35,0.72-24.44
			c-5.88-9.33-19-18.61-29.47-19.36C69.82,39.78,60.43,44.84,55.27,45.02z"/>
		<path class="st40" d="M58.47,45.37c0,0,5.45,12.02-30.13,27.15c0,0-3.84-8.31,0.82-14.41C33.82,52.01,58.47,45.37,58.47,45.37z"/>
		<g class="st7">
			<path class="st44" d="M45.59,64.17c-0.06-1.15-0.34-1.76-1.51-2.31c-2.21-1.04-4.41-2.3-6-4.17c-1.17-1.37-2.52-1.64-4.06-1.68
				c-3.05-0.09-5.96-0.83-8.84-1.79c-0.9-0.3-1.8-0.58-2.7-0.87c-0.34-1.07,0.44-0.67,0.86-0.63c2.33,0.24,4.51,1.2,6.82,1.46
				c3.25,0.36,6.39,0.36,9.06-2.19c1.45-1.38,3.1-2.71,4.86-3.62c3.51-1.83,5.21-5.03,7.11-8.15c0.03-0.05,0.14-0.04,0.37-0.1
				c-0.57,1.64-1.29,3.11-2.23,4.46c-1.16,1.66-2.33,3.3-4.28,4.21c-0.93,0.43-1.31,1.45-1.86,2.25c-1.87,1.15-3.34,2.8-5.12,4.06
				c-0.79,0.55-0.75,0.91-0.03,1.55c1.8,1.63,3.78,2.98,5.77,4.34c1.73,1.18,1.89,1.21,2.79-0.71c1.22-2.61,3.12-4.47,5.82-5.57
				c1.11-0.45,2.34-0.68,3.43-1.43c-2.19-0.4-4.18-0.84-6.21-1.1c-1.74-0.23-3.52-0.24-5.27-0.4c-0.47-0.04-1.11,0.05-1.18-0.72
				c2.63-0.31,5.24-0.26,7.83,0.36"/>
			<path class="st44" d="M32.95,68.86C29.2,67.38,34.29,69,32,65.4c-1.3-2.04-2.49-4.18-1.85-6.78c0.14-0.59,0.22-1.23,1.02-1.29
				c-0.75,1.24-0.43,2.48-0.02,3.73c0.89,2.73-6.17,1.34-3.85,2.98c2.98,2.1,6.2,3.64,9.73,4.64"/>
			<path class="st44" d="M23.35,45.27c0.54-0.1,1.07-0.2,1.61-0.3c0.87,2.5,2.24,4.72,3.83,6.8c0.36,0.47,0.86,0.84,0.94,1.86
				C26.49,51.46,24.83,48.43,23.35,45.27z"/>
			<path class="st44" d="M40.71,42.71c0.23-0.21,0.51-0.27,0.81-0.25c0.29,3.67-0.34,7.17-1.93,10.51
				C39.87,49.53,40.87,46.18,40.71,42.71z"/>
			<path class="st44" d="M35.82,43.51c0.32-0.24,0.67-0.11,1.01-0.11c0.3,3.28,0.68,6.56,0.65,9.86c-0.12,0.02-0.25,0.03-0.37,0.05
				C36.67,50.04,36.25,46.78,35.82,43.51z"/>
			<path class="st44" d="M49.52,40.67c0.25-0.03,0.5-0.06,0.75-0.09c-0.51,2.63-0.5,5.43-2.38,7.65
				C48.57,45.73,49.1,43.21,49.52,40.67z"/>
			<path class="st44" d="M45.09,41.76c0.17-0.06,0.34-0.12,0.51-0.18c0.38,2.04,0.34,4.1,0.23,6.16c-0.02,0.34,0.01,0.93-0.55,0.83
				c-0.45-0.08-0.22-0.57-0.2-0.89c0.1-1.46-0.03-2.92-0.14-4.38C44.91,42.79,45.04,42.27,45.09,41.76z"/>
			<path class="st44" d="M35.66,41.98c-0.77-1.07-0.9-2.4-1.41-3.58c-1.63-3.79-4.31-6.69-7.33-9.36c-0.32-0.28-1.09-0.48-0.71-1
				c0.32-0.43,0.87,0.1,1.23,0.35c4.51,3.14,7.63,7.25,8.85,12.69c0.06,0.29,0.23,0.55,0.35,0.83C36.33,42.09,35.99,42,35.66,41.98z
				"/>
			<path class="st44" d="M26.51,44.95c-1.12-2.1-2.84-3.7-4.51-5.34c-1.25-1.23-2.03-2.66-2.14-4.43c-0.01-0.24-0.17-0.47-0.25-0.71
				c0.1-0.27,0.28-0.47,0.53-0.61c0.15,0.2,0.41,0.39,0.45,0.62c0.53,2.94,3.05,4.39,4.78,6.43c0.99,1.16,2.05,2.3,2.49,3.83
				C27.41,44.79,26.96,44.87,26.51,44.95z"/>
			<path class="st44" d="M42.09,42.09c-0.66-0.91-0.77-2.05-1.2-3.06c-1.39-3.23-3.68-5.71-6.26-7.99
				c-0.27-0.24-0.93-0.41-0.61-0.85c0.27-0.37,0.74,0.08,1.05,0.3c3.85,2.68,6.51,6.19,7.56,10.83c0.06,0.25,0.2,0.47,0.3,0.71
				C42.66,42.19,42.37,42.11,42.09,42.09z"/>
			<path class="st44" d="M44.35,41.11c0.03-1.45-0.65-2.71-1.15-4c-1.23-3.15-2.55-6.26-3.37-9.54c-0.03-0.14-0.12-0.28,0.23-0.54
				c2.06,4.57,4.16,9.06,5.46,13.88C45.13,40.97,44.74,41.04,44.35,41.11z"/>
			<path class="st44" d="M47.86,40.4c0.02-2.65-0.62-5.2-1.57-7.62c-0.74-1.89-1.76-3.72-3.35-5.1c-0.27-0.24-0.61-0.42-0.61-0.86
				c3.9,1.05,6.45,8.67,6.26,13.28C48.35,40.2,48.1,40.3,47.86,40.4z"/>
			<path class="st44" d="M30.97,36.04c-1.75-0.82-3.1-1.92-4.23-3.27c-0.7-0.84-1.24-1.82-1.82-2.75c-0.13-0.2-0.21-0.5,0.08-0.69
				c0.31-0.2,0.48,0.02,0.62,0.24c1.49,2.24,3.26,4.22,5.26,6.02C30.93,35.62,30.92,35.72,30.97,36.04z"/>
		</g>
		<g class="st7">
			<path class="st68" d="M39.19,82.45c-0.05,0.04-1.56-0.36-1.61-0.32c-1.87,0.22-2.19,0.19-4.06,0.41
				c-0.65-0.16-2.21,0.33-0.8-1.25c0.3-0.34-0.56-0.45-0.79-0.77c-0.14-0.18-0.53-0.25-0.38-0.56c0.19-0.39,0.48-0.18,0.74-0.03
				c1,0.58,2.03,1.07,3.3,0.59c-0.37-0.57-1.21-0.62-1.42-1.3c0.44-0.33,0.65,0.1,0.91,0.23c1.16,0.56,2.35,0.97,3.67,0.9
				c2.67-0.14,5.14,0.45,7.31,2.07c0,0-0.01-0.02-0.01-0.02c0.17,0.14,0.34,0.29,0.52,0.43c1.17,0.99,2.34,1.98,3.52,2.97
				c0.17,0.19,0.34,0.38,0.51,0.57c0.01,0.2,0.33,0.33,0.17,0.56c-0.12,0.17-0.3,0.12-0.44,0.01c-0.27-0.2-0.54-0.41-0.8-0.63
				C48.13,85.18,39.09,83.79,39.19,82.45z"/>
			<path class="st68" d="M34.05,85.23c0.51-1.18,1.61-1.24,2.64-1.27c0.42-0.01,0.78,0.37,0.46,0.91c-0.64,0.2-1.28,0.41-1.91,0.61
				C34.83,85.5,34.38,85.66,34.05,85.23L34.05,85.23z"/>
			<path class="st68" d="M34.49,82.84c0.25-0.03,0.5-0.1,0.74-0.1c0.34,0,0.73,0.05,0.84,0.41c0.15,0.51-0.38,0.48-0.63,0.58
				c-0.73,0.29-1.5,0.49-2.26,0.73c-0.22-0.1-0.44-0.2-0.66-0.29c0.11-0.22,0.21-0.43,0.32-0.65c0.14-0.07,0.29-0.15,0.43-0.22
				c0.39-0.15,0.78-0.3,1.18-0.45L34.49,82.84z"/>
			<g>
				<path class="st3" d="M76.44,91.95c-0.05,0.31,0.02,0.53,0.11,0.81c0.08,0.34,0.49,1.3-0.19,0.57
					C76.05,92.98,75.88,92.18,76.44,91.95L76.44,91.95z"/>
			</g>
		</g>
		<g class="st7">
			<g>
				<path class="st47" d="M56.11,128.31c-0.75,2.15-4.76,1.34-4.8-0.87c0.96,0.16,1.6,0.08,2.46,0.29
					C54.64,127.87,55.14,128.2,56.11,128.31L56.11,128.31z"/>
			</g>
		</g>
		<g class="st7">
			<g>
				<path class="st47" d="M48.63,104.17c0.95,0.78,2.86,0.93,4.01,1.29c1.46,0.28,2.52,0.77,4.12,0.44c-0.96,2.83-5.14,2.3-7,0.7
					C49.12,106.02,48.35,105.09,48.63,104.17L48.63,104.17z"/>
			</g>
			<g>
				<path class="st47" d="M57.2,89.96c0.2,2.24-0.66,4.34-1.41,6.33c-0.9,1.94-1.05,4.02-2.39,5.83
					C52.08,97.41,53.97,93.37,57.2,89.96L57.2,89.96z"/>
			</g>
		</g>
		<path class="st42" d="M44.23,97.87c0.97,1.65,1.22,3.67,0.92,5.55c-0.35,2.18-1.94,3.47-3.94,4.14c-1.56,0.52-3.66,0.6-5.24,0.15
			c-2.04-0.58-3.09-2.85-3.68-4.72c-0.45-1.43-0.68-3.16-0.21-4.61c0.5-1.55,1.79-2.46,3.14-3.22
			C38.44,93.54,42.38,94.72,44.23,97.87z"/>
		<path class="st42" d="M82.91,104.74c1.28,2.01,1.63,4.45,1.27,6.71c-0.42,2.62-2.45,4.16-5.01,4.94
			c-2.01,0.61-4.71,0.67-6.76,0.09c-2.64-0.73-4.03-3.49-4.82-5.75c-0.61-1.73-0.92-3.83-0.34-5.57c0.62-1.86,2.27-2.94,4-3.84
			C75.37,99.42,80.47,100.91,82.91,104.74z"/>
		<g class="st7">
			<path class="st51" d="M60.38,51.43c3.59-7.71,13.64-11.75,21.63-8.98c-2.06,0.56-3.99,0.89-5.86,1.46
				C70.41,45.45,65.36,48.13,60.38,51.43L60.38,51.43z"/>
		</g>
		<g class="st7">
			<path class="st44" d="M115.98,69.4c0.27,1.42-0.47,2.48-1.29,3.5c-1.8,2.24-4.14,3.6-6.89,4.31c-3.53,0.92-7.09,1.23-10.74,0.92
				c-2.42-0.2-4.78-0.72-7.16-1.09c-0.58-0.09-1.35-0.3-0.89-1c1.03-1.59,0.91-3.49,1.63-5.15c0.46-1.05,0.94-1.52,2.22-1.63
				c2.43-0.2,4.94-0.61,7.09-1.79c0.82-0.45,1.57-0.61,2.32-0.59c0.69,0.02,1.37,0.2,2.07,0.44c2.89,0.99,5.87,1.32,8.9,1.43
				c0.94,0.04,1.89,0.09,2.83,0.14c0.7-0.88-0.18-0.79-0.58-0.89c-2.26-0.6-4.64-0.46-6.9-1.03c-3.17-0.81-6.11-1.91-7.71-5.24
				c-0.87-1.8-1.95-3.63-3.27-5.1c-2.64-2.94-3.11-6.54-3.79-10.13c-0.01-0.05-0.12-0.09-0.31-0.22c-0.04,1.74,0.12,3.37,0.52,4.96
				c0.5,1.96,1.02,3.91,2.52,5.44c0.72,0.73,0.71,1.81,0.95,2.76c1.35,1.73,2.14,3.8,3.37,5.6c0.26,0.39,0.36,0.66,0.29,0.88
				c-0.08,0.23-0.34,0.4-0.81,0.59c-2.25,0.89-4.59,1.46-6.93,2.03c-2.04,0.5-2.2,0.46-2.36-1.65c-0.22-2.87-1.35-5.28-3.49-7.27
				c-0.88-0.81-1.96-1.46-2.71-2.55c2.19,0.4,4.21,0.69,6.2,1.15c1.71,0.4,3.38,1.01,5.08,1.48c0.45,0.12,1.02,0.44,1.36-0.26
				c-2.35-1.21-4.81-2.09-7.45-2.42c-3.93-0.49-7.67-1.42-11.34-3.09c-5.49-2.49-11.34-2.21-17.13-0.92
				c-2.73,0.61-5.26,1.76-7.83,3.29c1.15,0.52,1.98,0.04,2.74-0.31c6.54-3.02,13.3-3.43,20.2-1.62c3.72,0.97,6.69,3.23,9.42,5.89
				c2.65,2.59,3.78,6.98,2.75,10.48c-0.9,3.05-2.02,6.05-2.47,9.22c-0.21,1.5-0.06,2.92,0.73,4.23c0.19,0.31,0.32,0.72,1.02,0.78
				c-1.51-2.45-0.47-4.64,0.31-6.92c0.28-0.82,0.62-0.73,1.08-0.48c3.55,1.9,7.46,2.22,11.31,2.15c4.03-0.07,8.14-0.51,11.55-3.07
				c1.93-1.45,3.8-3.04,4.11-5.7C116.56,70.37,116.71,69.75,115.98,69.4z"/>
			<path class="st44" d="M70.78,49.76c1.36-0.67,2.72-1.36,4.09-2.01c1.9-0.91,3.76-1.27,5.95-0.66c2.97,0.83,5.93,1.82,9,2.26
				c0.95,0.14,1.78,0.89,3.01,0.56c-1.68-1.06-3.39-1.66-5.11-2.18c-2.3-0.7-4.64-1.25-6.96-1.88c-1.69-0.46-3.3-0.29-4.91,0.42
				c-1.9,0.84-3.62,1.92-5.24,3.17C70.68,49.55,70.73,49.66,70.78,49.76z"/>
			<path class="st44" d="M121.17,67.34c-1.34-0.06-2.64-0.3-3.91-0.62c-3.25-0.81-6.42-1.86-9.59-2.92
				c-1.14-0.38-2.35-0.52-3.53-0.76c-0.2-0.04-0.46-0.08-0.56,0.18c-0.09,0.24,0.1,0.4,0.28,0.51c0.22,0.13,0.44,0.31,0.68,0.36
				c4.45,0.99,8.56,3.11,13.1,3.79C118.89,68.06,120.02,67.92,121.17,67.34z"/>
			<path class="st44" d="M119.74,57.46c-0.47-0.28-0.93-0.57-1.4-0.85c-1.7,2.03-3.75,3.63-5.98,5.02c-0.5,0.31-1.1,0.48-1.54,1.41
				C114.63,62.15,117.25,59.9,119.74,57.46z"/>
			<path class="st44" d="M118.78,60.83C118.55,60.69,119.02,60.98,118.78,60.83c-3.54,2.28,0.27,3.84-3.89,4.55
				c1.28,0.4,2.51,0.11,3.73-0.08c2.75-0.44-2.65-1.45-0.17-2.64C118.84,62.47,118.64,61.29,118.78,60.83z"/>
			<path class="st44" d="M104.4,48.95c-0.14-0.28-0.38-0.43-0.67-0.52c-1.56,3.33-2.21,6.83-1.89,10.52
				C102.79,55.64,103.03,52.15,104.4,48.95z"/>
			<path class="st44" d="M108.7,51.43c-0.21-0.34-0.59-0.34-0.91-0.46c-1.44,2.96-2.94,5.9-4.07,9c0.11,0.06,0.22,0.12,0.33,0.18
				C105.6,57.24,107.15,54.33,108.7,51.43z"/>
			<path class="st44" d="M96.87,43.95c-0.22-0.12-0.45-0.23-0.67-0.35c-0.45,2.64-1.44,5.26-0.46,8
				C95.98,49.02,96.37,46.47,96.87,43.95z"/>
			<path class="st44" d="M100.63,46.53c-0.14-0.12-0.28-0.23-0.41-0.35c-1.07,1.78-1.76,3.72-2.39,5.68
				c-0.1,0.32-0.34,0.86,0.22,0.97c0.45,0.08,0.41-0.45,0.5-0.76c0.42-1.41,1.05-2.72,1.67-4.05
				C100.44,47.56,100.5,47.03,100.63,46.53z"/>
			<path class="st44" d="M109.38,50.05c1.1-0.73,1.69-1.93,2.58-2.86c2.86-2.97,6.39-4.74,10.16-6.18c0.4-0.15,1.19-0.07,1.02-0.69
				c-0.15-0.51-0.85-0.21-1.28-0.1c-5.32,1.35-9.69,4.1-12.75,8.76c-0.16,0.25-0.41,0.43-0.62,0.65
				C108.71,49.92,109.06,49.95,109.38,50.05z"/>
			<path class="st44" d="M76.27,75.57c-1.28,2.75-2.88,5.38-3.14,8.5c-0.05,0.56-0.03,1.12,0.34,1.84c0.29-1.23,0.1-2.3,0.39-3.36
				c0.71-2.64,2.12-4.87,3.57-7.09c1.22-1.86,2.63-3.65,3.37-5.73c1.17-3.32,0.84-7.97-3.93-9.92c-5.19-2.11-10.62-2.47-16.14-1.61
				c-0.08,0.01-0.15,0.09-0.22,0.13c0.86,0.63,1.89,0.52,2.86,0.7c0.54-0.78,1.31-0.23,1.92-0.23c3.98,0.05,7.86,0.73,11.49,2.47
				c1.65,0.79,2.84,2.01,3.17,3.88c0.05,0.29,0.39,0.82-0.32,0.89l0,0c1.12,1.51,0.7,3-0.14,4.42
				C78.46,72.21,77.57,74.02,76.27,75.57z"/>
			<path class="st44" d="M67.15,60.05c2.99-0.12,5.79,0.71,8.54,1.75c0.31,0.12,0.61,0.28,1.11,0.51c-1.48-1.65-7.5-3.1-10.15-2.59
				C66.82,59.83,66.98,59.94,67.15,60.05z"/>
			<path class="st44" d="M73.81,64.45c1.12-0.17,1.62,0.76,2.31,1.33c0.35,0.29,0.57,0.73,1.41,0.83c-1.2-1.45-2.25-2.58-3.9-2.94
				C73.59,63.96,73.55,64.24,73.81,64.45z"/>
			<path class="st44" d="M79.61,66.06c-1.84-2.69-4.56-3.79-7.64-4.21c2.62,0.75,5,1.92,6.94,3.9
				C79.07,65.93,79.37,65.96,79.61,66.06C79.61,66.06,79.61,66.06,79.61,66.06z"/>
			<path class="st44" d="M79.11,68.89c-0.09-0.88-0.63-1.45-1.48-2.23c0.26,1.16,0.67,1.82,1.45,2.25L79.11,68.89z"/>
			<path class="st44" d="M116.91,56.05c1.79-1.57,3.96-2.47,6.1-3.42c1.6-0.71,2.84-1.78,3.56-3.4c0.1-0.22,0.32-0.39,0.49-0.58
				c0-0.29-0.1-0.54-0.29-0.76c-0.22,0.14-0.52,0.22-0.64,0.42c-1.53,2.57-4.4,3.04-6.74,4.33c-1.34,0.74-2.73,1.43-3.68,2.7
				C116.11,55.58,116.51,55.82,116.91,56.05z"/>
			<path class="st44" d="M103.33,47.89c0.94-0.62,1.44-1.65,2.2-2.44c2.44-2.54,5.46-4.05,8.67-5.28c0.34-0.13,1.02-0.06,0.87-0.59
				c-0.12-0.44-0.72-0.18-1.09-0.09c-4.55,1.15-8.27,3.5-10.89,7.48c-0.14,0.21-0.35,0.37-0.53,0.55
				C102.76,47.78,103.05,47.81,103.33,47.89z"/>
			<path class="st44" d="M101.55,46.18c0.48-1.37,1.56-2.3,2.48-3.34c2.25-2.51,4.59-4.96,6.52-7.75c0.08-0.12,0.21-0.21-0.02-0.59
				c-3.53,3.56-7.08,7.02-10,11.07C100.87,45.78,101.21,45.98,101.55,46.18z"/>
			<path class="st44" d="M98.52,44.28c0.92-2.49,2.41-4.65,4.15-6.58c1.36-1.51,2.95-2.86,4.93-3.6c0.34-0.13,0.72-0.18,0.87-0.59
				c-4.02-0.39-9.08,5.84-10.53,10.23C98.13,43.92,98.32,44.1,98.52,44.28z"/>
			<path class="st44" d="M115.86,46.13c1.93-0.16,3.58-0.71,5.11-1.57c0.95-0.54,1.8-1.26,2.67-1.93c0.19-0.15,0.37-0.39,0.17-0.67
				c-0.22-0.3-0.45-0.15-0.67,0c-2.18,1.57-4.54,2.81-7.04,3.78C116.05,45.76,116.03,45.86,115.86,46.13z"/>
			<path class="st44" d="M114.17,121.29c0.07-2.71-0.5-5.35-1.12-7.98c-1.19-5.08-2.7-10.05-5.96-14.24
				c-3.43-4.41-7-8.68-12.19-11.24c-1.16-0.57-2.23-1.34-3.46-1.79l0.01-0.01c0.42,0.84,1.29,1.16,2.01,1.59
				c5.95,3.59,10.54,8.54,14.26,14.33c1.6,2.49,2.37,5.35,3.14,8.21c-0.95-1.06-1.77-2.21-2.58-3.34c-2.88-4.02-6.95-6.5-11.01-9.07
				c-3.72-2.35-7.81-4.08-11.25-6.86c-1.62-1.31-2.8-2.95-3.61-4.89c-1.28-3.04,0.06-5.62,1.43-8.17c1.26-2.33,2.66-4.61,3.19-7.24
				c0.92-4.52-0.73-7.83-4.71-10.24c-3.93-2.38-8.14-3.57-12.71-3.95c-2.9-0.24-5.73-0.17-8.59,0.14c-1.17,0.13-2.22,0.63-3.48,1.02
				c0.69,0.47,1.24,0.19,1.75,0.12c4.87-0.7,9.74-0.68,14.54,0.41c3.59,0.82,6.89,2.25,9.59,4.98c2.42,2.45,2.19,5.19,1.56,8.13
				c-0.58,2.68-2.09,4.95-3.09,7.44c-0.89,2.21-1.38,4.44-0.55,6.86c0.97,2.81,2.58,5.09,4.98,6.82c4.04,2.91,8.48,5.17,12.7,7.78
				c3.85,2.38,6.98,5.46,9.66,9.05c0.81,1.08,1.32,2.37,1.78,3.63"/>
		</g>
		<g>
			<g>
				<g>
					<path class="st37" d="M37.67,162.89c0.23-1.05,0.51-2.1,0.68-3.1c0.7-4.13,0.11-9.56,3.95-12.07c1.89-1.23,4.2-0.75,6.36-0.57
						c2.55,0.22,5.1,0.53,7.66,0.72c5.35,0.4,10.72,0.28,16-0.35c2.7-0.32,5.37-0.78,8.02-1.38c2.38-0.53,4.79-1.59,7.26-1.64
						c1.77-0.03,3.7,0.69,4.71,2.27c0.65,1.02,0.85,2.27,1.02,3.46c0.89,6.05,1.7,12.21,0.86,18.18c-0.26,1.84-0.72,3.74-1.97,5.02
						c-2.82,2.88-8.95,3.24-12.73,3.84c-12.49,1.96-25.84,1.04-37.5-5.36c-1.41-0.77-2.82-1.66-3.79-2.98
						C36.79,167.02,37.21,164.96,37.67,162.89z"/>
				</g>
				<g>
					<g>
						<path class="st56" d="M89.72,175.05c0,0,0.01,0,0.01,0c0.33-0.03,0.56-0.25,0.53-0.49c-0.49-3.78-0.21-7.65,0.05-11.39
							l0.88-12.47c0.03-0.36,0.1-0.47,0.16-0.5c0.28-0.13,0.36-0.41,0.19-0.62c-0.17-0.21-0.54-0.27-0.82-0.14
							c-0.66,0.31-0.7,0.92-0.72,1.21l-0.88,12.47c-0.27,3.78-0.54,7.68-0.05,11.52C89.11,174.9,89.4,175.07,89.72,175.05z"/>
					</g>
					<g>
						<path class="st56" d="M83.47,175.86c0.3-0.02,0.53-0.2,0.55-0.43c0.41-8.08,0.49-16.28,0.25-24.36
							c-0.01-0.25-0.28-0.44-0.61-0.43c-0.32,0.01-0.59,0.21-0.58,0.46c0.24,8.07,0.15,16.24-0.25,24.31
							c-0.01,0.25,0.24,0.45,0.57,0.46C83.43,175.87,83.45,175.87,83.47,175.86z"/>
					</g>
					<g>
						<path class="st56" d="M78.38,176.52c0.32-0.02,0.56-0.22,0.55-0.46c-0.37-8-0.15-16.12,0.65-24.12
							c0.02-0.25-0.22-0.46-0.55-0.47c-0.33-0.01-0.61,0.17-0.64,0.42c-0.8,8.03-1.02,16.18-0.65,24.21
							c0.01,0.25,0.29,0.44,0.61,0.43C78.36,176.53,78.37,176.53,78.38,176.52z"/>
					</g>
					<g>
						<path class="st56" d="M72.72,177.62L72.72,177.62c0.33-0.02,0.57-0.24,0.55-0.48c-0.39-3.66-0.34-7.6,0.16-12.79l0.05-0.49
							c0.17-1.77,0.35-3.61,0.14-5.42c-0.07-0.62-0.2-1.25-0.32-1.87c-0.23-1.19-0.45-2.31-0.36-3.45c0.02-0.25-0.23-0.46-0.55-0.47
							c-0.32-0.02-0.61,0.17-0.63,0.42c-0.11,1.24,0.13,2.46,0.37,3.64c0.12,0.61,0.24,1.21,0.31,1.82
							c0.21,1.74,0.03,3.53-0.14,5.27l-0.05,0.49c-0.5,5.23-0.55,9.22-0.16,12.92C72.11,177.46,72.4,177.64,72.72,177.62z"/>
					</g>
					<g>
						<path class="st56" d="M67.88,177.01c0.01,0,0.01,0,0.02,0c0.33-0.03,0.56-0.25,0.52-0.5c-1.16-7.63-1.3-15.39-0.42-23.06
							c0.03-0.25-0.21-0.46-0.54-0.48c-0.33-0.02-0.61,0.16-0.64,0.41c-0.88,7.73-0.74,15.55,0.43,23.24
							C67.28,176.86,67.57,177.03,67.88,177.01z"/>
					</g>
					<g>
						<path class="st56" d="M61.38,176.51c0.01,0,0.02,0,0.03,0c0.33-0.03,0.56-0.26,0.52-0.5c-0.29-1.75,0-3.58,0.28-5.34
							c0.13-0.83,0.26-1.68,0.34-2.53c0.17-1.88,0.06-3.8-0.05-5.65c-0.18-3.08-0.37-6.27,0.78-9.24c0.09-0.24-0.09-0.48-0.4-0.55
							c-0.32-0.07-0.64,0.07-0.74,0.31c-1.2,3.11-1.01,6.37-0.82,9.53c0.11,1.83,0.22,3.72,0.05,5.55
							c-0.07,0.83-0.21,1.67-0.34,2.49c-0.29,1.82-0.58,3.69-0.27,5.55C60.78,176.36,61.07,176.53,61.38,176.51z"/>
					</g>
					<g>
						<path class="st56" d="M56.27,175.92c0.32-0.02,0.56-0.23,0.55-0.47c-0.45-7.49-0.36-15.09,0.27-22.58
							c0.02-0.25-0.23-0.46-0.55-0.47c-0.33-0.02-0.61,0.17-0.63,0.42c-0.64,7.53-0.73,15.15-0.27,22.68
							c0.01,0.25,0.29,0.43,0.62,0.42C56.26,175.92,56.27,175.92,56.27,175.92z"/>
					</g>
					<g>
						<path class="st56" d="M50.54,174.51c0.32-0.02,0.56-0.23,0.55-0.47c-0.52-6.83-1.06-13.89,0.79-20.71
							c0.07-0.24-0.14-0.48-0.46-0.52c-0.32-0.05-0.63,0.11-0.7,0.35c-1.88,6.93-1.34,14.05-0.81,20.94
							c0.02,0.25,0.3,0.43,0.63,0.42C50.53,174.51,50.54,174.51,50.54,174.51z"/>
					</g>
					<g>
						<path class="st56" d="M45.49,175.02c0.3-0.02,0.54-0.2,0.55-0.43l0.85-21.5c0.01-0.25-0.25-0.45-0.58-0.45
							c-0.32-0.01-0.6,0.19-0.61,0.44l-0.85,21.5c-0.01,0.25,0.25,0.45,0.58,0.45C45.45,175.02,45.47,175.02,45.49,175.02z"/>
					</g>
					<g>
						<path class="st56" d="M39.59,173.36c0.31-0.02,0.55-0.21,0.55-0.45c-0.02-6.69,0.49-13.45,1.5-20.1
							c0.04-0.24-0.2-0.46-0.52-0.49c-0.32-0.03-0.62,0.15-0.66,0.4c-1.02,6.69-1.53,13.48-1.51,20.2c0,0.25,0.27,0.44,0.59,0.44
							C39.56,173.36,39.58,173.36,39.59,173.36z"/>
					</g>
				</g>
			</g>
		</g>
		<g>
			<path class="st51" d="M64.26,41.83c-1.59,1.55-2.8,3.91-3.99,5.68c-1.33,2.05-2.55,4.03-4.43,5.77
				c-0.14-1.35,0.03-2.64,0.36-3.87C57.2,45.93,60.15,41.47,64.26,41.83L64.26,41.83z"/>
		</g>
		<g>
			<path class="st51" d="M56.34,47.72c-2.12-1.51-3.44-3.44-3.71-6.07C55.41,41.94,57.45,45.11,56.34,47.72L56.34,47.72z"/>
		</g>
		<g class="st7">
			<path class="st51" d="M40.17,65.58c-3.52-0.12-6.78-3.91-5.73-7.41C36.25,61,38.03,62.85,40.17,65.58L40.17,65.58z"/>
		</g>
		<g class="st7">
			<path class="st51" d="M37.13,66.59c-3.29,0.08-5.98-3.62-5.05-6.74c1,1.16,1.66,2.22,2.54,3.37
				C35.41,64.29,36.33,65.47,37.13,66.59L37.13,66.59z"/>
		</g>
		<g class="st7">
			<path class="st51" d="M23.65,33.91c5.7,2.85,8.54,9.49,9.34,15.53c0.22,3.09,0.2,3.17-0.95,0.24
				C29.77,44.12,27.52,38.58,23.65,33.91L23.65,33.91z"/>
		</g>
		<g class="st7">
			<path class="st3" d="M76.68,94.25c-4.15-1.09-7.01-3.9-7.01-3.9c-0.63-0.54,12-1.98,14.5,0.04c0.66,0.54,3.77,1.4,1.97,2.49
				l-2.38,0.67L76.68,94.25z"/>
			<path class="st68" d="M81.6,89.67c0.03,0.06,0.07,0.11,0.1,0.17c1.64,0.94,3.27,1.88,4.91,2.81c0.66,0.11,1.91,1.17,1.23-0.84
				c-0.14-0.43,0.69-0.2,1.03-0.4c0.2-0.12,0.59-0.02,0.57-0.36c-0.02-0.43-0.37-0.36-0.67-0.32c-1.15,0.14-2.29,0.19-3.27-0.76
				c0.56-0.38,1.36-0.09,1.82-0.64c-0.28-0.47-0.64-0.16-0.93-0.15c-1.29,0.06-2.54-0.03-3.73-0.61c-2.4-1.18-4.9-1.61-7.54-0.96
				c0,0,0.01-0.01,0.01-0.01c-0.21,0.07-0.43,0.13-0.64,0.2c-1.47,0.45-2.93,0.9-4.4,1.35c-0.23,0.11-0.46,0.21-0.69,0.32
				c-0.09,0.18-0.43,0.17-0.37,0.45c0.04,0.2,0.23,0.23,0.4,0.18c0.33-0.08,0.66-0.17,0.99-0.26C72.14,89.35,81.56,89.76,81.6,89.67
				z"/>
			<path class="st68" d="M83.69,97.17c0.53-1.17-0.16-2.03-0.83-2.81c-0.27-0.32-0.79-0.33-0.99,0.27c0.28,0.61,0.55,1.22,0.83,1.83
				C82.97,96.77,83.15,97.22,83.69,97.17L83.69,97.17z"/>
			<path class="st68" d="M85.43,94.57c-0.14-0.21-0.26-0.43-0.43-0.62c-0.23-0.25-0.53-0.51-0.87-0.35
				c-0.48,0.23-0.1,0.61-0.01,0.86c0.28,0.74,0.64,1.45,0.97,2.17c0.22,0.1,0.44,0.2,0.66,0.29c0.09-0.22,0.18-0.45,0.27-0.67
				c-0.04-0.16-0.08-0.31-0.12-0.47c-0.15-0.39-0.3-0.78-0.45-1.18L85.43,94.57z"/>
			
				<ellipse transform="matrix(0.3638 -0.9315 0.9315 0.3638 -35.4516 130.9257)" class="st68" cx="78.12" cy="91.42" rx="3" ry="3.27"/>
		</g>
		<g>
			<path class="st3" d="M76.22,91.86c0.14,0.67,0.31,0.99,0.34,1.68C75.94,93.29,75.65,92.33,76.22,91.86L76.22,91.86z"/>
		</g>
		<g class="st7">
			<path class="st45" d="M52.88,78.41c-3.63-2.45-7.77-4.69-12.23-4.54c-2.8-0.02-4.61-0.36-7.82-1.02c0,0-0.19-0.44-0.19-0.44
				c1.52-2.3,4.35-3.64,7.09-3.48c0.96-0.01,2.23,0.49,3.13,0.81c1.43,0.63,2.86,1.22,4.16,2.09c2.48,1.64,4.64,3.78,6.22,6.26
				C53.24,78.1,52.88,78.41,52.88,78.41L52.88,78.41z"/>
		</g>
		<g class="st7">
			<path class="st45" d="M71.34,83.25c4.55-3.31,10.75-5.1,16.3-3.63c2.66,0.96,4.76,3.47,5.11,6.29c0,0-0.37,0.3-0.37,0.3
				c-2.8-0.71-4.25-1.31-6.46-1.95c-4.41-2.36-9.63-1.77-14.36-0.6C71.56,83.67,71.34,83.25,71.34,83.25L71.34,83.25z"/>
		</g>
		<g>
			<path class="st70" d="M68.78,116.12c0,0-1.28,11.17-11.25,11.17c-9.89,0-11.25-11.17-11.25-11.17H68.78z"/>
			<path class="st70" d="M46.27,116.33c0,0,10.04-7.28,22.5,0C68.78,116.33,56.44,122.06,46.27,116.33z"/>
			<path class="st3" d="M68.78,116.05h-22.5c0,0,0.76,7.24,11.25,7.24C66.82,123.29,68.78,116.05,68.78,116.05z"/>
		</g>
	</g>
</g>
</svg>
