<?xml version="1.0" encoding="utf-8"?>
<!-- Generator: Adobe Illustrator 26.1.0, SVG Export Plug-In . SVG Version: 6.00 Build 0)  -->
<svg version="1.1" id="Layer_1" xmlns="http://www.w3.org/2000/svg" xmlns:xlink="http://www.w3.org/1999/xlink" x="0px" y="0px"
	 viewBox="0 0 168 70" style="enable-background:new 0 0 168 70;" xml:space="preserve">
<style type="text/css">
	.st0{fill:#BAE2D7;}
	.st1{fill:#FFFFFF;}
	.st2{fill:#8CC63F;}
	.st3{fill:#39B54A;}
	.st4{fill:#009245;}
	.st5{fill:#74964C;}
	.st6{fill:#908FB2;}
	.st7{fill:none;}
	.st8{clip-path:url(#SVGID_00000145058617088177196640000016531830947165660598_);fill:#BAE2D7;}
	.st9{clip-path:url(#SVGID_00000013894734611180133150000015910582047988866982_);fill:#FDE9E0;}
	.st10{clip-path:url(#SVGID_00000155848617261133922180000003194233942194888066_);fill:#F76241;}
	.st11{clip-path:url(#SVGID_00000083087438020872692610000009024937466517913248_);fill:#E8B051;}
	.st12{fill:#4EB49C;}
	.st13{fill:#537528;}
	.st14{clip-path:url(#SVGID_00000036247763852514559020000017576673104576534190_);fill:#87BBD8;}
	.st15{clip-path:url(#SVGID_00000153686146225383558710000005591083460985553540_);fill:#C49077;}
	.st16{clip-path:url(#SVGID_00000163766661820639648620000003121680713795634070_);fill:#F99D9D;}
	.st17{clip-path:url(#SVGID_00000133499770341420621610000006886558868996942777_);fill:#B28038;}
	.st18{fill:#F9303A;}
	.st19{fill:#C8D746;}
	.st20{fill:#050404;}
	.st21{fill:#F76241;stroke:#FFFFF3;stroke-width:0.033;stroke-miterlimit:10;}
	.st22{fill:#E58961;}
	.st23{opacity:0.28;fill:#FFA188;}
	.st24{fill:#F76241;stroke:#FFFFF3;stroke-width:0.0179;stroke-miterlimit:10;}
	.st25{fill-rule:evenodd;clip-rule:evenodd;fill:#FFFFFF;}
	.st26{fill:none;stroke:#FFFFFF;stroke-width:3;stroke-miterlimit:10;}
	.st27{fill:#F76241;stroke:#FFFFF3;stroke-width:0.1611;stroke-miterlimit:10;}
	.st28{opacity:0.28;fill:#FFA188;enable-background:new    ;}
	.st29{fill:#F9F9F9;}
	.st30{fill:#87BBD8;}
</style>
<g>
	<path class="st12" d="M12.46,25.56c0,0,81.83-34.74,145.54,1.42l-9.07,10.99l4.09,17.73c0,0-64.88-27.65-133.85-0.71l4.09-15.6
		L12.46,25.56z"/>
	<path class="st28" d="M26.45,24.55c-1.37,0.84-2.67,1.78-3.86,2.81c-1.29,1.11-2.49,2.39-3.01,3.93c-1.24,3.71,2.45,6.3,6.21,6.2
		c3.29-0.09,6.37-0.88,9.65-1c4.14-0.16,7.94,0.29,12.04,0.6c8.17,0.63,17.75-6.8,9.9-13.51c-4.21-3.6-11.15-3.82-16.58-3.51
		C35.69,20.37,30.69,21.96,26.45,24.55z"/>
	<g>
		<g>
			<g>
				<path class="st29" d="M99.56,46.04c0.27-0.03,0.56-0.03,0.83-0.03c0.29-0.01,0.57-0.03,0.86-0.06c0.55-0.05,1.09-0.12,1.63-0.2
					c0.1-0.01,0.06-0.17-0.04-0.15c-0.55,0.09-1.1,0.15-1.65,0.2c-0.54,0.05-1.09,0.11-1.63,0.08
					C99.45,45.87,99.45,46.05,99.56,46.04L99.56,46.04z"/>
			</g>
		</g>
		<g>
			<g>
				<path class="st29" d="M96.62,47.44c1.12-0.17,2.26-0.24,3.38-0.35c1.09-0.11,2.19-0.21,3.27-0.34c0.1-0.01,0.1-0.16,0-0.16
					c-1.11,0.1-2.23,0.23-3.34,0.35c-1.11,0.12-2.23,0.29-3.34,0.35C96.49,47.29,96.51,47.46,96.62,47.44L96.62,47.44z"/>
			</g>
		</g>
		<g>
			<g>
				<path class="st29" d="M99.03,48.18c0.39-0.08,0.81-0.08,1.2-0.12c0.35-0.04,0.71-0.09,1.06-0.14c0.37-0.05,0.75-0.11,1.12-0.18
					c0.36-0.06,0.76-0.1,1.11-0.22c0.06-0.02,0.06-0.13-0.02-0.13c-0.35,0.02-0.7,0.12-1.05,0.18c-0.37,0.06-0.75,0.12-1.12,0.18
					c-0.4,0.06-0.8,0.11-1.2,0.15c-0.37,0.04-0.76,0.12-1.14,0.11C98.89,48.02,98.91,48.21,99.03,48.18L99.03,48.18z"/>
			</g>
		</g>
		<g>
			<g>
				<path class="st29" d="M97.25,49.65c2.12-0.3,4.26-0.5,6.39-0.75c0.1-0.01,0.1-0.17,0-0.16c-2.13,0.25-4.27,0.56-6.41,0.75
					C97.11,49.5,97.13,49.67,97.25,49.65L97.25,49.65z"/>
			</g>
		</g>
		<g>
			<g>
				<path class="st29" d="M99.64,50.59c0.68-0.09,1.37-0.15,2.05-0.25c0.33-0.05,0.67-0.1,1-0.16c0.16-0.03,0.32-0.05,0.48-0.08
					c0.2-0.04,0.41-0.1,0.61-0.12c0.12-0.01,0.09-0.19-0.02-0.15c-0.32,0.1-0.7,0.13-1.03,0.19c-0.33,0.06-0.66,0.11-1,0.16
					c-0.7,0.1-1.41,0.22-2.11,0.26C99.51,50.44,99.53,50.6,99.64,50.59L99.64,50.59z"/>
			</g>
		</g>
	</g>
	<g>
		<g>
			<g>
				<path class="st29" d="M16.98,25.95c-0.22,0.16-0.47,0.3-0.71,0.43c-0.23,0.13-0.47,0.26-0.7,0.39
					c-0.49,0.26-0.98,0.51-1.49,0.73c-0.1,0.04-0.04,0.19,0.06,0.14c0.5-0.24,1-0.47,1.48-0.73c0.24-0.13,0.49-0.26,0.72-0.4
					c0.24-0.14,0.47-0.3,0.72-0.42C17.16,26.04,17.07,25.89,16.98,25.95L16.98,25.95z"/>
			</g>
		</g>
		<g>
			<g>
				<path class="st29" d="M20.23,25.52c-0.47,0.28-0.98,0.51-1.47,0.75c-0.51,0.26-1.02,0.52-1.52,0.77c-1,0.51-2,1-2.99,1.52
					c-0.09,0.05-0.01,0.18,0.08,0.13c1.01-0.49,2-1.02,2.99-1.52c0.49-0.25,0.98-0.5,1.47-0.75c0.5-0.26,1-0.55,1.52-0.77
					C20.4,25.62,20.32,25.47,20.23,25.52L20.23,25.52z"/>
			</g>
		</g>
		<g>
			<g>
				<path class="st29" d="M18.62,27.45c-0.32,0.22-0.71,0.37-1.05,0.54c-0.33,0.16-0.66,0.32-0.99,0.48c-0.33,0.15-0.66,0.3-1,0.45
					c-0.35,0.15-0.74,0.27-1.07,0.46c-0.06,0.04-0.02,0.14,0.05,0.12c0.35-0.08,0.7-0.27,1.03-0.41c0.34-0.14,0.67-0.29,1-0.45
					c0.33-0.15,0.66-0.31,0.99-0.47c0.16-0.08,0.33-0.16,0.49-0.25c0.2-0.1,0.4-0.24,0.61-0.32C18.79,27.55,18.71,27.39,18.62,27.45
					L18.62,27.45z"/>
			</g>
		</g>
		<g>
			<g>
				<path class="st29" d="M20.9,27.71c-0.94,0.51-1.93,0.95-2.89,1.43c-0.97,0.48-1.93,0.95-2.89,1.43
					c-0.09,0.05-0.01,0.18,0.08,0.14c0.96-0.48,1.93-0.95,2.89-1.43c0.96-0.48,1.91-0.99,2.89-1.43C21.08,27.81,21,27.66,20.9,27.71
					L20.9,27.71z"/>
			</g>
		</g>
		<g>
			<g>
				<path class="st29" d="M19.41,29.8c-0.59,0.35-1.24,0.63-1.86,0.91c-0.31,0.14-0.63,0.28-0.94,0.42
					c-0.17,0.07-0.35,0.15-0.52,0.22c-0.15,0.06-0.31,0.15-0.47,0.2c-0.11,0.03-0.04,0.2,0.06,0.14c0.16-0.09,0.36-0.14,0.53-0.21
					c0.14-0.06,0.28-0.12,0.43-0.18c0.33-0.14,0.65-0.29,0.98-0.43c0.31-0.14,0.62-0.29,0.93-0.44c0.32-0.16,0.63-0.34,0.96-0.48
					C19.58,29.9,19.5,29.75,19.41,29.8L19.41,29.8z"/>
			</g>
		</g>
	</g>
	<path class="st28" d="M76.51,32.75c-1.11,0.28-2.19,0.63-3.2,1.06c-1.09,0.46-2.15,1.03-2.74,1.88c-1.43,2.05,0.88,4.25,3.62,4.83
		c2.4,0.51,4.74,0.55,7.13,1.03c3.02,0.61,5.71,1.53,8.63,2.41c5.83,1.77,13.83-1.12,9.1-6.54c-2.54-2.91-7.53-4.22-11.51-4.95
		C83.81,31.78,79.96,31.9,76.51,32.75z"/>
	<g>
		<path class="st1" d="M31.1,35.94c0,0.13,0.01,0.24,0.04,0.34c0.27,0.69,0.44,1.16,0.52,1.43l2,7.03c0.01,0.04,0.02,0.09,0.01,0.16
			c-0.01,0.06-0.02,0.11-0.04,0.15c-0.25,0.07-0.51,0-0.77-0.22l-0.09,0.16l-1.06,0.3l-0.16-0.09l-0.44-1.57
			c-0.03-0.07-0.08-0.15-0.14-0.25c-0.06-0.1-0.1-0.18-0.14-0.25c-0.04-0.15-0.09-0.41-0.15-0.76l-0.17-0.84
			c-0.24-0.86-0.68-2.28-1.31-4.27l-0.56-1.81l-0.11-0.47l-0.26-0.68c-0.51-1.27-0.86-2.22-1.04-2.84c-0.02-0.08,0.18-0.21,0.6-0.38
			c0.43-0.17,0.74-0.28,0.96-0.34c0.48-0.14,0.76-0.08,0.83,0.18c0.03,0.1,0.01,0.2-0.05,0.3s-0.1,0.16-0.11,0.18
			c0.11,0.4,0.26,0.82,0.45,1.27c0.19,0.45,0.31,0.73,0.35,0.84c0.37,0.82,0.64,1.53,0.8,2.1C31.09,35.7,31.1,35.81,31.1,35.94z
			 M28.08,31.94c0.02,0.07,0.06,0.15,0.12,0.25c0.06,0.1,0.11,0.18,0.16,0.24l0.19-0.21l0.02,0.08l0.02,0.06
			c0.01,0.03-0.02,0.22-0.09,0.57l0.13-0.02c0.45-0.13,0.62-0.38,0.52-0.76c-0.06-0.21-0.15-0.36-0.26-0.44
			c-0.11-0.08-0.27-0.09-0.47-0.04C28.17,31.75,28.05,31.84,28.08,31.94z M29.17,33.35c0.07-0.19,0.08-0.35,0.05-0.48
			c-0.13,0.04-0.26,0.13-0.4,0.27s-0.2,0.28-0.16,0.39c0.01,0.04,0.04,0.08,0.09,0.12c0.05,0.04,0.09,0.06,0.12,0.05
			C29,33.66,29.1,33.55,29.17,33.35z M29.47,34.08c-0.28,0.08-0.44,0.16-0.48,0.23c-0.04,0.07-0.04,0.19,0.01,0.34l0.04,0.13
			c0.03,0.11,0.09,0.24,0.18,0.4c0.09,0.15,0.15,0.22,0.2,0.21c0.18-0.05,0.31-0.22,0.39-0.51c0.08-0.29,0.09-0.54,0.03-0.75
			C29.8,34.03,29.68,34.02,29.47,34.08z M29.2,33.57c-0.14,0.17-0.2,0.29-0.18,0.36l0.57-0.16l-0.15-0.53
			C29.42,33.29,29.34,33.4,29.2,33.57z M30.31,35.21c-0.06-0.21-0.15-0.31-0.27-0.29c-0.01,0.02-0.09,0.14-0.23,0.35
			c-0.14,0.22-0.22,0.42-0.23,0.6l0.3-0.08c0.18-0.05,0.31-0.11,0.39-0.18s0.1-0.18,0.05-0.34L30.31,35.21z M30.38,36.85
			c0.16-0.31,0.21-0.59,0.14-0.83c-0.02-0.08-0.13-0.1-0.31-0.05c-0.13,0.04-0.26,0.1-0.39,0.19c-0.13,0.09-0.2,0.18-0.19,0.27
			l0.17,1.09C30.03,37.39,30.22,37.16,30.38,36.85z M30.82,37.03c-0.06-0.13-0.13-0.19-0.22-0.17l-0.48,0.87
			c0.01,0.04,0.12,0.05,0.34,0.02s0.4-0.07,0.57-0.12C30.95,37.37,30.88,37.17,30.82,37.03z M30.22,38.34c0,0.1,0.01,0.19,0.03,0.26
			c0.03,0.1,0.07,0.17,0.13,0.23c0.06,0.05,0.11,0.07,0.15,0.06c0.14-0.04,0.26-0.17,0.37-0.4c0.1-0.23,0.13-0.42,0.09-0.57
			l-0.76,0.22C30.22,38.17,30.22,38.24,30.22,38.34z M30.8,38.89c-0.1,0.2-0.18,0.36-0.21,0.5l0.19,0.11l0.64-0.34l-0.21-0.74
			C31.04,38.54,30.9,38.7,30.8,38.89z M30.86,39.78c-0.08,0.14-0.08,0.36,0.01,0.67l0.17-0.05l0.49-0.85l-0.04-0.13
			C31.15,39.52,30.94,39.64,30.86,39.78z M32.36,42c-0.08-0.27-0.19-0.38-0.33-0.34c-0.04,0.03-0.1,0.09-0.19,0.19
			c-0.09,0.1-0.14,0.18-0.17,0.23c0.02-0.08,0.09-0.25,0.2-0.49c0.11-0.25,0.17-0.44,0.17-0.6l-1.02,0.29
			c0.06,0.21,0.12,0.52,0.17,0.93c0.06,0.44,0.13,0.77,0.19,1l0.26,0.84c0.1,0.15,0.2,0.24,0.29,0.27c0.09,0.03,0.23,0.02,0.41-0.04
			l0.47-0.13c0.01-0.29-0.03-0.58-0.11-0.86c-0.02-0.08-0.07-0.17-0.14-0.26c-0.07-0.09-0.11-0.15-0.12-0.19
			c-0.01-0.04-0.01-0.12,0-0.24s-0.01-0.28-0.07-0.47L32.36,42z M31.68,39.99c-0.05-0.03-0.09-0.04-0.13-0.03
			c-0.14,0.04-0.25,0.19-0.33,0.44c-0.08,0.25-0.1,0.45-0.06,0.59c0.32-0.09,0.53-0.19,0.62-0.3c0.09-0.11,0.09-0.32,0-0.63
			C31.76,40.04,31.73,40.02,31.68,39.99z M31.86,42.61c0.04-0.04,0.11-0.07,0.21-0.09l0.13-0.02c-0.06,0.02-0.14,0.06-0.24,0.14
			s-0.19,0.12-0.26,0.14C31.76,42.7,31.81,42.64,31.86,42.61z"/>
		<path class="st1" d="M43.75,41.27l-0.14-0.73c-0.12-0.66-0.22-1.16-0.29-1.49c-0.34-1.53-0.8-2.84-1.36-3.93
			c-0.24-0.13-0.45-0.25-0.63-0.38c-0.25-0.17-0.48-0.28-0.68-0.32c-0.21-0.04-0.53-0.02-0.97,0.08c-0.31,0.07-0.61,0.19-0.89,0.35
			c-0.28,0.16-0.62,0.43-1.01,0.8c-0.15,0.14-0.23,0.32-0.24,0.54c-0.01,0.22,0.02,0.49,0.09,0.8c0.17,0.77,0.33,1.38,0.46,1.83
			c0.13,0.44,0.31,0.85,0.55,1.22l0.62,2.77c0.02,0.09-0.04,0.14-0.16,0.17c-0.44,0.07-0.84,0.13-1.2,0.18
			c-0.36,0.05-0.57,0.08-0.61,0.09l-0.47-0.17c-0.02-0.01-0.13-0.41-0.35-1.19c-0.21-0.78-0.39-1.48-0.53-2.09
			c-0.13-0.59-0.23-1.14-0.31-1.67c-0.13-0.84-0.28-1.64-0.45-2.4l-0.45-1.91c0.08-0.09,0.2-0.18,0.36-0.27
			c0.15-0.09,0.28-0.14,0.38-0.16c0.2-0.04,0.37-0.03,0.51,0.04c0.14,0.07,0.28,0.19,0.42,0.36c0.18,0.19,0.32,0.27,0.42,0.24
			c0.19-0.04,0.36-0.12,0.51-0.24c0.15-0.12,0.36-0.29,0.63-0.51c0.31-0.28,0.57-0.49,0.77-0.64s0.43-0.24,0.69-0.3
			c0.44-0.1,1.18-0.05,2.2,0.14l0.52,0.09c0.92,0.14,1.66,0.77,2.22,1.88c0.56,1.11,0.99,2.33,1.28,3.65
			c0.08,0.37,0.14,0.8,0.17,1.27c0.07,0.56,0.13,0.96,0.19,1.22c0.04,0.19,0.08,0.32,0.11,0.4c-0.14,0.03-0.21,0.12-0.19,0.27
			c0.02,0.15-0.01,0.28-0.09,0.39c-0.08,0.12-0.33,0.22-0.76,0.32c0.01-0.09,0.01-0.17-0.01-0.25c-0.01-0.03-0.02-0.04-0.03-0.04
			c-0.03,0.02-0.07,0.07-0.13,0.15c-0.06,0.08-0.13,0.14-0.2,0.17c-0.16,0.04-0.3,0.03-0.43-0.02l-0.15-0.15
			C44.03,41.6,43.92,41.41,43.75,41.27z M37.41,40.33c0.19-0.52,0.26-0.89,0.22-1.09c-0.04-0.19-0.09-0.34-0.13-0.48
			c-0.04-0.13-0.09-0.25-0.12-0.34c-0.13-0.33-0.22-0.6-0.27-0.8c-0.03-0.11-0.04-0.21-0.04-0.28l-0.25,0.17
			c0.07-0.17,0.11-0.3,0.12-0.4c0.01-0.1,0.02-0.23,0.01-0.4l-0.02-0.47c0.01-0.29,0.07-0.54,0.18-0.76s0.25-0.43,0.43-0.64
			c0.19-0.22,0.27-0.38,0.25-0.48c-0.01-0.04-0.03-0.08-0.05-0.1c-0.09,0.05-0.23,0.2-0.42,0.45c-0.03,0.02-0.08,0.09-0.18,0.21
			c-0.09,0.12-0.18,0.19-0.25,0.2c-0.13,0.03-0.23,0.02-0.3-0.03c-0.07-0.05-0.16-0.15-0.27-0.29c-0.08-0.1-0.16-0.18-0.22-0.23
			c-0.06-0.05-0.15-0.07-0.25-0.05c-0.06,0.01-0.11,0.03-0.15,0.06c0.02-0.04,0.04-0.08,0.06-0.15c0.02-0.06,0.02-0.12,0.01-0.16
			s-0.05-0.07-0.12-0.07c-0.07-0.01-0.11-0.02-0.13-0.03c-0.01,0-0.03,0.07-0.06,0.19c-0.02,0.13-0.03,0.22-0.02,0.27
			c0.06,0.26,0.16,0.59,0.32,1.01c0.1,0.25,0.17,0.45,0.2,0.61l0.08,0.46c0.03-0.01,0.06,0.01,0.1,0.03s0.06,0.05,0.06,0.07
			c0.03,0.11,0.02,0.3-0.01,0.54c-0.03,0.28-0.03,0.47,0,0.59l0.54-0.12l-0.32,0.48l0.16,0.12c-0.14,0.17-0.23,0.33-0.25,0.49
			c-0.02,0.16-0.01,0.36,0.04,0.6c0.27-0.06,0.43-0.22,0.48-0.47c0.01,0.06,0.03,0.08,0.06,0.08c0,0.01-0.05,0.14-0.15,0.37
			c-0.11,0.23-0.15,0.37-0.14,0.42l0.69-0.15l-0.6,0.45l0.22,0.97C37.06,41.13,37.22,40.85,37.41,40.33z M37.01,41.37
			c-0.12,0.12-0.15,0.31-0.09,0.58l0.32-0.07l0.52-0.82l-0.13,0.03C37.33,41.16,37.13,41.25,37.01,41.37z M37.47,40.27
			c-0.17,0.28-0.24,0.49-0.21,0.63l0.69-0.15c0.06-0.01,0.08-0.12,0.07-0.32s-0.04-0.41-0.08-0.62
			C37.8,39.83,37.64,39.99,37.47,40.27z M37.53,42.26c-0.08,0.06-0.14,0.13-0.17,0.19c-0.03,0.06-0.03,0.15-0.01,0.26l1.14-0.26
			c0.03-0.02,0.05-0.06,0.07-0.11c0.02-0.05,0.03-0.09,0.02-0.12c-0.01-0.06-0.06-0.13-0.13-0.23c-0.07-0.1-0.11-0.16-0.12-0.19
			c-0.01-0.03,0.02-0.07,0.08-0.13c0.06-0.06,0.11-0.09,0.16-0.1c-0.06-0.02-0.12-0.07-0.16-0.17s-0.08-0.17-0.12-0.23
			s-0.09-0.08-0.16-0.06c-0.17,0.04-0.35,0.21-0.53,0.51c-0.18,0.3-0.28,0.47-0.3,0.51l0.41-0.09
			C37.67,42.12,37.62,42.2,37.53,42.26z M39.92,33.71c0.38-0.03,0.68-0.04,0.88-0.01c0.06,0,0.22,0.07,0.48,0.21
			c0.03,0.01,0.13,0.05,0.29,0.14c0.16,0.08,0.29,0.11,0.39,0.09c0.11-0.03,0.16-0.09,0.14-0.19l-0.13-0.08
			c0.02-0.06,0.08-0.14,0.19-0.22c0.11-0.08,0.16-0.16,0.14-0.21c-0.03-0.14-0.21-0.18-0.52-0.11c-0.1,0.02-0.18,0.07-0.25,0.14
			c-0.07,0.07-0.13,0.11-0.19,0.12c-0.09-0.08-0.17-0.12-0.23-0.11l-0.04,0.03l0.05-0.28c-0.12-0.08-0.28-0.1-0.46-0.05
			c-0.09,0.02-0.19,0.05-0.31,0.1s-0.22,0.08-0.29,0.1l-0.1-0.43c-0.54,0.12-0.82,0.31-0.84,0.57l-0.06-0.26
			c-0.05,0.06-0.13,0.11-0.24,0.15c-0.11,0.05-0.18,0.08-0.2,0.1c-0.23,0.1-0.4,0.19-0.51,0.28C38,33.89,37.96,34.02,38,34.17
			c0,0.01,0.03,0.03,0.08,0.05c0.05,0.02,0.08,0.04,0.08,0.07l0.22-0.32l0.16,0.1l0.06-0.01c0.04-0.02,0.1-0.07,0.17-0.15
			c0.07-0.08,0.1-0.14,0.1-0.18l0.16,0.1C39.24,33.78,39.54,33.74,39.92,33.71z M42.9,34.5c0.02-0.1,0.01-0.25-0.03-0.43l-0.02-0.09
			c-0.04-0.19-0.11-0.27-0.22-0.27c-0.34,0.23-0.48,0.49-0.41,0.79l0.43-0.1l-0.22,0.32l0.18,0.12C42.78,34.72,42.88,34.6,42.9,34.5
			z M43.09,35.33c-0.11,0.13-0.14,0.27-0.11,0.43c0.19-0.04,0.36-0.18,0.53-0.41c0.17-0.23,0.23-0.44,0.19-0.63
			c-0.01-0.06-0.07-0.13-0.16-0.21s-0.18-0.12-0.25-0.1c-0.16,0.04-0.29,0.14-0.38,0.3s-0.13,0.33-0.09,0.48l0.69-0.15
			C43.33,35.1,43.19,35.2,43.09,35.33z M43.37,35.67c-0.12,0.19-0.16,0.38-0.12,0.55c0.26-0.06,0.46-0.13,0.62-0.22
			c0.15-0.09,0.21-0.22,0.17-0.39c-0.02-0.07-0.04-0.14-0.07-0.2c-0.03-0.06-0.08-0.12-0.15-0.18
			C43.64,35.33,43.49,35.48,43.37,35.67z M43.39,36.59l0.05,0.12c0.05-0.03,0.1-0.09,0.14-0.18c0.04-0.09,0.06-0.16,0.07-0.21
			l-0.04-0.06C43.43,36.31,43.35,36.42,43.39,36.59z M43.68,37.18c0.05,0.21,0.07,0.37,0.06,0.46c0.24-0.05,0.43-0.21,0.55-0.46
			c0.12-0.25,0.16-0.51,0.1-0.77l-0.11-0.29c-0.2,0.13-0.36,0.27-0.5,0.39c-0.14,0.13-0.19,0.25-0.17,0.36L43.68,37.18z M44.3,39.63
			c0.23-0.05,0.43-0.21,0.6-0.47s0.24-0.5,0.19-0.72c-0.01-0.06-0.03-0.1-0.05-0.12c-0.27-0.81-0.42-1.21-0.45-1.21
			c-0.03,0.01-0.14,0.13-0.35,0.36c-0.2,0.23-0.29,0.39-0.28,0.48c0.01,0.03,0.04,0.06,0.09,0.09s0.09,0.05,0.12,0.04
			c-0.11,0.03-0.19,0.09-0.23,0.19s-0.05,0.2-0.02,0.3c0.14-0.03,0.28-0.14,0.42-0.32c0.12-0.15,0.23-0.23,0.35-0.26l0.02,0.09
			c-0.36,0.32-0.56,0.67-0.57,1.05l0.39-0.09C44.32,39.15,44.24,39.34,44.3,39.63z M44.57,40.09c-0.03,0.26,0.01,0.67,0.14,1.21
			l0.79-0.18c-0.1-0.46-0.28-0.7-0.52-0.72c0.04-0.02,0.11-0.08,0.2-0.17c0.09-0.09,0.14-0.15,0.13-0.18l-0.21-0.92
			C44.77,39.51,44.6,39.83,44.57,40.09z"/>
		<path class="st1" d="M55.78,36.89c0.04,0.03,0.08,0.04,0.11,0.04c-0.13,0.13-0.21,0.29-0.23,0.48c-0.03,0.2-0.04,0.32-0.05,0.37
			c-0.11,0.48-0.28,0.86-0.49,1.13c-0.22,0.27-0.46,0.48-0.73,0.62c-0.27,0.14-0.67,0.31-1.19,0.5c-0.23,0.07-0.39,0.12-0.48,0.17
			l-0.39,0.09l-1,0.03c-0.07,0.01-0.37-0.03-0.89-0.12c-0.61-0.11-0.96-0.15-1.05-0.14c-0.07,0.01-0.14,0.05-0.2,0.11
			c-0.06,0.06-0.12,0.1-0.18,0.11c-0.27,0.05-0.5-0.44-0.66-1.45c-0.07-0.42-0.03-0.64,0.11-0.67c0.11,0.01,0.25,0.06,0.43,0.15
			c0.18,0.09,0.3,0.13,0.38,0.12l2.63,0.15c0.17-0.03,0.38-0.13,0.62-0.29s0.44-0.36,0.61-0.58c0.16-0.22,0.23-0.42,0.2-0.61
			c-0.03-0.16-0.17-0.34-0.43-0.53c-0.26-0.19-0.55-0.36-0.85-0.51c-0.31-0.14-0.49-0.21-0.55-0.2c-0.13,0.02-0.26,0.02-0.39-0.01
			c-0.13-0.03-0.25-0.07-0.36-0.11c-0.25-0.08-0.43-0.11-0.55-0.09c-0.45,0.07-0.89-0.02-1.34-0.27c-0.44-0.25-0.82-0.6-1.14-1.05
			c-0.32-0.45-0.52-0.9-0.59-1.36c-0.16-0.98,0.24-1.71,1.21-2.17c0.97-0.46,1.96-0.78,2.98-0.95c1.59-0.26,2.42-0.21,2.48,0.17
			L54,31.45c0.02,0.13-0.1,0.22-0.36,0.26c-0.68-0.16-1.2-0.26-1.55-0.31c-0.35-0.05-0.71-0.05-1.09,0.01
			c-0.43,0.07-0.75,0.29-0.94,0.66s-0.25,0.77-0.18,1.2c0.01,0.06,0.07,0.15,0.19,0.27c0.12,0.12,0.23,0.18,0.33,0.18l2.35,0.04
			c0.39,0.01,0.81,0.15,1.26,0.42c0.45,0.27,0.85,0.6,1.19,0.99c0.34,0.39,0.54,0.76,0.59,1.11c0,0.06-0.02,0.15-0.05,0.28
			c-0.03,0.12-0.04,0.22-0.03,0.29C55.72,36.84,55.74,36.86,55.78,36.89z M48.08,34.01c0.24,0.39,0.48,0.57,0.72,0.53
			c0.04-0.01,0.15-0.11,0.32-0.3c0.17-0.19,0.28-0.31,0.33-0.37c-0.04-0.23-0.09-0.38-0.15-0.45c-0.06-0.07-0.19-0.12-0.37-0.15
			c0.17-0.03,0.29-0.14,0.33-0.33c0.05-0.19,0.08-0.37,0.08-0.54c-0.06-0.03-0.19-0.05-0.37-0.05c-0.18,0-0.27-0.01-0.27-0.04
			c0-0.01,0.14-0.13,0.42-0.34c0.28-0.21,0.44-0.41,0.47-0.61c0.36-0.06,0.53-0.15,0.51-0.26c-0.02-0.14-0.14-0.2-0.34-0.17
			c-0.26,0.04-0.57,0.17-0.93,0.38c-0.36,0.21-0.66,0.46-0.9,0.76c-0.24,0.3-0.33,0.62-0.28,0.95
			C47.7,33.28,47.84,33.61,48.08,34.01z M51.99,39.73c0.05-0.03,0.07-0.07,0.06-0.11c-0.08-0.02-0.15-0.09-0.22-0.21
			c-0.07-0.12-0.12-0.21-0.14-0.27l-1.32,0.22c-0.12-0.19-0.3-0.28-0.53-0.28c-0.23,0-0.53,0.03-0.91,0.09
			c0.06,0.36,0.18,0.53,0.37,0.5c0.16-0.03,0.25-0.08,0.26-0.18c0.1,0.15,0.45,0.24,1.05,0.28c0.6,0.04,1.03,0.04,1.27,0
			C51.9,39.77,51.94,39.76,51.99,39.73z M53.55,35.47c0.27-0.18,0.43-0.34,0.5-0.48c-0.05-0.29-0.34-0.46-0.87-0.5
			s-1.21-0.04-2.04,0c-0.34,0.03-0.54,0.04-0.6,0.03c-0.09-0.01-0.26-0.06-0.49-0.15c-0.24-0.09-0.37-0.13-0.4-0.12
			c-0.23,0.04-0.43,0.21-0.6,0.52c0.12,0.17,0.29,0.24,0.5,0.21c0.09-0.01,0.2-0.06,0.35-0.14s0.27-0.12,0.39-0.14
			c-0.01,0.02-0.07,0.05-0.16,0.1c-0.1,0.05-0.16,0.13-0.21,0.25c0.09,0.1,0.36,0.16,0.81,0.18c0.45,0.02,0.78,0,1-0.03l0.04,0.22
			c0.13-0.01,0.37,0.07,0.71,0.22c0.28,0.1,0.44,0.15,0.47,0.15C53.08,35.75,53.28,35.64,53.55,35.47z M50.33,30.82l2.13-0.35
			c-0.31-0.01-0.61,0-0.9,0.04c-0.28,0.03-0.54,0.07-0.75,0.1c-0.22,0.04-0.38,0.06-0.5,0.08L50.33,30.82z M55.08,37.91
			c0.07-0.19,0.08-0.38,0.05-0.57c-0.02-0.13-0.05-0.22-0.09-0.27l-1.24,0.61c-0.06,0.08-0.1,0.19-0.11,0.33
			c-0.02,0.14-0.04,0.23-0.08,0.28l-1.5,0.89l0.01,0.09c0.04,0.23,0.33,0.3,0.88,0.21c0.22-0.04,0.35-0.08,0.41-0.13
			c0.06-0.05,0.1-0.14,0.13-0.24c0-0.16,0.09-0.31,0.26-0.44c0.02,0.12,0.05,0.19,0.09,0.21c0.04,0.02,0.11,0.03,0.21,0.01
			l0.13-0.02c0.17-0.03,0.3-0.09,0.39-0.2c-0.06-0.06-0.13-0.12-0.24-0.15s-0.17-0.06-0.2-0.07l0.22-0.28
			c0.04,0.05,0.08,0.08,0.14,0.09c0.05,0.01,0.11,0,0.17,0C54.89,38.21,55.01,38.1,55.08,37.91z M52.66,30.51
			c-0.02,0.03-0.03,0.06-0.03,0.09c0.07,0.06,0.16,0.11,0.26,0.15c0.1,0.04,0.2,0.04,0.31,0.03l0.13-0.04
			c-0.02-0.12-0.09-0.2-0.22-0.25c-0.13-0.05-0.26-0.07-0.39-0.05C52.71,30.45,52.69,30.47,52.66,30.51z M54.43,35.25
			c-0.14,0.02-0.32,0.15-0.54,0.38s-0.33,0.38-0.35,0.46c0.14-0.02,0.33-0.08,0.55-0.18c0.21-0.11,0.43-0.18,0.68-0.22
			C54.72,35.37,54.6,35.23,54.43,35.25z M55.19,36.09c-0.01-0.09-0.04-0.15-0.09-0.19s-0.13-0.05-0.26-0.02l-0.02,0
			c-0.04,0.01-0.18,0.15-0.41,0.42c-0.23,0.28-0.34,0.44-0.33,0.5l0.03,0.2c0.38-0.06,0.66-0.14,0.86-0.24
			c0.2-0.1,0.28-0.29,0.23-0.56L55.19,36.09z"/>
		<path class="st1" d="M63.3,28.06c0.09,0.06,0.13,0.11,0.14,0.15l0.19,1.62l-0.14,0.15c-0.1,0.01-0.45,0.05-1.04,0.12
			s-1.13,0.18-1.63,0.33l0.04,0.15c0.02,0.19,0,0.43-0.07,0.72c-0.05,0.3-0.07,0.52-0.05,0.65c0,0.03,0.03,0.06,0.07,0.09
			c0.04,0.03,0.07,0.05,0.08,0.05l0.27,2.27c0.11,0.09,0.19,0.31,0.23,0.66l0.04,0.55c0.07,0.01,0.14,0.17,0.19,0.5
			c0.05,0.33,0.2,0.61,0.44,0.84s0.69,0.35,1.34,0.33c0.04-0.01,0.15-0.01,0.31,0c0.16,0,0.29,0.04,0.39,0.11
			c0.1,0.07,0.16,0.18,0.17,0.34c0.03,0.26,0.03,0.46,0.01,0.6s-0.09,0.31-0.18,0.51l-0.17,0.42c-0.25,0.02-0.53,0-0.85-0.05
			c-0.32-0.05-0.62-0.1-0.91-0.16c-0.73-0.15-1.24-0.21-1.55-0.19c-0.29,0.04-0.52-0.26-0.69-0.88c-0.17-0.62-0.29-1.22-0.36-1.81
			c-0.05-0.41-0.06-0.8-0.03-1.17c0-0.1,0-0.22,0-0.35s-0.01-0.28-0.03-0.44c-0.08-0.7-0.32-1.86-0.71-3.48
			c-0.13,0-0.26-0.01-0.39-0.02c-0.13-0.01-0.24-0.02-0.32-0.03c-0.39-0.06-0.67-0.07-0.83-0.06c-0.07,0.01-0.17-0.09-0.3-0.29
			c-0.13-0.2-0.2-0.36-0.21-0.5c-0.04-0.29,0.04-0.49,0.22-0.6c0.18-0.11,0.44-0.19,0.79-0.25c0.19-0.02,0.33-0.05,0.41-0.08
			c0.08-0.03,0.13-0.09,0.14-0.16c-0.04-0.33-0.06-0.69-0.05-1.08s0.04-0.62,0.1-0.7c0.2,0.05,0.33,0.38,0.41,0.99l0.05,0.59
			l0.15,0.12c0.03-0.02,0.19-0.12,0.47-0.3c0.29-0.18,0.43-0.33,0.41-0.45l-0.04-0.17c-0.01-0.04,0-0.21,0.01-0.49
			c0.01-0.28,0.01-0.49-0.01-0.62l-0.04,0.01c-0.07,0.01-0.25,0.1-0.52,0.27c-0.27,0.17-0.43,0.26-0.46,0.27
			c0.06-0.08,0.23-0.24,0.5-0.48c-0.3-0.02-0.53-0.08-0.71-0.18c0.12-0.12,0.24-0.2,0.38-0.26c0.13-0.05,0.3-0.1,0.5-0.14
			c0.26-0.03,0.49-0.1,0.69-0.19c0.01,0.06,0.06,0.12,0.16,0.19c0.1,0.07,0.15,0.13,0.15,0.17c-0.01,0.06-0.02,0.15-0.04,0.26
			s-0.03,0.21-0.03,0.3c0.06,0.5,0.15,0.85,0.28,1.07c0.13,0.22,0.3,0.35,0.52,0.38c0.22,0.03,0.55,0.02,1-0.03
			c0.1-0.01,0.24-0.05,0.43-0.12s0.34-0.11,0.47-0.12C63.15,27.98,63.21,28.01,63.3,28.06z M60.65,28.95
			c-0.11-0.03-0.26-0.14-0.46-0.32c-0.02-0.01-0.07-0.06-0.16-0.15c-0.09-0.08-0.17-0.12-0.25-0.11c-0.2,0.02-0.29,0.13-0.27,0.32
			l0.15-0.02c-0.09,0.2-0.29,0.38-0.6,0.52c-0.31,0.14-0.68,0.27-1.13,0.4c-0.16,0.05-0.3,0.09-0.42,0.14s-0.18,0.08-0.17,0.11
			c0.01,0.09,0.18,0.15,0.52,0.18c0.34,0.03,0.58,0.04,0.72,0.02l1.11-1.11l0.28-0.03l-0.62,0.76l0.02,0.13L60.65,28.95z
			 M60.19,29.69l-0.02-0.13c-0.07,0.05-0.13,0.1-0.19,0.15c-0.06,0.04-0.12,0.09-0.17,0.14c-0.44,0.29-0.65,0.51-0.63,0.65
			l0.28-0.03L60.19,29.69z M60.02,30.53c-0.17,0.02-0.32,0.12-0.44,0.29c-0.12,0.17-0.17,0.32-0.16,0.45l0.01,0.11
			c0.02,0.2,0.08,0.31,0.17,0.31c0.15-0.14,0.26-0.29,0.35-0.47c0.09-0.18,0.12-0.36,0.1-0.53L60.02,30.53z M61.36,37.08l-0.19,0.05
			l-0.03-0.84c-0.06-0.24-0.13-0.5-0.22-0.76c-0.09-0.26-0.16-0.45-0.2-0.56l-0.17-0.11l0.14-0.15l-0.04-0.5
			c-0.04-0.33-0.12-0.79-0.25-1.37c-0.13-0.5-0.23-0.97-0.28-1.41c-0.17,0.02-0.29,0.14-0.36,0.36s-0.08,0.43-0.06,0.64
			c0.02,0.2,0.06,0.32,0.11,0.35c0.05,0.03,0.07,0.06,0.08,0.09c0.01,0.06-0.01,0.13-0.05,0.21c-0.04,0.08-0.06,0.18-0.04,0.31
			c0.04,0.31,0.13,0.45,0.27,0.43l0.04,0c-0.05,0.07-0.09,0.2-0.12,0.41c-0.03,0.21-0.03,0.4-0.01,0.56
			c0.1-0.01,0.16,0.02,0.17,0.09c0.01,0.06-0.03,0.16-0.12,0.31c-0.09,0.15-0.13,0.23-0.13,0.25c0.02,0.17,0.08,0.33,0.17,0.47
			s0.14,0.23,0.15,0.29c0.01,0.12-0.03,0.28-0.14,0.48c0.02,0.04,0.06,0.11,0.14,0.22c0.07,0.1,0.13,0.15,0.17,0.15
			c0.09-0.01,0.19-0.04,0.31-0.08c0.12-0.04,0.2-0.08,0.24-0.12c-0.05,0.09-0.15,0.2-0.31,0.3c-0.16,0.11-0.27,0.17-0.34,0.2
			c0.08,0.68,0.55,0.98,1.39,0.87c0.04,0.31,0.16,0.45,0.38,0.42c0.07-0.01,0.15-0.04,0.23-0.11s0.14-0.14,0.17-0.23
			c0.03,0,0.05,0,0.07,0.02c0.02,0.02,0.04,0.03,0.07,0.02l0.03,0.24c0.35-0.04,0.64-0.27,0.87-0.68c-0.05-0.17-0.37-0.22-0.97-0.15
			c-0.06,0.01-0.13,0.03-0.2,0.07c-0.08,0.04-0.14,0.08-0.2,0.11c0.01-0.02,0.02-0.05,0.01-0.09c-0.01-0.09-0.1-0.15-0.27-0.2
			c-0.17-0.05-0.3-0.06-0.38-0.05c-0.09,0.01-0.2,0.05-0.35,0.11c-0.15,0.06-0.27,0.1-0.37,0.11c0.02-0.06,0.14-0.15,0.34-0.27
			s0.34-0.2,0.41-0.24l0.02-0.05C61.52,37.13,61.46,37.07,61.36,37.08z M61.04,29c-0.07,0.08-0.14,0.19-0.21,0.35
			c0.07-0.02,0.18-0.09,0.34-0.21c0.16-0.11,0.25-0.21,0.29-0.29l-0.13,0.02C61.21,28.88,61.12,28.93,61.04,29z M62.96,28.83
			l-0.66,0.06l-0.67,0.1c-0.11,0.03-0.27,0.12-0.47,0.29c-0.2,0.17-0.3,0.28-0.29,0.33l0.02,0.17c0.07-0.01,0.2-0.08,0.39-0.22
			s0.32-0.25,0.38-0.31l-0.23,0.45c0.17-0.02,0.42-0.08,0.73-0.18c0.09-0.02,0.19-0.05,0.3-0.08c0.11-0.03,0.25-0.05,0.41-0.07
			L62.96,28.83z M63.53,38.17c-0.07,0.05-0.13,0.12-0.19,0.21c-0.06,0.09-0.08,0.17-0.07,0.24l0.5-0.06
			C63.75,38.33,63.67,38.2,63.53,38.17z"/>
		<path class="st1" d="M68.04,27.94c0.18-0.01,0.27,0.04,0.28,0.15c0,0.04-0.02,0.18-0.07,0.4s-0.08,0.38-0.08,0.47l0.46-0.54
			c0.54-0.41,1.05-0.75,1.53-1.03s0.96-0.43,1.44-0.47c0.05,0.06,0.08,0.23,0.11,0.52c0.01,0.15,0.02,0.38,0.01,0.71
			c0,0.35,0.01,0.63,0.02,0.84c0.01,0.09,0.03,0.2,0.07,0.35c0,0.03-0.05,0.07-0.17,0.11c-0.11,0.05-0.2,0.08-0.26,0.1
			c-0.69,0.26-1.27,0.55-1.74,0.87c-0.48,0.32-0.73,0.73-0.76,1.25l-0.05,0.49c-0.08,0.82-0.12,1.32-0.1,1.51
			c0.04,0.45,0.13,1,0.28,1.63c0.02,0.1,0.07,0.34,0.14,0.71c0.07,0.37,0.12,0.71,0.15,1.04c0.01,0.09,0,0.23-0.01,0.42
			s-0.03,0.38-0.04,0.56l0.14,0.14c-0.01,0.09-0.19,0.17-0.55,0.25c-0.36,0.08-0.62,0.13-0.78,0.14l-0.07,0c-0.06,0-0.1,0-0.13-0.02
			c-0.03-0.02-0.06-0.06-0.08-0.12c-0.04,0.11-0.11,0.19-0.23,0.24c-0.12,0.05-0.24,0.09-0.36,0.09c-0.07-0.01-0.16-0.02-0.26-0.03
			c-0.1-0.01-0.17-0.03-0.21-0.06l-0.26-1.37l-0.73-9.17L68.04,27.94z M66.88,30.61c0.2-0.09,0.4-0.2,0.61-0.35
			c0.21-0.14,0.31-0.24,0.31-0.3l-0.11-1.34c-0.13-0.02-0.34-0.03-0.62-0.04c-0.28-0.01-0.49-0.01-0.62-0.02l0.04,0.44L66.58,29
			c0.01,0.1,0,0.21-0.03,0.31c-0.03,0.11-0.04,0.2-0.03,0.29c0.25-0.02,0.47-0.15,0.68-0.38l-0.63,0.73l0.02,0.29
			c0.03-0.03,0.18-0.22,0.45-0.58c0.27-0.35,0.44-0.53,0.5-0.54C67.56,29.49,67.35,29.99,66.88,30.61z M66.74,31.02
			c-0.07,0.09-0.09,0.24-0.08,0.43l0.04,0.24l0.49-0.83C66.95,30.87,66.8,30.93,66.74,31.02z M66.7,32.81l0.22-0.02l0.37-0.6
			l-0.13,0.01C66.82,32.23,66.67,32.43,66.7,32.81z M67.12,33.44c-0.18,0.07-0.27,0.12-0.26,0.15l0.07,0.83l0.86-1.17l-0.07,0.01
			C67.49,33.31,67.29,33.37,67.12,33.44z M67.06,36.18c0.07-0.08,0.18-0.21,0.34-0.39s0.29-0.34,0.38-0.47
			c0.09-0.13,0.14-0.23,0.13-0.31L67.8,35c-0.26,0.02-0.49,0.09-0.67,0.22c-0.18,0.12-0.26,0.31-0.24,0.56
			C66.9,35.79,66.95,35.93,67.06,36.18z M67.71,32.96c0.24-0.11,0.39-0.2,0.44-0.27c0.04-0.28,0.06-0.47,0.07-0.56
			c0.11-0.77,0.21-1.36,0.3-1.77c0.09-0.4,0.23-0.84,0.45-1.29c-0.37,0.35-0.74,0.79-1.12,1.3s-0.67,0.99-0.87,1.44l0.09-0.01
			l0.99-0.34l0.01,0.11l-0.99,1.45l0.01,0.15C67.26,33.15,67.47,33.08,67.71,32.96z M67.31,34.9c0.25-0.02,0.47-0.12,0.67-0.3
			c0.2-0.18,0.29-0.38,0.27-0.62l-0.01-0.15c-0.02-0.22-0.07-0.38-0.17-0.47c-0.05,0.09-0.19,0.29-0.43,0.61
			c-0.23,0.31-0.42,0.59-0.56,0.84C67.15,34.88,67.22,34.91,67.31,34.9z M67.19,37.26c0.04,0.11,0.07,0.2,0.11,0.27
			c0.2-0.12,0.37-0.29,0.53-0.51c0.16-0.22,0.27-0.44,0.32-0.67c-0.07,0.05-0.14,0.09-0.21,0.12s-0.14,0.06-0.19,0.09
			c-0.42,0.21-0.63,0.35-0.63,0.43C67.13,37.07,67.15,37.16,67.19,37.26z M67.94,35.58c-0.19,0.24-0.34,0.47-0.45,0.7
			c0.42-0.03,0.71-0.1,0.84-0.21c0.14-0.11,0.19-0.34,0.16-0.71c-0.01-0.18-0.07-0.3-0.16-0.38C68.32,35.01,68.19,35.21,67.94,35.58
			z M68.16,37.66c-0.22,0.09-0.35,0.21-0.4,0.36L68.04,38c0.53-0.04,0.78-0.15,0.77-0.33L68.8,37.5
			C68.59,37.52,68.38,37.57,68.16,37.66z M67.85,37.49L68,37.48c0.07-0.01,0.22-0.06,0.44-0.17c0.22-0.11,0.33-0.17,0.33-0.2
			l-0.19-0.67C68.27,36.79,68.02,37.14,67.85,37.49z M69.36,29.91c0.16-0.01,0.29-0.07,0.38-0.17c0.09-0.1,0.14-0.23,0.12-0.37
			l-0.04-0.2l-0.6,0.73L69.36,29.91z M70.62,28.81c0.01,0.1,0.01,0.19,0,0.28c-0.01,0.08-0.01,0.16,0,0.23
			c0.2-0.09,0.35-0.23,0.46-0.41c0.11-0.19,0.16-0.4,0.14-0.63c-0.01-0.12-0.12-0.24-0.34-0.38c-0.22-0.14-0.33-0.23-0.33-0.29
			c0-0.01,0.01-0.04,0.04-0.07c-0.17,0.21-0.26,0.32-0.26,0.33l0.03,0.11c-0.09,0.11-0.24,0.22-0.44,0.32
			c-0.2,0.1-0.34,0.21-0.44,0.32c-0.09,0.11-0.13,0.28-0.11,0.52c0.09-0.02,0.17-0.08,0.24-0.16c0.07-0.09,0.14-0.17,0.19-0.25
			c0.14-0.23,0.29-0.35,0.43-0.37C70.47,28.34,70.6,28.49,70.62,28.81z"/>
		<path class="st1" d="M83.43,31.73c0.22,2.72,0.35,4.52,0.38,5.41c-0.07,0.27-0.24,0.44-0.51,0.52s-0.64,0.13-1.1,0.14
			c-0.31,0.01-0.52-0.04-0.62-0.14c-0.11-0.1-0.16-0.3-0.17-0.59l0-0.64c-0.06,0.05-0.2,0.21-0.43,0.49
			c-0.23,0.28-0.56,0.52-0.99,0.71s-1.03,0.3-1.8,0.33c-1.07,0.03-1.9-0.4-2.5-1.28s-0.96-1.96-1.08-3.22l-0.2-1.62l-0.01-0.29
			c0.15-0.88,0.22-1.38,0.22-1.48c-0.01-0.18-0.03-0.44-0.09-0.79l-0.06-0.7l-0.01-0.22c-0.01-0.22,0.03-0.44,0.1-0.67
			c0.07-0.23,0.21-0.35,0.4-0.35l1.37,0.11c0.1,0,0.18,0.15,0.24,0.44c0.06,0.3,0.09,0.59,0.1,0.87c0.01,0.32,0,0.65-0.02,0.97
			l0.14,0.13l0.05,2.51c0.03,0.88,0.1,1.56,0.23,2.04c0.13,0.48,0.38,0.84,0.73,1.07c0.36,0.23,0.9,0.34,1.62,0.32
			c0.56-0.02,1-0.08,1.34-0.19s0.6-0.35,0.79-0.71l0-0.79c-0.02-0.53-0.07-1.32-0.16-2.37c-0.1-0.88-0.16-1.68-0.18-2.39
			c-0.01-0.28-0.01-0.57-0.01-0.87c0-0.3,0-0.51,0.02-0.63l0.24-0.14l1.52-0.04C83.06,27.66,83.2,29.01,83.43,31.73z M75.06,32.22
			c0.02,0.54,0.08,0.81,0.2,0.81l0.69-0.68l0-0.15L75.06,32.22z M75.42,30.65c-0.12,0.03-0.21,0.12-0.27,0.25
			c-0.06,0.13-0.08,0.35-0.07,0.64c0.23-0.17,0.44-0.35,0.65-0.54c0.2-0.19,0.3-0.33,0.3-0.42C75.75,30.6,75.54,30.62,75.42,30.65z
			 M75.17,30.09c0,0.15,0.05,0.23,0.14,0.24c0.04-0.13,0.11-0.26,0.22-0.37c0.11-0.11,0.17-0.18,0.18-0.19
			c0.14-0.15,0.25-0.27,0.31-0.37c0.06-0.1,0.09-0.22,0.09-0.37c-0.01-0.29-0.05-0.44-0.12-0.45c-0.07,0-0.11-0.02-0.11-0.05
			c0-0.06,0.02-0.17,0.08-0.33c0-0.15-0.28-0.21-0.84-0.2l0.02,0.84l0.12,0.5c0,0.06-0.01,0.15-0.05,0.28
			c-0.03,0.13-0.05,0.25-0.04,0.36L75.17,30.09z M75.15,33.72l1.23-0.04c0.01,0,0.04-0.05,0.07-0.15c0.03-0.1,0.05-0.18,0.05-0.25
			c0-0.18-0.03-0.34-0.08-0.48c-0.02-0.06-0.03-0.12-0.05-0.2c-0.02-0.07-0.03-0.16-0.03-0.26C75.97,32.69,75.57,33.15,75.15,33.72z
			 M76.27,30.91c-0.07,0-0.3,0.16-0.69,0.48c-0.19,0.17-0.31,0.27-0.37,0.3l0,0.13L76,31.91c0.04-0.02,0.1-0.04,0.16-0.08
			c0.06-0.04,0.12-0.06,0.16-0.06l-0.02-0.81C76.3,30.93,76.29,30.91,76.27,30.91z M75.37,34.92c0.04,0.12,0.15,0.17,0.32,0.17
			c0.23-0.01,0.46-0.06,0.67-0.16c0.21-0.1,0.31-0.25,0.31-0.44c0-0.09-0.02-0.15-0.05-0.2c-0.03-0.04-0.1-0.06-0.22-0.06
			c-0.04,0.02-0.13,0.11-0.26,0.27c-0.13,0.17-0.22,0.31-0.27,0.43l-0.27-0.12c0.3-0.36,0.47-0.64,0.5-0.83
			c-0.1,0.02-0.23,0.03-0.38,0.03s-0.26,0.03-0.33,0.08c-0.06,0.05-0.09,0.14-0.09,0.29C75.3,34.62,75.33,34.81,75.37,34.92z
			 M76.07,30.37c0.09-0.05,0.14-0.18,0.13-0.4c0-0.06-0.03-0.18-0.1-0.35c-0.39,0.35-0.6,0.63-0.64,0.83
			C75.78,30.44,75.98,30.41,76.07,30.37z M77,36.92l0.8-0.42l0-0.13l-0.26,0.01l-0.01-0.29l-1.23,0.04l0-0.15l0.29,0.01
			c0.35-0.01,0.52-0.1,0.52-0.28c0-0.04-0.02-0.09-0.05-0.15c-0.03-0.06-0.06-0.1-0.09-0.13l-0.39,0.3c0-0.09,0.02-0.2,0.06-0.33
			c0.04-0.13,0.06-0.25,0.06-0.35c-0.04,0.03-0.17,0.07-0.39,0.13c-0.22,0.06-0.39,0.12-0.51,0.18c-0.12,0.06-0.18,0.15-0.18,0.27
			l0.03,0.13l0.69,0.93C76.66,36.77,76.89,36.85,77,36.92z M81.21,36.27l-0.29-0.01c-0.16,0-0.29,0.02-0.37,0.03
			c-0.09,0.02-0.19,0.06-0.3,0.14l-2.02,0.06c-0.06,0-0.2,0.08-0.42,0.22c-0.22,0.15-0.39,0.26-0.51,0.36
			c0.23,0.17,0.65,0.25,1.28,0.23c0.13,0,0.24-0.02,0.33-0.05c0.09-0.03,0.18-0.11,0.28-0.23l0.01,0.31
			c0.42-0.01,0.74-0.06,0.93-0.16s0.38-0.3,0.54-0.61l0.16,0.13L81.21,36.27z M83.07,35.25c-0.02-0.07-0.05-0.16-0.1-0.26
			c-0.05-0.1-0.08-0.15-0.09-0.15c-0.12,0-0.23,0.06-0.33,0.16s-0.16,0.16-0.17,0.16c0,0.06,0.02,0.11,0.05,0.16
			c0.03,0.05,0.07,0.08,0.11,0.1c-0.13,0.21-0.28,0.38-0.46,0.52c-0.18,0.14-0.31,0.21-0.38,0.21c0,0.09,0.03,0.15,0.07,0.17
			s0.07,0.05,0.09,0.06l0.8-0.57l-0.01-0.35c0.06,0,0.12,0.01,0.18,0.04c0.06,0.03,0.1,0.04,0.13,0.04
			C83.04,35.54,83.07,35.44,83.07,35.25z M82.2,29.42c0,0.03-0.06,0.11-0.18,0.25c-0.12,0.14-0.18,0.27-0.18,0.4
			c0,0.03,0.01,0.07,0.04,0.12s0.06,0.08,0.1,0.07c0.32-0.2,0.51-0.38,0.57-0.56c0.06-0.17,0.08-0.5,0.07-1
			c0-0.16-0.03-0.29-0.08-0.37c-0.05-0.09-0.14-0.13-0.29-0.12l-0.33,0.03l-0.1,1.02C82.07,29.31,82.19,29.36,82.2,29.42z M82,31.01
			c-0.1,0.06-0.15,0.11-0.15,0.14c0,0.07,0.03,0.15,0.07,0.24c0.05,0.09,0.1,0.13,0.16,0.13c0.18-0.01,0.34-0.17,0.49-0.5
			c0.15-0.33,0.23-0.59,0.22-0.78c0-0.04-0.02-0.09-0.06-0.15S82.66,30,82.63,30l-0.64,0.68l-0.02,0.04c0,0.06,0.03,0.11,0.09,0.14
			c0.06,0.04,0.13,0.05,0.2,0.05C82.19,30.92,82.1,30.95,82,31.01z M82.22,32.27c0.05,0.09,0.13,0.14,0.23,0.14
			c-0.21,0.01-0.33,0.1-0.37,0.3c-0.04,0.19-0.05,0.43-0.04,0.73c0.22-0.01,0.4-0.1,0.55-0.28c0.15-0.18,0.22-0.38,0.21-0.6
			l-0.24,0.01c0.11-0.09,0.18-0.24,0.19-0.46c0.01-0.21,0.01-0.47,0-0.76c-0.19,0.01-0.34,0.08-0.46,0.23
			c-0.11,0.15-0.17,0.32-0.16,0.51C82.14,32.12,82.17,32.18,82.22,32.27z M82.99,37.01l0-0.11l-0.92,0.18l0.2,0.19L82.99,37.01z
			 M83.1,36.31c0-0.13-0.02-0.23-0.04-0.3s-0.07-0.1-0.15-0.09c-0.16,0-0.32,0.09-0.49,0.26c-0.16,0.17-0.25,0.32-0.26,0.47
			l0.37,0.01C82.92,36.64,83.1,36.53,83.1,36.31z M82.21,34.46l0,0.15c0,0.16,0.06,0.25,0.16,0.26c0.27-0.29,0.41-0.44,0.4-0.47
			c0-0.04-0.05-0.09-0.16-0.14c-0.1-0.05-0.19-0.07-0.27-0.07C82.25,34.2,82.2,34.29,82.21,34.46z M82.83,33.84
			c0.07-0.07,0.1-0.24,0.1-0.52c-0.15,0-0.28,0.07-0.41,0.2c-0.13,0.13-0.19,0.27-0.19,0.43C82.59,33.94,82.76,33.91,82.83,33.84z"
			/>
		<path class="st1" d="M86.82,33.95c-0.04-0.25-0.06-0.57-0.05-0.97c0.03-1.13,0.27-2.11,0.74-2.94c0.46-0.83,1.09-1.46,1.9-1.9
			c0.8-0.43,1.73-0.64,2.77-0.61l0.48,0.03l-0.29,0.12c0.04,0,0.22-0.02,0.53-0.05c0.16-0.04,0.32-0.06,0.46-0.05
			c0.97,0.03,1.54,0.17,1.73,0.42l0.01,0.57c0,0.18-0.04,0.42-0.11,0.75c-0.08,0.26-0.12,0.52-0.13,0.77
			c-0.63-0.02-1.34-0.28-2.11-0.78l-1.89-0.05c-0.13,0-0.32,0.11-0.56,0.33c-0.24,0.22-0.47,0.49-0.69,0.81
			c-0.22,0.32-0.36,0.61-0.43,0.87c-0.02,0.09-0.05,0.26-0.09,0.51c-0.04,0.26-0.12,0.45-0.22,0.58c0.12,0.87,0.32,1.55,0.57,2.04
			c0.26,0.49,0.72,0.96,1.38,1.4l0,0.15c0.15,0,0.34,0.02,0.57,0.06c0.2,0.05,0.39,0.08,0.57,0.08c0.53,0.01,1.01-0.01,1.44-0.07
			c0.43-0.06,0.84-0.2,1.23-0.41c0.03,0.12,0.1,0.36,0.21,0.73C94.95,36.7,95,36.99,95,37.2c-0.01,0.25-0.15,0.41-0.44,0.48
			c-0.29,0.07-0.68,0.1-1.18,0.09c-0.89-0.02-1.69-0.08-2.38-0.16c-0.69-0.08-1.37-0.29-2.02-0.6c-0.65-0.32-1.12-0.8-1.42-1.43
			c-0.03-0.06-0.05-0.15-0.07-0.28c-0.02-0.12-0.05-0.22-0.08-0.29c-0.03-0.07-0.12-0.11-0.25-0.13
			C86.97,34.51,86.86,34.2,86.82,33.95z M87.77,34.5c0.2,0.53,0.35,0.8,0.45,0.8l0.56-0.38l0.02-0.07c0.01-0.23-0.06-0.55-0.18-0.94
			s-0.28-0.66-0.45-0.79l0.11-0.11c-0.01-0.06-0.02-0.15-0.01-0.29c0.01-0.57,0.12-1.21,0.31-1.91s0.4-1.05,0.62-1.04
			c0.15-0.32,0.33-0.56,0.54-0.71s0.41-0.26,0.61-0.3c0.21-0.05,0.49-0.09,0.84-0.12c0.6-0.01,1.08-0.11,1.44-0.29
			c-0.07-0.02-0.16-0.04-0.27-0.07s-0.2-0.05-0.27-0.05c-0.38-0.01-0.86,0.06-1.45,0.2c-0.58,0.15-1.05,0.32-1.41,0.51
			c-0.36,0.2-0.74,0.73-1.14,1.6c-0.09,0.23-0.24,0.74-0.44,1.53c-0.18,0.69-0.28,1.03-0.31,1.03C87.43,33.5,87.57,33.97,87.77,34.5
			z M88.78,35.74c0.13,0,0.23-0.02,0.29-0.08c0.06-0.06,0.14-0.17,0.23-0.32c0-0.03-0.03-0.07-0.08-0.13
			c-0.06-0.06-0.11-0.1-0.15-0.11L89,35.06c-0.09,0-0.2,0.07-0.32,0.21c-0.13,0.14-0.19,0.23-0.19,0.26
			C88.48,35.66,88.58,35.73,88.78,35.74z M89.58,36.44c0.12,0,0.21-0.02,0.28-0.08c0.07-0.06,0.15-0.16,0.26-0.32
			c-0.01-0.07-0.04-0.12-0.08-0.13s-0.11-0.02-0.2-0.03c-0.15,0-0.3,0.02-0.45,0.08c-0.16,0.06-0.23,0.14-0.24,0.26
			C89.14,36.35,89.29,36.43,89.58,36.44z M90.24,36.8c0.09,0.04,0.18,0.06,0.25,0.06c0.04,0,0.1-0.01,0.17-0.04
			c0.07-0.03,0.11-0.06,0.12-0.08c0-0.12-0.01-0.19-0.05-0.23c-0.04-0.04-0.1-0.06-0.21-0.06c-0.28-0.01-0.42,0.06-0.42,0.21
			C90.1,36.71,90.15,36.76,90.24,36.8z M91.23,36.7c-0.1,0.04-0.15,0.1-0.17,0.17l0.9,0.11c-0.01-0.07-0.08-0.15-0.19-0.23
			c-0.12-0.08-0.2-0.12-0.26-0.12C91.42,36.64,91.33,36.66,91.23,36.7z M92.31,36.96c0.04,0.05,0.08,0.08,0.14,0.08
			c0.09,0,0.18-0.02,0.28-0.07s0.17-0.11,0.21-0.18l-0.68-0.02C92.25,36.85,92.27,36.91,92.31,36.96z M93.58,36.7
			c-0.15,0.07-0.27,0.19-0.36,0.36l0.2,0.03c0.22,0.01,0.39-0.03,0.52-0.1s0.19-0.21,0.2-0.41C93.91,36.59,93.73,36.63,93.58,36.7z
			 M93.23,28.79l0.85,0.29l0.01-0.57l-0.46-0.08C93.37,28.58,93.24,28.7,93.23,28.79z"/>
		<path class="st1" d="M103.56,27.66c0.08,0.07,0.11,0.13,0.11,0.17l-0.12,1.62l-0.16,0.12c-0.1-0.01-0.45-0.03-1.04-0.07
			c-0.59-0.04-1.15-0.04-1.67,0.01l0.01,0.16c-0.01,0.19-0.08,0.42-0.2,0.69c-0.11,0.29-0.17,0.5-0.18,0.63
			c0,0.03,0.01,0.06,0.05,0.1c0.03,0.04,0.06,0.06,0.07,0.06l-0.16,2.28c0.09,0.11,0.13,0.34,0.1,0.69l-0.06,0.55
			c0.07,0.02,0.1,0.19,0.09,0.52c-0.01,0.33,0.08,0.63,0.28,0.91c0.19,0.28,0.61,0.47,1.25,0.57c0.04,0,0.15,0.02,0.31,0.06
			c0.16,0.03,0.28,0.09,0.36,0.18c0.08,0.09,0.12,0.21,0.11,0.37c-0.02,0.26-0.06,0.46-0.11,0.59c-0.05,0.13-0.15,0.28-0.28,0.47
			l-0.25,0.38c-0.25-0.03-0.52-0.1-0.82-0.21c-0.3-0.11-0.59-0.22-0.86-0.33c-0.69-0.28-1.18-0.44-1.49-0.48
			c-0.29-0.02-0.46-0.35-0.51-1c-0.05-0.64-0.05-1.26-0.01-1.84c0.03-0.41,0.09-0.79,0.19-1.16c0.02-0.1,0.04-0.22,0.07-0.35
			c0.02-0.13,0.04-0.28,0.05-0.44c0.05-0.7,0.04-1.89-0.03-3.55c-0.13-0.02-0.26-0.06-0.38-0.09c-0.12-0.04-0.23-0.07-0.31-0.09
			c-0.37-0.13-0.64-0.2-0.8-0.21c-0.07-0.01-0.15-0.12-0.24-0.34c-0.09-0.22-0.13-0.4-0.12-0.53c0.02-0.29,0.13-0.48,0.33-0.55
			c0.2-0.07,0.47-0.11,0.82-0.1c0.19,0.01,0.33,0.01,0.42,0s0.14-0.06,0.16-0.13c0.02-0.34,0.08-0.69,0.15-1.07
			c0.08-0.38,0.16-0.6,0.24-0.67c0.18,0.09,0.26,0.44,0.21,1.05l-0.06,0.59l0.12,0.14c0.03-0.01,0.2-0.08,0.52-0.21
			c0.32-0.12,0.48-0.24,0.49-0.36l-0.01-0.18c0-0.04,0.04-0.2,0.1-0.48c0.06-0.27,0.1-0.48,0.11-0.61l-0.04,0
			c-0.07-0.01-0.26,0.05-0.56,0.17c-0.3,0.12-0.47,0.18-0.5,0.17c0.08-0.07,0.27-0.19,0.58-0.38c-0.29-0.08-0.51-0.18-0.66-0.31
			c0.14-0.09,0.28-0.15,0.42-0.18c0.14-0.03,0.32-0.04,0.52-0.04c0.26,0.02,0.5,0,0.71-0.06c0,0.06,0.03,0.13,0.12,0.22
			c0.08,0.09,0.12,0.15,0.12,0.2c-0.02,0.06-0.05,0.14-0.08,0.25c-0.04,0.11-0.07,0.2-0.09,0.29c-0.04,0.5-0.01,0.87,0.08,1.11
			c0.09,0.24,0.23,0.4,0.44,0.47c0.21,0.07,0.54,0.13,0.99,0.16c0.1,0.01,0.25,0,0.44-0.03s0.36-0.04,0.49-0.03
			C103.42,27.55,103.48,27.59,103.56,27.66z M100.79,28.03c-0.1-0.05-0.23-0.19-0.39-0.4c-0.01-0.02-0.06-0.07-0.13-0.17
			c-0.07-0.1-0.15-0.15-0.22-0.16c-0.21-0.01-0.31,0.07-0.33,0.26l0.15,0.01c-0.13,0.18-0.36,0.31-0.69,0.39
			c-0.33,0.08-0.72,0.14-1.18,0.18c-0.16,0.02-0.31,0.04-0.43,0.06s-0.19,0.05-0.19,0.07c-0.01,0.09,0.15,0.18,0.48,0.28
			c0.32,0.1,0.56,0.15,0.71,0.16l1.3-0.88l0.29,0.02l-0.75,0.63l-0.01,0.13L100.79,28.03z M99.94,36.15l-0.2,0.01l0.13-0.83
			c-0.01-0.25-0.04-0.51-0.08-0.79s-0.07-0.47-0.09-0.59l-0.14-0.14l0.16-0.12l0.06-0.5c0.02-0.34,0.03-0.8,0.01-1.39
			c-0.04-0.52-0.04-1-0.01-1.43c-0.18-0.01-0.31,0.08-0.42,0.29c-0.1,0.21-0.16,0.41-0.18,0.62c-0.01,0.21,0,0.33,0.04,0.37
			c0.04,0.04,0.06,0.07,0.06,0.1c0,0.06-0.03,0.12-0.09,0.19c-0.06,0.07-0.09,0.17-0.1,0.3c-0.02,0.31,0.04,0.47,0.19,0.48l0.04,0
			c-0.06,0.05-0.13,0.18-0.19,0.38s-0.1,0.38-0.12,0.54c0.1,0.01,0.15,0.05,0.15,0.12c0,0.06-0.06,0.15-0.17,0.29
			s-0.17,0.2-0.17,0.22c-0.01,0.18,0.01,0.34,0.08,0.49c0.06,0.15,0.09,0.26,0.09,0.31c-0.01,0.12-0.08,0.27-0.23,0.45
			c0.01,0.04,0.04,0.12,0.09,0.24c0.05,0.11,0.1,0.17,0.14,0.18c0.09,0.01,0.19,0,0.32-0.02c0.13-0.02,0.21-0.04,0.26-0.07
			c-0.06,0.08-0.18,0.16-0.36,0.24s-0.3,0.12-0.37,0.13c-0.05,0.69,0.35,1.06,1.2,1.12c-0.02,0.31,0.08,0.47,0.3,0.48
			c0.07,0.01,0.16-0.01,0.25-0.06c0.09-0.04,0.16-0.11,0.21-0.19c0.03,0,0.05,0.01,0.06,0.04c0.01,0.02,0.03,0.04,0.06,0.04
			l-0.02,0.24c0.35,0.02,0.68-0.14,0.98-0.5c-0.02-0.18-0.33-0.29-0.92-0.33c-0.06,0-0.13,0.01-0.21,0.03
			c-0.08,0.02-0.15,0.05-0.21,0.07c0.02-0.01,0.03-0.04,0.03-0.09c0.01-0.09-0.07-0.17-0.22-0.25c-0.16-0.08-0.28-0.12-0.37-0.13
			s-0.21,0.01-0.37,0.04c-0.16,0.03-0.29,0.05-0.39,0.04c0.03-0.06,0.16-0.12,0.39-0.2c0.23-0.08,0.38-0.13,0.45-0.16l0.02-0.04
			C100.09,36.23,100.04,36.16,99.94,36.15z M100.19,28.67l0.01-0.13c-0.08,0.04-0.15,0.07-0.22,0.11c-0.07,0.03-0.13,0.07-0.2,0.11
			c-0.49,0.2-0.73,0.37-0.74,0.52l0.29,0.02L100.19,28.67z M99.87,29.46c-0.18-0.01-0.34,0.05-0.49,0.2
			c-0.15,0.14-0.23,0.28-0.24,0.41l-0.01,0.11c-0.01,0.21,0.02,0.32,0.11,0.34c0.17-0.1,0.31-0.24,0.44-0.4
			c0.12-0.16,0.19-0.33,0.2-0.5L99.87,29.46z M103.08,28.35l-0.66-0.07l-0.68-0.03c-0.12,0.01-0.29,0.07-0.52,0.19
			c-0.23,0.12-0.35,0.21-0.35,0.27l-0.01,0.18c0.07,0.01,0.22-0.04,0.43-0.15c0.21-0.1,0.36-0.18,0.44-0.23l-0.31,0.4
			c0.18,0.01,0.43,0,0.75-0.03c0.09-0.01,0.19-0.02,0.31-0.02c0.12-0.01,0.26,0,0.42,0.01L103.08,28.35z M101.16,28.15
			c-0.09,0.06-0.18,0.16-0.27,0.3c0.07-0.01,0.2-0.06,0.37-0.14c0.17-0.08,0.29-0.16,0.34-0.23l-0.13-0.01
			C101.35,28.07,101.25,28.09,101.16,28.15z M101.86,37.63c-0.08,0.04-0.15,0.1-0.22,0.17c-0.07,0.08-0.11,0.15-0.12,0.22l0.5,0.04
			C102.05,37.83,101.99,37.69,101.86,37.63z"/>
		<path class="st1" d="M105.52,37.98c-0.09-0.16-0.14-0.3-0.15-0.44c-0.11-0.87-0.15-1.77-0.11-2.7c0.04-0.93,0.13-2.03,0.26-3.3
			l0.07-0.7c0.1-0.92,0.25-1.61,0.46-2.07c0.21-0.46,0.59-0.67,1.13-0.61c0.54,0.06,0.88,0.33,1.03,0.81
			c0.15,0.48,0.18,1.09,0.1,1.81c-0.09,0.8-0.24,1.68-0.46,2.63c-0.18,0.73-0.3,1.38-0.36,1.95c-0.04,0.36-0.07,0.9-0.08,1.61
			c0,0.18-0.01,0.39-0.02,0.64c-0.01,0.25-0.04,0.54-0.07,0.88c-0.02,0.23-0.13,0.34-0.32,0.32c-0.17-0.05-0.39-0.12-0.65-0.2
			c-0.26-0.09-0.49-0.16-0.67-0.23C105.66,38.27,105.61,38.14,105.52,37.98z M106.11,37.79c0.18,0.06,0.39,0.1,0.64,0.12
			c0.01-0.13-0.01-0.25-0.08-0.35s-0.1-0.16-0.1-0.18c0.18-0.07,0.31-0.42,0.38-1.04l-0.33-0.03c-0.03,0-0.15,0.1-0.35,0.32
			c-0.21,0.21-0.31,0.35-0.32,0.41l0,0.02l0.59,0.06l-0.74,0.34C105.82,37.62,105.93,37.73,106.11,37.79z M105.94,36.38
			c0.02,0.05,0.05,0.1,0.07,0.13l0.62-0.46L106.42,36c-0.28-0.03-0.45,0.05-0.51,0.23C105.9,36.27,105.91,36.32,105.94,36.38z
			 M106.02,35.16l0.76-0.47l0.01-0.13c-0.56,0.01-0.85,0.12-0.87,0.3C105.9,35.05,105.94,35.15,106.02,35.16z M106.23,33.41
			c-0.19,0.1-0.29,0.23-0.31,0.41c0.16,0.02,0.34-0.03,0.54-0.13c0.2-0.1,0.31-0.24,0.33-0.4
			C106.61,33.27,106.42,33.31,106.23,33.41z M106.74,35.59c0.15-0.13,0.25-0.38,0.29-0.74l-0.15-0.02l-0.9,0.72l-0.02,0.17
			C106.33,35.77,106.59,35.72,106.74,35.59z M106.64,33.83c-0.28,0.21-0.5,0.37-0.66,0.5l1.07,0.11c0.09,0.01,0.15-0.08,0.19-0.26
			c0.04-0.18,0.08-0.41,0.11-0.69l-0.2-0.02C107.09,33.51,106.92,33.63,106.64,33.83z M106.15,32.52l0,0.22l0.61-0.51l-0.13-0.04
			C106.34,32.16,106.18,32.27,106.15,32.52z M106.2,31.56c0.03,0.04,0.06,0.06,0.07,0.06c0.34-0.14,0.68-0.37,1.02-0.69l-0.19-0.04
			c-0.23-0.02-0.44,0.01-0.63,0.1c-0.19,0.09-0.29,0.25-0.31,0.46C106.15,31.49,106.16,31.52,106.2,31.56z M106.28,30.1
			c0,0.03,0.01,0.06,0.04,0.1c0.03,0.04,0.06,0.06,0.09,0.07c0.13,0.01,0.3-0.07,0.51-0.24c0.21-0.18,0.34-0.28,0.39-0.32
			l-0.09-0.01c-0.12-0.01-0.3,0.01-0.54,0.05c-0.24,0.05-0.37,0.16-0.39,0.33L106.28,30.1z M106.85,29.52
			c0.58,0.06,0.88,0.01,0.9-0.17c0.02-0.17,0.01-0.29-0.02-0.36s-0.1-0.1-0.2-0.11c-0.03,0-0.1,0.02-0.21,0.06
			c-0.11,0.04-0.18,0.06-0.23,0.05c-0.03,0-0.06-0.03-0.1-0.09c-0.04-0.06-0.09-0.09-0.17-0.1c-0.1-0.01-0.18,0-0.24,0.03
			c-0.06,0.03-0.12,0.1-0.19,0.21c0.1,0.13,0.21,0.2,0.31,0.21l0.07-0.01l-0.16,0.25L106.85,29.52z M107.43,23.88
			c0.3-0.01,0.54,0,0.75,0.02c0.12,0.01,0.25,0.06,0.42,0.14c0.16,0.08,0.24,0.15,0.23,0.21l-0.17,1.62
			c-0.02,0.19-0.16,0.27-0.42,0.24c-0.35-0.04-0.73-0.11-1.14-0.21c-0.41-0.1-0.61-0.23-0.59-0.39l0.15-1.38l0.31-0.21
			C106.97,23.9,107.13,23.89,107.43,23.88z M106.5,30.67c0.21-0.05,0.45-0.06,0.71-0.03c0.13,0.01,0.23,0.01,0.29-0.01
			s0.11-0.1,0.15-0.22s0.07-0.33,0.1-0.62C107.37,29.75,106.95,30.04,106.5,30.67z M107.62,32.19l-0.18-0.02l-0.9,0.72l-0.02,0.15
			C107.19,33.12,107.55,32.83,107.62,32.19z M106.67,31.8l0.19,0.04c0.1,0.01,0.23,0.01,0.39,0.01c0.16-0.01,0.24-0.04,0.24-0.1
			l0.07-0.66C107.15,31.26,106.85,31.49,106.67,31.8z M107.14,24.93c0.04,0.16,0.13,0.25,0.26,0.26c0.26,0.03,0.45,0.03,0.56-0.01
			c0.11-0.03,0.18-0.14,0.2-0.31c0.01-0.07-0.01-0.17-0.06-0.29c-0.04,0.01-0.1,0.03-0.17,0.07c-0.07,0.04-0.15,0.05-0.24,0.04
			l0.17-0.14l-0.77-0.08C107.08,24.62,107.09,24.78,107.14,24.93z"/>
		<path class="st1" d="M120.35,32.85c0.32,0.97,0.38,2.11,0.17,3.41l-0.13,0.71c-0.04,0.07-0.1,0.12-0.19,0.15s-0.15,0.06-0.21,0.1
			c-0.05,0.04-0.08,0.11-0.1,0.23c-0.01,0.06-0.01,0.11,0,0.17c0.01,0.05,0.04,0.1,0.09,0.14c-0.09-0.01-0.16,0.03-0.23,0.13
			c-0.07,0.1-0.17,0.28-0.32,0.54c-0.18,0.39-0.33,0.62-0.46,0.69c-0.89,0.47-1.8,0.77-2.74,0.89c-0.94,0.12-1.95,0.1-3.04-0.07
			l-1.53-1.33c-0.25-0.04-0.44-0.15-0.57-0.33c-0.14-0.18-0.26-0.45-0.37-0.79c-0.08-0.17-0.16-0.35-0.25-0.54
			c-0.09-0.18-0.19-0.33-0.31-0.44c-0.13-0.52-0.19-1.06-0.18-1.6c0.01-0.54,0.07-1.14,0.17-1.81l1.18-2.18
			c0.02-0.03,0.23-0.19,0.62-0.48c0.39-0.3,0.74-0.55,1.04-0.75c0.45-0.29,0.98-0.5,1.59-0.64c0.62-0.14,1.18-0.17,1.71-0.09
			c0.38,0.06,0.75,0.19,1.13,0.4c0.38,0.21,0.72,0.45,1.03,0.74C119.4,30.96,120.03,31.89,120.35,32.85z M111.24,34.82
			c0.34-0.1,0.52-0.23,0.55-0.37l-0.98-0.15c-0.15-0.02-0.25,0.19-0.32,0.64C110.65,34.96,110.9,34.92,111.24,34.82z M110.94,32.96
			c-0.13,0.1-0.21,0.27-0.25,0.52c0.19,0.03,0.38,0.01,0.57-0.07c0.19-0.07,0.41-0.18,0.65-0.32c0.02-0.1-0.08-0.17-0.3-0.2
			c-0.03,0-0.05,0-0.07,0s-0.03,0.01-0.04,0c-0.01,0-0.02-0.01-0.02-0.02C111.24,32.83,111.06,32.86,110.94,32.96z M110.76,36.2
			c0.03-0.01,0.11-0.05,0.25-0.11c0.14-0.06,0.25-0.13,0.34-0.21c0.09-0.08,0.15-0.17,0.16-0.28l-0.24-0.06
			c-0.07-0.01-0.19-0.02-0.34-0.02s-0.24,0.03-0.25,0.11L110.76,36.2z M112.11,33.67c0.04-0.25,0.06-0.38,0.06-0.41
			c-0.07,0.05-0.16,0.09-0.29,0.13c-0.12,0.04-0.21,0.07-0.26,0.09c-0.42,0.11-0.67,0.24-0.75,0.37l1.04,0.16
			C112.01,34.04,112.07,33.92,112.11,33.67z M110.96,36.63c0.27,0,0.6-0.09,1-0.25c0.02-0.12,0.02-0.22-0.01-0.31
			c-0.02-0.09-0.06-0.14-0.12-0.15l-0.07,0.01l-0.78,0.57L110.96,36.63z M111.57,34.93c-0.23,0.07-0.39,0.14-0.49,0.21l0.63,0.25
			c0.06,0.01,0.11-0.05,0.17-0.16c0.05-0.12,0.09-0.25,0.12-0.39C111.94,34.83,111.79,34.86,111.57,34.93z M111.55,37.73
			c0.16,0.02,0.34-0.01,0.53-0.11c0.19-0.1,0.3-0.22,0.33-0.38c-0.23-0.04-0.39,0-0.46,0.11l0.1-0.67l-0.84,0.27L111.19,37
			l-0.01,0.09C111.31,37.5,111.43,37.71,111.55,37.73z M111.48,31.8c-0.09,0.18-0.14,0.36-0.17,0.53c0.25,0.04,0.5,0.03,0.76-0.04
			c0.26-0.06,0.45-0.18,0.56-0.34c-0.21-0.21-0.47-0.34-0.81-0.39C111.69,31.54,111.57,31.62,111.48,31.8z M112.35,38.31
			c0.08-0.02,0.16-0.08,0.25-0.17l-0.07,0.43c0.17,0.03,0.35,0.02,0.52-0.03c0.17-0.05,0.27-0.14,0.29-0.29
			c0.02-0.1-0.07-0.21-0.25-0.33c-0.18-0.12-0.32-0.18-0.43-0.2l-0.06-0.01l-0.87,0.13c-0.02,0.12,0.01,0.22,0.07,0.31
			c0.07,0.09,0.16,0.15,0.27,0.16C112.18,38.34,112.27,38.33,112.35,38.31z M112.45,32.68c0.09-0.05,0.17-0.14,0.26-0.29l-0.06-0.03
			c-0.09-0.01-0.2,0.02-0.35,0.1c-0.15,0.08-0.23,0.17-0.24,0.25C112.23,32.73,112.36,32.73,112.45,32.68z M112.33,30.99
			c-0.14,0.1-0.22,0.18-0.25,0.25c-0.03,0.17,0.08,0.28,0.33,0.32c0.09,0.01,0.19,0.03,0.32,0.04c0.12,0.01,0.21,0.01,0.26,0.01
			l0.21-0.52l-0.59-0.22C112.57,30.85,112.47,30.9,112.33,30.99z M115.01,31.18c-0.36,0.12-0.77,0.35-1.24,0.68
			c-0.1,0.06-0.18,0.2-0.24,0.43c-0.03,0.13-0.07,0.23-0.11,0.29c-0.04,0.07-0.1,0.12-0.18,0.15c-0.08,0.12-0.2,0.4-0.37,0.82
			c-0.17,0.43-0.27,0.71-0.31,0.85c-0.03,0.08-0.05,0.2-0.08,0.34c-0.19,1.22,0.3,2.23,1.47,3.03l1.02,0.2
			c0.87,0.13,1.56,0.1,2.08-0.1c0.51-0.2,0.9-0.56,1.17-1.07c0.26-0.51,0.46-1.2,0.6-2.07c0.04-0.23,0.03-0.59-0.02-1.06
			c-0.05-0.48-0.12-0.84-0.2-1.09c-0.38-0.15-0.69-0.51-0.92-1.1c-0.16-0.02-0.38-0.09-0.66-0.19c-0.31-0.11-0.54-0.17-0.7-0.2
			C115.79,31.04,115.37,31.06,115.01,31.18z M113.59,38.51c-0.16-0.02-0.31,0.01-0.45,0.1s-0.22,0.21-0.24,0.35
			C113.3,39.02,113.53,38.87,113.59,38.51z M113.13,30.59c-0.14,0.06-0.21,0.13-0.22,0.22l0.3,0.05c0.46,0.07,0.71,0.04,0.73-0.09
			l-0.35-0.32c0-0.03,0.02-0.06,0.06-0.08c0.03-0.02,0.06-0.03,0.09-0.03c0.1,0.02,0.22,0.06,0.37,0.14
			c0.14,0.07,0.25,0.12,0.3,0.12c0.12,0.02,0.23,0,0.34-0.06c0.11-0.06,0.24-0.14,0.37-0.25c0.21-0.18,0.4-0.28,0.58-0.31l-0.2-0.03
			l-0.15-0.02c-0.09-0.01-0.15-0.03-0.19-0.06c-0.04-0.03-0.08-0.08-0.11-0.14c-0.13-0.02-0.27-0.01-0.42,0.04
			c-0.15,0.04-0.33,0.12-0.54,0.24c-0.32,0.16-0.58,0.25-0.78,0.28c0.02,0.05,0.03,0.09,0.02,0.14
			C113.34,30.47,113.26,30.53,113.13,30.59z M113.95,38.77c0.14,0.02,0.28-0.01,0.41-0.09l-0.19-0.05l-0.09-0.01
			c-0.15-0.02-0.24,0.02-0.28,0.11L113.95,38.77z M118.06,38.67c-0.06-0.01-0.19-0.03-0.38-0.06c-0.2-0.03-0.37-0.03-0.53,0
			s-0.31,0.08-0.46,0.16c-0.19,0.1-0.3,0.15-0.31,0.15l-1.74-0.27l-0.46,0.37c0.17,0.12,0.34,0.2,0.5,0.24s0.35,0.09,0.58,0.12
			c0.28,0.04,0.62,0.02,1.04-0.06c0.42-0.08,0.81-0.18,1.18-0.3s0.55-0.19,0.56-0.21L118.06,38.67z M115.7,39.84l-0.13-0.04
			c-0.09-0.01-0.15-0.01-0.2,0s-0.08,0.06-0.11,0.13L115.7,39.84z M116.66,30.19c-0.17,0.12-0.29,0.21-0.34,0.28l0.53,0.19
			c0.56,0.19,0.91,0.3,1.04,0.32c0.07,0.01,0.14,0.01,0.2,0.01c0.06-0.01,0.14-0.03,0.23-0.08c-0.12-0.21-0.31-0.4-0.59-0.58
			c-0.28-0.18-0.52-0.28-0.74-0.32C116.95,30.01,116.84,30.07,116.66,30.19z M117.01,39.63c0.04-0.02,0.07-0.07,0.1-0.15l-0.44,0.11
			l0.15,0.05C116.9,39.65,116.97,39.64,117.01,39.63z M118.55,38.42c0.27-0.04,0.42-0.18,0.45-0.41c0.01-0.09-0.1-0.15-0.35-0.19
			c-0.19-0.03-0.38,0.02-0.57,0.14s-0.3,0.27-0.33,0.46C118.02,38.46,118.29,38.46,118.55,38.42z M118.09,31.15
			c-0.02,0.1,0.04,0.19,0.16,0.26c0.12,0.07,0.25,0.12,0.38,0.14l0.05-0.3L118.09,31.15z M118.4,39.17l-0.04-0.01
			c-0.12-0.02-0.2,0.01-0.26,0.09L118.4,39.17z M119.32,37.54c0.13-0.08,0.21-0.21,0.24-0.4l-0.61-0.09
			c-0.02,0.1-0.06,0.2-0.15,0.29c-0.08,0.09-0.18,0.16-0.29,0.2l0.34,0.08C119.04,37.64,119.19,37.61,119.32,37.54z M118.78,31.6
			c-0.05,0.06-0.08,0.13-0.09,0.2c-0.03,0.22,0.04,0.37,0.22,0.46c0.03-0.01,0.11-0.04,0.22-0.08c0.12-0.04,0.2-0.09,0.23-0.14
			c-0.05-0.07-0.13-0.17-0.23-0.3c-0.11-0.13-0.17-0.2-0.18-0.21C118.89,31.52,118.83,31.54,118.78,31.6z M119.03,32.38l-0.03,0.2
			c0.25,0.04,0.39-0.01,0.44-0.13L119.03,32.38z M119.93,36.37c0.02-0.15-0.02-0.24-0.12-0.3c-0.1-0.05-0.26-0.1-0.46-0.13
			c-0.02,0.15-0.08,0.29-0.17,0.42c-0.09,0.13-0.14,0.28-0.17,0.44C119.56,36.9,119.87,36.75,119.93,36.37z M119.75,32.93
			c-0.03-0.1-0.09-0.16-0.2-0.18c-0.2-0.03-0.31,0.02-0.33,0.15c-0.03,0.19,0.15,0.31,0.54,0.37
			C119.78,33.15,119.78,33.03,119.75,32.93z M119.89,34.85l-0.63,0.48c0.04,0.11,0.13,0.2,0.27,0.26c0.14,0.07,0.28,0.11,0.42,0.13
			C120.05,35.17,120.02,34.88,119.89,34.85z M120.04,34.13c-0.04-0.15-0.11-0.23-0.2-0.24c-0.23-0.04-0.36,0.03-0.39,0.21
			c-0.01,0.07,0,0.16,0.04,0.26s0.05,0.17,0.04,0.22l0,0.02c-0.01,0.04-0.03,0.08-0.07,0.12c-0.04,0.04-0.08,0.05-0.11,0.05
			l0.08,0.04c0.03,0,0.09-0.03,0.19-0.09c0.1-0.07,0.16-0.1,0.2-0.11c0.06,0.01,0.12,0,0.17-0.03c0.06-0.03,0.09-0.06,0.09-0.09
			C120.1,34.4,120.08,34.28,120.04,34.13z M119.6,33.66c0.08-0.06,0.12-0.12,0.13-0.19l-0.3-0.05l-0.05,0.3
			C119.45,33.74,119.52,33.72,119.6,33.66z"/>
		<path class="st1" d="M129.64,41.97l0.19-0.72c0.18-0.65,0.3-1.14,0.38-1.47c0.34-1.53,0.5-2.91,0.46-4.14
			c-0.16-0.22-0.3-0.42-0.4-0.61c-0.15-0.26-0.31-0.45-0.48-0.58c-0.17-0.13-0.47-0.24-0.92-0.34c-0.31-0.07-0.63-0.09-0.95-0.07
			c-0.32,0.03-0.74,0.12-1.26,0.29c-0.19,0.06-0.34,0.19-0.45,0.38c-0.1,0.19-0.19,0.45-0.26,0.76c-0.17,0.77-0.3,1.39-0.37,1.84
			c-0.07,0.46-0.08,0.9-0.03,1.33l-0.62,2.77c-0.02,0.09-0.09,0.11-0.22,0.08c-0.42-0.12-0.81-0.24-1.16-0.35
			c-0.35-0.11-0.55-0.17-0.59-0.18l-0.35-0.35c-0.01-0.02,0.05-0.42,0.2-1.22c0.14-0.79,0.28-1.5,0.42-2.12
			c0.13-0.59,0.28-1.13,0.44-1.64c0.24-0.82,0.45-1.6,0.62-2.36l0.41-1.92c0.12-0.05,0.26-0.08,0.44-0.09s0.31-0.01,0.41,0.01
			c0.2,0.04,0.35,0.13,0.44,0.26c0.09,0.13,0.17,0.29,0.23,0.5c0.08,0.24,0.17,0.38,0.27,0.4c0.19,0.04,0.37,0.04,0.56,0
			c0.19-0.04,0.45-0.1,0.79-0.19c0.4-0.12,0.73-0.2,0.97-0.24c0.24-0.04,0.49-0.04,0.75,0.02c0.44,0.1,1.09,0.45,1.93,1.06l0.43,0.3
			c0.77,0.52,1.17,1.4,1.2,2.65c0.03,1.25-0.11,2.53-0.4,3.84c-0.08,0.37-0.21,0.78-0.39,1.22c-0.18,0.53-0.3,0.93-0.36,1.18
			c-0.04,0.19-0.07,0.32-0.07,0.41c-0.14-0.03-0.24,0.02-0.28,0.16c-0.05,0.14-0.13,0.25-0.25,0.32c-0.12,0.07-0.4,0.06-0.83-0.04
			c0.05-0.08,0.08-0.16,0.1-0.23c0.01-0.03,0-0.04-0.01-0.05c-0.03,0.01-0.09,0.04-0.19,0.08c-0.09,0.05-0.18,0.07-0.25,0.07
			c-0.16-0.04-0.29-0.1-0.38-0.2l-0.07-0.2C129.75,42.4,129.73,42.17,129.64,41.97z M123.5,39.17c-0.16,0.05-0.27,0.22-0.33,0.49
			l0.32,0.07l0.81-0.52l-0.13-0.03C123.89,39.13,123.67,39.12,123.5,39.17z M123.6,40.21c-0.1,0.02-0.18,0.05-0.24,0.09
			c-0.05,0.04-0.09,0.12-0.12,0.23l1.14,0.26c0.03-0.01,0.07-0.03,0.11-0.07c0.04-0.04,0.06-0.07,0.07-0.1
			c0.01-0.06,0.01-0.15-0.02-0.26c-0.03-0.12-0.04-0.19-0.03-0.22c0.01-0.03,0.05-0.06,0.13-0.08c0.08-0.03,0.14-0.04,0.19-0.03
			c-0.05-0.04-0.08-0.11-0.07-0.22c0-0.1,0-0.19-0.01-0.26c-0.01-0.07-0.05-0.11-0.12-0.13c-0.17-0.04-0.4,0.04-0.7,0.24
			s-0.46,0.31-0.49,0.33l0.41,0.09C123.78,40.15,123.7,40.19,123.6,40.21z M124.32,38.41c0.4-0.39,0.62-0.69,0.66-0.89
			c0.04-0.19,0.07-0.35,0.09-0.49s0.03-0.26,0.04-0.36c0.02-0.36,0.05-0.63,0.1-0.83c0.03-0.11,0.05-0.21,0.08-0.27l-0.3,0.04
			c0.13-0.12,0.23-0.22,0.28-0.31c0.06-0.08,0.12-0.2,0.18-0.35l0.19-0.43c0.13-0.26,0.29-0.46,0.49-0.61
			c0.19-0.15,0.41-0.28,0.66-0.39c0.27-0.12,0.41-0.23,0.44-0.33c0.01-0.04,0.01-0.08,0-0.11c-0.11,0.01-0.3,0.08-0.57,0.23
			c-0.03,0.01-0.12,0.05-0.25,0.11c-0.14,0.07-0.24,0.09-0.31,0.08c-0.13-0.03-0.21-0.08-0.26-0.16c-0.04-0.08-0.08-0.2-0.12-0.38
			c-0.03-0.13-0.06-0.23-0.1-0.3c-0.04-0.08-0.1-0.12-0.2-0.15c-0.06-0.01-0.11-0.02-0.16-0.01c0.04-0.02,0.07-0.06,0.11-0.11
			c0.04-0.05,0.07-0.1,0.08-0.14c0.01-0.04-0.02-0.08-0.07-0.12c-0.06-0.04-0.1-0.06-0.11-0.08c-0.01,0-0.06,0.05-0.14,0.15
			c-0.08,0.1-0.12,0.18-0.13,0.24c-0.06,0.26-0.11,0.61-0.15,1.05c-0.02,0.27-0.04,0.48-0.08,0.64l-0.12,0.45
			c0.03,0.01,0.05,0.03,0.07,0.07c0.02,0.04,0.03,0.07,0.03,0.08c-0.03,0.11-0.11,0.28-0.24,0.49c-0.14,0.24-0.23,0.42-0.25,0.53
			l0.54,0.12l-0.49,0.29l0.09,0.18c-0.2,0.09-0.35,0.2-0.44,0.33c-0.09,0.13-0.16,0.32-0.22,0.56c0.27,0.06,0.48-0.01,0.64-0.22
			c-0.01,0.06,0,0.09,0.02,0.1c0,0.01-0.1,0.1-0.3,0.27s-0.3,0.27-0.31,0.31l0.69,0.15l-0.73,0.15l-0.22,0.97
			C123.66,38.98,123.92,38.8,124.32,38.41z M124.39,38.38c-0.27,0.18-0.43,0.34-0.46,0.48l0.69,0.15c0.06,0.01,0.13-0.07,0.2-0.26
			s0.14-0.39,0.19-0.6C124.87,38.13,124.67,38.2,124.39,38.38z M129.42,33.5c0.36,0.13,0.63,0.26,0.8,0.37
			c0.05,0.03,0.17,0.16,0.34,0.39c0.03,0.02,0.09,0.1,0.2,0.25c0.11,0.15,0.22,0.23,0.32,0.25c0.11,0.03,0.18-0.01,0.21-0.11
			l-0.08-0.13c0.04-0.05,0.13-0.09,0.26-0.12c0.13-0.03,0.21-0.07,0.22-0.13c0.03-0.14-0.11-0.25-0.42-0.32
			c-0.1-0.02-0.2-0.02-0.29,0.01c-0.09,0.03-0.16,0.04-0.22,0.03c-0.05-0.12-0.1-0.18-0.16-0.19l-0.05,0.01l0.17-0.23
			c-0.08-0.12-0.21-0.2-0.4-0.25c-0.09-0.02-0.2-0.03-0.33-0.04c-0.13-0.01-0.24-0.02-0.31-0.04l0.1-0.43
			c-0.54-0.12-0.88-0.07-1,0.16l0.06-0.26c-0.07,0.03-0.16,0.04-0.28,0.04c-0.12,0-0.2,0-0.23,0.01c-0.25-0.01-0.45,0-0.58,0.04
			s-0.22,0.13-0.26,0.29c0,0.01,0.01,0.04,0.05,0.08c0.04,0.04,0.05,0.07,0.04,0.1l0.34-0.19l0.1,0.16l0.06,0.01
			c0.05,0,0.12-0.03,0.22-0.06c0.1-0.04,0.15-0.08,0.16-0.12l0.1,0.16C128.77,33.28,129.06,33.37,129.42,33.5z M130.88,41.26
			c-0.14,0.22-0.27,0.61-0.39,1.15l0.79,0.18c0.1-0.46,0.05-0.75-0.16-0.87c0.05,0,0.13-0.03,0.25-0.07
			c0.12-0.04,0.19-0.07,0.19-0.1l0.21-0.92C131.32,40.83,131.02,41.04,130.88,41.26z M130.84,40.73c0.23,0.05,0.48,0,0.75-0.17
			c0.27-0.16,0.43-0.35,0.48-0.57c0.01-0.06,0.01-0.1,0.01-0.13c0.1-0.85,0.14-1.28,0.11-1.28c-0.03-0.01-0.18,0.05-0.47,0.18
			c-0.28,0.12-0.44,0.23-0.45,0.31c-0.01,0.03,0.01,0.07,0.04,0.12s0.06,0.08,0.09,0.09c-0.11-0.03-0.21,0-0.29,0.07
			c-0.08,0.07-0.13,0.16-0.15,0.26c0.14,0.03,0.32,0,0.52-0.11c0.17-0.08,0.31-0.11,0.42-0.08l-0.02,0.09
			c-0.47,0.14-0.79,0.37-0.97,0.71l0.39,0.09C131.06,40.3,130.91,40.45,130.84,40.73z M131.77,35.5c0.06-0.08,0.12-0.22,0.16-0.4
			l0.02-0.09c0.04-0.19,0.01-0.3-0.08-0.33c-0.4,0.06-0.64,0.24-0.71,0.54l0.43,0.1l-0.34,0.19l0.12,0.18
			C131.57,35.64,131.71,35.58,131.77,35.5z M131.33,38.25c-0.05,0.21-0.1,0.36-0.14,0.44c0.24,0.05,0.48-0.01,0.69-0.18
			c0.22-0.18,0.36-0.39,0.42-0.65l0.02-0.31c-0.23,0.04-0.44,0.09-0.62,0.14c-0.18,0.06-0.28,0.14-0.31,0.26L131.33,38.25z
			 M131.59,36.32c-0.15,0.07-0.25,0.19-0.28,0.34c0.19,0.04,0.4-0.01,0.65-0.15c0.25-0.14,0.4-0.3,0.44-0.49
			c0.01-0.06-0.01-0.14-0.05-0.26c-0.05-0.12-0.11-0.18-0.18-0.2c-0.16-0.04-0.32,0-0.48,0.11s-0.26,0.24-0.29,0.4l0.69,0.15
			C131.9,36.22,131.74,36.25,131.59,36.32z M131.32,37.6l-0.01,0.13c0.06,0,0.13-0.03,0.2-0.1c0.07-0.07,0.12-0.12,0.15-0.16
			l-0.01-0.07C131.47,37.36,131.36,37.42,131.32,37.6z M131.69,36.75c-0.19,0.12-0.31,0.27-0.35,0.44c0.26,0.06,0.47,0.08,0.65,0.07
			c0.18-0.01,0.28-0.11,0.32-0.28c0.02-0.07,0.02-0.14,0.02-0.21c0-0.07-0.02-0.14-0.06-0.23
			C132.08,36.56,131.88,36.63,131.69,36.75z"/>
		<path class="st1" d="M142.36,43.21c0.02,0.05,0.05,0.07,0.08,0.08c-0.17,0.06-0.31,0.17-0.42,0.34c-0.11,0.17-0.18,0.27-0.2,0.31
			c-0.31,0.38-0.62,0.65-0.93,0.81c-0.31,0.15-0.62,0.23-0.93,0.24c-0.31,0.01-0.74-0.01-1.29-0.07c-0.23-0.04-0.4-0.06-0.51-0.06
			l-0.39-0.09l-0.91-0.4c-0.07-0.02-0.32-0.19-0.75-0.49c-0.51-0.36-0.8-0.55-0.89-0.58c-0.07-0.02-0.15-0.02-0.23,0.01
			c-0.09,0.03-0.16,0.03-0.21,0.02c-0.27-0.08-0.26-0.61,0.03-1.6c0.12-0.41,0.25-0.59,0.39-0.55c0.09,0.06,0.2,0.16,0.32,0.32
			c0.12,0.16,0.22,0.25,0.29,0.27l2.31,1.27c0.17,0.05,0.4,0.05,0.69,0.01c0.29-0.05,0.55-0.13,0.8-0.26
			c0.24-0.13,0.39-0.28,0.45-0.47c0.04-0.15-0.01-0.38-0.16-0.67c-0.15-0.29-0.34-0.56-0.55-0.83c-0.21-0.26-0.35-0.4-0.41-0.42
			c-0.13-0.04-0.24-0.1-0.35-0.18c-0.11-0.08-0.2-0.17-0.28-0.25c-0.19-0.18-0.35-0.28-0.46-0.32c-0.44-0.13-0.8-0.4-1.09-0.82
			s-0.48-0.9-0.58-1.44c-0.1-0.54-0.08-1.03,0.05-1.48c0.28-0.96,0.96-1.44,2.03-1.44c1.08,0,2.11,0.14,3.09,0.43
			c1.55,0.45,2.27,0.86,2.16,1.23l-0.41,1.39c-0.04,0.13-0.18,0.15-0.44,0.08c-0.55-0.43-0.97-0.75-1.26-0.95
			c-0.29-0.2-0.62-0.35-0.99-0.46c-0.42-0.12-0.8-0.06-1.13,0.19s-0.56,0.58-0.68,1c-0.02,0.06,0,0.16,0.05,0.33
			c0.05,0.16,0.13,0.26,0.22,0.3l2.1,1.05c0.35,0.18,0.66,0.48,0.96,0.92c0.29,0.44,0.51,0.9,0.65,1.4c0.14,0.5,0.16,0.92,0.06,1.25
			c-0.03,0.05-0.09,0.13-0.17,0.23c-0.08,0.1-0.13,0.18-0.15,0.25C142.33,43.13,142.34,43.16,142.36,43.21z M137.72,44.12
			c0.06-0.01,0.09-0.03,0.1-0.07c-0.06-0.05-0.1-0.14-0.11-0.28c-0.01-0.14-0.02-0.24-0.02-0.3l-1.29-0.38
			c-0.03-0.22-0.14-0.38-0.35-0.48s-0.5-0.2-0.86-0.31c-0.1,0.35-0.06,0.55,0.12,0.61c0.15,0.04,0.26,0.03,0.31-0.05
			c0.02,0.18,0.3,0.41,0.82,0.71c0.52,0.3,0.91,0.48,1.15,0.55C137.62,44.13,137.66,44.13,137.72,44.12z M136.67,37.28
			c0.04,0.46,0.18,0.72,0.42,0.79c0.04,0.01,0.18-0.03,0.42-0.13c0.23-0.1,0.39-0.16,0.46-0.19c0.07-0.23,0.08-0.38,0.06-0.48
			s-0.12-0.19-0.27-0.3c0.17,0.05,0.32,0,0.45-0.16c0.13-0.15,0.23-0.3,0.3-0.45c-0.04-0.06-0.15-0.13-0.31-0.2
			c-0.16-0.08-0.24-0.13-0.23-0.16c0-0.01,0.18-0.05,0.53-0.12c0.35-0.07,0.58-0.18,0.69-0.35c0.35,0.1,0.54,0.1,0.58-0.02
			c0.04-0.14-0.04-0.24-0.23-0.3c-0.25-0.07-0.59-0.09-1-0.06s-0.79,0.13-1.14,0.3c-0.35,0.17-0.57,0.41-0.66,0.74
			C136.64,36.46,136.62,36.82,136.67,37.28z M140.97,40.96c0.32-0.04,0.54-0.12,0.66-0.22c0.08-0.28-0.11-0.56-0.57-0.83
			c-0.46-0.27-1.08-0.57-1.84-0.88c-0.32-0.12-0.5-0.2-0.55-0.23c-0.08-0.05-0.2-0.17-0.38-0.35s-0.28-0.28-0.31-0.28
			c-0.23-0.07-0.48,0-0.77,0.21c0.03,0.21,0.15,0.34,0.36,0.4c0.08,0.02,0.21,0.03,0.37,0.03s0.3,0.01,0.41,0.04
			c-0.02,0.01-0.08,0.02-0.19,0.02c-0.11,0.01-0.21,0.05-0.29,0.13c0.04,0.13,0.25,0.3,0.65,0.51s0.7,0.34,0.91,0.4l-0.06,0.21
			c0.12,0.05,0.3,0.22,0.54,0.5c0.21,0.21,0.33,0.33,0.36,0.33C140.42,41,140.65,41,140.97,40.96z M141.29,43.82
			c0.14-0.14,0.24-0.31,0.29-0.49c0.04-0.13,0.05-0.22,0.04-0.29l-1.38,0.01c-0.09,0.05-0.17,0.13-0.24,0.25
			c-0.07,0.12-0.14,0.19-0.19,0.22l-1.74,0.16l-0.02,0.08c-0.07,0.23,0.17,0.42,0.7,0.57c0.21,0.06,0.35,0.08,0.43,0.06
			c0.08-0.02,0.15-0.08,0.22-0.17c0.07-0.15,0.22-0.24,0.43-0.29c-0.03,0.11-0.04,0.19-0.01,0.23c0.03,0.04,0.09,0.07,0.19,0.1
			l0.13,0.04c0.17,0.05,0.31,0.05,0.44-0.01c-0.02-0.08-0.07-0.16-0.15-0.24c-0.08-0.08-0.13-0.12-0.15-0.15l0.32-0.16
			c0.01,0.06,0.04,0.11,0.09,0.14c0.04,0.03,0.1,0.05,0.15,0.07C140.99,44.01,141.15,43.97,141.29,43.82z M140.07,35.38l2.07,0.6
			c-0.28-0.14-0.55-0.26-0.82-0.35c-0.27-0.09-0.51-0.17-0.72-0.23c-0.21-0.06-0.37-0.11-0.49-0.14L140.07,35.38z M141.85,41.15
			c-0.14-0.04-0.36,0-0.65,0.11c-0.29,0.11-0.46,0.2-0.51,0.26c0.14,0.04,0.33,0.07,0.57,0.08c0.23-0.01,0.47,0.02,0.71,0.09
			C142.06,41.38,142.02,41.2,141.85,41.15z M142.18,42.23c0.02-0.08,0.03-0.15,0-0.21c-0.02-0.05-0.1-0.1-0.22-0.13l-0.02-0.01
			c-0.04-0.01-0.23,0.06-0.55,0.21c-0.33,0.15-0.5,0.25-0.51,0.31l-0.06,0.19c0.37,0.11,0.66,0.16,0.88,0.15
			c0.22,0,0.37-0.14,0.45-0.41L142.18,42.23z M142.31,36.1c-0.04,0.02-0.06,0.04-0.07,0.07c0.04,0.09,0.09,0.17,0.17,0.24
			c0.08,0.08,0.17,0.13,0.26,0.16l0.13,0.02c0.03-0.11,0-0.22-0.09-0.32c-0.09-0.1-0.2-0.17-0.33-0.21
			C142.38,36.07,142.35,36.08,142.31,36.1z"/>
	</g>
</g>
</svg>
