<?xml version="1.0" encoding="utf-8"?>
<!-- Generator: Adobe Illustrator 24.0.1, SVG Export Plug-In . SVG Version: 6.00 Build 0)  -->
<svg version="1.1" id="Capa_1" xmlns="http://www.w3.org/2000/svg" xmlns:xlink="http://www.w3.org/1999/xlink" x="0px" y="0px"
	 viewBox="0 0 100 100" style="enable-background:new 0 0 100 100;" xml:space="preserve">
<style type="text/css">
	.st0{fill:#F76241;stroke:#FFFFF3;stroke-width:0.0241;stroke-miterlimit:10;}
	.st1{fill:#FFFFFF;}
	.st2{fill:#E58961;}
	.st3{opacity:0.28;fill:#FFA188;}
</style>
<g>
	<g>
		<path class="st0" d="M98,65.39c0.02,1.5-1.42,2.75-3.39,3.09c-0.37,0.07-0.77,0.1-1.18,0.1l-35.61-0.33l-12.18-0.11L8.99,67.81
			c-2.69-0.02-4.87-1.53-4.87-3.37l0-21.23c0-1.82,2.17-3.26,4.85-3.21l0.19,0L93,41.46c2.54,0.04,4.62,1.51,4.65,3.28L98,65.39z"/>
	</g>
	<g>
		<path class="st1" d="M87.15,59.77l-72.72-1.11c-1.75-0.03-3.17-1.44-3.17-3.16v-0.69c0-1.72,1.42-3.09,3.17-3.06l72.72,1.23
			c1.69,0.03,3.05,1.42,3.05,3.1v0.68C90.2,58.46,88.83,59.8,87.15,59.77z"/>
		<path class="st2" d="M64.86,52.47l-49.7-0.71c-2.15-0.03-3.9,1.39-3.9,3.18v0.43c0,1.79,1.75,3.26,3.9,3.29l44.37,0.57
			L64.86,52.47z"/>
	</g>
	<path class="st3" d="M94.61,68.48c-0.37,0.07-0.77,0.1-1.18,0.1l-35.61-0.33l-6.03-0.07l-6.14-0.05L8.99,67.81
		c-2.69-0.02-4.87-1.53-4.87-3.37l0-21.23c0-1.82,2.17-3.26,4.85-3.21l0.19,0c3.49,1.24,8.71,3.67,9.09,7.26
		c0.04,0.34,0.11,0.67,0.22,0.99c0.69,2.03,2.81,3.5,6.07,4.43c1.92,0.55,4.24,0.9,6.89,1.06c0.93,0.06,1.9,0.09,2.91,0.1
		c0.75,0.01,1.53,0,2.32-0.02c0.97-0.02,1.96-0.06,2.99-0.12c0.9-0.05,1.82-0.12,2.76-0.2c1.41-0.12,2.75-0.18,4.03-0.17
		c3.01,0.02,5.69,0.37,8.11,0.96c2.84,0.69,5.32,1.7,7.55,2.87c2.86,1.5,5.31,3.27,7.57,4.95c0.23,0.17,0.45,0.33,0.67,0.5
		C75.95,66.81,89.4,61.17,94.61,68.48z"/>
</g>
</svg>
