<?xml version="1.0" encoding="utf-8"?>
<!-- Generator: Adobe Illustrator 26.1.0, SVG Export Plug-In . SVG Version: 6.00 Build 0)  -->
<svg version="1.1" id="Capa_1" xmlns="http://www.w3.org/2000/svg" xmlns:xlink="http://www.w3.org/1999/xlink" x="0px" y="0px"
	 viewBox="0 0 279.94 101" style="enable-background:new 0 0 279.94 101;" xml:space="preserve">
<style type="text/css">
	.st0{fill:#F9303A;}
	.st1{fill:#C8D746;}
	.st2{fill:#050404;}
</style>
<g>
	<g>
		<path d="M50.24,16.45c2.53,5.57,2.08,3.21,3.78,9.09c1.72,5.85,3.13,11.86,3.61,17.98c0.37,6.1-0.22,12.4-2.7,17.98
			c1.94-5.78,2.24-11.92,1.48-17.87c-0.7-5.97-2.3-11.81-4.21-17.52c-1.96-5.7-2.21-4.6-4.82-10.04"/>
		<g>
			<path class="st0" d="M78.93,48.27c-6.21-4.1-14.98-2.25-20.64,2.32c-14.17-7.1-35.94-0.43-33.4,18.08
				c2.96,21.53,22.92,29.54,42.48,24.56c9.52-2.43,16.72-9.04,18.85-18.8C88.05,66.09,86.7,53.41,78.93,48.27z"/>
			<path d="M78.93,48.27c-3.11-2.05-7-2.58-10.61-2.01c-3.63,0.56-7.1,2.12-9.94,4.43l-0.07,0.06l-0.08-0.04
				c-2.99-1.44-6.25-2.22-9.52-2.48c-3.28-0.28-6.61,0.03-9.75,0.98c-3.13,0.92-6.09,2.44-8.46,4.63c-2.35,2.17-4.1,5.03-4.66,8.18
				c-0.58,3.14-0.32,6.36,0.44,9.54c0.12,0.81,0.42,1.56,0.66,2.34c0.27,0.76,0.45,1.56,0.79,2.29c0.68,1.46,1.29,2.96,2.22,4.29
				c0.77,1.42,1.89,2.6,2.88,3.86c1.17,1.11,2.27,2.28,3.59,3.2c1.22,1.05,2.67,1.79,4.04,2.63c1.47,0.67,2.91,1.41,4.47,1.86
				c1.51,0.59,3.12,0.85,4.7,1.24c1.61,0.19,3.21,0.51,4.85,0.52c3.25,0.21,6.53-0.07,9.76-0.58c6.46-0.92,12.73-3.85,16.92-8.94
				c4.26-5.03,5.94-11.88,5.64-18.47c-0.17-3.3-0.69-6.62-1.94-9.7C83.66,53,81.68,50.17,78.93,48.27z M78.93,48.27
				c2.78,1.86,4.8,4.68,6.03,7.77c1.29,3.08,1.85,6.42,2.06,9.74c0.13,3.33-0.07,6.69-0.9,9.95c-0.81,3.25-2.3,6.36-4.39,9.01
				c-4.15,5.39-10.65,8.67-17.27,9.81c-3.31,0.62-6.69,1.04-10.08,0.84c-1.7,0.01-3.38-0.3-5.06-0.48
				c-1.66-0.39-3.35-0.64-4.95-1.25c-1.65-0.46-3.19-1.22-4.75-1.91c-1.47-0.86-3.02-1.64-4.34-2.75c-1.43-0.97-2.58-2.26-3.81-3.45
				c-1.05-1.36-2.21-2.64-3.02-4.16c-0.96-1.43-1.6-3.02-2.3-4.58c-0.35-0.78-0.53-1.62-0.8-2.43c-0.24-0.82-0.54-1.62-0.66-2.46
				c-0.76-3.29-1.01-6.83-0.24-10.21c0.72-3.41,2.72-6.47,5.3-8.7c2.59-2.25,5.74-3.73,9-4.59c3.26-0.88,6.68-1.09,10.01-0.7
				c3.33,0.36,6.59,1.3,9.59,2.77l-0.14,0.02c2.91-2.31,6.42-3.84,10.09-4.36C71.94,45.6,75.85,46.19,78.93,48.27z"/>
		</g>
		<path d="M63.57,89.75c4.35-2.37,8.2-5.06,11.51-8.4c3.35-3.31,6.04-7.15,8.43-11.49c-0.51,4.98-3.13,9.66-6.69,13.24
			C73.24,86.64,68.55,89.25,63.57,89.75z"/>
	</g>
	<g>
		<path class="st1" d="M52.63,20.31c-2.41-2.98-4.62-5.96-7.04-8.94C43.86,9.23,41.11,8,38.62,6.82c-3.53-1.67-7.67-0.95-11.49-0.19
			c-2.43,0.49-4.86,0.98-7.29,1.5c4.57,3.85,9.4,7.54,14.99,9.65c1.98,0.74,4.03,1.28,6.08,1.81c3.13,0.82,6.26,1.63,9.38,2.45
			c-1.53-1.64-3.06-3.28-4.59-4.93c-0.99-1.06-1.99-2.13-3.18-2.97s-2.54-1.42-3.9-1.94c-2.84-1.1-5.8-1.97-8.85-2.12"/>
		<path class="st2" d="M52.63,20.31l-6.12-7.56c-0.52-0.62-1-1.29-1.56-1.85s-1.19-1.07-1.86-1.5c-1.34-0.88-2.81-1.56-4.28-2.24
			c-2.89-1.45-6.25-1.19-9.39-0.66c-3.17,0.58-6.35,1.3-9.52,1.94l0.13-0.54c4.32,3.62,8.85,7.08,14.04,9.25
			c2.58,1.08,5.34,1.74,8.07,2.47l8.2,2.18l-0.26,0.43l-4.16-4.53c-1.38-1.51-2.74-3.06-4.52-4.04c-1.77-0.99-3.71-1.7-5.64-2.35
			c-1.94-0.63-3.95-1.08-6-1.22c2.05,0.08,4.08,0.48,6.05,1.06c1.96,0.61,3.92,1.25,5.75,2.22c1.86,0.98,3.28,2.56,4.67,4.04
			l4.23,4.47l0.62,0.65l-0.88-0.22l-8.22-2.11c-2.73-0.71-5.51-1.36-8.16-2.46c-5.32-2.17-9.89-5.71-14.2-9.36l-0.49-0.42l0.63-0.12
			c3.19-0.63,6.34-1.33,9.55-1.9c1.61-0.26,3.25-0.45,4.9-0.37c1.64,0.07,3.31,0.44,4.77,1.19c1.46,0.7,2.94,1.41,4.29,2.34
			c0.68,0.46,1.32,0.98,1.89,1.58c0.57,0.61,1.02,1.27,1.53,1.91L52.63,20.31z"/>
	</g>
</g>
<g>
	<g>
		<path d="M134.44,16.45c2.53,5.57,2.08,3.21,3.78,9.09c1.72,5.85,3.13,11.86,3.61,17.98c0.37,6.1-0.22,12.4-2.7,17.98
			c1.94-5.78,2.24-11.92,1.48-17.87c-0.7-5.97-2.3-11.81-4.21-17.52c-1.96-5.7-2.21-4.6-4.82-10.04"/>
		<g>
			<path class="st0" d="M163.13,48.27c-6.21-4.1-14.98-2.25-20.64,2.32c-14.17-7.1-35.94-0.43-33.4,18.08
				c2.96,21.53,22.92,29.54,42.48,24.56c9.52-2.43,16.72-9.04,18.85-18.8C172.25,66.09,170.9,53.41,163.13,48.27z"/>
			<path d="M163.13,48.27c-3.11-2.05-7-2.58-10.61-2.01c-3.63,0.56-7.1,2.12-9.94,4.43l-0.07,0.06l-0.08-0.04
				c-2.99-1.44-6.25-2.22-9.52-2.48c-3.28-0.28-6.61,0.03-9.75,0.98c-3.13,0.92-6.09,2.44-8.46,4.63c-2.35,2.17-4.1,5.03-4.66,8.18
				c-0.58,3.14-0.32,6.36,0.44,9.54c0.12,0.81,0.42,1.56,0.66,2.34c0.27,0.76,0.45,1.56,0.79,2.29c0.68,1.46,1.29,2.96,2.22,4.29
				c0.77,1.42,1.89,2.6,2.88,3.86c1.17,1.11,2.27,2.28,3.59,3.2c1.22,1.05,2.67,1.79,4.04,2.63c1.47,0.67,2.91,1.41,4.47,1.86
				c1.51,0.59,3.12,0.85,4.7,1.24c1.61,0.19,3.21,0.51,4.85,0.52c3.25,0.21,6.53-0.07,9.76-0.58c6.46-0.92,12.73-3.85,16.92-8.94
				c4.26-5.03,5.94-11.88,5.64-18.47c-0.17-3.3-0.69-6.62-1.94-9.7C167.86,53,165.88,50.17,163.13,48.27z M163.13,48.27
				c2.78,1.86,4.8,4.68,6.03,7.77c1.29,3.08,1.85,6.42,2.06,9.74c0.13,3.33-0.07,6.69-0.9,9.95c-0.81,3.25-2.3,6.36-4.39,9.01
				c-4.15,5.39-10.65,8.67-17.27,9.81c-3.31,0.62-6.69,1.04-10.08,0.84c-1.7,0.01-3.38-0.3-5.06-0.48
				c-1.66-0.39-3.35-0.64-4.95-1.25c-1.65-0.46-3.19-1.22-4.75-1.91c-1.47-0.86-3.02-1.64-4.34-2.75c-1.43-0.97-2.58-2.26-3.81-3.45
				c-1.05-1.36-2.21-2.64-3.02-4.16c-0.96-1.43-1.6-3.02-2.3-4.58c-0.35-0.78-0.53-1.62-0.8-2.43c-0.24-0.82-0.54-1.62-0.66-2.46
				c-0.76-3.29-1.01-6.83-0.24-10.21c0.72-3.41,2.72-6.47,5.3-8.7c2.59-2.25,5.74-3.73,9-4.59c3.26-0.88,6.68-1.09,10.01-0.7
				c3.33,0.36,6.59,1.3,9.59,2.77l-0.14,0.02c2.91-2.31,6.42-3.84,10.09-4.36C156.14,45.6,160.05,46.19,163.13,48.27z"/>
		</g>
		<path d="M147.77,89.75c4.35-2.37,8.2-5.06,11.51-8.4c3.35-3.31,6.04-7.15,8.43-11.49c-0.51,4.98-3.13,9.66-6.69,13.24
			C157.44,86.64,152.75,89.25,147.77,89.75z"/>
	</g>
	<g>
		<path class="st1" d="M136.83,20.31c-2.41-2.98-4.62-5.96-7.04-8.94c-1.73-2.14-4.48-3.37-6.97-4.55
			c-3.53-1.67-7.67-0.95-11.49-0.19c-2.43,0.49-4.86,0.98-7.29,1.5c4.57,3.85,9.4,7.54,14.99,9.65c1.98,0.74,4.03,1.28,6.08,1.81
			c3.13,0.82,6.26,1.63,9.38,2.45c-1.53-1.64-3.06-3.28-4.59-4.93c-0.99-1.06-1.99-2.13-3.18-2.97c-1.19-0.84-2.54-1.42-3.9-1.94
			c-2.84-1.1-5.8-1.97-8.85-2.12"/>
		<path class="st2" d="M136.83,20.31l-6.12-7.56c-0.52-0.62-1-1.29-1.56-1.85s-1.19-1.07-1.86-1.5c-1.34-0.88-2.81-1.56-4.28-2.24
			c-2.89-1.45-6.25-1.19-9.39-0.66c-3.17,0.58-6.35,1.3-9.52,1.94l0.13-0.54c4.32,3.62,8.85,7.08,14.04,9.25
			c2.58,1.08,5.34,1.74,8.07,2.47l8.2,2.18l-0.26,0.43l-4.16-4.53c-1.38-1.51-2.74-3.06-4.52-4.04c-1.77-0.99-3.71-1.7-5.64-2.35
			c-1.94-0.63-3.95-1.08-6-1.22c2.05,0.08,4.08,0.48,6.05,1.06c1.96,0.61,3.92,1.25,5.75,2.22c1.86,0.98,3.28,2.56,4.67,4.04
			l4.23,4.47l0.62,0.65l-0.88-0.22l-8.22-2.11c-2.73-0.71-5.51-1.36-8.16-2.46c-5.32-2.17-9.89-5.71-14.2-9.36l-0.49-0.42l0.63-0.12
			c3.19-0.63,6.34-1.33,9.55-1.9c1.61-0.26,3.25-0.45,4.9-0.37c1.64,0.07,3.31,0.44,4.77,1.19c1.46,0.7,2.94,1.41,4.29,2.34
			c0.68,0.46,1.32,0.98,1.89,1.58c0.57,0.61,1.02,1.27,1.53,1.91L136.83,20.31z"/>
	</g>
</g>
</svg>
