<?xml version="1.0" encoding="utf-8"?>
<!-- Generator: Adobe Illustrator 24.0.1, SVG Export Plug-In . SVG Version: 6.00 Build 0)  -->
<svg version="1.1" id="Capa_1" xmlns="http://www.w3.org/2000/svg" xmlns:xlink="http://www.w3.org/1999/xlink" x="0px" y="0px"
	 viewBox="0 0 100 100" style="enable-background:new 0 0 100 100;" xml:space="preserve">
<style type="text/css">
	.st0{fill:#D34472;}
</style>
<g>
	<g>
		<path class="st0" d="M87.51,42.62c-2.58-7.32-7.22-12.5-15.35-13.21c-4.22-0.37-9.33,0.8-13.38-0.54
			c-2.07-0.68-3.08-2.47-4.88-3.57c-1.54-0.94-3.24-1.25-5.01-1.35c-0.46-0.02-0.79,0.15-1.01,0.41c-0.31,0.13-0.57,0.39-0.71,0.8
			c-1.3,3.96-5.26,5.36-9.01,5.96c-3.58,0.57-6.84,1.54-10.01,3.32c-5.46,3.06-10.38,7.32-12.51,13.35
			c-1.93,5.45-2.1,12.48,0.32,17.81c2.65,5.85,8.8,10.62,14.45,13.38c6.43,3.15,14.05,2.72,21.04,2.98
			c7.52,0.28,14.87-0.23,21.49-4.11c5.56-3.25,11.75-7.31,14.19-13.51C89.83,57.49,89.95,49.57,87.51,42.62z"/>
		<path d="M54.67,82.54c-1.11,0-2.2-0.03-3.26-0.07c-1.14-0.04-2.29-0.07-3.45-0.09c-6.05-0.13-12.3-0.26-17.79-2.94
			C23.33,76.09,17.83,71,15.49,65.82c-2.31-5.1-2.44-12.23-0.34-18.19c1.89-5.36,6.18-9.94,12.74-13.62
			c2.98-1.67,6.21-2.74,10.18-3.38c4.87-0.78,7.61-2.57,8.62-5.63c0.16-0.47,0.47-0.84,0.88-1.05c0.34-0.35,0.81-0.54,1.34-0.5
			c2.22,0.12,3.83,0.56,5.25,1.42c0.77,0.47,1.4,1.05,2,1.62c0.85,0.79,1.65,1.54,2.78,1.91c2.43,0.8,5.33,0.67,8.13,0.54
			c1.72-0.08,3.51-0.16,5.14-0.02c7.54,0.66,12.85,5.22,15.78,13.54l0,0c2.49,7.08,2.35,15.13-0.39,22.08
			c-2.52,6.39-8.76,10.45-14.41,13.75C67.22,81.78,60.66,82.54,54.67,82.54z M48.79,24.45c-0.23,0-0.41,0.08-0.54,0.24l-0.08,0.09
			l-0.11,0.05c-0.21,0.09-0.35,0.25-0.43,0.5c-1.12,3.41-4.2,5.47-9.41,6.3c-3.85,0.62-6.98,1.65-9.85,3.26
			c-6.34,3.56-10.47,7.96-12.29,13.08c-2.02,5.72-1.9,12.57,0.3,17.44c2.25,4.98,7.57,9.88,14.22,13.13
			c5.29,2.58,11.43,2.71,17.37,2.84c1.17,0.02,2.32,0.05,3.46,0.09c6.66,0.25,14.38-0.04,21.22-4.04
			c5.5-3.22,11.58-7.17,13.98-13.26c2.65-6.73,2.79-14.52,0.38-21.38c-2.83-8.03-7.71-12.24-14.92-12.88
			c-1.56-0.14-3.23-0.06-5,0.02c-2.89,0.14-5.88,0.27-8.49-0.58c-1.34-0.44-2.26-1.3-3.15-2.13c-0.57-0.53-1.16-1.08-1.84-1.5
			c-1.26-0.77-2.74-1.17-4.78-1.27C48.83,24.45,48.81,24.45,48.79,24.45z"/>
	</g>
	<path d="M57.33,24.55c0.75-1.02,1.49-2.05,2.14-3.13c0.65-1.08,1.21-2.21,1.53-3.41c0.15-0.6,0.27-1.21,0.29-1.82
		c0.02-0.3,0-0.62-0.02-0.91c-0.03-0.29-0.14-0.4-0.31-0.39c-0.43,0.03-0.88,0.58-1.33,1.01l-1.35,1.33l-0.33,0.33l-0.21-0.42
		c-0.53-1.05-1.15-2.11-2.15-2.42c-0.49-0.16-1-0.13-1.37,0.14c-0.37,0.27-0.6,0.75-0.73,1.28c-0.15,0.51-0.08,1.17-0.54,1.88
		c-0.12,0.17-0.3,0.36-0.56,0.45c-0.25,0.1-0.53,0.09-0.75,0.02c-0.45-0.16-0.66-0.39-0.9-0.56l-2.9-2.16l0.72-0.07
		c-0.5,0.58-0.79,1.35-0.81,2.1l-0.03,1.03l-0.86-0.58l-2.05-1.39c-0.34-0.23-0.64-0.42-0.9-0.47c-0.22-0.07-0.48,0.04-0.54,0.13
		c-0.19-0.03,0.29,0.99,0.67,1.6c0.4,0.68,0.87,1.36,1.33,2.07c0.93,1.39,1.66,3.14,1.72,4.91c0.09,1.77-0.31,3.56-1.18,5.11
		c-0.9,1.55-2.24,2.79-3.73,3.66c-1.49,0.89-3.08,1.48-4.63,2.05c-1.55,0.57-3.11,1.09-4.55,1.79c-1.44,0.68-2.78,1.58-4.01,2.61
		c-2.48,2.06-4.53,4.65-6.56,7.21c-0.99,1.29-1.88,2.63-2.37,4.13c-0.49,1.49-0.58,3.12-0.59,4.76c-0.02,3.28-0.01,6.6,0.98,9.71
		c0.5,1.54,1.29,3,2.36,4.23c1.07,1.22,2.44,2.23,4.03,2.7c-1.61-0.38-3.08-1.31-4.22-2.52c-1.15-1.21-2.03-2.68-2.62-4.25
		c-1.19-3.16-1.28-6.57-1.34-9.86c-0.02-1.65,0.01-3.37,0.5-5.04c0.5-1.67,1.43-3.14,2.41-4.49c1.98-2.66,4.08-5.28,6.65-7.48
		c1.28-1.1,2.7-2.07,4.24-2.81c1.53-0.75,3.11-1.3,4.65-1.88c1.53-0.58,3.05-1.17,4.39-1.98c1.34-0.8,2.52-1.86,3.29-3.17
		c0.76-1.32,1.12-2.87,1.06-4.4c-0.05-1.55-0.62-2.97-1.49-4.33c-0.43-0.69-0.9-1.37-1.33-2.11c-0.21-0.37-0.42-0.75-0.6-1.15
		c-0.09-0.2-0.2-0.44-0.24-0.76c-0.05-0.31,0.03-0.73,0.27-1.02c0.47-0.56,1.15-0.67,1.72-0.54c0.55,0.13,0.95,0.43,1.29,0.66
		l2.04,1.41l-0.88,0.45c0.04-1.03,0.45-2.02,1.13-2.77l0.34-0.37l0.39,0.3l2.84,2.24c0.24,0.19,0.48,0.39,0.6,0.43
		c0.11,0.03,0.15,0.04,0.26-0.1c0.24-0.31,0.26-0.93,0.44-1.57c0.17-0.62,0.47-1.3,1.1-1.74c0.64-0.44,1.46-0.43,2.1-0.2
		c0.66,0.23,1.2,0.71,1.58,1.23c0.39,0.52,0.66,1.08,0.93,1.63l-0.55-0.09l1.41-1.28l0.72-0.64c0.28-0.21,0.58-0.43,1.03-0.45
		c0.23-0.01,0.49,0.11,0.62,0.3c0.14,0.2,0.18,0.41,0.19,0.58c0.01,0.34,0.01,0.66-0.02,0.99c-0.04,0.65-0.19,1.29-0.38,1.9
		C60.58,20.6,58.94,22.62,57.33,24.55z"/>
	<path d="M72.84,39.01c2.01,1.35,3.57,3.35,4.6,5.56c1.05,2.22,1.54,4.68,1.69,7.12c0.12,2.44,0.02,4.9-0.51,7.33
		c-0.57,2.44-1.75,4.67-3.07,6.72c-2.65,4.12-6.17,7.72-10.33,10.34c-1.03,0.66-2.06,1.23-2.78,2.03c-0.71,0.75-1.13,1.85-0.85,2.73
		c0.12,0.43,0.48,0.86,0.84,1.42c0.17,0.28,0.36,0.6,0.45,1c0.08,0.39,0.08,0.78-0.05,1.19c-0.11,0.39-0.44,0.85-0.93,1.01
		c-0.48,0.17-0.97,0.03-1.28-0.13c-0.63-0.33-1.08-0.67-1.36-0.61l0.31-0.18c-0.09,0.07-0.12,0.38-0.11,0.8
		c0,0.21-0.01,0.46-0.11,0.73c-0.1,0.28-0.31,0.54-0.61,0.69c-0.63,0.28-1.15,0.04-1.54-0.17c-0.39-0.21-0.74-0.59-0.97-0.84
		c-0.25-0.26-0.52-0.5-0.78-0.62c-0.26-0.11-0.47-0.08-0.66,0.1c-0.2,0.18-0.35,0.54-0.53,0.89c-0.18,0.34-0.45,0.84-1.02,0.97
		L53,87.16l-0.12-0.2c-0.28-0.46-0.46-0.98-0.55-1.51l0.36,0.21l-1.94,0.55l-0.97,0.27c-0.33,0.08-0.63,0.21-1.02,0.23
		c-0.19,0.01-0.44-0.07-0.56-0.26c-0.13-0.19-0.13-0.4-0.11-0.57c0.04-0.35,0.11-0.68,0.22-1.01c0.22-0.65,0.57-1.25,1.01-1.75
		c-0.4,0.54-0.69,1.15-0.85,1.8c-0.08,0.32-0.13,0.65-0.14,0.97c-0.02,0.33,0.13,0.55,0.42,0.51c0.28-0.03,0.6-0.18,0.92-0.28
		l0.95-0.33l1.9-0.67l0.29-0.1l0.07,0.32c0.1,0.45,0.29,0.88,0.55,1.26l-0.35-0.14c0.22-0.06,0.39-0.31,0.55-0.65
		c0.16-0.33,0.28-0.74,0.63-1.11c0.34-0.4,1.03-0.52,1.49-0.31c0.46,0.19,0.78,0.48,1.08,0.76c0.31,0.31,0.5,0.51,0.8,0.66
		c0.28,0.16,0.6,0.19,0.69,0.11c0.12-0.06,0.18-0.22,0.16-0.6c0.01-0.33-0.12-0.88,0.29-1.45l0.11-0.15l0.2-0.03
		c0.47-0.08,0.89,0.08,1.18,0.22c0.31,0.15,0.56,0.31,0.78,0.4c0.23,0.09,0.37,0.11,0.47,0.06c0.09-0.03,0.17-0.11,0.22-0.29
		c0.06-0.17,0.06-0.4,0.01-0.6c-0.04-0.18-0.16-0.4-0.3-0.63c-0.29-0.46-0.75-0.95-0.99-1.68c-0.45-1.48,0.18-2.92,1.06-3.91
		c0.9-1,2.02-1.62,3-2.27c3.94-2.61,7.4-5.97,10.01-9.93c1.31-1.98,2.44-4.07,3-6.33c0.59-2.26,0.79-4.66,0.76-7.03
		c-0.05-2.37-0.45-4.74-1.31-6.95C76.11,42.56,74.72,40.54,72.84,39.01z"/>
	<path d="M63.56,32.92c1.89-0.31,3.85-0.26,5.77,0.05c1.91,0.35,3.78,0.99,5.52,1.89c1.76,0.88,3.33,2.12,4.72,3.52
		c1.37,1.43,2.52,2.98,3.58,4.64c0.51,0.85,0.97,1.78,1.23,2.78c0.27,0.99,0.38,1.98,0.44,2.95c0.12,1.93,0.18,3.86,0.08,5.79
		c-0.09,1.92-0.25,3.88-0.77,5.76c-0.55,1.86-1.46,3.7-2.95,4.93c1.27-1.45,1.99-3.24,2.31-5.09c0.37-1.84,0.42-3.73,0.38-5.63
		c-0.05-1.9-0.12-3.79-0.31-5.67c-0.09-0.94-0.2-1.85-0.44-2.71c-0.24-0.85-0.63-1.65-1.12-2.43c-1.97-3.17-4.43-6.08-7.66-7.96
		c-1.59-0.97-3.34-1.68-5.17-2.15C67.38,33.09,65.48,32.91,63.56,32.92z"/>
	<path d="M42.58,37.43c-1.68,1.62-3.41,3.17-5.11,4.75l-2.59,2.32c-0.86,0.77-1.75,1.53-2.54,2.36c-0.8,0.82-1.52,1.67-2.08,2.61
		c-0.55,0.94-0.93,2-1.24,3.08c-0.61,2.18-0.96,4.44-0.97,6.7c-0.07,4.52,1.1,9.07,3.48,12.94c1.18,1.94,2.65,3.72,4.37,5.23
		c1.68,1.56,3.64,2.81,5.74,3.82c-2.21-0.73-4.29-1.89-6.16-3.32c-1.86-1.45-3.47-3.22-4.82-5.18c-2.71-3.93-3.99-8.76-3.95-13.51
		c0.03-2.38,0.4-4.76,1.09-7.04c0.35-1.14,0.8-2.28,1.45-3.33c0.65-1.06,1.49-1.94,2.36-2.74C35.18,43.06,38.88,40.24,42.58,37.43z"
		/>
	<path d="M48.55,41.22c-1.62,1.18-3.1,2.53-4.37,4.05c-1.3,1.49-2.42,3.13-3.33,4.87c-1.82,3.47-2.94,7.32-2.98,11.21
		c-0.09,3.88,0.93,7.77,2.83,11.18c0.95,1.71,2.14,3.3,3.54,4.69c1.37,1.43,2.97,2.63,4.71,3.62c-1.88-0.72-3.6-1.84-5.16-3.14
		c-1.53-1.34-2.86-2.92-3.97-4.64c-2.22-3.45-3.36-7.61-3.28-11.73c0.08-4.13,1.31-8.2,3.43-11.69c1.06-1.75,2.31-3.37,3.74-4.81
		C45.17,43.43,46.76,42.15,48.55,41.22z"/>
	<path d="M52.07,32.33c1.9,1.33,3.75,2.73,5.51,4.26c1.73,1.56,3.36,3.28,4.66,5.27c1.33,1.97,2.2,4.25,2.71,6.57
		c0.5,2.33,0.64,4.69,0.64,7.04c-0.03,2.34-0.16,4.69-0.62,7.02c-0.47,2.32-1.27,4.63-2.62,6.61c-1.34,1.98-3.01,3.61-4.38,5.43
		c-1.4,1.78-2.54,3.87-2.6,6.22c-0.25-2.35,0.81-4.65,2.07-6.59c1.31-1.95,2.9-3.66,4.05-5.6c1.14-1.93,1.87-4.07,2.25-6.3
		c0.4-2.22,0.53-4.51,0.53-6.8c0.06-4.54-0.54-9.17-2.88-13.06c-1.13-1.96-2.63-3.7-4.24-5.34C55.55,35.39,53.78,33.89,52.07,32.33z
		"/>
</g>
</svg>
