<?xml version="1.0" encoding="utf-8"?>
<!-- Generator: Adobe Illustrator 24.0.1, SVG Export Plug-In . SVG Version: 6.00 Build 0)  -->
<svg version="1.1" id="Capa_1" xmlns="http://www.w3.org/2000/svg" xmlns:xlink="http://www.w3.org/1999/xlink" x="0px" y="0px"
	 viewBox="0 0 100 100" style="enable-background:new 0 0 100 100;" xml:space="preserve">
<style type="text/css">
	.st0{fill:#FF931E;}
</style>
<g>
	<g>
		<path class="st0" d="M75.75,25.34c0.27-0.43,0.44-0.93,0.53-1.46c0.34-2.05,0.39-5.22-1.06-6.83c-1.72-1.93-4.38-1.17-6.23,0.11
			c-1.2,0.82-2.2,2-3.35,2.91c-0.32-0.05-0.65-0.1-0.98-0.13c-4.81-1.77-10.02-2.16-15.29-0.57c-8.59,2.59-16.64,6.22-22.45,13.31
			c-5.77,7.03-9.03,15.8-8.83,24.93c0.16,7.03,3.19,13.96,8.32,18.69c-0.16,0.77-0.38,1.54-0.46,2.32c-0.2,1.86,0.09,4.07,1.7,5.26
			c1.45,1.07,3.22,0.71,4.77,0.09c1.6-0.64,3.27-1.08,4.8-1.87c0.06-0.03,0.11-0.07,0.17-0.1c6.5,1.49,13.81,0.77,19.78-1.34
			c4.47-1.57,9.28-4.11,12.25-7.91c2.5-3.2,5.33-6.17,7.27-9.77c1.92-3.56,3.37-7.78,4.49-11.63c1.04-3.57,1.42-7.59,0.87-11.28
			c-0.77-5.13-2.1-9.97-5.59-13.94C76.23,25.85,75.99,25.59,75.75,25.34z"/>
		<path d="M75.75,25.34c0.45-0.72,0.55-1.57,0.63-2.39c0.08-0.83,0.09-1.66,0.01-2.49c-0.07-0.82-0.25-1.64-0.59-2.39
			c-0.34-0.75-0.91-1.38-1.64-1.75c-0.73-0.36-1.57-0.42-2.37-0.27c-0.8,0.16-1.56,0.48-2.26,0.91c-1.41,0.84-2.46,2.17-3.78,3.23
			l-0.06,0.05l-0.08-0.01l-0.97-0.12l-0.03,0L64.6,20.1c-3.51-1.26-7.29-1.76-10.98-1.33c-1.85,0.2-3.64,0.67-5.42,1.26
			c-1.78,0.57-3.54,1.2-5.27,1.9c-3.46,1.4-6.78,3.15-9.77,5.36c-2.98,2.22-5.57,4.92-7.69,7.98c-4.29,6.06-6.79,13.39-6.92,20.81
			c-0.24,7.39,2.79,14.82,8.19,19.84l0.21,0.19l-0.06,0.27c-0.16,0.78-0.37,1.51-0.45,2.22c-0.08,0.73-0.08,1.47,0.03,2.17
			c0.19,1.41,1.01,2.72,2.3,3.13c0.63,0.21,1.34,0.2,2.04,0.05c0.71-0.14,1.37-0.43,2.13-0.71c1.45-0.53,2.97-0.97,4.21-1.66
			l0.18-0.1l0.17,0.04c3.49,0.79,7.12,0.95,10.7,0.62c3.58-0.33,7.11-1.17,10.45-2.51c3.32-1.34,6.54-3.09,9.09-5.59
			c0.64-0.63,1.2-1.29,1.77-2.01l1.74-2.11c1.16-1.4,2.32-2.79,3.37-4.25c2.12-2.91,3.55-6.26,4.8-9.66
			c1.19-3.42,2.37-6.87,2.64-10.48c0.35-3.6-0.28-7.23-1.17-10.73C79.94,31.32,78.29,27.96,75.75,25.34z M75.75,25.34
			c2.59,2.57,4.31,5.92,5.31,9.42c0.96,3.5,1.66,7.15,1.37,10.82c-0.12,1.83-0.42,3.64-0.89,5.41c-0.48,1.76-1.02,3.5-1.62,5.22
			c-1.21,3.43-2.63,6.85-4.77,9.86c-1.05,1.5-2.21,2.92-3.35,4.33l-1.71,2.12c-0.54,0.71-1.16,1.45-1.81,2.1
			c-2.64,2.62-5.92,4.46-9.32,5.83c-3.41,1.38-7.02,2.25-10.68,2.6c-3.66,0.35-7.38,0.21-10.99-0.6l0.35-0.06
			c-1.46,0.82-2.94,1.22-4.38,1.76c-1.36,0.55-3.07,1.23-4.79,0.68c-0.84-0.27-1.57-0.84-2.06-1.54c-0.51-0.71-0.77-1.53-0.91-2.34
			c-0.13-0.82-0.13-1.63-0.04-2.44c0.09-0.82,0.31-1.58,0.46-2.31l0.15,0.46c-5.63-5.22-8.72-12.96-8.45-20.59
			c0.16-7.61,2.75-15.11,7.15-21.29c2.16-3.12,4.87-5.88,7.93-8.11c3.08-2.22,6.47-3.96,9.98-5.35c1.76-0.69,3.54-1.31,5.34-1.87
			c1.78-0.58,3.65-1.05,5.54-1.23c3.78-0.41,7.63,0.18,11.16,1.52l-0.05-0.01l0.99,0.14l-0.14,0.04c1.29-1,2.38-2.32,3.86-3.18
			c0.73-0.43,1.52-0.75,2.36-0.9c0.83-0.14,1.73-0.07,2.49,0.33c0.76,0.4,1.34,1.08,1.68,1.85c0.33,0.77,0.5,1.61,0.56,2.44
			c0.06,0.83,0.04,1.67-0.05,2.5C76.33,23.78,76.21,24.63,75.75,25.34z"/>
	</g>
	<g>
		<path d="M73.82,28.46c1.92,2.85,3.11,6.21,3.55,9.66c0.47,3.45,0.27,6.98-0.41,10.38c-0.69,3.41-1.82,6.7-3.23,9.84
			c-0.7,1.57-1.46,3.11-2.27,4.62c-0.83,1.48-1.75,3.07-3.22,4.01c1.26-1.18,1.99-2.72,2.63-4.3c0.66-1.57,1.3-3.15,1.9-4.74
			c1.19-3.18,2.24-6.4,2.88-9.7c0.69-3.29,0.93-6.66,0.68-10.01C76.07,34.89,75.28,31.57,73.82,28.46z"/>
	</g>
	<g>
		<path d="M70.48,55.29c0.11,1.18-0.28,2.26-0.84,3.2c-0.3,0.46-0.64,0.91-1.05,1.28c-0.41,0.38-0.87,0.71-1.43,0.91
			c0.15-0.58,0.37-1.07,0.6-1.54c0.23-0.47,0.49-0.91,0.75-1.35C69.06,56.93,69.61,56.09,70.48,55.29z"/>
	</g>
	<g>
		<path d="M65.5,65.42c0.24,0.14,0.36,0.21,0.44,0.27c0.09,0.06,0.11,0.09,0.11,0.1c-0.02,0.01-0.05,0.01-0.15-0.03
			c-0.09-0.03-0.23-0.08-0.48-0.2c-0.24-0.14-0.36-0.21-0.45-0.27c-0.09-0.06-0.11-0.08-0.11-0.1c0.02-0.01,0.05-0.01,0.15,0.03
			C65.11,65.26,65.25,65.31,65.5,65.42z"/>
	</g>
	<g>
		<path d="M23.29,45.33c-0.7,3.54-1,7.03-0.71,10.52c0.26,3.49,1.1,6.89,2.34,10.28c-2.19-2.9-3.37-6.53-3.67-10.17
			C20.98,52.3,21.58,48.53,23.29,45.33z"/>
	</g>
	<g>
		<path d="M26.89,58.07c0.43,0.59,0.72,1.2,0.97,1.82c0.26,0.61,0.44,1.24,0.61,1.88c0.15,0.63,0.25,1.3,0.38,1.91
			c0.13,0.62,0.25,1.2,0.58,1.83c-0.71-0.2-1.24-0.85-1.56-1.47c-0.35-0.63-0.51-1.27-0.68-1.92c-0.15-0.66-0.28-1.32-0.33-1.99
			C26.79,59.45,26.78,58.77,26.89,58.07z"/>
	</g>
</g>
</svg>
