<?xml version="1.0" encoding="utf-8"?>
<!-- Generator: Adobe Illustrator 24.0.1, SVG Export Plug-In . SVG Version: 6.00 Build 0)  -->
<svg version="1.1" id="Capa_1" xmlns="http://www.w3.org/2000/svg" xmlns:xlink="http://www.w3.org/1999/xlink" x="0px" y="0px"
	 viewBox="0 0 100 100" style="enable-background:new 0 0 100 100;" xml:space="preserve">
<style type="text/css">
	.st0{fill:#946632;}
	.st1{fill:#0F0005;}
	.st2{fill:#FF931E;}
	.st3{fill:#140108;}
	.st4{fill:#F53737;}
	.st5{fill:#14040A;}
	.st6{fill:#D34472;}
	.st7{fill:#050002;}
</style>
<g>
	<g>
		<g>
			<g>
				<path class="st0" d="M94.39,91.44c-3.58,3.72-9.52,3.84-13.24,0.26c-3.72-3.58-3.84-9.52-0.26-13.24
					c3.58-3.72,9.52-3.84,13.24-0.26C97.85,81.78,97.97,87.72,94.39,91.44z M82.39,79.9c-2.78,2.9-2.69,7.52,0.2,10.3
					c2.9,2.78,7.52,2.69,10.3-0.2c2.78-2.9,2.69-7.52-0.2-10.3C89.8,76.91,85.17,77,82.39,79.9z"/>
				<g>
					<path class="st1" d="M94.39,91.44c-1.69,1.78-4.1,2.86-6.57,2.91c-2.46,0.08-4.96-0.84-6.77-2.55
						c-1.82-1.7-2.95-4.15-3.01-6.66c-0.07-2.52,0.9-5.05,2.65-6.88c1.76-1.82,4.25-2.89,6.77-2.91c2.52-0.03,5.01,0.99,6.78,2.75
						c1.78,1.75,2.8,4.2,2.81,6.67C97.08,87.23,96.11,89.68,94.39,91.44z M94.39,91.44c1.7-1.77,2.64-4.23,2.57-6.67
						c-0.07-2.44-1.15-4.82-2.93-6.46c-1.76-1.66-4.18-2.55-6.57-2.47c-2.39,0.05-4.73,1.09-6.37,2.82
						c-1.67,1.7-2.61,4.08-2.57,6.47c0.01,2.39,1,4.77,2.72,6.47c1.71,1.7,4.13,2.7,6.57,2.67C90.27,94.24,92.68,93.2,94.39,91.44z"
						/>
					<path class="st1" d="M82.39,79.9c-1.32,1.38-2.05,3.29-1.99,5.19c0.06,1.9,0.91,3.74,2.29,5.01c1.37,1.28,3.24,1.96,5.09,1.89
						c1.85-0.04,3.65-0.85,4.91-2.18c1.28-1.31,2.02-3.14,1.99-4.99c0-1.84-0.75-3.69-2.09-5.01c-1.32-1.33-3.19-2.11-5.09-2.09
						C85.6,77.73,83.72,78.53,82.39,79.9z M82.39,79.9c1.31-1.39,3.19-2.23,5.11-2.27c1.92-0.07,3.87,0.64,5.29,1.97
						c1.43,1.32,2.32,3.23,2.38,5.21c0.06,1.97-0.7,3.96-2.07,5.39c-1.38,1.43-3.34,2.26-5.31,2.28c-1.97,0.02-3.92-0.79-5.29-2.17
						c-1.39-1.37-2.17-3.29-2.17-5.21C80.29,83.17,81.05,81.26,82.39,79.9z"/>
				</g>
			</g>
		</g>
		<g>
			<polygon class="st0" points="8.52,8.87 11.36,14.02 80.35,80.37 81.56,79.1 82.78,77.84 13.78,11.5 			"/>
			<path class="st1" d="M8.52,8.87l2.87,5.14L11.38,14c11.57,10.98,23.1,22.01,34.61,33.05l34.56,33.11l-0.4,0.01l2.42-2.52
				l0.01,0.4L48.14,44.81C36.66,33.74,25.18,22.66,13.76,11.52l0.01,0.01L8.52,8.87z M8.52,8.87l5.28,2.61l0,0l0,0
				c11.57,10.98,23.1,22.01,34.61,33.05l34.56,33.11l0.2,0.2l-0.2,0.2l-2.43,2.52l-0.2,0.2l-0.2-0.2L45.72,47.33
				C34.23,36.26,22.76,25.18,11.33,14.05l0,0l0,0L8.52,8.87z"/>
		</g>
	</g>
	<g>
		<g>
			<path class="st2" d="M82.3,45.1c-4.69-0.91-6.66,5.22-6.66,5.22c-1.92,8.64-4.85,12.37-7.88,15.52
				c-3.02,3.14-6.64,6.22-15.2,8.48c0,0-6.05,2.21-4.96,6.86c1.09,4.65,6.78,5.38,12.99,2.67c6.21-2.71,11.25-5.82,15.37-10.11
				c4.12-4.29,7.04-9.45,9.5-15.76C87.94,51.66,86.99,46,82.3,45.1z"/>
			<path class="st3" d="M82.3,45.1c-0.76-0.11-1.55-0.12-2.28,0.13c-0.73,0.25-1.39,0.68-1.95,1.2c-0.57,0.52-1.02,1.16-1.42,1.81
				c-0.39,0.66-0.73,1.36-0.98,2.08l0,0c-0.64,2.87-1.48,5.71-2.75,8.38c-1.24,2.68-3.02,5.09-5.07,7.21
				c-2.01,2.16-4.33,4.07-6.95,5.46c-2.61,1.41-5.42,2.39-8.27,3.17l0.02-0.01c-1.43,0.58-2.8,1.46-3.79,2.63
				c-0.99,1.17-1.4,2.79-0.89,4.24c0.4,1.48,1.53,2.68,2.97,3.2c1.43,0.56,3.04,0.6,4.58,0.4c3.13-0.39,6.02-1.85,8.87-3.24
				c2.83-1.45,5.56-3.1,8.05-5.08c5.03-3.93,8.78-9.29,11.43-15.08c1.31-2.89,2.65-5.87,2.87-9.07c0.12-1.58-0.07-3.22-0.75-4.67
				c-0.36-0.71-0.88-1.34-1.51-1.83C83.84,45.56,83.08,45.28,82.3,45.1z M82.3,45.1c0.78,0.18,1.54,0.46,2.19,0.94
				c0.63,0.49,1.15,1.12,1.52,1.83c0.7,1.45,0.89,3.09,0.78,4.68c-0.2,3.22-1.54,6.21-2.8,9.12c-1.31,2.92-2.85,5.74-4.72,8.34
				c-1.87,2.6-4.08,4.97-6.57,7c-2.49,2.04-5.22,3.75-8.07,5.22c-2.85,1.41-5.77,2.92-9.03,3.35c-1.6,0.21-3.3,0.19-4.86-0.43
				c-1.57-0.57-2.86-1.95-3.28-3.57c-0.56-1.6-0.07-3.47,1.01-4.72c1.09-1.26,2.5-2.14,4.02-2.76l0.01,0l0.01,0
				c2.83-0.74,5.63-1.67,8.22-3.02c2.61-1.33,4.92-3.18,6.95-5.3c2.07-2.08,3.87-4.44,5.14-7.1c1.3-2.64,2.14-5.48,2.8-8.34l0,0
				c0.26-0.73,0.6-1.43,1-2.09c0.41-0.66,0.87-1.29,1.44-1.81c0.57-0.52,1.23-0.95,1.96-1.2C80.75,44.97,81.54,44.98,82.3,45.1z"/>
		</g>
		<g>
			<g>
				<path class="st2" d="M72.35,69l-3.99-3.84c-0.24,0.26-0.48,0.52-0.72,0.77c-0.25,0.26-0.51,0.53-0.78,0.79l3.99,3.84
					c0.43,0.41,1.12,0.4,1.53-0.03C72.8,70.1,72.78,69.41,72.35,69z"/>
				<path class="st3" d="M72.35,69c-1.33-1.28-2.75-2.47-4.14-3.69l0.3-0.01c-0.46,0.56-0.95,1.1-1.46,1.61l0-0.4
					c1.09,1.02,2.12,2.09,3.14,3.18l0.76,0.81c0.24,0.24,0.62,0.34,0.96,0.25c0.34-0.1,0.64-0.39,0.72-0.75
					C72.74,69.66,72.62,69.26,72.35,69z M72.35,69c0.59,0.51,0.37,1.61-0.41,1.85c-0.36,0.14-0.81,0.08-1.13-0.19l-0.85-0.73
					c-1.13-0.97-2.25-1.96-3.3-3.01l-0.2-0.2l0.2-0.2l1.54-1.5l0.16-0.16l0.14,0.15C69.78,66.35,71.02,67.72,72.35,69z"/>
			</g>
			<g>
				<path class="st2" d="M62.34,70.36l2.54,4.32c0.3,0.52,0.97,0.69,1.48,0.38c0.52-0.3,0.69-0.97,0.38-1.48l-2.62-4.46
					C63.57,69.54,62.98,69.96,62.34,70.36z"/>
				<path class="st3" d="M62.34,70.36l1.91,2.87c0.3,0.46,0.61,0.94,0.88,1.38c0.25,0.37,0.8,0.45,1.15,0.19
					c0.35-0.25,0.45-0.75,0.19-1.14l-0.84-1.47c-0.57-0.98-1.09-1.98-1.63-2.98l0.22,0.04L62.34,70.36z M62.34,70.36
					c0.53-0.43,1.1-0.89,1.69-1.35l0.13-0.1l0.09,0.14c0.61,0.95,1.24,1.9,1.81,2.87l0.88,1.45c0.42,0.55,0.25,1.49-0.36,1.87
					c-0.59,0.42-1.48,0.25-1.86-0.35c-0.32-0.53-0.57-1.03-0.85-1.55C63.32,72.32,62.82,71.31,62.34,70.36z"/>
			</g>
			<g>
				<path class="st2" d="M57.14,72.87l1.5,4.56c0.19,0.57,0.8,0.88,1.37,0.69c0.57-0.19,0.88-0.8,0.69-1.37l-1.56-4.72
					C58.51,72.31,57.85,72.59,57.14,72.87z"/>
				<path class="st3" d="M57.14,72.87l1.23,3.11l0.55,1.47c0.18,0.39,0.69,0.57,1.07,0.39c0.39-0.17,0.58-0.63,0.44-1.03l-0.49-1.57
					c-0.34-1.04-0.63-2.1-0.93-3.16l0.21,0.09L57.14,72.87z M57.14,72.87c0.6-0.31,1.26-0.65,1.94-0.98l0.15-0.07l0.06,0.16
					c0.38,1.03,0.79,2.05,1.13,3.1l0.54,1.56c0.26,0.64-0.11,1.46-0.76,1.7c-0.64,0.28-1.45-0.04-1.72-0.67
					c-0.22-0.58-0.34-1.1-0.5-1.65C57.66,74.93,57.39,73.87,57.14,72.87z"/>
			</g>
			<g>
				<path class="st2" d="M75.29,64.78c0.53,0.28,1.18,0.09,1.47-0.44c0.28-0.53,0.08-1.18-0.44-1.47L71.9,60.5
					c-0.38,0.66-0.77,1.27-1.17,1.83L75.29,64.78z"/>
				<path class="st3" d="M75.29,64.78c0.31,0.16,0.7,0.16,1.01,0c0.31-0.17,0.51-0.49,0.54-0.83c0.03-0.34-0.13-0.67-0.38-0.86
					c-0.25-0.17-0.62-0.3-0.92-0.46c-1.27-0.59-2.54-1.2-3.76-1.88l0.37-0.11c-0.4,0.61-0.81,1.22-1.24,1.81l-0.07-0.31
					C72.31,63.03,73.76,63.97,75.29,64.78z M75.29,64.78c-1.52-0.82-3.1-1.52-4.65-2.26l-0.19-0.09l0.12-0.21
					c0.35-0.63,0.72-1.24,1.1-1.85l0.14-0.23l0.23,0.12c1.24,0.65,2.45,1.36,3.65,2.1c0.3,0.2,0.6,0.33,0.9,0.58
					c0.28,0.27,0.4,0.66,0.34,1.02C76.83,64.71,75.91,65.15,75.29,64.78z"/>
			</g>
			<g>
				<path class="st2" d="M78.28,58.67c0.57,0.17,1.17-0.17,1.34-0.74c0.17-0.58-0.17-1.17-0.74-1.34l-4.62-1.32
					c-0.24,0.72-0.5,1.4-0.76,2.03L78.28,58.67z"/>
				<path class="st3" d="M78.28,58.67c0.33,0.09,0.7,0.01,0.96-0.2c0.26-0.21,0.4-0.56,0.37-0.89c-0.03-0.33-0.23-0.62-0.5-0.78
					c-0.26-0.14-0.63-0.17-0.96-0.26c-1.34-0.3-2.67-0.62-3.98-1.01l0.34-0.18c-0.26,0.68-0.54,1.36-0.83,2.02l-0.13-0.28
					C75.13,57.64,76.68,58.22,78.28,58.67z M78.28,58.67c-1.59-0.46-3.22-0.8-4.83-1.17l-0.2-0.05l0.07-0.23
					c0.21-0.69,0.44-1.37,0.68-2.05l0.09-0.25l0.25,0.07c1.32,0.36,2.62,0.79,3.91,1.25c0.32,0.13,0.65,0.18,0.98,0.39
					c0.3,0.22,0.48,0.58,0.48,0.94C79.73,58.31,78.95,58.89,78.28,58.67z"/>
			</g>
		</g>
	</g>
	<g>
		<g>
			<g>
				<path class="st4" d="M64.92,38.67c-4.25-0.76-6.2,3.52-6.2,3.52c-1.57,4.59-3.53,7.34-5.57,9.6c-2.18,2.13-4.84,4.19-9.37,5.94
					c0,0-4.2,2.11-3.27,6.33c0.93,4.22,4.87,5.51,7.21,4.41c5.39-2.42,8.72-4.23,13.36-9.06c4.1-4.26,6.32-8.23,8.53-13.71
					C70.62,43.32,69.17,39.43,64.92,38.67z"/>
				<g>
					<path class="st5" d="M64.92,38.67c-0.63-0.08-1.28-0.13-1.91,0.01c-0.63,0.12-1.23,0.34-1.77,0.69
						c-1.08,0.68-1.93,1.7-2.5,2.83l0,0c-0.6,1.77-1.34,3.49-2.25,5.12c-0.91,1.63-2.02,3.14-3.27,4.55
						c-1.33,1.32-2.77,2.53-4.36,3.53c-1.58,1.01-3.28,1.83-5.01,2.53l0.02-0.01c-1.03,0.58-1.95,1.45-2.56,2.46
						c-0.61,1.02-0.82,2.24-0.59,3.41c0.2,1.18,0.75,2.29,1.55,3.15c0.82,0.85,1.92,1.43,3.08,1.57c0.58,0.08,1.17,0.05,1.73-0.11
						c0.53-0.17,1.11-0.46,1.67-0.71c1.13-0.51,2.24-1.04,3.33-1.62c2.18-1.15,4.22-2.55,6.08-4.16c3.73-3.23,6.99-7.06,9.24-11.48
						c0.57-1.1,1.1-2.22,1.59-3.36c0.24-0.57,0.5-1.14,0.7-1.72c0.18-0.59,0.22-1.21,0.15-1.83c-0.13-1.23-0.75-2.39-1.64-3.24
						C67.32,39.43,66.13,38.9,64.92,38.67z M64.92,38.67c1.21,0.23,2.4,0.74,3.3,1.6c0.9,0.85,1.53,2.01,1.68,3.25
						c0.08,0.62,0.04,1.25-0.14,1.85c-0.2,0.59-0.45,1.16-0.69,1.73c-0.48,1.14-0.98,2.28-1.54,3.39
						c-2.17,4.48-5.39,8.41-9.08,11.74c-1.85,1.68-3.92,3.12-6.12,4.3c-1.1,0.6-2.22,1.14-3.35,1.66c-0.57,0.25-1.1,0.54-1.75,0.75
						c-0.64,0.19-1.31,0.23-1.96,0.14c-1.3-0.17-2.51-0.82-3.4-1.76c-0.88-0.96-1.46-2.17-1.67-3.44c-0.12-0.64-0.12-1.3-0.01-1.94
						c0.13-0.64,0.35-1.26,0.69-1.81c0.68-1.11,1.65-1.97,2.79-2.59l0.01,0l0.01,0c1.73-0.66,3.42-1.44,5-2.41
						c1.58-0.96,3.04-2.13,4.37-3.41c1.25-1.36,2.39-2.85,3.33-4.45c0.94-1.6,1.67-3.33,2.29-5.08l0,0
						c0.59-1.14,1.45-2.15,2.54-2.83c0.54-0.35,1.15-0.57,1.78-0.68C63.64,38.53,64.29,38.59,64.92,38.67z"/>
				</g>
			</g>
			<g>
				<path class="st6" d="M55.66,53.35c-1.25,1.3-4.99,4.65-7.71,5.84c-2.72,1.19-2.38,4.66,0.69,4.2c3.07-0.46,7.01-4.02,10.03-7.15
					c3.02-3.14,7.89-10.39,5.65-11.88C62.08,42.85,58.94,49.94,55.66,53.35z"/>
				<g>
					<path class="st7" d="M55.66,53.35c-1.64,1.66-3.42,3.18-5.34,4.52c-0.48,0.33-0.97,0.65-1.48,0.94
						c-0.5,0.31-1.07,0.5-1.52,0.84c-0.45,0.34-0.82,0.8-0.99,1.33c-0.17,0.52-0.14,1.13,0.17,1.56c0.31,0.44,0.84,0.67,1.39,0.69
						c0.55,0.02,1.11-0.09,1.64-0.28c1.08-0.36,2.06-0.99,3.01-1.64c1.89-1.33,3.59-2.92,5.22-4.58c1.66-1.62,3.1-3.44,4.38-5.37
						c0.63-0.97,1.25-1.95,1.75-2.99c0.47-1.02,0.97-2.16,0.78-3.24c-0.09-0.53-0.61-0.92-1.14-0.86c-0.54,0.06-1.02,0.44-1.44,0.82
						c-0.84,0.79-1.54,1.74-2.22,2.68C58.53,49.66,57.27,51.65,55.66,53.35z M55.66,53.35c1.59-1.71,2.82-3.72,4.15-5.63
						c0.67-0.95,1.33-1.93,2.17-2.76c0.42-0.4,0.89-0.82,1.53-0.92c0.64-0.1,1.31,0.38,1.44,1.02c0.15,0.62,0.05,1.23-0.1,1.81
						c-0.15,0.58-0.37,1.13-0.6,1.67c-0.48,1.08-1.06,2.11-1.69,3.1c-1.28,1.97-2.72,3.85-4.39,5.51c-1.66,1.65-3.4,3.25-5.35,4.58
						c-0.98,0.65-2.02,1.25-3.16,1.61c-0.57,0.19-1.17,0.29-1.79,0.25c-0.61-0.04-1.25-0.33-1.6-0.87
						c-0.36-0.54-0.35-1.23-0.15-1.79c0.2-0.58,0.61-1.06,1.1-1.4c0.49-0.35,1.06-0.52,1.56-0.81c0.51-0.27,1.01-0.57,1.5-0.9
						C52.2,56.49,54,54.99,55.66,53.35z"/>
				</g>
			</g>
		</g>
	</g>
	<g>
		<g>
			<path class="st2" d="M52.63,16.56c-4.69-0.91-6.66,5.22-6.66,5.22c-1.92,8.64-4.85,12.37-7.88,15.52s-6.64,6.22-15.2,8.48
				c0,0-6.05,2.21-4.96,6.86c1.09,4.65,6.78,5.38,12.99,2.67c6.21-2.71,11.25-5.82,15.37-10.11c4.12-4.29,7.04-9.45,9.5-15.76
				C58.27,23.13,57.32,17.47,52.63,16.56z"/>
			<path class="st3" d="M52.63,16.56c-0.76-0.11-1.55-0.12-2.28,0.13c-0.73,0.25-1.39,0.68-1.95,1.2c-0.57,0.52-1.02,1.16-1.42,1.81
				c-0.39,0.66-0.73,1.36-0.98,2.08l0,0c-0.64,2.87-1.48,5.71-2.75,8.38c-1.24,2.68-3.02,5.09-5.07,7.21
				c-2.01,2.16-4.32,4.07-6.95,5.46c-2.61,1.41-5.42,2.39-8.27,3.17l0.02-0.01c-1.43,0.58-2.8,1.46-3.79,2.63
				c-0.99,1.17-1.4,2.79-0.89,4.24c0.4,1.48,1.53,2.68,2.97,3.2c1.43,0.56,3.04,0.6,4.58,0.4c3.13-0.39,6.02-1.85,8.87-3.24
				c2.83-1.45,5.56-3.1,8.05-5.08c2.49-1.97,4.71-4.28,6.61-6.84c1.9-2.56,3.48-5.35,4.82-8.24c1.31-2.89,2.65-5.87,2.87-9.07
				c0.12-1.58-0.07-3.22-0.75-4.67c-0.36-0.71-0.88-1.34-1.51-1.83C54.17,17.03,53.41,16.75,52.63,16.56z M52.63,16.56
				c0.78,0.18,1.54,0.46,2.19,0.94c0.63,0.49,1.15,1.12,1.52,1.83c0.7,1.45,0.89,3.09,0.78,4.68c-0.2,3.22-1.54,6.21-2.8,9.12
				c-1.31,2.92-2.85,5.74-4.72,8.34c-1.87,2.6-4.08,4.97-6.57,7c-2.49,2.04-5.22,3.75-8.07,5.22c-2.85,1.41-5.77,2.92-9.03,3.35
				c-1.6,0.21-3.3,0.19-4.86-0.43c-1.57-0.57-2.86-1.95-3.28-3.57c-0.56-1.6-0.07-3.47,1.01-4.72c1.09-1.26,2.5-2.14,4.02-2.76
				l0.01,0l0.01,0c2.83-0.74,5.63-1.67,8.22-3.02c2.61-1.33,4.92-3.18,6.95-5.3c2.07-2.08,3.87-4.44,5.14-7.1
				c1.3-2.64,2.14-5.48,2.8-8.34l0,0c0.26-0.73,0.6-1.43,1-2.09c0.41-0.66,0.87-1.29,1.44-1.81c0.57-0.52,1.23-0.95,1.96-1.2
				C51.08,16.44,51.87,16.45,52.63,16.56z"/>
		</g>
		<g>
			<g>
				<path class="st2" d="M42.68,40.47l-3.99-3.84c-0.24,0.26-0.48,0.52-0.72,0.77c-0.25,0.26-0.51,0.53-0.78,0.79l3.99,3.84
					c0.43,0.41,1.12,0.4,1.53-0.03C43.13,41.57,43.11,40.88,42.68,40.47z"/>
				<path class="st3" d="M42.68,40.47c-1.33-1.28-2.75-2.47-4.14-3.69l0.3-0.01c-0.46,0.56-0.95,1.1-1.46,1.61l0-0.4
					c1.09,1.02,2.12,2.09,3.14,3.18l0.76,0.81c0.24,0.24,0.62,0.34,0.96,0.25c0.34-0.1,0.64-0.39,0.72-0.75
					C43.07,41.13,42.95,40.73,42.68,40.47z M42.68,40.47c0.59,0.51,0.37,1.61-0.41,1.85c-0.36,0.14-0.81,0.08-1.13-0.19L40.3,41.4
					c-1.13-0.97-2.25-1.96-3.3-3.01l-0.2-0.2l0.2-0.2l1.54-1.51l0.16-0.16l0.14,0.15C40.11,37.82,41.35,39.19,42.68,40.47z"/>
			</g>
			<g>
				<path class="st2" d="M32.67,41.83l2.54,4.32c0.3,0.52,0.97,0.69,1.48,0.38c0.52-0.31,0.69-0.97,0.38-1.48l-2.62-4.46
					C33.9,41.01,33.31,41.43,32.67,41.83z"/>
				<path class="st3" d="M32.67,41.83l1.91,2.87c0.3,0.46,0.61,0.94,0.88,1.38c0.25,0.37,0.8,0.45,1.14,0.19
					c0.35-0.26,0.45-0.75,0.19-1.14l-0.84-1.47c-0.57-0.98-1.09-1.98-1.63-2.98l0.22,0.04L32.67,41.83z M32.67,41.83
					c0.53-0.43,1.1-0.89,1.69-1.35l0.13-0.1l0.09,0.14c0.61,0.95,1.24,1.9,1.81,2.87l0.88,1.45c0.42,0.55,0.25,1.49-0.36,1.87
					c-0.59,0.42-1.48,0.25-1.86-0.35c-0.32-0.53-0.57-1.03-0.85-1.55C33.65,43.79,33.15,42.78,32.67,41.83z"/>
			</g>
			<g>
				<path class="st2" d="M27.46,44.34l1.5,4.56c0.19,0.57,0.8,0.88,1.37,0.69c0.57-0.19,0.88-0.8,0.69-1.37l-1.56-4.72
					C28.84,43.78,28.18,44.06,27.46,44.34z"/>
				<path class="st3" d="M27.46,44.34l1.23,3.11l0.55,1.47c0.18,0.39,0.69,0.57,1.07,0.39c0.39-0.17,0.58-0.63,0.44-1.03l-0.49-1.57
					c-0.34-1.04-0.63-2.1-0.93-3.16l0.21,0.09L27.46,44.34z M27.46,44.34c0.6-0.31,1.26-0.65,1.94-0.98l0.15-0.07l0.06,0.16
					c0.38,1.03,0.79,2.05,1.13,3.1l0.54,1.56c0.26,0.64-0.11,1.46-0.76,1.7c-0.64,0.28-1.45-0.04-1.72-0.67
					c-0.22-0.58-0.34-1.1-0.5-1.65C27.99,46.4,27.72,45.34,27.46,44.34z"/>
			</g>
			<g>
				<path class="st2" d="M45.61,36.24c0.53,0.28,1.18,0.09,1.47-0.44c0.28-0.53,0.09-1.18-0.44-1.47l-4.42-2.37
					c-0.38,0.66-0.77,1.27-1.17,1.83L45.61,36.24z"/>
				<path class="st3" d="M45.61,36.24c0.31,0.16,0.7,0.16,1.01,0c0.31-0.17,0.51-0.49,0.54-0.83c0.03-0.34-0.13-0.67-0.38-0.86
					c-0.25-0.17-0.62-0.3-0.92-0.46c-1.27-0.59-2.54-1.2-3.76-1.88l0.37-0.11c-0.4,0.62-0.81,1.22-1.24,1.81l-0.07-0.31
					C42.64,34.5,44.09,35.43,45.61,36.24z M45.61,36.24c-1.52-0.82-3.1-1.52-4.65-2.26l-0.19-0.09l0.12-0.21
					c0.35-0.63,0.71-1.24,1.09-1.85l0.14-0.23l0.23,0.12c1.24,0.65,2.45,1.36,3.65,2.1c0.3,0.2,0.6,0.33,0.9,0.58
					c0.28,0.27,0.4,0.66,0.34,1.02C47.15,36.18,46.24,36.62,45.61,36.24z"/>
			</g>
			<g>
				<path class="st2" d="M48.61,30.14c0.57,0.16,1.17-0.17,1.34-0.74c0.17-0.58-0.17-1.17-0.74-1.34l-4.62-1.32
					c-0.24,0.72-0.5,1.4-0.76,2.03L48.61,30.14z"/>
				<path class="st3" d="M48.61,30.14c0.33,0.09,0.7,0.01,0.96-0.2c0.26-0.21,0.4-0.56,0.37-0.89c-0.03-0.33-0.23-0.62-0.5-0.78
					c-0.26-0.14-0.63-0.17-0.96-0.26c-1.34-0.3-2.67-0.62-3.98-1.01l0.34-0.18c-0.26,0.68-0.54,1.36-0.83,2.02l-0.13-0.28
					C45.46,29.11,47.01,29.69,48.61,30.14z M48.61,30.14c-1.59-0.46-3.22-0.8-4.84-1.17l-0.2-0.05l0.07-0.23
					c0.21-0.69,0.44-1.37,0.69-2.05l0.09-0.25l0.25,0.07c1.32,0.36,2.62,0.79,3.91,1.25c0.32,0.13,0.65,0.18,0.98,0.39
					c0.3,0.22,0.48,0.58,0.48,0.94C50.06,29.78,49.28,30.36,48.61,30.14z"/>
			</g>
		</g>
	</g>
	<g>
		<g>
			<g>
				<path class="st4" d="M35.25,10.14c-4.25-0.76-6.2,3.52-6.2,3.52c-1.58,4.59-3.53,7.34-5.57,9.6c-2.18,2.13-4.84,4.19-9.37,5.94
					c0,0-4.2,2.11-3.27,6.33c0.93,4.22,4.87,5.51,7.21,4.41c5.39-2.42,8.72-4.23,13.36-9.06c4.1-4.26,6.32-8.23,8.53-13.71
					C40.95,14.79,39.5,10.9,35.25,10.14z"/>
				<g>
					<path class="st5" d="M35.25,10.14c-0.63-0.08-1.28-0.13-1.91,0.01c-0.63,0.12-1.23,0.35-1.77,0.69
						c-1.08,0.68-1.93,1.7-2.5,2.83l0,0c-0.6,1.76-1.34,3.49-2.25,5.12c-0.91,1.63-2.02,3.14-3.27,4.55
						c-1.33,1.32-2.77,2.53-4.36,3.54c-1.58,1.01-3.28,1.83-5.01,2.53l0.02-0.01c-1.03,0.58-1.95,1.45-2.56,2.46
						c-0.61,1.02-0.82,2.24-0.59,3.41c0.2,1.18,0.75,2.29,1.55,3.15c0.82,0.85,1.92,1.43,3.08,1.57c0.58,0.08,1.17,0.05,1.73-0.11
						c0.53-0.17,1.11-0.46,1.67-0.71c1.13-0.51,2.24-1.04,3.33-1.62c2.18-1.15,4.22-2.55,6.08-4.16c3.73-3.23,6.99-7.06,9.24-11.48
						c0.57-1.1,1.1-2.22,1.59-3.36c0.24-0.57,0.5-1.14,0.7-1.72c0.18-0.59,0.22-1.21,0.15-1.83c-0.13-1.23-0.75-2.39-1.64-3.24
						C37.64,10.9,36.46,10.37,35.25,10.14z M35.25,10.14c1.21,0.23,2.4,0.74,3.3,1.6c0.9,0.85,1.53,2.01,1.68,3.25
						c0.08,0.62,0.04,1.25-0.14,1.85c-0.2,0.59-0.45,1.16-0.69,1.73c-0.48,1.14-0.98,2.28-1.54,3.39
						c-2.17,4.48-5.39,8.41-9.08,11.74c-1.85,1.68-3.92,3.12-6.12,4.3c-1.1,0.6-2.22,1.14-3.35,1.66c-0.57,0.25-1.1,0.54-1.75,0.75
						c-0.64,0.19-1.31,0.23-1.96,0.14c-1.3-0.17-2.51-0.82-3.4-1.76c-0.88-0.96-1.46-2.17-1.67-3.44c-0.12-0.64-0.12-1.3-0.01-1.94
						c0.13-0.64,0.35-1.26,0.69-1.81c0.68-1.11,1.65-1.97,2.79-2.59l0.01,0l0.01,0c1.73-0.66,3.42-1.44,5-2.41
						c1.58-0.96,3.04-2.13,4.37-3.41c1.25-1.36,2.39-2.84,3.33-4.45c0.94-1.6,1.67-3.33,2.29-5.08l0,0
						c0.59-1.14,1.45-2.15,2.54-2.83c0.54-0.35,1.15-0.57,1.78-0.68C33.97,10,34.62,10.06,35.25,10.14z"/>
				</g>
			</g>
			<g>
				<path class="st6" d="M25.99,24.82c-1.25,1.3-4.99,4.65-7.71,5.84c-2.72,1.19-2.38,4.66,0.69,4.2c3.07-0.46,7.01-4.02,10.03-7.15
					c3.02-3.14,7.89-10.39,5.65-11.88C32.41,14.32,29.27,21.41,25.99,24.82z"/>
				<g>
					<path class="st7" d="M25.99,24.82c-1.64,1.66-3.42,3.18-5.34,4.52c-0.48,0.33-0.97,0.65-1.48,0.94
						c-0.5,0.31-1.07,0.5-1.52,0.84c-0.45,0.34-0.82,0.8-0.99,1.33c-0.17,0.52-0.14,1.13,0.17,1.56c0.31,0.44,0.84,0.67,1.39,0.69
						c0.55,0.02,1.11-0.09,1.64-0.28c1.08-0.36,2.06-0.99,3.01-1.64c1.89-1.33,3.59-2.92,5.22-4.58c1.66-1.62,3.1-3.44,4.39-5.37
						c0.63-0.97,1.25-1.95,1.75-2.99c0.47-1.02,0.97-2.16,0.78-3.24c-0.09-0.53-0.61-0.92-1.14-0.86c-0.54,0.06-1.02,0.44-1.44,0.82
						c-0.84,0.79-1.54,1.74-2.22,2.68C28.85,21.13,27.6,23.12,25.99,24.82z M25.99,24.82c1.59-1.71,2.82-3.72,4.15-5.63
						c0.67-0.95,1.33-1.93,2.17-2.76c0.42-0.4,0.89-0.82,1.53-0.92c0.64-0.1,1.31,0.38,1.44,1.02c0.15,0.62,0.05,1.23-0.1,1.81
						c-0.15,0.58-0.37,1.13-0.6,1.67c-0.48,1.08-1.06,2.11-1.69,3.1c-1.28,1.97-2.72,3.85-4.39,5.51c-1.66,1.65-3.4,3.25-5.35,4.58
						c-0.98,0.65-2.02,1.25-3.17,1.61c-0.57,0.19-1.17,0.29-1.79,0.25c-0.61-0.04-1.25-0.33-1.6-0.87
						c-0.36-0.54-0.35-1.23-0.15-1.79c0.2-0.58,0.61-1.06,1.1-1.4c0.49-0.35,1.06-0.52,1.56-0.81c0.51-0.27,1.01-0.57,1.5-0.9
						C22.53,27.96,24.33,26.46,25.99,24.82z"/>
				</g>
			</g>
		</g>
	</g>
</g>
</svg>
