<?xml version="1.0" encoding="utf-8"?>
<!-- Generator: Adobe Illustrator 24.0.1, SVG Export Plug-In . SVG Version: 6.00 Build 0)  -->
<svg version="1.1" id="Capa_1" xmlns="http://www.w3.org/2000/svg" xmlns:xlink="http://www.w3.org/1999/xlink" x="0px" y="0px"
	 viewBox="0 0 100 100" style="enable-background:new 0 0 100 100;" xml:space="preserve">
<style type="text/css">
	.st0{fill:#F76241;stroke:#FFFFF3;stroke-width:0.0179;stroke-miterlimit:10;}
	.st1{fill-rule:evenodd;clip-rule:evenodd;fill:#FFFFFF;}
</style>
<path class="st0" d="M70.33,83.9h-38c-6.6,0-12-5.4-12-12V28c0-6.6,5.4-12,12-12h38c6.6,0,12,5.4,12,12v43.9
	C82.33,78.5,76.93,83.9,70.33,83.9z"/>
<g>
	<path id="XMLID_11231_" class="st1" d="M40.08,51.57c5.04-0.03,9.14,3.03,9.16,6.82c0.02,3.79-4.05,6.89-9.09,6.91
		c-5.04,0.03-9.14-3.03-9.16-6.82C30.97,54.69,35.04,51.6,40.08,51.57L40.08,51.57z"/>
	<path id="XMLID_11230_" class="st1" d="M47.68,23.6L47.68,23.6c0.76,0,1.39,0.62,1.99,1.38v33.41c-0.42,0.76-1.04,1.39-1.81,1.4
		l0,0c-0.76,0-1.39-0.62-1.19-1.38V24.99C46.29,24.23,46.91,23.6,47.68,23.6L47.68,23.6z"/>
	<path id="XMLID_11229_" class="st1" d="M62.51,62.23c5.04-0.03,9.14,3.03,9.16,6.82c0.02,3.79-4.05,6.89-9.09,6.91
		c-5.04,0.03-9.14-3.03-9.16-6.82C53.4,65.35,57.47,62.25,62.51,62.23L62.51,62.23z"/>
	<path id="XMLID_11228_" class="st1" d="M70.1,34.25L70.1,34.25c0.76,0,1.39,0.62,1.57,1.38v33.41c0,0.76-0.62,1.39-1.38,1.4l0,0
		c-0.76,0-1.39-0.62-1.62-1.38V35.64C68.71,34.88,69.33,34.25,70.1,34.25L70.1,34.25z"/>
	<path id="XMLID_11227_" class="st1" d="M46.45,24.4L46.45,24.4c0.33-0.69,1.16-0.99,1.85-0.66L70.7,34.38
		c0.69,0.33,0.99,1.16,0.66,1.85l0,0c-0.33,0.69-1.16,0.99-1.85,0.66L47.1,26.25C46.41,25.92,46.12,25.09,46.45,24.4L46.45,24.4z"/>
	<path id="XMLID_11226_" class="st1" d="M46.72,35.43L46.72,35.43c0.33-0.69,1.16-0.99,1.85-0.66l22.08,10.52
		c0.69,0.33,0.99,1.16,0.66,1.85l0,0c-0.33,0.69-1.16,0.99-1.85,0.66L47.38,37.28C46.69,36.95,46.4,36.12,46.72,35.43L46.72,35.43z"
		/>
</g>
</svg>
