<?xml version="1.0" encoding="utf-8"?>
<!-- Generator: Adobe Illustrator 24.0.1, SVG Export Plug-In . SVG Version: 6.00 Build 0)  -->
<svg version="1.1" id="Capa_1" xmlns="http://www.w3.org/2000/svg" xmlns:xlink="http://www.w3.org/1999/xlink" x="0px" y="0px"
	 viewBox="0 0 100 100" style="enable-background:new 0 0 100 100;" xml:space="preserve">
<style type="text/css">
	.st0{fill:#F76241;stroke:#FFFFF3;stroke-width:0.1611;stroke-miterlimit:10;}
	.st1{opacity:0.28;fill:#FFA188;}
	.st2{fill:#F9F9F9;}
</style>
<g>
	<path class="st0" d="M1.33,35.54c0,0,53.79-34.74,95.67,1.42l-5.96,10.99l2.69,17.73c0,0-42.65-27.65-87.99-0.71l2.69-15.6
		L1.33,35.54z"/>
	<path class="st1" d="M15.32,34.53c-1.37,0.84-2.67,1.78-3.86,2.81c-1.29,1.11-2.49,2.39-3.01,3.93c-1.24,3.71,2.45,6.3,6.21,6.2
		c3.29-0.09,6.37-0.88,9.65-1c4.14-0.16,7.94,0.29,12.04,0.6c8.17,0.63,17.75-6.8,9.9-13.51c-4.21-3.6-11.15-3.82-16.58-3.51
		C24.56,30.35,19.56,31.94,15.32,34.53z"/>
	<g>
		<g>
			<g>
				<path class="st2" d="M88.43,56.02c0.27-0.03,0.56-0.03,0.83-0.03c0.29-0.01,0.57-0.03,0.86-0.06c0.55-0.05,1.09-0.12,1.63-0.2
					c0.1-0.01,0.06-0.17-0.04-0.15c-0.55,0.09-1.1,0.15-1.65,0.2c-0.54,0.05-1.09,0.11-1.63,0.08
					C88.32,55.85,88.32,56.03,88.43,56.02L88.43,56.02z"/>
			</g>
		</g>
		<g>
			<g>
				<path class="st2" d="M85.49,57.42c1.12-0.17,2.26-0.24,3.38-0.35c1.09-0.11,2.19-0.21,3.27-0.34c0.1-0.01,0.1-0.16,0-0.16
					c-1.11,0.1-2.23,0.23-3.34,0.35c-1.11,0.12-2.23,0.29-3.34,0.35C85.36,57.27,85.38,57.44,85.49,57.42L85.49,57.42z"/>
			</g>
		</g>
		<g>
			<g>
				<path class="st2" d="M87.9,58.16c0.39-0.08,0.81-0.08,1.2-0.12c0.35-0.04,0.71-0.09,1.06-0.14c0.37-0.05,0.75-0.11,1.12-0.18
					c0.36-0.06,0.76-0.1,1.11-0.22c0.06-0.02,0.06-0.13-0.02-0.13c-0.35,0.02-0.7,0.12-1.05,0.18c-0.37,0.06-0.75,0.12-1.12,0.18
					c-0.4,0.06-0.8,0.11-1.2,0.15c-0.37,0.04-0.76,0.12-1.14,0.11C87.76,58,87.78,58.19,87.9,58.16L87.9,58.16z"/>
			</g>
		</g>
		<g>
			<g>
				<path class="st2" d="M86.12,59.63c2.12-0.3,4.26-0.5,6.39-0.75c0.1-0.01,0.1-0.17,0-0.16c-2.13,0.25-4.27,0.56-6.41,0.75
					C85.98,59.48,86,59.65,86.12,59.63L86.12,59.63z"/>
			</g>
		</g>
		<g>
			<g>
				<path class="st2" d="M88.51,60.57c0.68-0.09,1.37-0.15,2.05-0.25c0.33-0.05,0.67-0.1,1-0.16c0.16-0.03,0.32-0.05,0.48-0.08
					c0.2-0.04,0.41-0.1,0.61-0.12c0.12-0.01,0.09-0.19-0.02-0.15c-0.32,0.1-0.7,0.13-1.03,0.19c-0.33,0.06-0.66,0.11-1,0.16
					c-0.7,0.1-1.41,0.22-2.11,0.26C88.38,60.42,88.4,60.58,88.51,60.57L88.51,60.57z"/>
			</g>
		</g>
	</g>
	<g>
		<g>
			<g>
				<path class="st2" d="M5.85,35.93c-0.22,0.16-0.47,0.3-0.71,0.43c-0.23,0.13-0.47,0.26-0.7,0.39c-0.49,0.26-0.98,0.51-1.49,0.73
					c-0.1,0.04-0.04,0.19,0.06,0.14c0.5-0.24,1-0.47,1.48-0.73c0.24-0.13,0.49-0.26,0.72-0.4c0.24-0.14,0.47-0.3,0.72-0.42
					C6.03,36.02,5.94,35.87,5.85,35.93L5.85,35.93z"/>
			</g>
		</g>
		<g>
			<g>
				<path class="st2" d="M9.1,35.5c-0.47,0.28-0.98,0.51-1.47,0.75c-0.51,0.26-1.02,0.52-1.52,0.77c-1,0.51-2,1-2.99,1.52
					c-0.09,0.05-0.01,0.18,0.08,0.13c1.01-0.49,2-1.02,2.99-1.52c0.49-0.25,0.98-0.5,1.47-0.75c0.5-0.26,1-0.55,1.52-0.77
					C9.27,35.6,9.19,35.45,9.1,35.5L9.1,35.5z"/>
			</g>
		</g>
		<g>
			<g>
				<path class="st2" d="M7.49,37.43c-0.32,0.22-0.71,0.37-1.05,0.54c-0.33,0.16-0.66,0.32-0.99,0.48c-0.33,0.15-0.66,0.3-1,0.45
					c-0.35,0.15-0.74,0.27-1.07,0.46c-0.06,0.04-0.02,0.14,0.05,0.12c0.35-0.08,0.7-0.27,1.03-0.41c0.34-0.14,0.67-0.29,1-0.45
					c0.33-0.15,0.66-0.31,0.99-0.47c0.16-0.08,0.33-0.16,0.49-0.25c0.2-0.1,0.4-0.24,0.61-0.32C7.66,37.53,7.58,37.37,7.49,37.43
					L7.49,37.43z"/>
			</g>
		</g>
		<g>
			<g>
				<path class="st2" d="M9.77,37.69c-0.94,0.51-1.93,0.95-2.89,1.43c-0.97,0.48-1.93,0.95-2.89,1.43
					c-0.09,0.05-0.01,0.18,0.08,0.14c0.96-0.48,1.93-0.95,2.89-1.43c0.96-0.48,1.91-0.99,2.89-1.43
					C9.95,37.79,9.87,37.64,9.77,37.69L9.77,37.69z"/>
			</g>
		</g>
		<g>
			<g>
				<path class="st2" d="M8.28,39.78c-0.59,0.35-1.24,0.63-1.86,0.91c-0.31,0.14-0.63,0.28-0.94,0.42
					c-0.17,0.07-0.35,0.15-0.52,0.22c-0.15,0.06-0.31,0.15-0.47,0.2c-0.11,0.03-0.04,0.2,0.06,0.14c0.16-0.09,0.36-0.14,0.53-0.21
					c0.14-0.06,0.28-0.12,0.43-0.18c0.33-0.14,0.65-0.29,0.98-0.43c0.31-0.14,0.62-0.29,0.93-0.44c0.32-0.16,0.63-0.34,0.96-0.48
					C8.45,39.88,8.37,39.73,8.28,39.78L8.28,39.78z"/>
			</g>
		</g>
	</g>
	<path class="st1" d="M65.38,42.73c-1.11,0.28-2.19,0.63-3.2,1.06c-1.09,0.46-2.15,1.03-2.74,1.88c-1.43,2.05,0.88,4.25,3.62,4.83
		c2.4,0.51,4.74,0.55,7.13,1.03c3.02,0.61,5.71,1.53,8.63,2.41c5.83,1.77,13.83-1.12,9.1-6.54c-2.54-2.91-7.53-4.22-11.51-4.95
		C72.68,41.76,68.83,41.88,65.38,42.73z"/>
	<g>
		<path class="st2" d="M19.35,51.96c-0.05,0.02-0.09,0.04-0.12,0.07c-0.03,0.03-0.06,0.05-0.09,0.06c-0.44,0.15-0.87,0.13-1.31-0.07
			c-0.44-0.2-0.8-0.47-1.09-0.82c0.25-0.09,0.4-0.26,0.43-0.5c0.04-0.25,0.04-0.57,0.01-0.98c-0.06-0.38-0.04-0.58,0.04-0.61
			l2.61,0.5c0.03-0.01,0.09-0.04,0.16-0.08c0.07-0.04,0.16-0.09,0.28-0.13c0.2-0.07,0.33-0.06,0.38,0.04l0.6-0.24
			c0.3-0.11,0.53-0.15,0.69-0.13c0.16,0.02,0.27,0.02,0.34,0c1.01-0.35,1.92-0.87,2.75-1.57c0.82-0.69,1.08-1.48,0.78-2.35
			c-0.13-0.37-0.38-0.74-0.76-1.12c-0.38-0.38-0.74-0.57-1.08-0.58l-7.87-0.59c-0.73-0.05-1.35-0.31-1.86-0.81
			c-0.51-0.49-0.9-1.12-1.17-1.9c-0.12-0.35-0.17-0.71-0.13-1.07c0.03-0.36,0.09-0.7,0.18-1.02c0.09-0.32,0.14-0.55,0.18-0.67
			c0.28-0.87,0.85-1.61,1.7-2.23c0.85-0.62,1.82-1.12,2.91-1.5c0.13-0.05,0.35-0.09,0.65-0.13c0.3-0.04,0.69-0.14,1.18-0.31
			c0.44-0.08,0.97-0.16,1.57-0.25c0.6-0.09,0.91-0.13,0.94-0.11l0.62,0.32l0.65,1.87c0.03,0.08,0.01,0.27-0.06,0.55
			c-0.07,0.28-0.14,0.43-0.21,0.45c-0.21-0.02-0.72-0.08-1.53-0.17c-0.91-0.12-1.63-0.19-2.18-0.21c-0.55-0.03-1.07,0.05-1.58,0.23
			c-0.92,0.32-1.69,0.81-2.3,1.47c-0.61,0.66-0.77,1.41-0.47,2.27c0.09,0.25,0.32,0.5,0.69,0.73c0.37,0.24,0.78,0.42,1.22,0.54
			c0.44,0.12,0.76,0.15,0.96,0.08l0.32-0.14c0.48-0.02,1.05,0.06,1.69,0.23c0.5,0.15,0.95,0.22,1.34,0.24
			c0.39,0.01,0.86-0.07,1.39-0.26c0.61-0.08,1.27-0.04,1.98,0.13c0.71,0.17,1.35,0.45,1.92,0.84c0.57,0.39,0.96,0.88,1.16,1.45
			c0.09,0.25,0.14,0.5,0.15,0.75C28,44.46,28,44.61,28,44.67c-0.02,0.25-0.01,0.53,0.04,0.84c0.06,0.88,0.09,1.47,0.07,1.77
			c-0.02,0.3-0.14,0.58-0.37,0.85c-0.23,0.27-0.66,0.57-1.3,0.91c-0.01,0.02-0.03,0.06-0.05,0.1c-0.02,0.05-0.04,0.08-0.05,0.1
			c-0.5,0.42-0.97,0.77-1.42,1.05c-0.45,0.28-0.93,0.51-1.46,0.69c-0.6,0.21-1.31,0.41-2.11,0.61c-0.8,0.19-1.43,0.33-1.9,0.39
			C19.42,51.96,19.38,51.95,19.35,51.96z M13.83,39.68c0.1,0.09,0.19,0.12,0.27,0.09c0.12-0.04,0.19-0.13,0.22-0.26
			c0.03-0.13,0.02-0.26-0.02-0.38l-0.68,0.24C13.67,39.49,13.73,39.59,13.83,39.68z M13.69,39.01l0.6-0.21l-0.08-0.23
			C13.85,38.7,13.68,38.84,13.69,39.01z M14.37,40.69c0.18-0.06,0.22-0.26,0.1-0.6l-0.55,0.19C14.03,40.62,14.18,40.76,14.37,40.69z
			 M14.03,37.74c-0.09,0.25-0.1,0.47-0.03,0.68c0.24-0.08,0.39-0.24,0.47-0.48c0.08-0.23,0.07-0.49-0.03-0.78
			C14.26,37.3,14.12,37.49,14.03,37.74z M14.53,40.98c0.1-0.04,0.18-0.09,0.24-0.16c0.06-0.07,0.08-0.14,0.05-0.23l-0.04-0.04
			L14.39,41L14.53,40.98z M14.98,36.11c-0.28,0.24-0.39,0.43-0.33,0.58c0.01,0.03,0.08,0.03,0.22-0.02
			c0.17-0.06,0.37-0.21,0.59-0.45c0.23-0.24,0.31-0.44,0.26-0.59C15.5,35.72,15.25,35.87,14.98,36.11z M14.68,41.43l0.35-0.12
			l-0.05-0.15l-0.35,0.12L14.68,41.43z M15.31,41.31c-0.03,0.1-0.04,0.19-0.03,0.28l0.19-0.04c0.17-0.06,0.26-0.16,0.27-0.29
			c-0.06-0.06-0.12-0.09-0.18-0.11c-0.06-0.02-0.11-0.02-0.14-0.01C15.37,41.16,15.34,41.22,15.31,41.31z M15.7,41.9
			c0.01,0.03,0.08,0.05,0.19,0.06c0.12,0.01,0.2,0.02,0.24,0.04c0.25-0.09,0.32-0.3,0.2-0.64c-0.15,0.05-0.3,0.13-0.44,0.24
			c-0.14,0.11-0.2,0.19-0.18,0.26L15.7,41.9z M16.64,41.74c0,0.09,0,0.16,0,0.2l0.68-0.24c-0.03-0.08-0.1-0.14-0.23-0.16
			c-0.12-0.02-0.23-0.02-0.33,0.02C16.68,41.58,16.64,41.64,16.64,41.74z M17.03,35.12c0.08,0.01,0.14,0.02,0.18,0.02
			c0.1-0.04,0.21-0.11,0.32-0.21c0.11-0.11,0.16-0.2,0.13-0.28c-0.08,0.03-0.21,0.09-0.36,0.17c-0.16,0.08-0.31,0.17-0.45,0.26
			C16.89,35.1,16.96,35.11,17.03,35.12z M17.9,42.1c0.19,0.02,0.31,0.02,0.38-0.01c0.03-0.01,0.08-0.07,0.14-0.18
			c0.06-0.1,0.08-0.18,0.06-0.23l-0.23-0.09l-0.73,0.42C17.59,42.06,17.72,42.08,17.9,42.1z M22.16,34.98
			c0.09,0.04,0.24,0.06,0.44,0.04l-0.1-1.35c-0.05-0.13-0.68-0.1-1.9,0.1c-1.22,0.2-2.08,0.39-2.59,0.56
			c-0.03,0.03-0.05,0.08-0.07,0.15c-0.02,0.07-0.03,0.13-0.01,0.16c0.06,0.17,0.21,0.21,0.47,0.12l0.13-0.04
			c0.27-0.09,0.39-0.21,0.36-0.35c0.09,0.14,0.21,0.24,0.36,0.3c0.15,0.06,0.3,0.07,0.43,0.02c0.12-0.04,0.19-0.08,0.23-0.12
			c0.03-0.04,0.04-0.1,0.03-0.19l0.64,0.29l0.32-0.62l0.18,0.5c0.04-0.03,0.13-0.11,0.25-0.21c0.12-0.11,0.25-0.23,0.39-0.38
			l0.19-0.04c0.03,0.08,0.04,0.22,0.04,0.41c0,0.19,0.01,0.32,0.04,0.38C22,34.84,22.07,34.93,22.16,34.98z M18.47,51.38
			c0.1,0.03,0.24,0.01,0.41-0.04c0.12-0.04,0.21-0.13,0.28-0.25c0.07-0.13,0.07-0.29,0-0.49l-0.04-0.04l-0.52,0.52l-0.14-0.01
			l-0.04-0.1c0.03-0.03,0.13-0.13,0.31-0.29c0.18-0.17,0.27-0.32,0.28-0.45c-0.03-0.03-0.1-0.05-0.2-0.06
			c-0.11-0.01-0.2,0-0.29,0.03c-0.17,0.06-0.27,0.19-0.3,0.39c-0.03,0.2-0.03,0.37,0.02,0.5C18.28,51.25,18.36,51.35,18.47,51.38z
			 M18.99,42.05c0.15-0.02,0.37-0.07,0.66-0.17c-0.09-0.27-0.43-0.3-1-0.1C18.72,41.97,18.83,42.07,18.99,42.05z M19.42,50.51
			c-0.06,0.18-0.05,0.38,0.03,0.6l0.35-0.12l-0.2-0.07c0.09-0.12,0.16-0.27,0.21-0.44c0.05-0.17,0.07-0.29,0.05-0.36
			C19.63,50.2,19.48,50.33,19.42,50.51z M20.4,50.89c0.13,0.01,0.27-0.01,0.42-0.06c0.18-0.06,0.31-0.2,0.37-0.41
			c0.06-0.21,0.05-0.41-0.02-0.62c-0.84,0.29-1.19,0.65-1.04,1.07C20.19,50.87,20.28,50.88,20.4,50.89z M21.26,42.13l0.14-0.08
			C20.9,42,20.59,42,20.49,42.03C20.79,42.18,21.04,42.21,21.26,42.13z M21.43,34.48c-0.04,0.08-0.05,0.14-0.03,0.19l0.04,0.04
			l0.19-0.43l-0.08,0.03C21.51,34.34,21.47,34.4,21.43,34.48z M21.64,50.02c-0.06,0.14-0.04,0.37,0.06,0.67l1.31-0.46
			c0.01-0.02,0.03-0.06,0.05-0.1c0.02-0.05,0.04-0.09,0.04-0.13c-0.08-0.23-0.19-0.38-0.32-0.43c-0.13-0.05-0.3-0.03-0.52,0.04
			C21.91,49.74,21.7,49.87,21.64,50.02z M22.51,42.21l0.06-0.22l-0.33,0.11L22.51,42.21z M23.53,42.54
			c0.25,0.07,0.47,0.08,0.65,0.01l-0.08-0.23l-0.15,0.05c0.02-0.05,0.04-0.1,0.06-0.16c0.02-0.06,0.02-0.11,0.01-0.14
			c-0.09-0.25-0.32-0.31-0.69-0.18l-0.13,0.04c-0.25,0.09-0.37,0.19-0.34,0.32C23.05,42.37,23.28,42.47,23.53,42.54z M23.51,49.87
			c0.21,0.07,0.41,0.07,0.6,0l0.08-0.03c0.23-0.08,0.35-0.2,0.33-0.34c0.89-0.46,1.62-0.92,2.16-1.38c0.55-0.46,0.74-1.01,0.59-1.68
			c-0.15-0.06-0.33-0.05-0.53,0.02c-0.07,0.02-0.12,0.2-0.15,0.53c-0.02,0.31-0.07,0.56-0.15,0.76c-0.07,0.2-0.2,0.33-0.39,0.39
			c-0.03,0.01-0.1,0-0.21-0.03c-0.1-0.03-0.19-0.03-0.26-0.01c-0.24,0.08-0.56,0.23-0.97,0.45c-0.11,0.06-0.23,0.12-0.36,0.18
			c-0.13,0.06-0.26,0.12-0.39,0.17c-0.3,0.11-0.48,0.16-0.54,0.16c-0.04,0.05-0.09,0.12-0.14,0.2c-0.06,0.09-0.08,0.16-0.08,0.21
			C23.16,49.68,23.3,49.8,23.51,49.87z M24.03,49.34c0.03-0.01,0.12,0.02,0.25,0.08l-0.28,0.1l-0.04-0.13L24.03,49.34z M24.51,42.69
			l1.08-0.38c-0.07-0.2-0.32-0.23-0.74-0.08C24.56,42.34,24.44,42.49,24.51,42.69z M25.97,43.88c0.15-0.05,0.29-0.15,0.41-0.3
			c0.12-0.14,0.21-0.29,0.27-0.45c0.06-0.15,0.08-0.25,0.07-0.28c-0.06-0.17-0.17-0.27-0.33-0.31c-0.16-0.04-0.32-0.03-0.47,0.02
			c-0.09,0.05-0.23,0.15-0.41,0.28c-0.18,0.14-0.26,0.23-0.24,0.28l0.06,0.18l0.86,0.04C25.96,43.47,25.89,43.65,25.97,43.88z
			 M26.77,44.39c0.32-0.11,0.48-0.25,0.49-0.41c0.01-0.16-0.05-0.44-0.19-0.82c-0.17,0.06-0.35,0.22-0.54,0.48
			c-0.19,0.26-0.26,0.47-0.21,0.62C26.39,44.43,26.54,44.47,26.77,44.39z M26.78,46.2c0.3-0.11,0.48-0.3,0.54-0.59
			c0.06-0.28,0.03-0.6-0.09-0.93c-0.12,0.04-0.24,0.14-0.38,0.29c-0.14,0.15-0.19,0.28-0.15,0.38c0.04,0.1,0.13,0.22,0.29,0.35
			C26.78,45.81,26.71,45.98,26.78,46.2z"/>
		<path class="st2" d="M32.98,32.66c-0.02-0.16-0.29-0.23-0.81-0.21c-0.52,0.02-1.04,0.07-1.57,0.15l-1.29,0.21
			c-1.02,0.15-1.55,0.12-1.57-0.07c-0.03-0.23,0.01-0.48,0.13-0.75c0.05-0.13,0.1-0.28,0.14-0.44c0.04-0.16,0.05-0.33,0.02-0.5
			c0.01-0.02,0.06-0.1,0.13-0.23c0.07-0.14,0.43-0.25,1.08-0.35l0.03,0.24c1.04-0.15,1.95-0.27,2.73-0.37
			c0.78-0.09,1.43-0.17,1.96-0.23c2.12-0.23,3.71-0.43,4.75-0.58c0.69-0.1,1.21-0.18,1.56-0.25c0.22,0.04,0.36,0.27,0.42,0.69
			l0.04,0.26c0.05,0.33,0.03,0.6-0.05,0.79l-2.11,0.49c-0.33,0.07-0.81,0.22-1.42,0.45c-0.58,0.23-1.06,0.38-1.45,0.45
			c-0.06,0.48-0.02,1.17,0.11,2.09c0.11,0.79,0.32,1.98,0.62,3.55c0.29,1.54,0.5,2.72,0.62,3.55c0.06,0.42,0.17,1.35,0.32,2.79
			c0.03,0.59,0.1,1.23,0.2,1.91c0.01,0.05,0.02,0.18,0.03,0.39c0.01,0.21-0.03,0.36-0.12,0.48c-0.09,0.11-0.24,0.18-0.45,0.21
			c-0.07,0.01-0.17-0.01-0.3-0.05c-0.13-0.04-0.23-0.06-0.3-0.05c-0.05,0.04-0.14,0.09-0.29,0.15c-0.14,0.06-0.28,0.09-0.4,0.11
			c-0.07,0.01-0.21-0.04-0.41-0.16c-0.21-0.11-0.31-0.19-0.32-0.22l-1.87-13.54L32.98,32.66z M29.98,31.8
			c0.27-0.07,0.46-0.23,0.57-0.46c-0.07,0.01-0.34,0-0.82-0.04c-0.46-0.06-0.75-0.08-0.87-0.06L28.97,32
			C29.38,31.94,29.71,31.87,29.98,31.8z M31.17,31.23c-0.26,0.14-0.45,0.27-0.58,0.39l0.98-0.11c0.56-0.08,0.83-0.2,0.81-0.36
			c-0.02-0.16-0.21-0.21-0.56-0.16C31.64,31.02,31.43,31.1,31.17,31.23z M33.08,31.48c0.23-0.03,0.39-0.09,0.48-0.16
			c0.09-0.08,0.17-0.23,0.24-0.45l-0.43,0.01c-0.18,0.03-0.32,0.06-0.44,0.12c-0.12,0.05-0.19,0.16-0.22,0.33
			C32.76,31.46,32.89,31.51,33.08,31.48z M34.01,33.17c-0.06,0.18-0.1,0.35-0.13,0.52c0.14-0.02,0.29-0.17,0.46-0.44
			c0.17-0.28,0.23-0.53,0.2-0.76c-0.01-0.04-0.05-0.07-0.14-0.11c-0.09-0.04-0.17-0.06-0.24-0.05c-0.07-0.46-0.06-0.77,0.03-0.95
			c0.08-0.17,0.12-0.27,0.12-0.29l0.08,0.58c0.19-0.03,0.4-0.17,0.61-0.41c0.22-0.25,0.31-0.48,0.28-0.69
			c-0.49,0.07-0.88,0.2-1.17,0.37c-0.29,0.18-0.4,0.47-0.35,0.87c0.04,0.26,0.1,0.48,0.17,0.64c0.08,0.16,0.12,0.28,0.13,0.37
			C34.09,32.88,34.07,32.99,34.01,33.17z M34.33,36.24c-0.03,0.17-0.02,0.4,0.02,0.7c0.29-0.33,0.42-0.62,0.39-0.87l-0.05-0.15
			C34.48,35.97,34.36,36.07,34.33,36.24z M34.37,38.37c0.04,0.25,0.12,0.37,0.24,0.37c0.28-0.33,0.49-0.69,0.65-1.09
			c-0.01-0.04-0.02-0.06-0.05-0.09c-0.03-0.02-0.06-0.04-0.08-0.06c-0.3,0.04-0.51,0.12-0.64,0.24c-0.13,0.12-0.17,0.3-0.14,0.55
			L34.37,38.37z M34.63,33.23c-0.01,0.09-0.05,0.22-0.12,0.38c-0.08,0.16-0.11,0.27-0.1,0.32c0.28-0.15,0.44-0.36,0.48-0.62
			c0.03-0.27,0.03-0.52,0-0.77c-0.04-0.25-0.06-0.41-0.07-0.48L34.63,33.23z M34.63,34.92c-0.07,0.25-0.12,0.47-0.15,0.66l0.17,0.03
			c0.23-0.03,0.31-0.26,0.25-0.68l-0.11-0.55C34.75,34.48,34.7,34.66,34.63,34.92z M34.72,40.61c0.03,0.05,0.08,0.08,0.17,0.08
			c0.15-0.18,0.31-0.39,0.48-0.62c0.16-0.23,0.28-0.45,0.34-0.66c-0.28,0.04-0.54,0.15-0.76,0.34c-0.23,0.19-0.32,0.4-0.28,0.65
			C34.68,40.49,34.69,40.56,34.72,40.61z M34.7,37.08l0.37-0.05l-0.1-0.66L34.7,37.08z M34.97,38.71c-0.1,0.25-0.13,0.48-0.1,0.69
			c0.21-0.03,0.4-0.1,0.56-0.2c0.16-0.1,0.23-0.24,0.21-0.42c-0.03-0.23-0.14-0.44-0.31-0.63C35.19,38.27,35.07,38.46,34.97,38.71z
			 M35.77,41.13c0.14-0.18,0.18-0.43,0.13-0.75c-0.01-0.07-0.03-0.16-0.05-0.26c-0.02-0.1-0.05-0.18-0.07-0.23l-0.79,1.44l0.05,0.34
			C35.39,41.49,35.63,41.31,35.77,41.13z M35.23,44.03c0.13,0.1,0.21,0.14,0.25,0.14c-0.04-0.26,0.08-0.53,0.34-0.8
			c0.03-0.04,0.09-0.13,0.19-0.26c0.1-0.13,0.15-0.28,0.17-0.44l-0.08,0.01c-0.18,0.03-0.41,0.15-0.7,0.38
			c-0.29,0.23-0.42,0.47-0.38,0.72C35.03,43.85,35.1,43.93,35.23,44.03z M35.13,42.33c0.05-0.01,0.09-0.05,0.12-0.12
			c0.03-0.08,0.04-0.12,0.03-0.14l-0.04-0.1C35.14,42.03,35.1,42.15,35.13,42.33z M36.27,42.16l0-0.22l-0.01-0.08
			c-0.03-0.21-0.11-0.33-0.24-0.34l-0.66,1.25L36.27,42.16z M35.82,46.38c0.11-0.02,0.26-0.28,0.45-0.78c0.2-0.5,0.28-0.84,0.26-1
			l-0.26,0.04l-0.06-0.45l-0.75,0.41l0.08,1.69C35.64,46.36,35.73,46.4,35.82,46.38z M35.67,31.11l0.16-0.02l-0.05-0.32l-0.16,0.02
			L35.67,31.11z M35.97,43.48c-0.12,0.16-0.17,0.31-0.15,0.45c0.23-0.03,0.38-0.1,0.47-0.22c0.08-0.11,0.12-0.3,0.12-0.57
			l-0.08-0.01C36.21,43.2,36.09,43.31,35.97,43.48z M36.24,45.14l-0.21,0.03L36.22,45L36.24,45.14z M36.08,46.67
			c0.14-0.06,0.25-0.13,0.33-0.22c0.09-0.09,0.12-0.19,0.11-0.3l-0.05-0.18C36.24,46.27,36.11,46.5,36.08,46.67z M37.31,30.87
			c0.02,0,0.04-0.04,0.08-0.11c0.03-0.07,0.06-0.13,0.07-0.19c-0.03-0.18-0.26-0.23-0.7-0.17l-0.66,0.12l0.07,0.5L37.31,30.87z
			 M39.81,30.3c-0.02-0.12-0.09-0.19-0.21-0.21c-0.12-0.02-0.32-0.01-0.6,0.03c-0.07,0.01-0.27,0.06-0.61,0.16
			c-0.34,0.09-0.55,0.16-0.63,0.21l0.15,0.09L39.81,30.3z"/>
		<path class="st2" d="M55.5,42.43c0.19,0.54,0.49,1.28,0.9,2.24c0.27,0.59,0.52,1.19,0.74,1.78c0,0.21-0.08,0.35-0.24,0.42
			c-0.15,0.07-0.37,0.1-0.66,0.09c-0.16,0-0.31-0.03-0.45-0.09c-0.14-0.06-0.23-0.09-0.26-0.11c-0.25-0.13-0.47-0.2-0.66-0.2
			c-0.09,0-0.22,0.02-0.39,0.07c-0.17,0.05-0.29,0.07-0.36,0.07c-0.09,0-0.18-0.12-0.27-0.34c-0.09-0.22-0.21-0.56-0.34-1.01
			c-0.05-0.13-0.1-0.26-0.14-0.39c-0.04-0.13-0.09-0.27-0.14-0.42c-0.03-0.07-0.14-0.37-0.33-0.89c-0.18-0.52-0.42-0.97-0.71-1.35
			c-0.29-0.38-0.58-0.57-0.88-0.58c-0.36-0.01-0.69,0.01-1.02,0.06c-0.13,0.02-0.27,0.03-0.44,0.04c-0.17,0.01-0.37,0.02-0.6,0.01
			c-0.5-0.01-1.01-0.05-1.55-0.11c-1.07-0.08-1.66-0.12-1.79-0.12c-0.19,0.67-0.36,1.18-0.49,1.52c-0.13,0.34-0.39,0.92-0.76,1.73
			c-0.08,0.18-0.13,0.41-0.18,0.69c-0.06,0.37-0.14,0.66-0.25,0.85c-0.1,0.19-0.27,0.29-0.5,0.28c-0.32-0.01-0.6-0.04-0.83-0.08
			c-0.23-0.05-0.54-0.15-0.93-0.3c0.01-0.3,0.08-0.64,0.21-1.02c0.13-0.38,0.33-0.88,0.59-1.5l0.25-0.58
			c0.15-0.42,0.31-0.9,0.47-1.43c0.16-0.53,0.27-0.89,0.33-1.09c0.29-1.12,0.56-1.97,0.8-2.57c0.13-0.34,0.33-0.78,0.59-1.35
			c0.06-0.14,0.18-0.42,0.37-0.83c0.19-0.41,0.34-0.83,0.45-1.26l0.14-0.13c0.04-0.12,0.09-0.36,0.15-0.7
			c0.06-0.35,0.16-0.63,0.29-0.86c0.13-0.23,0.29-0.34,0.49-0.34c0.01-0.28,0.19-0.96,0.54-2.02c0.35-1.06,0.62-1.66,0.8-1.8
			c0.93,0.02,1.54,0.05,1.85,0.09c0.31,0.04,0.55,0.17,0.73,0.39c0.17,0.22,0.35,0.63,0.53,1.24l0.31,0.65l-0.03,0.24
			c0.11,0,0.19,0.08,0.25,0.22c0.06,0.14,0.12,0.36,0.19,0.65c0.06,0.3,0.13,0.56,0.21,0.77c0.08,0.21,0.18,0.36,0.32,0.47
			c-0.04,0-0.07,0.02-0.11,0.05c-0.04,0.04-0.06,0.06-0.08,0.08c0,0.12,0.05,0.31,0.15,0.56c0.12,0.22,0.18,0.41,0.17,0.59
			l0.35,0.01c-0.04,0.04-0.07,0.09-0.11,0.16c-0.04,0.07-0.06,0.13-0.06,0.19c0,0.09,0.1,0.28,0.31,0.57
			c0.21,0.32,0.31,0.52,0.31,0.59l0.09,0.59c0.09,0.73,0.21,1.26,0.37,1.58c0.14,0.27,0.28,0.47,0.44,0.6
			c0.12,0.11,0.22,0.26,0.3,0.46c0.08,0.2,0.14,0.62,0.2,1.26C55.19,41.36,55.3,41.89,55.5,42.43z M43.72,44.75
			c0.25-0.25,0.4-0.49,0.46-0.7l-0.24-0.03c-0.25-0.01-0.47,0.13-0.65,0.41c-0.18,0.28-0.28,0.55-0.29,0.82
			c0,0.12,0.01,0.22,0.03,0.29c0.03,0.07,0.09,0.11,0.2,0.11c0.09,0,0.16-0.06,0.22-0.2s0.08-0.23,0.09-0.28l-0.21,0
			C43.34,45.15,43.48,45.01,43.72,44.75z M44.62,42.64c0.23-0.18,0.38-0.31,0.45-0.38l-0.35-0.03c-0.16,0-0.32,0.08-0.47,0.26
			c-0.16,0.17-0.23,0.29-0.23,0.34l0.02,0.21C44.2,42.95,44.4,42.82,44.62,42.64z M45.58,41.25l-0.19,0
			c-0.25-0.01-0.57,0.21-0.98,0.65C44.86,41.91,45.25,41.69,45.58,41.25z M45.01,41.04c0.24-0.11,0.44-0.25,0.58-0.43
			c-0.03-0.13-0.17-0.19-0.4-0.2c-0.2,0-0.35,0.06-0.46,0.18c-0.11,0.12-0.17,0.28-0.17,0.48l0.02,0.16
			C44.62,41.22,44.76,41.15,45.01,41.04z M45.27,38.67c-0.23,0.13-0.34,0.39-0.35,0.78l0.02,0.32c0.11-0.07,0.28-0.17,0.53-0.31
			c0.24-0.14,0.45-0.28,0.62-0.44c0.17-0.16,0.3-0.33,0.37-0.53l-0.16,0C45.84,38.48,45.5,38.54,45.27,38.67z M45.95,40.11
			l0.01-0.64l-0.71,0.63L45.95,40.11z M45.78,37.24c-0.08,0.17-0.15,0.34-0.21,0.52c-0.06,0.18-0.1,0.3-0.11,0.37
			c0.16-0.09,0.45-0.24,0.85-0.48c0.41-0.23,0.74-0.44,1.02-0.63l-1.17-0.03C45.99,36.99,45.87,37.07,45.78,37.24z M47.31,40.87
			c0.28-0.06,0.42-0.2,0.42-0.39c0-0.11-0.03-0.19-0.09-0.26c-0.06-0.06-0.14-0.1-0.22-0.1c-0.05,0-0.25,0.08-0.59,0.24
			c-0.34,0.16-0.59,0.3-0.76,0.42c0.03,0.11,0.11,0.16,0.24,0.17l0.16,0C46.75,40.96,47.03,40.93,47.31,40.87z M47.13,37.5
			c-0.07,0.03-0.19,0.09-0.35,0.15c-0.16,0.07-0.29,0.15-0.38,0.25c-0.09,0.1-0.14,0.22-0.14,0.36c0.18,0,0.37-0.06,0.58-0.2
			c0.21-0.14,0.31-0.29,0.32-0.45L47.13,37.5z M46.89,36.1c-0.16,0.1-0.31,0.21-0.43,0.31c-0.13,0.1-0.19,0.2-0.19,0.29
			c0.59,0.01,0.99-0.06,1.21-0.23c0.22-0.16,0.39-0.54,0.53-1.12l-0.16,0C47.64,35.58,47.32,35.83,46.89,36.1z M47.74,35
			c-0.13,0.05-0.3,0.09-0.54,0.12c-0.29,0.05-0.5,0.11-0.63,0.2c-0.14,0.09-0.21,0.26-0.21,0.53c0,0.04,0.02,0.07,0.06,0.11
			c0.04,0.04,0.07,0.05,0.09,0.06c1.48-0.82,2.22-1.58,2.24-2.27l-0.19,0c-0.11,0-0.4,0.16-0.88,0.49
			c-0.48,0.33-0.72,0.55-0.72,0.65c0.14,0,0.32-0.02,0.54-0.08c0.22-0.06,0.38-0.09,0.51-0.08C47.96,34.85,47.87,34.95,47.74,35z
			 M47.17,34l0.02,0.19c0.45-0.11,0.87-0.33,1.27-0.64c0.4-0.31,0.71-0.68,0.93-1.1l1.99-0.62c0.01-0.6-0.15-1.08-0.49-1.43
			c-0.34-0.35-0.51-0.53-0.51-0.55l-0.32,0.02c-0.05,0-0.2-0.06-0.44-0.18c-0.24-0.12-0.41-0.18-0.52-0.18
			c-0.16,0-0.28,0.08-0.35,0.26c-0.08,0.18-0.14,0.43-0.2,0.77c-0.02,0.2-0.06,0.38-0.11,0.56c-0.05,0.18-0.12,0.29-0.21,0.34
			l0.67,0.01c-0.07,0.12-0.17,0.22-0.29,0.3c-0.12,0.08-0.23,0.14-0.34,0.19c-0.25,0.12-0.44,0.25-0.56,0.4
			c-0.12,0.15-0.18,0.39-0.19,0.73c0,0.12,0.02,0.21,0.06,0.27c0.04,0.05,0.14,0.08,0.28,0.09C47.42,33.42,47.18,33.61,47.17,34z
			 M49.37,33.94c-0.16,0.85-0.42,1.7-0.79,2.56c-0.37,0.86-0.8,1.63-1.29,2.34l-0.03,0.08c-0.01,0.27,0.32,0.41,0.98,0.42
			c0.34,0.01,0.64,0.01,0.91-0.01c0.27-0.01,0.49-0.02,0.67-0.04c0.71-0.06,1.25-0.08,1.6-0.07c0.01-0.32-0.15-0.88-0.47-1.67
			c-0.03-0.07-0.1-0.24-0.2-0.5c-0.1-0.26-0.15-0.46-0.15-0.6L49.37,33.94z M48.24,40.44c-0.15,0.11-0.22,0.27-0.22,0.46
			c0.36,0.01,0.71-0.17,1.05-0.54l-0.35-0.06C48.54,40.29,48.38,40.33,48.24,40.44z M50.59,40.99c0.31-0.1,0.57-0.29,0.77-0.57
			c-0.05-0.11-0.18-0.2-0.38-0.26c-0.2-0.07-0.36-0.1-0.47-0.1c-0.11,0-0.26,0.09-0.46,0.27c-0.2,0.18-0.32,0.31-0.36,0.38
			l0.01-0.32c-0.29,0.12-0.51,0.22-0.66,0.31c-0.15,0.09-0.23,0.22-0.24,0.4l0.69,0.04C49.91,41.14,50.27,41.09,50.59,40.99z
			 M49.91,33.03c0.11,0.19,0.2,0.28,0.27,0.29c0.12,0,0.37-0.19,0.73-0.57c0.22-0.24,0.43-0.44,0.63-0.57
			c-0.8-0.02-1.4,0.13-1.8,0.44C49.74,32.7,49.79,32.84,49.91,33.03z M52.62,35.48c0.01-0.32-0.01-0.6-0.05-0.83
			c-0.04-0.23-0.16-0.35-0.35-0.35c-0.07,0.02-0.16,0.06-0.27,0.13c-0.11,0.07-0.21,0.15-0.3,0.23L52.3,34
			c0-0.07-0.09-0.34-0.26-0.81c-0.18-0.47-0.29-0.7-0.35-0.7l-0.16,0l-1.17,1.12l-0.03,0.11c0,0.09,0.05,0.17,0.17,0.26
			c0.11,0.08,0.22,0.13,0.33,0.15c-0.09,0.02-0.14,0.07-0.16,0.16c-0.02,0.09-0.03,0.18-0.03,0.27c-0.01,0.39,0.08,0.59,0.25,0.59
			c0.05,0,0.2-0.07,0.43-0.2c0,0.12-0.04,0.28-0.1,0.45c-0.07,0.18-0.1,0.32-0.1,0.42c0.12,0,0.23,0,0.31-0.02
			c0.08-0.02,0.16-0.03,0.23-0.05c0.25-0.07,0.46-0.1,0.62-0.09c-0.06,0.11-0.17,0.19-0.34,0.25c-0.17,0.06-0.3,0.11-0.38,0.17
			c-0.08,0.05-0.12,0.17-0.13,0.34l0,0.16c-0.01,0.23,0.05,0.41,0.18,0.54C52.26,36.58,52.61,36.03,52.62,35.48z M51.71,40.59
			c-0.27,0.01-0.4,0.15-0.41,0.42C51.53,41.01,51.66,40.87,51.71,40.59z M52.67,41.53c0.07,0.05,0.18,0.07,0.32,0.07
			c0.3,0.01,0.55-0.12,0.73-0.37c0.18-0.25,0.28-0.53,0.29-0.84c0.01-0.32-0.01-0.61-0.06-0.86c-0.05-0.25-0.11-0.51-0.2-0.79
			c-0.08-0.28-0.14-0.48-0.17-0.6c-0.21,0-0.42,0.07-0.62,0.23c-0.2,0.16-0.35,0.35-0.44,0.58l0.83,0.02l0,0.16
			c-0.07,0.09-0.3,0.34-0.68,0.75c-0.38,0.41-0.66,0.76-0.82,1.04l0.32,0.03c0.21,0,0.5-0.08,0.86-0.25
			c0.36-0.15,0.63-0.23,0.81-0.22c-0.2,0.25-0.65,0.5-1.35,0.77C52.53,41.39,52.6,41.48,52.67,41.53z M52.09,37.6
			c0.11,0,0.28-0.02,0.51-0.07c0.23-0.05,0.39-0.07,0.48-0.07l-1,0.49L52.05,38c0,0.09,0.03,0.19,0.1,0.3
			c0.07,0.11,0.12,0.16,0.16,0.16c0.27,0.01,0.49-0.1,0.67-0.33c0.18-0.23,0.28-0.47,0.28-0.74c0.01-0.25-0.03-0.52-0.12-0.8
			c-0.08-0.29-0.21-0.43-0.39-0.44c-0.13,0.16-0.35,0.48-0.66,0.97c-0.15,0.14-0.22,0.22-0.22,0.24
			C51.95,37.52,52.02,37.6,52.09,37.6z M52.88,39.3c-0.25-0.01-0.38,0.1-0.38,0.31L52.88,39.3z M53.55,43.11
			c0.18,0,0.37-0.15,0.58-0.47c0.21-0.32,0.32-0.57,0.32-0.77l0-0.13c0.01-0.43-0.07-0.64-0.23-0.65c-0.02,0.02-0.19,0.13-0.5,0.32
			c-0.32,0.2-0.51,0.37-0.59,0.51c0.02,0,0.04,0.03,0.08,0.08c0.03,0.05,0.09,0.08,0.16,0.08c0.11-0.03,0.26-0.06,0.46-0.08
			c0.2-0.02,0.34-0.04,0.43-0.06c-0.09,0.14-0.26,0.24-0.51,0.31c-0.18,0.07-0.31,0.13-0.38,0.19c-0.07,0.06-0.11,0.15-0.11,0.28
			C53.26,42.98,53.35,43.11,53.55,43.11z M54.38,42.7c-0.15,0.17-0.27,0.35-0.38,0.51c-0.11,0.17-0.19,0.29-0.25,0.38
			c0.21,0,0.46-0.04,0.75-0.13c0.29-0.09,0.43-0.23,0.44-0.4c0.01-0.41-0.07-0.62-0.23-0.62C54.64,42.44,54.53,42.53,54.38,42.7z
			 M54.37,44.57l0.87-0.76l0.01-0.27c-0.21,0-0.49,0.04-0.82,0.14c-0.33,0.1-0.5,0.23-0.5,0.39c0,0.09,0.04,0.2,0.13,0.32
			c0.09,0.13,0.17,0.19,0.26,0.19L54.37,44.57z M55.9,45.48c0.01-0.3-0.16-0.76-0.5-1.37c-0.04,0.04-0.14,0.1-0.31,0.19
			c-0.17,0.09-0.31,0.2-0.42,0.31c-0.11,0.11-0.16,0.22-0.17,0.33c0.23,0.01,0.47-0.05,0.72-0.17l-0.66,0.65
			c0.07,0.22,0.38,0.33,0.95,0.34C55.77,45.78,55.89,45.68,55.9,45.48z"/>
		<path class="st2" d="M66.83,45.42c-0.16-0.4-0.4-0.92-0.71-1.55c-0.21-0.42-0.32-0.64-0.33-0.67l-0.68-1.63
			c-0.35-0.14-0.64-0.25-0.87-0.33c-0.23-0.07-0.53-0.15-0.89-0.22c-0.56-0.11-0.95-0.11-1.19,0.01c-0.23,0.12-0.4,0.45-0.51,0.99
			c-0.09,0.45-0.19,1.12-0.3,2.01c-0.11,0.92-0.22,1.63-0.32,2.11c-0.07,0.35-0.16,0.63-0.27,0.85c-0.11,0.21-0.28,0.38-0.52,0.49
			c-0.23-0.01-0.52-0.03-0.86-0.06c-0.34-0.03-0.61-0.07-0.82-0.11c-0.21-0.04-0.34-0.11-0.38-0.2c-0.05-0.09-0.05-0.24,0-0.45
			c0.14-0.72,0.37-1.53,0.68-2.45c0.05-0.15,0.15-0.49,0.31-1.01c0.16-0.52,0.29-1.02,0.38-1.49c0.06-0.28,0.09-0.51,0.1-0.7
			c0.01-0.19,0.01-0.42-0.01-0.7l1.11-5.5c0.02-0.12,0.01-0.31-0.05-0.57c-0.06-0.26-0.08-0.41-0.07-0.46
			c0.02-0.09,0.07-0.22,0.16-0.39c0.09-0.17,0.14-0.31,0.17-0.42c0.05-0.23,0.03-0.72-0.06-1.48c-0.02-0.44-0.03-0.67-0.03-0.69
			c0.11-0.52,0.28-0.85,0.54-0.98c0.25-0.13,0.69-0.13,1.32-0.01c0.23,0.05,0.53,0.14,0.89,0.29c0.08,0.04,0.21,0.08,0.37,0.13
			c0.16,0.05,0.3,0.09,0.43,0.11l0.77,0.1c0.86,0.08,1.46,0.16,1.81,0.23c1.06,0.21,1.93,0.43,2.61,0.65
			c0.67,0.22,1.2,0.56,1.57,1.04c0.17,0.23,0.35,0.49,0.53,0.77c0.18,0.28,0.3,0.47,0.37,0.58l-0.07,0.34l0.16,0.03
			c-0.04,0.28-0.04,0.58-0.02,0.9c0,0.64-0.03,1.12-0.1,1.45c-0.32,1.59-0.89,2.75-1.71,3.5c-0.18,0.15-0.44,0.34-0.78,0.58
			c-0.35,0.24-0.54,0.35-0.57,0.35l-0.18-0.06c-0.16-0.03-0.28,0-0.36,0.1c-0.08,0.1-0.15,0.15-0.2,0.14
			c-0.07-0.01-0.14-0.06-0.22-0.13c-0.08-0.07-0.11-0.12-0.1-0.16l0.07-0.09L68.94,40c-0.03-0.02-0.08-0.05-0.14-0.07
			c-0.06-0.02-0.12-0.04-0.17-0.05c-0.16-0.03-0.28-0.02-0.37,0.03c-0.09,0.05-0.2,0.16-0.32,0.32c-0.15,0.21-0.3,0.31-0.45,0.32
			c-0.05-0.01-0.4,0.03-1.03,0.12c0.03,0.13,0.15,0.24,0.36,0.33c0.21,0.09,0.33,0.19,0.36,0.3l-0.38,0.28l0.71,0.14
			c0.01-0.03,0.01-0.1,0-0.19c-0.01-0.09-0.01-0.17,0.01-0.24c0.02-0.12,0.1-0.2,0.24-0.22c0.02,0.24,0.1,0.5,0.21,0.76
			c0.12,0.27,0.19,0.42,0.22,0.47c0.17,0.31,0.29,0.58,0.35,0.81c0.11,0.88,0.32,1.79,0.63,2.74c0.31,0.95,0.75,2.12,1.32,3.51
			c-0.04,0.19-0.26,0.28-0.65,0.28c-0.4-0.01-0.77-0.05-1.12-0.12c-0.28-0.06-0.46-0.15-0.53-0.27c-0.08-0.12-0.12-0.3-0.14-0.52
			c-0.02-0.22-0.11-0.35-0.26-0.38l-0.77-2.01C67.05,46.13,66.99,45.83,66.83,45.42z M59.8,46.55c0.14,0.03,0.29-0.2,0.46-0.68
			c0.17-0.48,0.29-0.9,0.36-1.25c0.08-0.38,0.04-0.59-0.12-0.62c-0.19-0.04-0.38,0.01-0.56,0.16c-0.18,0.14-0.29,0.31-0.33,0.5
			c-0.04,0.19-0.02,0.31,0.06,0.37c-0.13,0.03-0.27,0.22-0.41,0.57c0.1,0.02,0.29-0.05,0.56-0.23c0.27-0.17,0.42-0.26,0.46-0.25
			l0.07,0.04c-0.07,0.15-0.24,0.3-0.53,0.47c-0.3,0.14-0.47,0.3-0.51,0.5C59.27,46.34,59.44,46.48,59.8,46.55z M59.95,43.45
			c-0.07,0.04-0.13,0.16-0.17,0.35l-0.02,0.21c0.37-0.11,0.67-0.26,0.91-0.47l-0.31-0.09C60.16,43.41,60.02,43.41,59.95,43.45z
			 M60.35,42.69c-0.18,0.13-0.29,0.29-0.33,0.48c0.3,0.06,0.51,0.05,0.63-0.02c0.12-0.07,0.25-0.26,0.39-0.56l-0.16-0.03
			C60.71,42.51,60.53,42.56,60.35,42.69z M60.11,42.52c0.02,0.05,0.03,0.08,0.05,0.08c0.21-0.07,0.37-0.14,0.48-0.22
			c0.11-0.08,0.17-0.19,0.2-0.33l0.01-0.16c-0.46,0.11-0.71,0.28-0.75,0.5C60.09,42.42,60.09,42.47,60.11,42.52z M60.29,40.81
			c0.01,0.16,0.03,0.27,0.06,0.32c0.38-0.25,0.58-0.46,0.62-0.64c0.04-0.19-0.06-0.31-0.31-0.36c-0.19-0.04-0.31,0.06-0.36,0.31
			C60.28,40.53,60.28,40.65,60.29,40.81z M60.54,41.53c0.23,0.05,0.43-0.08,0.62-0.39C60.79,41.19,60.58,41.32,60.54,41.53z
			 M60.74,39.2l0.18-0.21l-0.08-0.53L60.74,39.2z M62.21,33.09c-0.14-0.03-0.26,0-0.35,0.09c-0.09,0.09-0.15,0.21-0.18,0.35
			c-0.05,0.26-0.05,0.62,0.02,1.07c0.06,0.45,0.09,0.69,0.09,0.73c0.24-0.19,0.39-0.43,0.45-0.73c0.02-0.1,0.03-0.35,0.04-0.73
			c0-0.38,0-0.64-0.01-0.76L62.21,33.09z M62.77,31.05c0.13,0.13,0.25,0.24,0.38,0.32c0.13,0.08,0.25,0.13,0.38,0.16l0.21,0.02
			l-0.37-0.59l0.21-0.12c-0.43-0.2-0.78-0.32-1.04-0.37c-0.1-0.02-0.21-0.03-0.31-0.03c-0.1,0-0.2,0.02-0.3,0.08
			c0.14,0.28,0.26,0.43,0.34,0.45c0.14,0.03,0.22-0.03,0.25-0.17C62.57,30.83,62.65,30.92,62.77,31.05z M62.41,39.53
			c0.03,0.01,0.09,0,0.15-0.01c0.07-0.01,0.11-0.06,0.12-0.13l-0.5-0.1C62.23,39.43,62.31,39.51,62.41,39.53z M63.42,38.59
			c0.54,0.11,0.94,0.18,1.2,0.21c0.26,0.03,0.54,0.03,0.86-0.02c0.18,0,0.48,0.02,0.88,0.07c0.6,0.07,1.07,0.09,1.4,0.06
			c0.33-0.02,0.62-0.15,0.86-0.37c0.24-0.22,0.42-0.6,0.53-1.12c0.1-0.51,0.14-0.99,0.13-1.44c-0.02-0.46-0.09-0.96-0.21-1.51
			c-0.53-0.51-1.14-0.87-1.81-1.1c-0.67-0.23-1.57-0.45-2.68-0.68c-0.35-0.07-0.63-0.1-0.84-0.07c-0.21,0.02-0.4,0.13-0.57,0.33
			c-0.04,0.57-0.09,1.04-0.15,1.4c-0.05,0.36-0.17,0.99-0.35,1.88l-0.38,1.75C62.4,38.26,62.78,38.46,63.42,38.59z M63.75,39.64
			c0.25,0.09,0.51,0.17,0.77,0.24c0.43,0.12,0.66,0.2,0.69,0.22c0.15-0.04,0.25-0.15,0.28-0.32l-2.11-0.34
			C63.38,39.48,63.5,39.55,63.75,39.64z M64.37,31.74c0.2,0.1,0.44,0.18,0.74,0.24l0.26,0.05c0.31,0.06,0.48,0.04,0.5-0.06
			l-0.18-0.72L64.38,31L64,31.27C64.05,31.48,64.17,31.64,64.37,31.74z M65.79,41.11c0.06,0.1,0.2,0.18,0.43,0.22
			c0.03-0.14-0.01-0.28-0.1-0.43c-0.1-0.15-0.22-0.23-0.36-0.26C65.72,40.85,65.73,41.01,65.79,41.11z M65.99,40.42
			c0.04-0.01,0.14-0.02,0.29-0.04c0.16-0.01,0.32-0.04,0.48-0.09c0.16-0.05,0.27-0.11,0.32-0.19L66.76,40
			C66.32,39.91,66.07,40.05,65.99,40.42z M66.23,31.82c0.11,0.28,0.22,0.44,0.34,0.46c0.09,0.02,0.22,0.01,0.4-0.02
			c0.18-0.03,0.32-0.03,0.42-0.01c0.1-0.51,0.07-0.77-0.08-0.81L66,31.32C66.05,31.37,66.12,31.53,66.23,31.82z M66.05,41.9
			l0.31,0.06l0.03-0.13l-0.31-0.06L66.05,41.9z M67.74,42.98c0.05-0.23,0-0.38-0.12-0.47c-0.13-0.09-0.35-0.17-0.66-0.23
			s-0.49-0.02-0.52,0.14l0.01,0.11C66.91,42.74,67.34,42.9,67.74,42.98z M67.47,43.22l-0.65-0.13l-0.04,0.21
			C67.14,43.37,67.37,43.35,67.47,43.22z M67.88,46.19c0.03,0.28,0.13,0.64,0.3,1.07c0.08,0.23,0.18,0.48,0.3,0.74
			c0.12,0.26,0.21,0.44,0.26,0.54l0.5,0.1c-0.06-0.52-0.22-1.1-0.47-1.73c-0.15-0.36-0.25-0.68-0.32-0.96
			c-0.02-0.08-0.09-0.39-0.22-0.94c-0.15-0.97-0.31-1.5-0.47-1.57c-0.04,0.01-0.13,0.03-0.29,0.06c-0.15,0.03-0.24,0.09-0.25,0.18
			c0.09,0.02,0.18,0.06,0.29,0.13c0.1,0.07,0.15,0.13,0.14,0.18c-0.01,0.07-0.06,0.13-0.13,0.19c-0.08,0.06-0.12,0.13-0.14,0.22
			c-0.04,0.21,0.05,0.34,0.28,0.38l0.19,0.01l-0.38,0.11c-0.05,0.23-0.03,0.35,0.06,0.37c0.05,0.01,0.12,0.01,0.21-0.01
			c0.09-0.02,0.15-0.02,0.21-0.01C67.87,45.6,67.85,45.91,67.88,46.19z M67.76,32.55c0.14,0.23,0.4,0.38,0.77,0.45
			c0.07-0.08,0.14-0.19,0.21-0.35c0.07-0.16,0.16-0.28,0.27-0.37l0.13,0.19c0.08-0.02,0.13-0.05,0.17-0.1
			c0.04-0.05,0.06-0.08,0.06-0.1c0.01-0.03,0-0.09-0.02-0.17c-0.02-0.08-0.06-0.12-0.11-0.13l-1.57-0.32
			C67.58,32.02,67.61,32.32,67.76,32.55z M68.88,39.39c-0.07,0.02-0.12,0.04-0.16,0.05l0.52,0.11c-0.01-0.04-0.03-0.08-0.07-0.12
			c-0.04-0.04-0.07-0.07-0.11-0.08C69.01,39.36,68.95,39.37,68.88,39.39z M71.55,35.55c0.04-0.21,0.02-0.54-0.07-0.99
			c-0.09-0.45-0.23-0.88-0.41-1.27c-0.18-0.39-0.4-0.63-0.63-0.71c-0.42-0.18-0.67-0.29-0.75-0.34c-0.19,0.13-0.34,0.49-0.46,1.08
			l-0.04,0.21c0.14,0.03,0.31,0.04,0.53,0.02c0.21-0.01,0.38-0.01,0.5,0.02l0.01,0.11c0,0.02-0.08,0.08-0.23,0.19
			c-0.15,0.11-0.26,0.18-0.34,0.22l0.12,0.21l1.38,0.6l0.01,0.08c-0.01,0.07-0.06,0.13-0.13,0.18c-0.07,0.05-0.15,0.06-0.24,0.05
			l-0.02,0.1l0.75,0.34L71.55,35.55z M69.41,39.15c0.19,0.04,0.34,0.04,0.44-0.01c0.1-0.04,0.17-0.15,0.2-0.33
			C69.68,38.74,69.47,38.85,69.41,39.15z M69.75,34.61c-0.02,0.1,0.01,0.17,0.1,0.18c0.03,0.01,0.06,0,0.09-0.04
			c0.02-0.03,0.04-0.06,0.05-0.1c0.01-0.03,0.01-0.07-0.01-0.11c-0.01-0.04-0.03-0.06-0.07-0.07
			C69.83,34.46,69.77,34.51,69.75,34.61z M69.93,37.87c0.04,0.2,0.19,0.32,0.46,0.38s0.47-0.15,0.64-0.61
			c0.16-0.46,0.29-0.9,0.38-1.34l-0.42-0.08c0.01-0.03,0-0.07-0.03-0.1c-0.03-0.03-0.04-0.07-0.03-0.1l0.37-0.09
			c-0.23-0.21-0.68-0.38-1.34-0.51c-0.05,0.24,0.01,0.58,0.18,1c0.17,0.42,0.34,0.73,0.52,0.91c-0.01,0.04-0.03,0.07-0.06,0.1
			c-0.03,0.03-0.07,0.04-0.1,0.03c-0.07-0.01-0.15-0.07-0.25-0.16c-0.1-0.09-0.19-0.15-0.28-0.17
			C69.89,37.43,69.88,37.68,69.93,37.87z"/>
		<path class="st2" d="M80.83,37.31c0.06-0.15-0.15-0.34-0.62-0.57c-0.47-0.23-0.95-0.43-1.45-0.62l-1.24-0.43
			c-0.97-0.36-1.42-0.63-1.35-0.81c0.08-0.22,0.24-0.41,0.47-0.59c0.11-0.09,0.22-0.2,0.33-0.32c0.11-0.12,0.2-0.26,0.26-0.43
			c0.02-0.01,0.1-0.06,0.22-0.15c0.13-0.09,0.5-0.02,1.12,0.21l-0.08,0.23c0.99,0.36,1.84,0.69,2.57,0.97
			c0.73,0.29,1.34,0.53,1.84,0.73c1.98,0.8,3.46,1.39,4.45,1.75c0.65,0.24,1.15,0.41,1.49,0.52c0.18,0.14,0.19,0.41,0.04,0.81
			l-0.09,0.25c-0.12,0.32-0.26,0.54-0.42,0.67l-2.09-0.57c-0.32-0.1-0.81-0.19-1.46-0.28c-0.62-0.07-1.11-0.17-1.49-0.29
			c-0.28,0.39-0.57,1.02-0.89,1.89c-0.28,0.75-0.66,1.89-1.14,3.42c-0.47,1.49-0.85,2.63-1.14,3.42c-0.15,0.4-0.49,1.27-1.04,2.6
			c-0.25,0.53-0.5,1.13-0.74,1.78c-0.02,0.05-0.07,0.17-0.16,0.35c-0.09,0.19-0.2,0.31-0.33,0.36c-0.13,0.05-0.3,0.05-0.5-0.03
			c-0.07-0.02-0.15-0.09-0.24-0.19c-0.1-0.1-0.18-0.16-0.24-0.19c-0.06,0.01-0.17,0.01-0.33-0.01c-0.15-0.02-0.29-0.05-0.41-0.09
			c-0.07-0.02-0.16-0.14-0.29-0.33c-0.13-0.2-0.18-0.31-0.17-0.35l4.79-12.8L80.83,37.31z M76.81,50.74
			c0.1,0.04,0.36-0.12,0.77-0.47c0.41-0.35,0.65-0.6,0.7-0.75l-0.25-0.09L78.19,49l-0.85,0l-0.73,1.52
			C76.66,50.64,76.73,50.71,76.81,50.74z M76.9,51.11c0.15,0.02,0.28,0,0.4-0.04c0.12-0.04,0.2-0.11,0.23-0.21l0.04-0.18
			C77.23,50.84,77,50.98,76.9,51.11z M77.4,48.38c0.07,0.15,0.12,0.23,0.15,0.24c0.09-0.25,0.32-0.43,0.68-0.55
			c0.05-0.02,0.14-0.07,0.29-0.13c0.15-0.07,0.27-0.17,0.36-0.31l-0.08-0.03c-0.17-0.06-0.43-0.06-0.8,0.01
			c-0.37,0.06-0.59,0.21-0.68,0.45C77.31,48.13,77.34,48.24,77.4,48.38z M77.77,49.84l-0.2-0.07l0.25-0.05L77.77,49.84z
			 M78.61,35.13c0.27,0.06,0.51,0.02,0.72-0.13c-0.07-0.02-0.3-0.17-0.7-0.43c-0.37-0.27-0.62-0.43-0.74-0.47l-0.27,0.73
			C78.01,34.97,78.33,35.07,78.61,35.13z M78.32,48.25c-0.18,0.08-0.3,0.19-0.35,0.33c0.22,0.08,0.39,0.09,0.51,0.03
			c0.13-0.06,0.25-0.21,0.38-0.44l-0.07-0.05C78.66,48.12,78.5,48.17,78.32,48.25z M79.2,47.24l0.1-0.19l0.03-0.08
			c0.07-0.2,0.06-0.34-0.05-0.42l-1.17,0.79L79.2,47.24z M78.13,46.84c0.05,0.02,0.1,0,0.16-0.05c0.06-0.05,0.09-0.09,0.1-0.11
			l0.01-0.11C78.28,46.59,78.19,46.68,78.13,46.84z M79.26,46.09c0.21-0.1,0.36-0.29,0.47-0.59c0.02-0.07,0.05-0.15,0.08-0.26
			c0.03-0.1,0.04-0.18,0.05-0.24l-1.38,0.89l-0.12,0.33C78.75,46.23,79.05,46.19,79.26,46.09z M78.58,45.13
			c0,0.06,0.04,0.11,0.11,0.16c0.22-0.09,0.46-0.2,0.72-0.32c0.25-0.12,0.46-0.26,0.61-0.42c-0.27-0.1-0.54-0.12-0.83-0.06
			c-0.29,0.06-0.47,0.2-0.56,0.43C78.6,45.01,78.59,45.08,78.58,45.13z M79.92,35.2c-0.29,0-0.52,0.02-0.69,0.07l0.92,0.37
			c0.53,0.2,0.83,0.22,0.88,0.07c0.06-0.15-0.08-0.29-0.42-0.41C80.44,35.24,80.21,35.2,79.92,35.2z M79.34,43
			c-0.09,0.23-0.07,0.38,0.04,0.44c0.4-0.16,0.76-0.37,1.09-0.65c0.01-0.03,0.01-0.07-0.01-0.1c-0.02-0.03-0.03-0.06-0.04-0.09
			c-0.28-0.1-0.51-0.13-0.68-0.09c-0.17,0.04-0.29,0.18-0.38,0.41L79.34,43z M79.71,43.59c-0.21,0.17-0.34,0.36-0.42,0.56
			c0.2,0.07,0.4,0.1,0.59,0.09c0.19-0.01,0.32-0.1,0.38-0.27c0.08-0.22,0.09-0.45,0.03-0.7C80.11,43.31,79.91,43.41,79.71,43.59z
			 M80.32,41.11c-0.11,0.13-0.21,0.34-0.31,0.62c0.42-0.15,0.67-0.34,0.75-0.58L80.79,41C80.58,40.94,80.43,40.98,80.32,41.11z
			 M80.24,42.02l0.35,0.13l0.23-0.63L80.24,42.02z M81.21,40.08c-0.18,0.19-0.33,0.36-0.44,0.51l0.13,0.11
			c0.22,0.08,0.4-0.08,0.55-0.48l0.17-0.54C81.53,39.76,81.39,39.89,81.21,40.08z M81.5,38.25c-0.13,0.13-0.25,0.26-0.36,0.39
			c0.13,0.05,0.34-0.01,0.62-0.17c0.28-0.16,0.46-0.35,0.54-0.57c0.01-0.03-0.01-0.09-0.07-0.17c-0.06-0.08-0.12-0.13-0.19-0.15
			c0.16-0.43,0.32-0.71,0.47-0.82c0.16-0.11,0.24-0.18,0.24-0.2l-0.2,0.55c0.18,0.07,0.43,0.04,0.74-0.07
			c0.31-0.11,0.5-0.27,0.57-0.47c-0.47-0.17-0.87-0.25-1.21-0.23c-0.34,0.02-0.58,0.22-0.72,0.6c-0.09,0.25-0.14,0.46-0.15,0.64
			c-0.01,0.18-0.03,0.31-0.06,0.39C81.71,38.03,81.63,38.12,81.5,38.25z M81.48,36.33c0.22,0.08,0.38,0.11,0.5,0.08
			c0.11-0.02,0.26-0.12,0.43-0.28l-0.38-0.2c-0.17-0.06-0.32-0.1-0.44-0.11c-0.13-0.01-0.25,0.05-0.35,0.18
			C81.21,36.15,81.3,36.26,81.48,36.33z M82.01,38.6c-0.05,0.08-0.14,0.17-0.29,0.28c-0.14,0.11-0.23,0.19-0.24,0.24
			c0.32,0,0.56-0.1,0.72-0.32c0.16-0.22,0.28-0.44,0.36-0.68c0.09-0.23,0.14-0.38,0.17-0.45L82.01,38.6z M83.94,37.23l0.15,0.06
			l0.11-0.3l-0.15-0.06L83.94,37.23z M85.49,37.8c0.02,0.01,0.06-0.01,0.12-0.06c0.06-0.04,0.11-0.09,0.15-0.13
			c0.06-0.17-0.12-0.33-0.53-0.48l-0.64-0.21l-0.17,0.48L85.49,37.8z M87.97,38.49c0.04-0.12,0.02-0.21-0.08-0.29
			c-0.1-0.07-0.28-0.16-0.55-0.26c-0.07-0.02-0.27-0.08-0.61-0.15c-0.34-0.08-0.56-0.12-0.66-0.11l0.09,0.15L87.97,38.49z"/>
	</g>
</g>
</svg>
