<?xml version="1.0" encoding="utf-8"?>
<!-- Generator: Adobe Illustrator 26.2.1, SVG Export Plug-In . SVG Version: 6.00 Build 0)  -->
<svg version="1.1" id="Capa_1" xmlns="http://www.w3.org/2000/svg" xmlns:xlink="http://www.w3.org/1999/xlink" x="0px" y="0px"
	 viewBox="0 0 258 86" style="enable-background:new 0 0 258 86;" xml:space="preserve">
<style type="text/css">
	.st0{fill:#87BBD8;}
	.st1{fill:#FFFFFF;}
</style>
<g>
	<path class="st0" d="M206.31,74.92H51.27c-6.6,0-12-5.4-12-12v-27c0-6.6,5.4-12,12-12h155.05c6.6,0,12,5.4,12,12v27
		C218.31,69.52,212.91,74.92,206.31,74.92z"/>
	<g>
		<path class="st1" d="M111.84,60.76h-0.29l0.06,1.21c0,0.06-0.03,0.14-0.08,0.24c-0.05,0.09-0.09,0.14-0.11,0.14h-0.98
			c0.02-0.25-0.27-0.38-0.89-0.38c-0.04,0-0.1,0.04-0.17,0.11c-0.07,0.07-0.11,0.16-0.11,0.27c-0.23-0.21-0.49-0.5-0.76-0.87
			s-0.41-0.67-0.41-0.9c0-0.06,0.02-0.14,0.06-0.22c0.04-0.08,0.08-0.15,0.13-0.19h-0.22c0-0.89,0.07-1.53,0.22-1.93
			c0-1.06,0.02-2.43,0.06-4.12l0.03-3.27c0-1.9-0.16-3.02-0.48-3.36c-0.02-0.08-0.04-0.22-0.06-0.41c-0.02-0.19-0.07-0.33-0.16-0.43
			c-0.08-0.09-0.21-0.14-0.38-0.14c-0.02,0-0.24,0.11-0.67,0.32c-0.4,0.23-0.7,0.38-0.89,0.44l-0.1,0.03l-0.1-0.03l0.19-0.19
			c-0.02-0.04-0.06-0.08-0.11-0.13c-0.05-0.04-0.11-0.06-0.17-0.06s-0.11,0.01-0.13,0.03c-0.21-0.42-0.36-0.78-0.46-1.06
			c-0.1-0.29-0.14-0.6-0.14-0.94c0-0.19,0.04-0.31,0.11-0.37c0.07-0.05,0.17-0.08,0.3-0.09s0.19-0.05,0.19-0.11
			c0.72-0.32,1.35-0.71,1.89-1.17c0.54-0.46,1.09-1.06,1.67-1.78h2.32c0,0.13,0.04,0.31,0.13,0.54c0.08,0.23,0.13,0.42,0.13,0.57
			v0.19c0,0.3-0.07,0.52-0.22,0.67h0.25c0,0.49-0.08,0.81-0.25,0.98h0.29c0,0.32-0.01,0.71-0.03,1.19
			c-0.02,0.48-0.04,0.86-0.06,1.16c-0.02,0.11-0.05,0.24-0.1,0.4c-0.04,0.16-0.07,0.29-0.1,0.4c0.02,0.02,0.05,0.05,0.1,0.1
			c0.04,0.04,0.07,0.07,0.1,0.09v3.33c0.15,0.04,0.22,0.2,0.22,0.48c0,0.32-0.07,0.49-0.22,0.51l0.19,0.16l-0.19,0.22l0.19,0.22
			v2.54l0.22,0.19V60.76z M111.24,58.44c0-0.23-0.02-0.4-0.05-0.49c-0.03-0.1-0.09-0.14-0.17-0.14c-0.13,0-0.33,0.04-0.6,0.11
			c-0.27,0.07-0.45,0.11-0.54,0.11c0.21,0,0.48-0.14,0.81-0.43c0.33-0.29,0.49-0.53,0.49-0.75h-0.92c0.06-0.04,0.17-0.11,0.32-0.19
			c0.15-0.08,0.26-0.18,0.35-0.29c0.08-0.11,0.13-0.22,0.13-0.35c0-0.15-0.04-0.24-0.13-0.29c-0.08-0.04-0.24-0.06-0.48-0.06
			c0.21-0.13,0.37-0.25,0.46-0.37c0.09-0.12,0.14-0.26,0.14-0.43c0-0.27-0.14-0.41-0.41-0.41c0.06-0.04,0.13-0.1,0.21-0.17
			c0.07-0.07,0.13-0.14,0.17-0.21c0-0.55-0.04-1.02-0.11-1.4c-0.07-0.38-0.29-0.57-0.65-0.57c-0.11,0-0.22,0.06-0.35,0.19
			c0.23-0.27,0.48-0.45,0.73-0.54V50l-0.19-0.19l0.19-0.22v-7.2c0-0.08-0.34-0.16-1.02-0.22c-0.19,0-0.31,0.07-0.35,0.22l0.22,0.19
			c-0.47,0.21-1,0.64-1.62,1.3c-0.49,0.49-0.87,0.83-1.14,1.02c-0.13,0.08-0.28,0.16-0.46,0.24c-0.18,0.07-0.31,0.17-0.4,0.3
			c-0.08,0.13-0.13,0.32-0.13,0.57c0.32,0,0.58-0.06,0.79-0.17c0.21-0.12,0.45-0.29,0.73-0.52c0.13-0.11,0.25-0.2,0.38-0.29
			c0.13-0.08,0.24-0.13,0.35-0.13c0.19,0,0.35,0.03,0.48,0.08s0.26,0.16,0.41,0.33c-0.11,0.02-0.17,0.06-0.21,0.13
			s-0.05,0.16-0.05,0.29c0,0.11,0.03,0.18,0.08,0.22c0.05,0.04,0.11,0.08,0.17,0.13c0,0.06-0.04,0.16-0.11,0.29
			s-0.11,0.23-0.11,0.32c0.21,0.72,0.34,1.32,0.38,1.79c0.04,0.48,0.06,1.42,0.06,2.84l-0.03,2.6c0.13,0.13,0.2,0.28,0.22,0.46
			c0.02,0.18,0.03,0.43,0.03,0.75h0.29l0.03,0.16c-0.02,0.02-0.07,0.06-0.14,0.11c-0.07,0.05-0.15,0.08-0.24,0.08
			c0,0.08-0.03,0.51-0.1,1.27c-0.06,0.38-0.1,0.75-0.1,1.11c0,0.15,0.02,0.25,0.06,0.3c0.04,0.05,0.16,0.08,0.35,0.08
			c-0.3,0.19-0.44,0.53-0.44,1.01c0.19,0,0.39-0.06,0.6-0.19c0.02-0.02,0.1-0.06,0.24-0.13s0.32-0.09,0.56-0.09
			c-0.13,0.17-0.38,0.36-0.76,0.57c-0.25,0.13-0.45,0.26-0.59,0.4c-0.14,0.14-0.21,0.33-0.21,0.59c0,0.72,0.71,1.08,2.13,1.08v-1.46
			l-0.38-0.22c0.25-0.08,0.42-0.21,0.49-0.38s0.11-0.38,0.11-0.63V58.44z M109.49,43.5l-0.6,0.25c0.36-0.53,0.81-0.79,1.36-0.79
			h0.19C110.27,43.19,109.96,43.37,109.49,43.5z M109.87,52.35c0-0.02,0.01-0.03,0.03-0.03C109.88,52.32,109.87,52.33,109.87,52.35z
			 M110.51,60.57c0.04,0,0.11,0.02,0.19,0.06s0.13,0.08,0.13,0.13c-0.15,0.06-0.32,0.11-0.52,0.14c-0.2,0.03-0.34,0.05-0.43,0.05
			c0.06-0.06,0.15-0.13,0.27-0.21c0.12-0.07,0.22-0.13,0.3-0.17H110.51z"/>
		<path class="st1" d="M116.46,49.46c0.05-0.06,0.11-0.12,0.17-0.16c0.13,0,0.32,0.03,0.59,0.1s0.48,0.09,0.65,0.09
			c0.3,0,0.5-0.03,0.6-0.09c0.11-0.06,0.19-0.1,0.25-0.1c0.04,0,0.11,0.06,0.21,0.17s0.14,0.22,0.14,0.3
			c-0.04,0.06-0.08,0.14-0.13,0.22c-0.04,0.08-0.06,0.14-0.06,0.16c0,0.04,0.03,0.13,0.1,0.25s0.1,0.23,0.1,0.32
			c0,0.15-0.14,0.28-0.43,0.38c-0.29,0.11-0.52,0.16-0.71,0.16v-0.19c-0.15,0.06-0.32,0.13-0.51,0.19c-0.19,0.06-0.35,0.1-0.48,0.1
			c-0.04,0-0.1-0.02-0.16-0.05c-0.06-0.03-0.12-0.07-0.16-0.11l-0.29-1.59C116.37,49.58,116.4,49.52,116.46,49.46z M116.6,58.57
			c0.06-0.51,0.09-0.78,0.09-0.83c1.04,0,1.71,0.09,2.03,0.27c0.32,0.18,0.48,0.43,0.48,0.75l-0.03,0.35c0,0.23,0.13,0.39,0.38,0.48
			c-0.13,0.04-0.19,0.17-0.19,0.38c0,0.15-0.22,0.25-0.67,0.32c-0.44,0.06-0.84,0.1-1.17,0.1c-0.32,0-0.57-0.08-0.76-0.24
			c-0.19-0.16-0.29-0.4-0.29-0.71C116.47,59.23,116.51,58.95,116.6,58.57z M117.9,59.38c-0.08,0.14-0.13,0.25-0.13,0.33
			c0.08,0,0.18-0.05,0.29-0.14c0.11-0.09,0.17-0.14,0.19-0.14c0.04,0,0.11,0.03,0.19,0.08c0.08,0.05,0.14,0.08,0.16,0.08l0.03-0.29
			c0-0.17-0.06-0.3-0.19-0.38c-0.13-0.08-0.19-0.14-0.19-0.16c0-0.06,0.02-0.13,0.06-0.19c0.04-0.06,0.07-0.11,0.1-0.13
			c-0.11,0.06-0.27,0.12-0.49,0.17s-0.39,0.11-0.49,0.17c-0.11,0.06-0.16,0.19-0.16,0.38l0.03,0.25c0.11-0.11,0.24-0.19,0.41-0.25
			s0.3-0.09,0.38-0.09C118.05,59.14,117.98,59.24,117.9,59.38z M117.39,50.48c0.21,0,0.43-0.02,0.67-0.05
			c0.23-0.03,0.35-0.07,0.35-0.11c0-0.17-0.16-0.25-0.48-0.25C117.57,50.06,117.39,50.2,117.39,50.48z"/>
		<path class="st1" d="M141.66,47.8c0.53,1.51,0.79,2.54,0.79,3.09c0,0.23-0.03,0.54-0.09,0.92s-0.16,0.66-0.29,0.82v2.54
			c-0.25,0.23-0.47,0.51-0.63,0.84c-0.17,0.33-0.25,0.65-0.25,0.97c0,0.19,0.03,0.37,0.1,0.54c-0.23,0.08-0.39,0.2-0.46,0.35
			c-0.07,0.15-0.13,0.34-0.17,0.57c-0.04,0.23-0.09,0.41-0.14,0.54c-0.05,0.13-0.17,0.22-0.37,0.29c0-0.04,0.03-0.13,0.08-0.25
			s0.08-0.23,0.08-0.32c-0.36,0.55-0.6,0.83-0.73,0.83c-0.02,0-0.03-0.01-0.03-0.03c-0.36,0.89-0.94,1.47-1.75,1.75l0.57-0.57
			c-0.28,0-0.54,0.08-0.79,0.25c-0.25,0.17-0.46,0.28-0.6,0.32c-0.17,0.06-1.02,0.2-2.54,0.41l-0.44-0.03
			c-0.21,0-0.33,0.06-0.35,0.19l0.73-0.03c0.44,0,0.67,0.08,0.67,0.25c-0.55,0.11-1.17,0.2-1.86,0.27
			c-0.69,0.07-1.27,0.11-1.76,0.11c-0.74-0.21-1.47-0.5-2.19-0.87c-0.72-0.37-1.14-0.59-1.27-0.65l-0.76-0.38l-0.38-0.22
			c-1.97-2.47-2.95-5.41-2.95-8.82c0-1.27,0.21-2.55,0.63-3.85c0.42-1.3,1.04-2.49,1.84-3.57c0.8-1.08,1.75-1.92,2.82-2.54
			l0.57-0.29c0.63-0.34,1.16-0.58,1.57-0.73c0.41-0.15,0.87-0.22,1.38-0.22c1.25,0,2.6,0.47,4.04,1.4c1.45,0.93,2.64,1.98,3.57,3.14
			C140.68,45.28,141.13,46.28,141.66,47.8z M124.85,52.86c0.11-0.06,0.31-0.17,0.6-0.33c0.3-0.16,0.53-0.31,0.7-0.44
			c0.17-0.14,0.25-0.27,0.25-0.4l-1.55-0.41c-0.13,0-0.19,0.29-0.19,0.86l-0.03,0.32C124.62,52.7,124.7,52.83,124.85,52.86z
			 M124.8,50.27c-0.07,0.41-0.12,0.69-0.14,0.84c0.53-0.23,0.99-0.48,1.38-0.73c0.39-0.25,0.59-0.54,0.59-0.86
			c0-0.19-0.15-0.34-0.44-0.44c-0.3-0.11-0.54-0.16-0.73-0.16c-0.02,0-0.16,0.06-0.41,0.19C124.95,49.47,124.87,49.86,124.8,50.27z
			 M126.56,52.87c-0.06-0.31-0.15-0.46-0.25-0.46c-0.23,0-0.49,0.13-0.76,0.4s-0.44,0.52-0.51,0.78h1.62
			C126.65,53.42,126.62,53.18,126.56,52.87z M125.24,55.03c0.14,0.26,0.24,0.4,0.3,0.4c0.23,0,0.47-0.14,0.71-0.43
			c0.24-0.29,0.36-0.56,0.36-0.81L125.45,54c-0.04,0-0.12,0.07-0.24,0.21c-0.12,0.14-0.17,0.23-0.17,0.27
			C125.04,54.58,125.1,54.76,125.24,55.03z M125.54,48.43c-0.11,0.05-0.21,0.09-0.32,0.11c0.63,0.13,0.98,0.19,1.05,0.19
			c0-0.11-0.05-0.2-0.14-0.27s-0.22-0.11-0.36-0.11C125.72,48.35,125.65,48.38,125.54,48.43z M126.62,50.45
			c-0.17,0-0.41,0.05-0.71,0.14c-0.31,0.1-0.46,0.2-0.46,0.3v0.22h1.17V50.45z M125.64,55.96h1.24c0-0.21-0.02-0.4-0.06-0.55
			c-0.04-0.16-0.11-0.24-0.19-0.24l-0.98,0.6V55.96z M126.21,57.74l0.79-0.98c0-0.11-0.13-0.18-0.4-0.22
			c-0.26-0.04-0.53-0.06-0.81-0.06v0.32c0,0.66,0.11,0.98,0.32,0.98L126.21,57.74z M126.34,45.56c-0.13,0.23-0.19,0.46-0.19,0.67
			c0.3,0,0.58-0.04,0.84-0.11c0.26-0.07,0.4-0.19,0.4-0.33l-0.57-0.76C126.62,45.15,126.46,45.33,126.34,45.56z M127.3,47.3
			c0.05-0.04,0.08-0.16,0.08-0.35h-0.19c-0.25,0-0.44,0.06-0.57,0.19c0.02,0.11,0.06,0.17,0.13,0.19c0.06,0.02,0.15,0.03,0.25,0.03
			C127.15,47.37,127.25,47.35,127.3,47.3z M127.19,57.93l-0.57-0.19c0.04,0.17,0.32,0.25,0.82,0.25c0-0.25-0.02-0.38-0.06-0.38
			S127.28,57.72,127.19,57.93z M127.99,59.34c0.13-0.09,0.19-0.2,0.19-0.3c0-0.25-0.1-0.41-0.29-0.48s-0.42-0.09-0.7-0.09
			l-0.57,0.03c0.34,0.66,0.7,0.98,1.08,0.98C127.76,59.49,127.86,59.44,127.99,59.34z M136.66,58.65c0.88-0.69,1.54-1.59,1.98-2.7
			s0.67-2.29,0.67-3.54c-0.02-0.08-0.05-0.21-0.08-0.37c-0.03-0.16-0.07-0.28-0.11-0.36c-0.02-0.21-0.07-0.56-0.14-1.03
			s-0.15-0.85-0.24-1.13c-0.15-0.42-0.34-0.91-0.57-1.46c-0.68-1.75-1-2.64-0.98-2.66c-0.59-0.63-1.18-1.15-1.76-1.55
			c-0.58-0.4-1.19-0.6-1.82-0.6c-0.34,0-0.62,0.06-0.86,0.17c-0.23,0.12-0.53,0.29-0.89,0.52c-0.27,0.21-0.52,0.38-0.75,0.49
			s-0.48,0.17-0.78,0.17c-0.99,0.68-1.73,1.73-2.22,3.16c-0.49,1.43-0.73,2.86-0.73,4.3c0,1.65,0.16,3.02,0.49,4.11
			c0.33,1.09,0.94,1.95,1.82,2.57s2.15,0.94,3.77,0.94C134.72,59.68,135.79,59.33,136.66,58.65z M127.99,44.89
			c0,0.11,0.03,0.19,0.1,0.24s0.13,0.08,0.19,0.08c0.04,0,0.1-0.02,0.17-0.05c0.07-0.03,0.11-0.08,0.11-0.14l-0.57-0.22V44.89z
			 M128.18,59.74c0.06,0,0.16-0.03,0.29-0.09c0.13-0.06,0.22-0.12,0.29-0.16h-0.57V59.74z M129.41,59.8c-0.53,0-0.81,0.09-0.86,0.29
			l0.41,0.38C129.27,60.24,129.41,60.02,129.41,59.8z M129.08,42.75c-0.14,0.07-0.25,0.16-0.33,0.27c0.13,0.21,0.31,0.37,0.54,0.48
			c0.23,0.11,0.48,0.16,0.73,0.16c0-0.19-0.05-0.41-0.16-0.65c-0.11-0.24-0.24-0.37-0.41-0.37
			C129.34,42.64,129.22,42.68,129.08,42.75z M129.7,60.47c0.19,0,0.34-0.06,0.44-0.19l-0.22-0.03c-0.19,0-0.32,0.07-0.38,0.22H129.7
			z M132.13,61.12c0.2-0.09,0.38-0.25,0.55-0.46c-1.02-0.13-1.61-0.19-1.78-0.19c-0.02,0-0.04,0.01-0.05,0.02
			c-0.01,0.01-0.03,0.02-0.05,0.02l-0.29-0.03c-0.28,0-0.41,0.1-0.41,0.29l0.03,0.09c0.21,0.19,0.4,0.31,0.56,0.35
			c0.16,0.04,0.39,0.06,0.68,0.06S131.92,61.22,132.13,61.12z M130.87,41.78c-0.11,0.04-0.16,0.14-0.16,0.29
			c0,0.08,0.01,0.16,0.03,0.22c0.02,0.06,0.07,0.12,0.16,0.16c0.08-0.04,0.16-0.16,0.22-0.37s0.13-0.32,0.19-0.37
			C131.13,41.72,130.98,41.74,130.87,41.78z M131.73,41.72h0.95c-0.08,0.04-0.18,0.12-0.29,0.24c-0.11,0.12-0.16,0.23-0.16,0.33
			h1.24l0.16-0.41c0.15,0.19,0.34,0.35,0.59,0.48c0.24,0.13,0.54,0.25,0.9,0.38l0.67,0.29l0.41-0.35c-0.25-0.36-0.53-0.6-0.84-0.71
			s-0.69-0.17-1.16-0.17l0.03-0.25c0-0.17-0.06-0.25-0.19-0.25l-0.41,0.22c-0.04-0.02-0.07-0.05-0.08-0.09
			c-0.01-0.04-0.05-0.07-0.13-0.1c-0.07-0.02-0.2-0.03-0.36-0.03C132.3,41.28,131.86,41.42,131.73,41.72z M134.2,60.66l-0.57-0.03
			h-0.22c-0.42,0-0.67,0.15-0.73,0.44l0.44,0.03C133.72,61.1,134.08,60.96,134.2,60.66z M141.39,53.49
			c-0.07-0.19-0.11-0.35-0.11-0.48c0.02-0.02,0.05-0.05,0.09-0.08c0.04-0.03,0.07-0.06,0.09-0.08c0.13-0.17,0.2-0.47,0.22-0.9
			c0.02-0.43,0.03-1.05,0.03-1.86h-0.29c0-0.66-0.14-1.37-0.41-2.14c-0.28-0.77-0.66-1.43-1.16-1.97c-0.5-0.54-1.06-0.81-1.7-0.81
			c-0.15,0-0.22,0.03-0.22,0.1c0,0.25,0.18,0.38,0.54,0.38c0.25,0,0.4-0.02,0.44-0.06l-0.38,0.6c0.08,0.02,0.14,0.12,0.16,0.3
			c0.02,0.18,0.03,0.29,0.03,0.33c0.02,0.25,0.05,0.45,0.09,0.59c0.04,0.14,0.12,0.21,0.22,0.21c0.08,0,0.17-0.03,0.25-0.1
			l-0.38,0.6c0.08,0.08,0.15,0.23,0.21,0.44c0.05,0.21,0.11,0.37,0.17,0.48c0.06,0.11,0.19,0.16,0.38,0.16
			c0.21,0,0.36-0.03,0.44-0.1c-0.19,0.13-0.31,0.3-0.37,0.51c-0.05,0.21-0.08,0.47-0.08,0.76c0,0.34,0.07,0.51,0.22,0.51
			c0.06-0.02,0.13-0.05,0.21-0.1c0.07-0.04,0.13-0.08,0.17-0.13c-0.08,0.19-0.17,0.4-0.25,0.63c-0.08,0.23-0.13,0.41-0.13,0.54
			c0,0.19,0.06,0.52,0.19,0.98c0.13,0.47,0.19,0.79,0.19,0.98c0,0.38-0.16,1-0.49,1.86c-0.33,0.86-0.72,1.65-1.17,2.38
			c-0.46,0.73-0.87,1.14-1.25,1.22c0.13,0.13,0.19,0.23,0.19,0.32c0,0.02-0.15,0.08-0.46,0.17c-0.31,0.1-0.59,0.21-0.86,0.35
			c-0.26,0.14-0.42,0.32-0.46,0.55c0-0.06-0.05-0.14-0.14-0.24c-0.09-0.09-0.16-0.14-0.21-0.14c-0.11,0-0.27,0.07-0.51,0.21
			c-0.23,0.14-0.4,0.26-0.51,0.37c0.06,0.04,0.18,0.09,0.36,0.14c0.18,0.05,0.32,0.08,0.43,0.08c0.42,0,1.08-0.17,1.98-0.51
			c0.9-0.34,1.35-0.57,1.35-0.7V59.2c0.06,0,0.15,0.01,0.25,0.03c0.11,0.02,0.21,0.03,0.32,0.03c0.27,0,0.41-0.12,0.41-0.35
			c0-0.11-0.04-0.22-0.13-0.33c-0.08-0.12-0.13-0.24-0.13-0.36l0.03-0.29c0.08,0,0.19,0.03,0.3,0.1s0.2,0.09,0.24,0.09
			c0.15,0,0.35-0.29,0.6-0.87c0.25-0.58,0.49-1.22,0.71-1.92c0.22-0.7,0.33-1.14,0.33-1.33C141.5,53.85,141.46,53.68,141.39,53.49z
			 M136.27,61.74c0.3-0.08,0.53-0.13,0.7-0.13v0.19c0,0.06-0.2,0.13-0.6,0.19c-0.4,0.06-0.71,0.09-0.92,0.09v-0.22
			C135.59,61.89,135.86,61.84,136.27,61.74z M136.68,42.91c-0.08-0.07-0.19-0.11-0.32-0.11c0,0.44,0.07,0.67,0.22,0.67
			c0.06,0,0.13-0.03,0.21-0.08c0.07-0.05,0.13-0.1,0.17-0.14C136.86,43.1,136.76,42.98,136.68,42.91z M136.93,43.59
			c0,0.19,0.05,0.32,0.16,0.38c0.11,0.06,0.26,0.09,0.48,0.09l0.57-0.03C137.97,43.74,137.57,43.59,136.93,43.59z M138.79,44.51
			c-0.22-0.13-0.36-0.22-0.43-0.29c-0.06,0-0.15,0.05-0.25,0.16c-0.11,0.11-0.16,0.18-0.16,0.22c0.02,0.17,0.22,0.25,0.6,0.25
			c0.02,0,0.08-0.01,0.19-0.03c0.11-0.02,0.23-0.03,0.38-0.03C139.12,44.73,139.01,44.64,138.79,44.51z"/>
		<path class="st1" d="M163.52,47.8c0.53,1.51,0.79,2.54,0.79,3.09c0,0.23-0.03,0.54-0.09,0.92c-0.06,0.38-0.16,0.66-0.29,0.82v2.54
			c-0.25,0.23-0.46,0.51-0.63,0.84c-0.17,0.33-0.25,0.65-0.25,0.97c0,0.19,0.03,0.37,0.09,0.54c-0.23,0.08-0.39,0.2-0.46,0.35
			c-0.07,0.15-0.13,0.34-0.17,0.57c-0.04,0.23-0.09,0.41-0.14,0.54s-0.17,0.22-0.36,0.29c0-0.04,0.03-0.13,0.08-0.25
			c0.05-0.13,0.08-0.23,0.08-0.32c-0.36,0.55-0.6,0.83-0.73,0.83c-0.02,0-0.03-0.01-0.03-0.03c-0.36,0.89-0.94,1.47-1.74,1.75
			l0.57-0.57c-0.27,0-0.54,0.08-0.79,0.25c-0.25,0.17-0.46,0.28-0.6,0.32c-0.17,0.06-1.02,0.2-2.54,0.41l-0.44-0.03
			c-0.21,0-0.33,0.06-0.35,0.19l0.73-0.03c0.44,0,0.67,0.08,0.67,0.25c-0.55,0.11-1.17,0.2-1.86,0.27s-1.27,0.11-1.76,0.11
			c-0.74-0.21-1.47-0.5-2.19-0.87c-0.72-0.37-1.14-0.59-1.27-0.65l-0.76-0.38l-0.38-0.22c-1.97-2.47-2.95-5.41-2.95-8.82
			c0-1.27,0.21-2.55,0.63-3.85c0.42-1.3,1.04-2.49,1.84-3.57c0.8-1.08,1.75-1.92,2.82-2.54l0.57-0.29c0.63-0.34,1.16-0.58,1.57-0.73
			c0.41-0.15,0.87-0.22,1.38-0.22c1.25,0,2.6,0.47,4.04,1.4c1.45,0.93,2.64,1.98,3.57,3.14C162.53,45.28,162.99,46.28,163.52,47.8z
			 M146.7,52.86c0.11-0.06,0.31-0.17,0.6-0.33c0.3-0.16,0.53-0.31,0.7-0.44c0.17-0.14,0.25-0.27,0.25-0.4l-1.55-0.41
			c-0.13,0-0.19,0.29-0.19,0.86l-0.03,0.32C146.48,52.7,146.56,52.83,146.7,52.86z M146.66,50.27c-0.07,0.41-0.12,0.69-0.14,0.84
			c0.53-0.23,0.99-0.48,1.38-0.73c0.39-0.25,0.59-0.54,0.59-0.86c0-0.19-0.15-0.34-0.44-0.44c-0.3-0.11-0.54-0.16-0.73-0.16
			c-0.02,0-0.16,0.06-0.41,0.19C146.81,49.47,146.73,49.86,146.66,50.27z M148.42,52.87c-0.06-0.31-0.15-0.46-0.25-0.46
			c-0.23,0-0.49,0.13-0.76,0.4c-0.27,0.26-0.44,0.52-0.51,0.78h1.62C148.51,53.42,148.48,53.18,148.42,52.87z M147.1,55.03
			c0.14,0.26,0.24,0.4,0.3,0.4c0.23,0,0.47-0.14,0.71-0.43c0.24-0.29,0.37-0.56,0.37-0.81L147.31,54c-0.04,0-0.12,0.07-0.24,0.21
			c-0.12,0.14-0.17,0.23-0.17,0.27C146.89,54.58,146.96,54.76,147.1,55.03z M147.4,48.43c-0.11,0.05-0.21,0.09-0.32,0.11
			c0.63,0.13,0.98,0.19,1.05,0.19c0-0.11-0.05-0.2-0.14-0.27c-0.09-0.07-0.22-0.11-0.36-0.11C147.58,48.35,147.51,48.38,147.4,48.43
			z M148.48,50.45c-0.17,0-0.41,0.05-0.71,0.14c-0.31,0.1-0.46,0.2-0.46,0.3v0.22h1.17V50.45z M147.5,55.96h1.24
			c0-0.21-0.02-0.4-0.06-0.55c-0.04-0.16-0.11-0.24-0.19-0.24l-0.98,0.6V55.96z M148.07,57.74l0.79-0.98c0-0.11-0.13-0.18-0.4-0.22
			c-0.26-0.04-0.54-0.06-0.81-0.06v0.32c0,0.66,0.11,0.98,0.32,0.98L148.07,57.74z M148.19,45.56c-0.13,0.23-0.19,0.46-0.19,0.67
			c0.3,0,0.58-0.04,0.84-0.11s0.4-0.19,0.4-0.33l-0.57-0.76C148.48,45.15,148.32,45.33,148.19,45.56z M149.16,47.3
			c0.05-0.04,0.08-0.16,0.08-0.35h-0.19c-0.25,0-0.44,0.06-0.57,0.19c0.02,0.11,0.06,0.17,0.13,0.19c0.06,0.02,0.15,0.03,0.25,0.03
			C149.01,47.37,149.11,47.35,149.16,47.3z M149.05,57.93l-0.57-0.19c0.04,0.17,0.32,0.25,0.82,0.25c0-0.25-0.02-0.38-0.06-0.38
			C149.2,57.62,149.14,57.72,149.05,57.93z M149.84,59.34c0.13-0.09,0.19-0.2,0.19-0.3c0-0.25-0.1-0.41-0.29-0.48
			s-0.42-0.09-0.7-0.09l-0.57,0.03c0.34,0.66,0.7,0.98,1.08,0.98C149.62,59.49,149.72,59.44,149.84,59.34z M158.52,58.65
			c0.88-0.69,1.54-1.59,1.98-2.7s0.67-2.29,0.67-3.54c-0.02-0.08-0.05-0.21-0.08-0.37c-0.03-0.16-0.07-0.28-0.11-0.36
			c-0.02-0.21-0.07-0.56-0.14-1.03c-0.07-0.48-0.15-0.85-0.24-1.13c-0.15-0.42-0.34-0.91-0.57-1.46c-0.68-1.75-1-2.64-0.98-2.66
			c-0.59-0.63-1.18-1.15-1.76-1.55c-0.58-0.4-1.19-0.6-1.82-0.6c-0.34,0-0.62,0.06-0.86,0.17c-0.23,0.12-0.53,0.29-0.89,0.52
			c-0.28,0.21-0.52,0.38-0.75,0.49c-0.22,0.12-0.48,0.17-0.78,0.17c-1,0.68-1.73,1.73-2.22,3.16c-0.49,1.43-0.73,2.86-0.73,4.3
			c0,1.65,0.16,3.02,0.49,4.11c0.33,1.09,0.94,1.95,1.82,2.57c0.89,0.62,2.15,0.94,3.78,0.94
			C156.58,59.68,157.64,59.33,158.52,58.65z M149.84,44.89c0,0.11,0.03,0.19,0.09,0.24s0.13,0.08,0.19,0.08
			c0.04,0,0.1-0.02,0.17-0.05c0.07-0.03,0.11-0.08,0.11-0.14l-0.57-0.22V44.89z M150.04,59.74c0.06,0,0.16-0.03,0.29-0.09
			s0.22-0.12,0.29-0.16h-0.57V59.74z M151.27,59.8c-0.53,0-0.81,0.09-0.86,0.29l0.41,0.38C151.12,60.24,151.27,60.02,151.27,59.8z
			 M150.94,42.75c-0.14,0.07-0.25,0.16-0.33,0.27c0.13,0.21,0.31,0.37,0.54,0.48c0.23,0.11,0.48,0.16,0.73,0.16
			c0-0.19-0.05-0.41-0.16-0.65s-0.24-0.37-0.41-0.37C151.2,42.64,151.08,42.68,150.94,42.75z M151.56,60.47
			c0.19,0,0.34-0.06,0.44-0.19l-0.22-0.03c-0.19,0-0.32,0.07-0.38,0.22H151.56z M153.98,61.12c0.2-0.09,0.39-0.25,0.56-0.46
			c-1.02-0.13-1.61-0.19-1.78-0.19c-0.02,0-0.04,0.01-0.05,0.02c-0.01,0.01-0.03,0.02-0.05,0.02l-0.29-0.03
			c-0.28,0-0.41,0.1-0.41,0.29l0.03,0.09c0.21,0.19,0.4,0.31,0.55,0.35c0.16,0.04,0.39,0.06,0.68,0.06
			C153.54,61.26,153.78,61.22,153.98,61.12z M152.73,41.78c-0.11,0.04-0.16,0.14-0.16,0.29c0,0.08,0.01,0.16,0.03,0.22
			c0.02,0.06,0.07,0.12,0.16,0.16c0.08-0.04,0.16-0.16,0.22-0.37s0.13-0.32,0.19-0.37C152.99,41.72,152.84,41.74,152.73,41.78z
			 M153.59,41.72h0.95c-0.08,0.04-0.18,0.12-0.29,0.24s-0.16,0.23-0.16,0.33h1.24l0.16-0.41c0.15,0.19,0.34,0.35,0.59,0.48
			s0.54,0.25,0.9,0.38l0.67,0.29l0.41-0.35c-0.25-0.36-0.53-0.6-0.84-0.71c-0.31-0.12-0.69-0.17-1.16-0.17l0.03-0.25
			c0-0.17-0.06-0.25-0.19-0.25l-0.41,0.22c-0.04-0.02-0.07-0.05-0.08-0.09c-0.01-0.04-0.05-0.07-0.13-0.1
			c-0.07-0.02-0.2-0.03-0.37-0.03C154.16,41.28,153.71,41.42,153.59,41.72z M156.06,60.66l-0.57-0.03h-0.22
			c-0.42,0-0.67,0.15-0.73,0.44l0.44,0.03C155.58,61.1,155.94,60.96,156.06,60.66z M163.25,53.49c-0.07-0.19-0.11-0.35-0.11-0.48
			c0.02-0.02,0.05-0.05,0.09-0.08c0.04-0.03,0.07-0.06,0.1-0.08c0.13-0.17,0.2-0.47,0.22-0.9c0.02-0.43,0.03-1.05,0.03-1.86h-0.29
			c0-0.66-0.14-1.37-0.41-2.14c-0.28-0.77-0.66-1.43-1.16-1.97c-0.5-0.54-1.06-0.81-1.7-0.81c-0.15,0-0.22,0.03-0.22,0.1
			c0,0.25,0.18,0.38,0.54,0.38c0.25,0,0.4-0.02,0.44-0.06l-0.38,0.6c0.08,0.02,0.14,0.12,0.16,0.3c0.02,0.18,0.03,0.29,0.03,0.33
			c0.02,0.25,0.05,0.45,0.1,0.59c0.04,0.14,0.12,0.21,0.22,0.21c0.08,0,0.17-0.03,0.25-0.1l-0.38,0.6c0.08,0.08,0.15,0.23,0.21,0.44
			c0.05,0.21,0.11,0.37,0.17,0.48c0.06,0.11,0.19,0.16,0.38,0.16c0.21,0,0.36-0.03,0.44-0.1c-0.19,0.13-0.31,0.3-0.37,0.51
			c-0.05,0.21-0.08,0.47-0.08,0.76c0,0.34,0.07,0.51,0.22,0.51c0.06-0.02,0.13-0.05,0.21-0.1c0.07-0.04,0.13-0.08,0.17-0.13
			c-0.08,0.19-0.17,0.4-0.25,0.63c-0.08,0.23-0.13,0.41-0.13,0.54c0,0.19,0.06,0.52,0.19,0.98c0.13,0.47,0.19,0.79,0.19,0.98
			c0,0.38-0.16,1-0.49,1.86s-0.72,1.65-1.17,2.38c-0.45,0.73-0.87,1.14-1.25,1.22c0.13,0.13,0.19,0.23,0.19,0.32
			c0,0.02-0.15,0.08-0.46,0.17c-0.31,0.1-0.59,0.21-0.86,0.35s-0.42,0.32-0.46,0.55c0-0.06-0.05-0.14-0.14-0.24
			c-0.1-0.09-0.16-0.14-0.21-0.14c-0.11,0-0.28,0.07-0.51,0.21c-0.23,0.14-0.4,0.26-0.51,0.37c0.06,0.04,0.19,0.09,0.37,0.14
			c0.18,0.05,0.32,0.08,0.43,0.08c0.42,0,1.08-0.17,1.98-0.51c0.9-0.34,1.35-0.57,1.35-0.7V59.2c0.06,0,0.15,0.01,0.25,0.03
			c0.11,0.02,0.21,0.03,0.32,0.03c0.27,0,0.41-0.12,0.41-0.35c0-0.11-0.04-0.22-0.13-0.33c-0.08-0.12-0.13-0.24-0.13-0.36l0.03-0.29
			c0.08,0,0.18,0.03,0.3,0.1c0.12,0.06,0.2,0.09,0.24,0.09c0.15,0,0.35-0.29,0.6-0.87c0.25-0.58,0.49-1.22,0.71-1.92
			c0.22-0.7,0.33-1.14,0.33-1.33C163.36,53.85,163.32,53.68,163.25,53.49z M158.12,61.74c0.3-0.08,0.53-0.13,0.7-0.13v0.19
			c0,0.06-0.2,0.13-0.6,0.19c-0.4,0.06-0.71,0.09-0.92,0.09v-0.22C157.45,61.89,157.72,61.84,158.12,61.74z M158.54,42.91
			c-0.08-0.07-0.19-0.11-0.32-0.11c0,0.44,0.07,0.67,0.22,0.67c0.06,0,0.13-0.03,0.21-0.08s0.13-0.1,0.17-0.14
			C158.72,43.1,158.62,42.98,158.54,42.91z M158.79,43.59c0,0.19,0.05,0.32,0.16,0.38c0.11,0.06,0.26,0.09,0.48,0.09l0.57-0.03
			C159.83,43.74,159.42,43.59,158.79,43.59z M160.65,44.51c-0.22-0.13-0.37-0.22-0.43-0.29c-0.06,0-0.15,0.05-0.25,0.16
			c-0.11,0.11-0.16,0.18-0.16,0.22c0.02,0.17,0.22,0.25,0.6,0.25c0.02,0,0.08-0.01,0.19-0.03c0.11-0.02,0.23-0.03,0.38-0.03
			C160.98,44.73,160.87,44.64,160.65,44.51z"/>
	</g>
</g>
</svg>
